<svg id="Layer_1" enable-background="new 0 0 256 256" height="512" viewBox="0 0 256 256" width="512" xmlns="http://www.w3.org/2000/svg"><g><path d="m177.599 131.023h-46.548c-1.381 0-2.5-1.119-2.5-2.5s1.119-2.5 2.5-2.5h46.548c1.381 0 2.5 1.119 2.5 2.5s-1.12 2.5-2.5 2.5z" fill="#ebe7f2"/><g fill="#846f75"><path d="m105.591 109.223-2.465-30.564c-.026-.374.077-.749.291-1.059.773-1.118 1.182-2.428 1.182-3.785v-.858c0-1.381-1.119-2.5-2.5-2.5s-2.5 1.119-2.5 2.5v.858c0 .338-.102.664-.293.94-.857 1.238-1.272 2.747-1.166 4.277l.234 2.906h-9.662l.233-2.935c.104-1.502-.311-3.011-1.167-4.248-.192-.277-.294-.604-.294-.941v-.858c0-1.381-1.119-2.5-2.5-2.5s-2.5 1.119-2.5 2.5v.858c0 1.36.409 2.67 1.184 3.788.212.307.315.682.291 1.029l-2.702 33.965c-.176 2.538-1.264 4.927-3.063 6.728-4.641 4.641-7.196 10.81-7.196 17.372v50.984c0 4.177 3.397 7.575 7.574 7.575h29.939c4.177 0 7.575-3.398 7.575-7.575v-50.984c0-5.786-2.036-11.423-5.732-15.872-2.826-3.399-4.471-7.402-4.763-11.601zm-6.814-22.285.732 9.083h-11.918l.723-9.083zm7.616 75.801h4.693v16.136h-35.089v-16.136h4.693c1.381 0 2.5-1.119 2.5-2.5v-8.284c0-5.708 4.644-10.352 10.351-10.352 5.708 0 10.352 4.644 10.352 10.352v8.284c0 1.381 1.119 2.5 2.5 2.5zm2.118 27.517h-29.94c-1.419 0-2.574-1.155-2.574-2.575v-3.806h35.089v3.806c0 1.42-1.155 2.575-2.575 2.575zm2.575-32.517h-2.193v-5.784c0-8.465-6.887-15.352-15.352-15.352-8.464 0-15.351 6.887-15.351 15.352v5.784h-2.193v-21.043c0-5.227 2.035-10.141 5.732-13.837 2.652-2.654 4.256-6.176 4.514-9.892l.95-11.946h12.719l.692 8.575c.363 5.225 2.404 10.212 5.903 14.423 2.952 3.554 4.578 8.056 4.578 12.677v21.043z"/><path d="m84.257 68.185h18.568c2.515 0 4.561-2.046 4.561-4.56v-3.924c0-2.733-2.224-4.957-4.957-4.957h-17.776c-2.732 0-4.956 2.224-4.956 4.957v3.924c0 2.514 2.045 4.56 4.56 4.56zm18.129-8.441v3.44h-17.694l-.039-3.44z"/><path d="m194.745 131.038h-14.646v-7.419c0-3.283-2.672-5.955-5.955-5.955h-39.639c-3.283 0-5.954 2.672-5.954 5.955v62.065c0 5.047 4.106 9.153 9.153 9.153h33.24c5.048 0 9.154-4.106 9.154-9.153v-5.975h.051c9.427 0 17.096-7.669 17.096-17.096v-29.076c0-1.38-1.119-2.499-2.5-2.499zm-19.646 54.647c0 2.29-1.863 4.153-4.154 4.153h-33.24c-2.29 0-4.153-1.863-4.153-4.153v-62.065c0-.526.428-.955.954-.955h39.639c.526 0 .955.429.955.955v62.065zm17.146-23.071c0 6.67-5.426 12.096-12.096 12.096h-.051v-38.672h12.146v26.576z"/></g><g fill="#ebe7f2"><path d="m140.896 184.326c-1.381 0-2.5-1.119-2.5-2.5v-45.144c0-1.381 1.119-2.5 2.5-2.5s2.5 1.119 2.5 2.5v45.144c0 1.381-1.119 2.5-2.5 2.5z"/><path d="m148.915 184.326c-1.381 0-2.5-1.119-2.5-2.5v-45.144c0-1.381 1.119-2.5 2.5-2.5s2.5 1.119 2.5 2.5v45.144c0 1.381-1.119 2.5-2.5 2.5z"/><path d="m159.733 184.326c-1.381 0-2.5-1.119-2.5-2.5v-45.144c0-1.381 1.119-2.5 2.5-2.5s2.5 1.119 2.5 2.5v45.144c0 1.381-1.119 2.5-2.5 2.5z"/><path d="m167.752 184.326c-1.381 0-2.5-1.119-2.5-2.5v-45.144c0-1.381 1.119-2.5 2.5-2.5s2.5 1.119 2.5 2.5v45.144c0 1.381-1.119 2.5-2.5 2.5z"/></g><path d="m128 25.622c-56.451 0-102.378 45.927-102.378 102.378s45.927 102.378 102.378 102.378 102.378-45.927 102.378-102.378-45.927-102.378-102.378-102.378zm-97.378 102.378c0-53.694 43.684-97.378 97.378-97.378 25.95 0 49.561 10.205 67.033 26.81l-137.601 137.601c-16.605-17.472-26.81-41.083-26.81-67.033zm97.378 97.378c-25.95 0-49.561-10.205-67.033-26.81l137.601-137.601c16.605 17.473 26.81 41.083 26.81 67.033 0 53.694-43.684 97.378-97.378 97.378z" fill="#a58bc9"/></g></svg>