<svg id="Layer_1" enable-background="new 0 0 256 256" height="512" viewBox="0 0 256 256" width="512" xmlns="http://www.w3.org/2000/svg"><g><path d="m87.371 19.314c-25.047 0-41.876 17.922-41.876 44.597 0 14.043 4.352 28.772 11.939 40.411 8.222 12.613 18.854 19.56 29.937 19.56s21.715-6.946 29.938-19.56c7.587-11.639 11.939-26.368 11.939-40.411 0-26.675-16.83-44.597-41.877-44.597zm11.937 44.597c0 13.187-1.555 27.566-4.16 38.465-3.236 13.541-6.711 16.506-7.777 16.506s-4.541-2.965-7.777-16.506c-2.604-10.899-4.16-25.278-4.16-38.465 0-25.996 6.005-39.597 11.937-39.597s11.937 13.602 11.937 39.597zm-48.813 0c0-20.49 10.508-34.796 27.467-38.588-4.785 7.246-7.527 20.714-7.527 38.588 0 17.917 2.958 42.187 9.187 53.571-16.891-6.134-29.127-31.417-29.127-53.571zm44.626 53.571c6.229-11.384 9.187-35.654 9.187-53.571 0-17.874-2.742-31.342-7.527-38.588 16.959 3.792 27.467 18.098 27.467 38.588 0 22.154-12.237 47.437-29.127 53.571z" fill="#65c1d6"/><path d="m196.367 201.985c-1.381 0-2.5-1.119-2.5-2.5v-142.97c0-1.381 1.119-2.5 2.5-2.5s2.5 1.119 2.5 2.5v142.971c0 1.38-1.119 2.499-2.5 2.499z" fill="#ebe7f2"/><g fill="#846f75"><path d="m98.497 125.768c-1.381 0-2.5 1.119-2.5 2.5v94.792c0 4.756-3.87 8.625-8.626 8.625s-8.625-3.869-8.625-8.625v-94.792c0-1.381-1.119-2.5-2.5-2.5s-2.5 1.119-2.5 2.5v94.792c0 7.513 6.112 13.625 13.625 13.625s13.626-6.112 13.626-13.625v-94.792c0-1.381-1.119-2.5-2.5-2.5z"/><path d="m202.746 54.015h-50.992c-4.278 0-7.759 3.481-7.759 7.759v132.452c0 4.278 3.481 7.759 7.759 7.759h50.992c4.278 0 7.759-3.481 7.759-7.759v-132.452c0-4.278-3.481-7.759-7.759-7.759zm2.759 140.211c0 1.521-1.238 2.759-2.759 2.759h-50.992c-1.521 0-2.759-1.238-2.759-2.759v-132.452c0-1.521 1.238-2.759 2.759-2.759h50.992c1.521 0 2.759 1.238 2.759 2.759z"/></g><g fill="#65c1d6"><path d="m188.783 47.574c-1.381 0-2.5-1.119-2.5-2.5v-11.726c0-4.981-4.052-9.033-9.033-9.033s-9.033 4.052-9.033 9.033v11.727c0 1.381-1.119 2.5-2.5 2.5s-2.5-1.119-2.5-2.5v-11.727c0-7.738 6.295-14.033 14.033-14.033s14.033 6.295 14.033 14.033v11.727c0 1.38-1.119 2.499-2.5 2.499z"/><path d="m177.25 236.686c-7.738 0-14.033-6.295-14.033-14.033v-11.727c0-1.381 1.119-2.5 2.5-2.5s2.5 1.119 2.5 2.5v11.727c0 4.981 4.052 9.033 9.033 9.033s9.033-4.052 9.033-9.033v-11.727c0-1.381 1.119-2.5 2.5-2.5s2.5 1.119 2.5 2.5v11.727c0 7.737-6.296 14.033-14.033 14.033z"/></g></g></svg>