<svg id="Layer_1" enable-background="new 0 0 256 256" height="512" viewBox="0 0 256 256" width="512" xmlns="http://www.w3.org/2000/svg"><g><g fill="#ebe7f2"><path d="m128 146.307c-2.868 0-4.314-2.813-5.476-5.074-.355-.691-.925-1.8-1.29-2.225-.58.028-1.834.426-2.614.673-2.374.752-5.326 1.687-7.297-.281-1.971-1.972-1.035-4.926-.283-7.299.247-.78.645-2.033.673-2.613-.425-.365-1.534-.935-2.225-1.29-2.26-1.162-5.074-2.607-5.074-5.476 0-2.867 2.813-4.314 5.074-5.477.691-.355 1.799-.925 2.225-1.29-.029-.58-.426-1.833-.673-2.613-.752-2.373-1.688-5.327.283-7.298 1.97-1.971 4.925-1.035 7.298-.282.779.247 2.033.644 2.613.673.365-.426.935-1.533 1.29-2.225 1.162-2.261 2.608-5.074 5.476-5.074s4.314 2.813 5.476 5.074c.355.691.925 1.8 1.29 2.225.58-.028 1.834-.426 2.614-.673 2.372-.754 5.326-1.688 7.297.281 1.971 1.972 1.035 4.926.283 7.299-.247.78-.645 2.033-.673 2.613.425.365 1.534.935 2.225 1.29 2.261 1.162 5.074 2.609 5.074 5.477s-2.813 4.313-5.074 5.476c-.691.355-1.799.925-2.225 1.29.029.58.426 1.833.673 2.613.752 2.373 1.688 5.327-.283 7.298-1.97 1.971-4.924 1.034-7.298.282-.779-.247-2.033-.644-2.613-.673-.365.426-.935 1.533-1.29 2.225-1.162 2.26-2.608 5.074-5.476 5.074zm-6.665-12.298c.637 0 1.257.1 1.849.345 1.812.751 2.815 2.704 3.786 4.593.277.54.678 1.318 1.029 1.871.352-.553.752-1.331 1.029-1.871.971-1.889 1.975-3.842 3.787-4.593 1.861-.771 4.003-.096 6.073.562.517.164 1.246.395 1.842.538-.144-.597-.375-1.325-.538-1.843-.656-2.069-1.334-4.209-.561-6.073.75-1.812 2.704-2.815 4.593-3.786.54-.278 1.317-.678 1.87-1.029-.553-.352-1.331-.752-1.871-1.029-1.889-.972-3.842-1.976-4.593-3.788-.773-1.863-.095-4.003.561-6.073.164-.517.395-1.245.538-1.841-.596.144-1.324.374-1.841.538-2.07.655-4.21 1.331-6.075.561-1.812-.751-2.815-2.704-3.786-4.593-.277-.54-.678-1.318-1.029-1.871-.352.553-.752 1.331-1.029 1.871-.971 1.889-1.975 3.842-3.787 4.593-1.862.772-4.003.096-6.073-.562-.517-.164-1.246-.395-1.842-.538.144.597.375 1.325.538 1.843.656 2.069 1.334 4.209.561 6.073-.75 1.812-2.704 2.815-4.592 3.787-.54.277-1.318.678-1.871 1.029.553.352 1.331.751 1.87 1.029 1.889.971 3.842 1.975 4.593 3.787.773 1.863.095 4.003-.561 6.073-.164.517-.395 1.245-.538 1.841.596-.144 1.324-.374 1.841-.538 1.414-.448 2.86-.906 4.227-.906zm25.378-10.798h.01z"/><path d="m128 164.771c-3.916 0-6.863-2.822-9.464-5.313-1.538-1.474-2.991-2.864-4.335-3.422-1.454-.603-3.637-.663-5.749-.721-3.531-.098-7.532-.207-10.186-2.861-2.653-2.653-2.763-6.654-2.86-10.185-.058-2.112-.118-4.297-.721-5.75-.558-1.346-1.949-2.798-3.422-4.336-2.49-2.601-5.313-5.548-5.313-9.463 0-3.916 2.823-6.863 5.313-9.464 1.473-1.538 2.864-2.991 3.422-4.336.603-1.453.663-3.638.72-5.75.097-3.53.207-7.531 2.861-10.185 2.653-2.654 6.655-2.764 10.186-2.861 2.112-.058 4.295-.118 5.749-.721 1.345-.558 2.798-1.948 4.336-3.422 2.601-2.49 5.548-5.313 9.463-5.313 3.916 0 6.863 2.822 9.463 5.313 1.538 1.474 2.991 2.864 4.335 3.422 1.454.603 3.638.663 5.75.722 3.53.097 7.531.207 10.185 2.86s2.764 6.654 2.861 10.185c.058 2.112.118 4.297.721 5.75.558 1.345 1.949 2.798 3.422 4.336 2.49 2.601 5.313 5.548 5.313 9.464 0 3.915-2.823 6.862-5.313 9.463-1.473 1.538-2.864 2.99-3.422 4.336-.603 1.453-.663 3.638-.72 5.75-.097 3.53-.207 7.531-2.861 10.185-2.653 2.654-6.655 2.764-10.186 2.861-2.112.058-4.295.118-5.749.721-1.345.558-2.798 1.948-4.336 3.422-2.6 2.491-5.548 5.313-9.463 5.313zm0-79.1c-1.907 0-3.99 1.995-6.005 3.924-1.804 1.728-3.668 3.513-5.88 4.43-2.307.956-4.96 1.029-7.526 1.1-2.725.075-5.542.152-6.787 1.398-1.246 1.246-1.323 4.063-1.398 6.787-.071 2.566-.144 5.221-1.1 7.528-.917 2.21-2.703 4.075-4.43 5.878-1.929 2.015-3.924 4.099-3.924 6.006s1.995 3.99 3.924 6.004c1.727 1.804 3.513 3.668 4.43 5.879.957 2.308 1.03 4.962 1.101 7.528.075 2.725.152 5.541 1.397 6.787 1.246 1.246 4.063 1.323 6.788 1.398 2.566.07 5.22.144 7.527 1.1 2.211.917 4.075 2.702 5.878 4.43 2.015 1.929 4.098 3.924 6.006 3.924 1.907 0 3.991-1.995 6.005-3.924 1.803-1.728 3.668-3.513 5.879-4.43 2.307-.956 4.96-1.029 7.527-1.1 2.725-.075 5.542-.152 6.787-1.398 1.246-1.246 1.323-4.063 1.398-6.787.071-2.566.144-5.221 1.1-7.528.917-2.211 2.703-4.075 4.43-5.879 1.929-2.014 3.924-4.097 3.924-6.004s-1.995-3.991-3.924-6.006c-1.727-1.803-3.513-3.668-4.429-5.878-.957-2.308-1.03-4.962-1.101-7.528-.075-2.725-.152-5.541-1.397-6.787-1.246-1.245-4.063-1.323-6.787-1.397-2.566-.071-5.22-.145-7.527-1.101-2.211-.917-4.076-2.702-5.879-4.43-2.017-1.929-4.1-3.924-6.007-3.924z"/><path d="m128 182.441c-32.93 0-59.72-26.79-59.72-59.72s26.79-59.72 59.72-59.72c3.665 0 7.336.335 10.911.995 1.357.25 2.255 1.554 2.004 2.912s-1.552 2.252-2.913 2.004c-3.276-.604-6.642-.911-10.003-.911-30.173 0-54.72 24.548-54.72 54.721s24.547 54.72 54.72 54.72 54.72-24.547 54.72-54.72c0-6.179-1.021-12.24-3.034-18.017-.454-1.305.234-2.729 1.538-3.184 1.302-.459 2.729.233 3.184 1.537 2.198 6.307 3.313 12.923 3.313 19.663 0 32.93-26.79 59.72-59.72 59.72z"/></g><path d="m201.646 54.957c-.096-1.227-1.07-2.201-2.297-2.297-.872-.071-21.447-1.53-33.582 10.605s-10.674 32.712-10.605 33.582c.096 1.227 1.07 2.201 2.297 2.297.181.015 1.212.089 2.842.089 6.215 0 21.126-1.081 30.739-10.694 12.136-12.135 10.674-32.712 10.606-33.582zm-32.343 11.844c6.833-6.833 17.26-8.653 23.757-9.089l-32.854 32.855c.428-6.49 2.242-16.911 9.097-23.766zm18.202 18.203c-6.833 6.833-17.26 8.653-23.757 9.089l32.854-32.855c-.428 6.49-2.242 16.91-9.097 23.766z" fill="#f9b087"/><path d="m178.041 50.287c-3.771-12.902-14.505-22.189-14.96-22.578-.936-.799-2.313-.799-3.249 0-.663.567-16.247 14.084-16.247 31.246 0 6.379 2.147 12.975 6.383 19.605.477.747 1.285 1.154 2.109 1.154.46 0 .926-.127 1.343-.394 1.164-.743 1.504-2.289.761-3.452-3.714-5.814-5.597-11.505-5.597-16.914 0-9.662 6.086-18.323 10.371-23.226v27.042c0 1.381 1.119 2.5 2.5 2.5s2.5-1.119 2.5-2.5v-27.044c3.179 3.632 7.345 9.324 9.286 15.964.387 1.325 1.777 2.085 3.101 1.698 1.325-.387 2.086-1.776 1.699-3.101z" fill="#f9b087"/><g fill="#846f75"><path d="m193.631 92.74c-1.274.53-1.878 1.994-1.348 3.269 3.523 8.47 5.31 17.457 5.31 26.713 0 38.374-31.22 69.594-69.594 69.594s-69.594-31.22-69.594-69.594 31.221-69.594 69.595-69.594c3.494 0 7.004.261 10.432.776 1.368.208 2.639-.736 2.844-2.102s-.735-2.639-2.101-2.844c-3.673-.552-7.433-.831-11.175-.831-41.131 0-74.594 33.463-74.594 74.594s33.463 74.594 74.594 74.594 74.594-33.463 74.594-74.594c0-9.919-1.916-19.552-5.694-28.633-.531-1.274-1.994-1.876-3.269-1.348z"/><path d="m47.071 109.758c1.381 0 2.5-1.119 2.5-2.5s-1.119-2.5-2.5-2.5h-12.604c-1.381 0-2.5 1.119-2.5 2.5v30.927c0 1.381 1.119 2.5 2.5 2.5h12.604c1.381 0 2.5-1.119 2.5-2.5s-1.119-2.5-2.5-2.5h-10.104v-25.927z"/><path d="m221.533 104.758h-12.604c-1.381 0-2.5 1.119-2.5 2.5s1.119 2.5 2.5 2.5h10.104v25.927h-10.104c-1.381 0-2.5 1.119-2.5 2.5s1.119 2.5 2.5 2.5h12.604c1.381 0 2.5-1.119 2.5-2.5v-30.927c0-1.381-1.119-2.5-2.5-2.5z"/><path d="m159.408 204.957c-11.822 0-18.88 6.631-18.88 17.737 0 11.107 7.058 17.738 18.88 17.738 13.488 0 29.166-7.748 29.166-17.738 0-9.989-15.678-17.737-29.166-17.737zm0 30.476c-11.472 0-13.88-6.927-13.88-12.738s2.408-12.737 13.88-12.737c11.519 0 24.166 6.666 24.166 12.737s-12.648 12.738-24.166 12.738z"/><path d="m136.31 225.487h-.015s-41.897.18-49.46.162c-12.639-.032-12.675-.067-13.583-.971-.524-.522-.825-1.246-.825-1.984 0-1.54 1.253-2.793 2.793-2.793.145 0 34.133.14 61.048 0 1.38-.007 2.494-1.132 2.487-2.513-.007-1.377-1.125-2.487-2.5-2.487h-.014c-26.628.138-60.679 0-61.022 0-4.297 0-7.793 3.496-7.793 7.793 0 2.059.837 4.074 2.299 5.528 2.402 2.389 2.677 2.39 17.097 2.427 3.692.009 49.502-.162 49.502-.162 1.381-.008 2.494-1.134 2.485-2.515-.008-1.375-1.125-2.485-2.499-2.485z"/></g></g></svg>