<svg id="Layer_1" enable-background="new 0 0 256 256" height="512" viewBox="0 0 256 256" width="512" xmlns="http://www.w3.org/2000/svg"><g><path d="m165.519 90.989h-96.769c-1.381 0-2.5-1.119-2.5-2.5s1.119-2.5 2.5-2.5h96.769c1.381 0 2.5 1.119 2.5 2.5s-1.12 2.5-2.5 2.5z" fill="#ebe7f2"/><path d="m165.519 200.563h-96.769c-1.381 0-2.5-1.119-2.5-2.5s1.119-2.5 2.5-2.5h96.769c1.381 0 2.5 1.119 2.5 2.5s-1.12 2.5-2.5 2.5z" fill="#ebe7f2"/><path d="m190.245 33.395-1.745-9.096c-.125-.651-.503-1.227-1.052-1.599s-1.224-.512-1.874-.386l-36.081 6.923c-5.472 1.031-10.048 4.922-11.943 10.157l-5.216 14.475h-58.779c-4.325 0-7.845 3.52-7.845 7.845s3.52 7.845 7.845 7.845h4.412l-9.942 14.753c-1.514 2.248-2.314 4.867-2.314 7.577v103.822c0 2.71.801 5.329 2.314 7.577l9.942 14.753h-4.412c-4.325 0-7.845 3.52-7.845 7.845s3.52 7.845 7.845 7.845h88.094c4.325 0 7.845-3.52 7.845-7.845s-3.52-7.845-7.845-7.845h-4.412l9.942-14.753c1.514-2.248 2.314-4.867 2.314-7.577v-103.822c0-2.71-.801-5.329-2.314-7.577l-9.942-14.753h4.412c4.325 0 7.845-3.52 7.845-7.845s-3.52-7.845-7.845-7.845h-14.177l3.487-9.62c.186-.513.642-.896 1.197-1l36.104-6.929c1.357-.259 2.246-1.57 1.985-2.925zm-25.752 192.491c0 1.568-1.276 2.845-2.845 2.845h-88.093c-1.568 0-2.845-1.276-2.845-2.845s1.276-2.845 2.845-2.845h88.094c1.568 0 2.844 1.276 2.844 2.845zm-1.461-138.781c.956 1.419 1.461 3.073 1.461 4.783v103.822c0 1.71-.505 3.364-1.461 4.782l-11.825 17.548h-67.211l-11.825-17.547c-.956-1.419-1.461-3.073-1.461-4.783v-103.821c0-1.71.505-3.364 1.461-4.782l11.825-17.548h67.211zm1.461-25.391c0 1.568-1.276 2.845-2.845 2.845h-88.093c-1.568 0-2.845-1.276-2.845-2.845s1.276-2.845 2.845-2.845h88.094c1.568 0 2.844 1.277 2.844 2.845zm-13.269-23.377c-2.278.429-4.181 2.042-4.966 4.209l-4.105 11.323h-4.505l4.604-12.775c1.296-3.577 4.425-6.237 8.175-6.944l33.634-6.453.804 4.185z" fill="#846f75"/><g fill="#a58bc9"><path d="m107.215 125.229c-5.792 0-10.504-4.712-10.504-10.504 0-5.791 4.712-10.503 10.504-10.503 5.791 0 10.503 4.712 10.503 10.503 0 5.792-4.712 10.504-10.503 10.504zm0-16.007c-3.035 0-5.504 2.469-5.504 5.503 0 3.035 2.469 5.504 5.504 5.504 3.034 0 5.503-2.469 5.503-5.504s-2.469-5.503-5.503-5.503z"/><path d="m126.562 144.847c-5.792 0-10.504-4.712-10.504-10.504 0-5.791 4.712-10.503 10.504-10.503 5.791 0 10.503 4.712 10.503 10.503-.001 5.792-4.712 10.504-10.503 10.504zm0-16.007c-3.035 0-5.504 2.469-5.504 5.503 0 3.035 2.469 5.504 5.504 5.504 3.034 0 5.503-2.469 5.503-5.504-.001-3.034-2.469-5.503-5.503-5.503z"/><path d="m106.686 164.723c-5.792 0-10.504-4.712-10.504-10.504 0-5.791 4.712-10.503 10.504-10.503 5.791 0 10.503 4.712 10.503 10.503-.001 5.792-4.712 10.504-10.503 10.504zm0-16.007c-3.035 0-5.504 2.469-5.504 5.503 0 3.035 2.469 5.504 5.504 5.504 3.034 0 5.503-2.469 5.503-5.504-.001-3.034-2.469-5.503-5.503-5.503z"/><path d="m126.019 184.056c-5.791 0-10.503-4.712-10.503-10.503 0-5.792 4.712-10.504 10.503-10.504 5.792 0 10.504 4.712 10.504 10.504-.001 5.791-4.712 10.503-10.504 10.503zm0-16.007c-3.034 0-5.503 2.469-5.503 5.504 0 3.034 2.469 5.503 5.503 5.503 3.035 0 5.504-2.469 5.504-5.503-.001-3.035-2.469-5.504-5.504-5.504z"/></g></g></svg>