<svg id="Layer_1" enable-background="new 0 0 256 256" height="512" viewBox="0 0 256 256" width="512" xmlns="http://www.w3.org/2000/svg"><g><g fill="#846f75"><path d="m214.733 102.792c-.977.977-.977 2.559 0 3.535 2.04 2.04 3.19 4.638 3.453 7.308l-29.323-8.298c-8.408-2.379-17.094-3.592-25.817-3.603h-.003c-1.379 0-2.498 1.117-2.5 2.497-.002 1.381 1.116 2.501 2.497 2.503 8.266.011 16.496 1.159 24.463 3.413l30.103 8.519c-.554 1.646-1.46 3.199-2.746 4.523l-137.884 101.669-.923-3.261c-2.197-7.764-3.345-15.784-3.411-23.839-.012-1.381-1.151-2.521-2.521-2.479-1.38.012-2.491 1.14-2.479 2.521.07 8.501 1.281 16.966 3.6 25.159l1.432 5.058c-7.188 5.146-16.884 4.369-23.155-1.902l-19.969-19.969c-6.292-6.292-7.055-16.033-1.852-23.229l4.887 1.383c8.543 2.418 17.252 3.596 25.899 3.595 24.933-.001 49.313-9.797 67.416-27.9 24.381-24.381 33.695-60.138 24.306-93.315l-8.265-29.205c2.701.246 5.334 1.395 7.397 3.457.976.977 2.56.977 3.535 0 .977-.977.977-2.559 0-3.535-6.633-6.634-17.426-6.634-24.061 0-.089.088-105.043 142.412-105.043 142.412-6.794 9.214-5.85 21.777 2.246 29.873l19.969 19.969c4.48 4.481 10.329 6.771 16.222 6.771 4.754-.001 9.538-1.491 13.653-4.526 0 0 142.323-104.953 142.411-105.042 6.634-6.634 6.634-17.427 0-24.061-.977-.978-2.561-.978-3.537-.001zm-82.258-61.987c1.303-1.264 2.827-2.162 4.443-2.718l8.476 29.953c8.896 31.438.071 65.317-23.03 88.419-23.102 23.102-56.98 31.926-88.418 23.03l-3.086-.873z"/><path d="m236.515 80.429c-.84-5.54-4.169-10.217-9.134-12.83-1.017-.534-1.968-1.251-2.908-2.191-3.473-3.473-3.508-6.846-3.55-10.752-.046-4.368-.1-9.318-5.015-14.233s-9.865-4.968-14.233-5.014c-3.906-.042-7.278-.077-10.75-3.548-.939-.94-1.656-1.892-2.191-2.906-2.615-4.966-7.293-8.295-12.834-9.134-5.531-.837-10.969.952-14.925 4.909-.977.977-.977 2.56 0 3.535.977.977 2.559.977 3.536 0 2.821-2.821 6.697-4.093 10.641-3.501 3.954.6 7.292 2.976 9.159 6.521.772 1.466 1.779 2.81 3.079 4.11 4.915 4.914 9.865 4.967 14.232 5.013 3.906.042 7.279.078 10.751 3.55 3.473 3.473 3.508 6.846 3.55 10.752.046 4.368.1 9.318 5.015 14.233 1.301 1.302 2.647 2.31 4.115 3.081 3.543 1.865 5.919 5.202 6.519 9.154.598 3.943-.678 7.823-3.506 10.651l-.075.075c-.973.979-.968 2.563.011 3.535.488.484 1.125.727 1.762.727.643 0 1.285-.246 1.773-.738l.069-.069c3.958-3.959 5.748-9.4 4.909-14.93z"/></g><path d="m207.511 101.229c-1.23-3.035-3.038-5.757-5.372-8.091-4.618-4.619-10.759-7.162-17.291-7.162-.136 0-.271.008-.407.01 3.466-4.32 5.352-9.646 5.352-15.265 0-6.531-2.543-12.672-7.162-17.29-8.115-8.116-20.563-9.529-30.272-3.438-1.169.734-1.523 2.277-.789 3.446.733 1.169 2.275 1.522 3.446.79 7.722-4.846 17.625-3.719 24.08 2.737 3.674 3.674 5.697 8.559 5.697 13.755s-2.023 10.081-5.697 13.756c-4.494 4.494-10.918 6.509-17.184 5.395-1.359-.238-2.658.663-2.9 2.022s.664 2.657 2.023 2.899c1.43.255 2.865.38 4.292.38.508 0 1.013-.021 1.518-.053.049.566.278 1.12.712 1.553.976.977 2.56.977 3.535 0 3.674-3.674 8.56-5.697 13.755-5.697 5.196 0 10.081 2.023 13.755 5.697 1.857 1.858 3.295 4.022 4.273 6.435.394.972 1.33 1.562 2.318 1.562.313 0 .631-.06.938-.185 1.282-.519 1.898-1.977 1.38-3.256z" fill="#a58bc9"/><g fill="#ebe7f2"><path d="m58.006 169.772c-.505 0-1.015-.152-1.456-.469-1.122-.806-1.378-2.367-.573-3.489l71.021-98.935c.805-1.121 2.367-1.377 3.489-.573 1.122.806 1.378 2.367.573 3.489l-71.021 98.935c-.489.68-1.255 1.042-2.033 1.042z"/><path d="m165.222 146.122c-.764 0-1.518-.349-2.008-1.009-.824-1.108-.593-2.674.515-3.498l25.764-19.149c1.106-.823 2.673-.593 3.498.516.824 1.108.593 2.674-.515 3.498l-25.764 19.149c-.448.333-.971.493-1.49.493z"/><path d="m84.765 203.533c-.786 0-1.559-.369-2.046-1.061-.794-1.129-.524-2.688.605-3.483l20.227-14.24c1.128-.795 2.688-.524 3.483.604.794 1.129.524 2.688-.605 3.483l-20.227 14.24c-.438.31-.94.457-1.437.457z"/><path d="m177.292 67.386-5.848-.19 4.022-4.022c.977-.976.977-2.559 0-3.535-.976-.977-2.56-.977-3.535 0l-4.211 4.211v-5.956c0-1.381-1.119-2.5-2.5-2.5s-2.5 1.119-2.5 2.5v5.956l-4.211-4.211c-.976-.977-2.56-.977-3.535 0-.977.977-.977 2.56 0 3.535l7.747 7.746v10.956c0 1.381 1.119 2.5 2.5 2.5s2.5-1.119 2.5-2.5v-5.956l4.211 4.211c.488.488 1.128.732 1.768.732s1.28-.244 1.768-.732c.977-.977.977-2.56 0-3.535l-4.409-4.409 6.073.197c.027.001.055.001.083.001 1.343 0 2.453-1.066 2.497-2.419.043-1.38-1.04-2.535-2.42-2.58z"/></g></g></svg>