<svg id="Layer_1" enable-background="new 0 0 256 256" height="512" viewBox="0 0 256 256" width="512" xmlns="http://www.w3.org/2000/svg"><g><path d="m128 162.181c-14.218 0-25.785-11.567-25.785-25.786 0-14.218 11.567-25.785 25.785-25.785s25.785 11.567 25.785 25.785-11.567 25.786-25.785 25.786zm0-46.572c-11.461 0-20.785 9.324-20.785 20.785 0 11.462 9.324 20.786 20.785 20.786s20.785-9.324 20.785-20.786c0-11.46-9.324-20.785-20.785-20.785z" fill="#ebe7f2"/><path d="m128 98.253c-1.381 0-2.5-1.119-2.5-2.5v-19.425c0-1.381 1.119-2.5 2.5-2.5s2.5 1.119 2.5 2.5v19.425c0 1.381-1.119 2.5-2.5 2.5z" fill="#ebe7f2"/><path d="m172.241 92.153c-.977-.977-2.559-.977-3.535 0l-5.226 5.226c-20.057-18.26-50.902-18.258-70.959.001l-5.227-5.227c-.976-.977-2.56-.977-3.535 0-.977.977-.977 2.559 0 3.535l13.735 13.735c.976.977 2.56.977 3.535 0 7.204-7.204 16.783-11.172 26.971-11.172 10.187 0 19.767 3.968 26.971 11.172.488.488 1.128.732 1.768.732s1.279-.244 1.768-.732l13.735-13.735c.976-.976.976-2.558-.001-3.535zm-72.924 12.023-3.259-3.259c18.101-16.317 45.78-16.316 63.883.001l-3.257 3.257c-7.908-7.059-17.997-10.924-28.683-10.924-10.687.001-20.776 3.866-28.684 10.925z" fill="#ed9abc"/><g fill="#846f75"><path d="m236.377 81.237c0-17.051-9.887-30.922-22.04-30.922s-22.04 13.871-22.04 30.922c0 15.864 8.56 28.969 19.54 30.717v91.23c0 1.381 1.119 2.5 2.5 2.5s2.5-1.119 2.5-2.5v-91.23c10.98-1.747 19.54-14.852 19.54-30.717zm-22.04 25.922c-9.396 0-17.04-11.629-17.04-25.922s7.645-25.922 17.04-25.922 17.04 11.629 17.04 25.922-7.645 25.922-17.04 25.922z"/><path d="m61.203 50.315c-1.381 0-2.5 1.119-2.5 2.5v34.804h-14.571c.013-.102.031-.202.031-.307v-34.497c0-1.381-1.119-2.5-2.5-2.5s-2.5 1.119-2.5 2.5v34.497c0 .105.018.205.031.307h-14.57v-34.804c0-1.381-1.119-2.5-2.5-2.5s-2.5 1.119-2.5 2.5v37.304c0 11.308 8.56 20.648 19.54 21.894v91.171c0 1.381 1.119 2.5 2.5 2.5s2.5-1.119 2.5-2.5v-91.171c10.979-1.246 19.54-10.586 19.54-21.894v-37.304c-.001-1.38-1.12-2.5-2.501-2.5zm-19.54 56.844c-8.544 0-15.619-6.329-16.835-14.54h33.671c-1.216 8.212-8.291 14.54-16.836 14.54z"/><path d="m83.759 92.153c-11.817 11.817-18.326 27.529-18.326 44.241 0 16.713 6.508 32.425 18.326 44.241 11.817 11.817 27.529 18.326 44.241 18.326s32.424-6.509 44.241-18.326c11.817-11.816 18.326-27.528 18.326-44.241 0-16.712-6.509-32.424-18.326-44.241-24.395-24.394-64.088-24.394-88.482 0zm84.947 84.948c-10.281 10.281-23.769 16.188-38.206 16.8v-16.864c0-1.381-1.119-2.5-2.5-2.5s-2.5 1.119-2.5 2.5v16.864c-14.438-.613-27.925-6.519-38.206-16.8s-16.187-23.768-16.8-38.206h16.863c1.381 0 2.5-1.119 2.5-2.5s-1.119-2.5-2.5-2.5h-16.863c.613-14.438 6.519-27.925 16.8-38.206 11.223-11.222 25.964-16.834 40.706-16.834 14.741 0 29.483 5.611 40.706 16.833 10.281 10.281 16.187 23.769 16.8 38.206h-16.864c-1.381 0-2.5 1.119-2.5 2.5s1.119 2.5 2.5 2.5h16.864c-.613 14.439-6.519 27.925-16.8 38.207z"/><path d="m128 127.014c-1.68 0-3.255.45-4.62 1.227l-13.217-13.218c-.976-.977-2.56-.977-3.535 0-.977.977-.977 2.559 0 3.535l13.217 13.217c-.777 1.365-1.226 2.94-1.226 4.62 0 5.173 4.208 9.382 9.382 9.382 5.173 0 9.382-4.209 9.382-9.382s-4.21-9.381-9.383-9.381zm0 13.762c-2.416 0-4.382-1.966-4.382-4.382s1.966-4.381 4.382-4.381 4.382 1.965 4.382 4.381-1.966 4.382-4.382 4.382z"/></g></g></svg>