<svg id="Layer_1" enable-background="new 0 0 256 256" height="512" viewBox="0 0 256 256" width="512" xmlns="http://www.w3.org/2000/svg"><g><g fill="#ebe7f2"><path d="m128.132 121.718h-17.555c-1.381 0-2.5-1.119-2.5-2.5s1.119-2.5 2.5-2.5h17.555c1.381 0 2.5 1.119 2.5 2.5s-1.119 2.5-2.5 2.5z"/><path d="m128.132 150.841h-16.22c-1.381 0-2.5-1.119-2.5-2.5s1.119-2.5 2.5-2.5h16.22c1.381 0 2.5 1.119 2.5 2.5s-1.119 2.5-2.5 2.5z"/><path d="m128.132 179.964h-12.992c-1.381 0-2.5-1.119-2.5-2.5s1.119-2.5 2.5-2.5h12.992c1.381 0 2.5 1.119 2.5 2.5s-1.119 2.5-2.5 2.5z"/><path d="m190.537 215.688c-.934 0-1.83-.526-2.259-1.425-8.736-18.328-8.755-38.315-.054-59.406.527-1.277 1.989-1.882 3.264-1.358 1.276.527 1.884 1.988 1.358 3.265-8.139 19.729-8.157 38.351-.054 55.348.594 1.247.065 2.738-1.181 3.333-.347.163-.714.243-1.074.243z"/><path d="m210.238 215.688c-.36 0-.727-.079-1.074-.244-1.247-.594-1.775-2.086-1.181-3.333 8.102-16.997 8.084-35.618-.054-55.348-.526-1.276.082-2.737 1.358-3.265 1.277-.522 2.738.082 3.264 1.358 8.7 21.091 8.682 41.078-.054 59.406-.429.899-1.325 1.426-2.259 1.426z"/></g><path d="m200.387 122.809c-16.778 0-30.427-13.649-30.427-30.428 0-16.777 13.649-30.427 30.427-30.427s30.427 13.649 30.427 30.427-13.649 30.428-30.427 30.428zm0-55.855c-14.021 0-25.427 11.406-25.427 25.427s11.407 25.428 25.427 25.428 25.427-11.407 25.427-25.428-11.406-25.427-25.427-25.427z" fill="#ed9abc"/><g fill="#846f75"><path d="m133.77 74.507h-2.161c-5.425-.027-11.04-.036-15.437 4.347-5.603 5.584-8.101 17.595-8.101 38.945 0 21.379 2.558 49.681 6.517 72.102 7.44 42.142 15.465 42.142 18.102 42.142s10.662 0 18.103-42.142c3.958-22.421 6.517-50.723 6.517-72.102 0-21.35-2.499-33.361-8.101-38.945-4.399-4.383-10.017-4.375-15.439-4.347zm12.098 114.524c-5.309 30.066-10.942 38.011-13.179 38.011s-7.87-7.944-13.178-38.011c-3.913-22.159-6.44-50.12-6.44-71.232 0-19.646 2.107-30.896 6.631-35.404 2.711-2.703 6.305-2.891 10.801-2.891.357 0 3.284.003 3.284.003 4.994-.029 8.963-.029 11.891 2.888 4.524 4.509 6.631 15.759 6.631 35.404 0 21.113-2.528 49.073-6.441 71.232z"/><path d="m111.258 57.459c3.081 2.99 7.917 7.031 13.459 9.308 1.276.526 2.737-.086 3.262-1.362.524-1.277-.085-2.738-1.363-3.263-5.059-2.078-9.612-6.073-11.876-8.271-7.311-7.095-9.473-12.786-9.187-14.108 1.34-.364 7.234 1.655 14.734 8.934 1.634 1.586 3.146 3.249 4.491 4.942.698.878 1.897 1.185 2.932.746 1.034-.438 1.649-1.512 1.504-2.626-.272-2.085-.411-4.255-.411-6.448 0-10.2 2.751-15.771 3.885-16.333 1.133.563 3.885 6.135 3.885 16.333 0 2.193-.138 4.363-.411 6.448-.146 1.114.47 2.188 1.504 2.626 1.033.438 2.234.132 2.932-.746 1.346-1.693 2.857-3.356 4.491-4.942 7.62-7.393 13.583-9.351 14.727-8.966.331 1.259-1.806 6.986-9.179 14.141-2.264 2.197-6.817 6.192-11.876 8.271-1.277.524-1.887 1.985-1.363 3.263.397.966 1.33 1.551 2.313 1.551.316 0 .638-.061.949-.188 5.542-2.276 10.378-6.317 13.458-9.308 5.177-5.023 10.709-12.251 10.709-17.473 0-1.972-.808-3.169-1.485-3.827-4.299-4.171-14.279 1.714-21.736 8.949-.011.011-.023.022-.035.033-.03-10.235-2.813-21.184-8.884-21.184s-8.854 10.948-8.885 21.184c-.011-.011-.023-.022-.035-.033-7.455-7.234-17.438-13.121-21.735-8.949-.678.658-1.485 1.855-1.485 3.827.003 5.22 5.535 12.448 10.711 17.471z"/><path d="m209.099 152.596c.015-5.589 3.232-11.021 9.397-15.816l2.973-2.313c1.09-.848 1.287-2.419.438-3.509-.847-1.09-2.418-1.285-3.508-.438l-2.973 2.313c-8.193 6.372-12.163 14.269-11.178 22.234.14 1.129 1.023 2.021 2.15 2.172 17.12 2.284 29.545 13.785 29.545 27.348 0 12.79-11.113 23.867-27.026 26.938-.833.161-1.527.732-1.844 1.519-1.744 4.315-4.244 6.893-6.687 6.893s-4.943-2.576-6.687-6.893c-.317-.786-1.012-1.357-1.844-1.519-15.913-3.07-27.026-14.147-27.026-26.938 0-13.563 12.425-25.063 29.545-27.348 1.127-.15 2.011-1.043 2.15-2.172.985-7.966-2.984-15.862-11.177-22.234l-2.974-2.313c-1.09-.847-2.66-.65-3.508.438-.848 1.091-.651 2.661.439 3.509l2.974 2.313c6.165 4.794 9.382 10.228 9.397 15.816-18.573 3.259-31.846 16.454-31.846 31.99 0 14.856 12.176 27.688 29.775 31.577 2.59 5.595 6.47 8.771 10.782 8.771s8.192-3.178 10.783-8.771c17.599-3.889 29.774-16.721 29.774-31.577.001-15.536-13.271-28.732-31.844-31.99z"/><path d="m78.094 116.718c-1.381 0-2.5 1.119-2.5 2.5v85.19c0 8.91-7.249 16.159-16.16 16.159s-16.16-7.249-16.16-16.159v-85.19c0-1.381-1.119-2.5-2.5-2.5s-2.5 1.119-2.5 2.5v85.19c0 11.667 9.492 21.159 21.16 21.159s21.16-9.492 21.16-21.159v-85.19c0-1.381-1.119-2.5-2.5-2.5z"/><path d="m63.736 108.414v82.521c0 1.381 1.119 2.5 2.5 2.5s2.5-1.119 2.5-2.5v-82.521c0-1.381-1.119-2.5-2.5-2.5s-2.5 1.119-2.5 2.5z"/><path d="m50.133 108.414v82.521c0 1.381 1.119 2.5 2.5 2.5s2.5-1.119 2.5-2.5v-82.521c0-1.381-1.119-2.5-2.5-2.5s-2.5 1.119-2.5 2.5z"/><path d="m77.596 77.088c-.856-1.6-1.923-2.531-3.261-2.849-1.469-.347-2.753.152-3.964.887-2.363-6.219-6.383-9.952-10.936-9.952s-8.573 3.733-10.936 9.952c-1.211-.735-2.496-1.232-3.964-.887-1.338.317-2.405 1.249-3.261 2.849-1.682 3.143-1.542 6.827.231 9.764-.079.131-.156.268-.231.408-2.576 4.813-.755 10.824 4.058 13.4 1.445.773 3.037 1.172 4.657 1.172.357 0 .716-.02 1.075-.059 1.373-.149 2.364-1.383 2.215-2.756-.149-1.372-1.381-2.361-2.755-2.215-.98.104-1.96-.084-2.832-.551-2.383-1.275-3.284-4.251-2.009-6.634.15-.281.257-.414.3-.463.664-.374 1.122-1.032 1.241-1.788.125-.788-.134-1.588-.697-2.152-1.529-1.537-1.868-3.854-.845-5.768.027-.051.053-.097.077-.138.388.226.919.601 1.342.898.445.313.917.646 1.418.971.677.437 1.524.522 2.272.227.75-.294 1.312-.933 1.509-1.714 1.438-5.692 4.305-9.518 7.133-9.518s5.695 3.825 7.134 9.518c.197.781.759 1.42 1.509 1.715.75.292 1.595.208 2.272-.228.502-.325.974-.657 1.418-.971.423-.298.955-.673 1.342-.898.024.041.049.087.076.137 1.023 1.914.684 4.231-.844 5.768-.563.565-.822 1.366-.697 2.153.119.757.578 1.414 1.242 1.788.043.049.15.183.3.464 1.274 2.382.373 5.357-2.01 6.633-.872.467-1.854.655-2.832.551-1.382-.146-2.606.843-2.755 2.216-.149 1.372.843 2.605 2.215 2.755 1.985.213 3.967-.169 5.731-1.113 4.813-2.576 6.634-8.587 4.059-13.399-.076-.142-.153-.278-.232-.409 1.776-2.937 1.916-6.621.235-9.764z"/><path d="m99.975 97.734c3.029-5.923 3.104-11.408.051-14.787-3.566-3.944-10.423-3.937-17.895.023-1.22.646-1.685 2.16-1.038 3.38s2.159 1.683 3.38 1.038c5.187-2.75 9.948-3.186 11.844-1.089 1.896 2.099.98 6.791-2.279 11.675-.447.67-.544 1.515-.26 2.27.284.754.914 1.324 1.692 1.533.578.154 1.14.282 1.671.401.504.114 1.139.257 1.566.394-.015.046-.031.096-.051.149-.733 2.042-2.665 3.345-4.845 3.239-.791-.036-1.563.305-2.065.926-.481.596-.662 1.377-.494 2.12-.007.064-.035.233-.143.534-.913 2.543-3.725 3.867-6.269 2.957-.931-.335-1.729-.934-2.309-1.733-.81-1.118-2.373-1.367-3.492-.558-1.118.811-1.367 2.374-.557 3.491 1.172 1.618 2.787 2.83 4.668 3.505 1.102.396 2.227.583 3.335.583 4.061 0 7.879-2.52 9.329-6.557.054-.15.103-.299.147-.444 3.367-.654 6.195-3.02 7.399-6.374.613-1.708.589-3.124-.073-4.33-.723-1.321-1.955-1.939-3.312-2.346z"/><path d="m40.374 113.698c.81-1.118.561-2.682-.558-3.491-1.119-.81-2.682-.561-3.491.558-.579.8-1.377 1.398-2.309 1.733-2.542.912-5.355-.414-6.268-2.956-.108-.302-.136-.471-.143-.535.167-.743-.013-1.524-.494-2.12-.501-.62-1.271-.976-2.065-.926-2.155.11-4.111-1.197-4.845-3.239-.02-.054-.036-.104-.051-.149.427-.137 1.062-.279 1.566-.394.531-.119 1.093-.247 1.671-.401.778-.209 1.408-.779 1.692-1.533.284-.755.188-1.6-.26-2.27-3.259-4.884-4.175-9.576-2.279-11.674 1.897-2.098 6.658-1.66 11.844 1.088 1.22.645 2.734.183 3.38-1.038.646-1.22.182-2.733-1.038-3.38-7.471-3.96-14.328-3.968-17.896-.022-3.052 3.378-2.978 8.863.052 14.786-1.357.406-2.588 1.024-3.314 2.347-.662 1.205-.686 2.622-.073 4.33 1.205 3.354 4.032 5.721 7.399 6.374.044.146.093.295.147.445 1.45 4.037 5.267 6.556 9.329 6.556 1.108 0 2.234-.188 3.335-.583 1.882-.676 3.497-1.889 4.669-3.506z"/><path d="m41.274 58.232c-1.248 2.332-1.513 5.01-.746 7.541.766 2.531 2.473 4.612 4.805 5.859 1.217.651 2.732.192 3.384-1.025.651-1.217.192-2.732-1.025-3.383-1.154-.617-1.999-1.647-2.378-2.9s-.248-2.578.369-3.732c.151-.282.258-.416.301-.465.663-.374 1.121-1.031 1.24-1.787.125-.788-.134-1.588-.697-2.152-1.529-1.537-1.868-3.854-.845-5.767.027-.051.053-.097.077-.139.388.226.919.601 1.342.898.445.313.917.646 1.418.971.677.438 1.524.522 2.272.227.75-.294 1.312-.933 1.509-1.714 1.438-5.692 4.305-9.518 7.133-9.518s5.695 3.825 7.134 9.518c.197.781.759 1.42 1.509 1.715.75.291 1.595.209 2.272-.228.502-.325.974-.657 1.418-.971.422-.298.954-.673 1.342-.898.024.042.05.088.077.139 1.023 1.912.684 4.229-.845 5.766-.563.565-.822 1.366-.697 2.153.119.756.578 1.414 1.241 1.788.043.049.15.183.301.464.617 1.154.749 2.479.369 3.732s-1.224 2.283-2.378 2.9c-1.217.65-1.676 2.166-1.025 3.383.451.843 1.314 1.321 2.207 1.321.398 0 .802-.095 1.177-.296 2.332-1.247 4.039-3.328 4.805-5.859s.502-5.209-.746-7.541c-.076-.142-.153-.277-.231-.408 1.773-2.937 1.913-6.62.231-9.763-.856-1.6-1.923-2.532-3.262-2.85-1.468-.347-2.752.152-3.964.887-2.363-6.219-6.383-9.952-10.936-9.952s-8.573 3.733-10.936 9.952c-1.211-.734-2.496-1.233-3.963-.887-1.339.317-2.406 1.25-3.262 2.85-1.682 3.143-1.542 6.826.231 9.764-.076.13-.153.267-.228.407z"/><path d="m99.975 70.707c3.03-5.922 3.104-11.407.052-14.785-3.566-3.947-10.422-3.938-17.895.021-1.22.646-1.685 2.159-1.039 3.38.646 1.22 2.16 1.687 3.379 1.038 5.189-2.748 9.949-3.186 11.844-1.088 1.896 2.099.98 6.79-2.279 11.674-.447.67-.544 1.515-.26 2.27.284.754.914 1.324 1.692 1.533.577.154 1.139.282 1.669.401.505.114 1.14.257 1.567.394-.015.046-.031.096-.051.149-.466 1.299.208 2.73 1.508 3.197.279.101.564.148.845.148 1.025 0 1.986-.636 2.353-1.656.613-1.707.589-3.124-.073-4.329-.723-1.322-1.955-1.941-3.312-2.347z"/><path d="m17.848 79.04c.28 0 .565-.048.845-.148 1.299-.466 1.975-1.897 1.508-3.197-.02-.054-.036-.104-.051-.149.428-.137 1.063-.279 1.567-.394.531-.119 1.092-.247 1.669-.401.778-.209 1.408-.779 1.692-1.533.284-.755.188-1.6-.26-2.27-3.259-4.884-4.175-9.575-2.279-11.674 1.896-2.098 6.656-1.66 11.844 1.088 1.218.647 2.733.182 3.379-1.038.646-1.221.182-2.733-1.039-3.38-7.473-3.96-14.33-3.97-17.895-.021-3.052 3.378-2.978 8.863.052 14.785-1.357.406-2.589 1.025-3.315 2.347-.662 1.206-.686 2.622-.073 4.33.369 1.019 1.331 1.655 2.356 1.655z"/><path d="m195.789 102.778c.488.488 1.128.732 1.768.732s1.28-.244 1.768-.732l16.615-16.615c.977-.977.977-2.559 0-3.535-.976-.977-2.56-.977-3.535 0l-14.848 14.848-7.607-7.607c-.976-.977-2.56-.977-3.535 0-.977.977-.977 2.559 0 3.535z"/></g></g></svg>