<svg id="Layer_1" enable-background="new 0 0 256 256" height="512" viewBox="0 0 256 256" width="512" xmlns="http://www.w3.org/2000/svg"><g><g fill="#ebe7f2"><path d="m224.697 140.92h-193.394c-1.381 0-2.5-1.119-2.5-2.5s1.119-2.5 2.5-2.5h193.395c1.381 0 2.5 1.119 2.5 2.5s-1.12 2.5-2.501 2.5z"/><path d="m165.316 127.215c-.409 0-.824-.1-1.207-.312-1.209-.668-1.646-2.189-.979-3.397l6.208-11.234c.669-1.209 2.191-1.647 3.397-.979 1.209.668 1.646 2.189.979 3.397l-6.208 11.234c-.455.825-1.31 1.291-2.19 1.291z"/><path d="m176.403 97.609c-1.381 0-2.5-1.119-2.5-2.5 0-29.831-24.576-54.1-54.784-54.1-1.381 0-2.5-1.119-2.5-2.5s1.119-2.5 2.5-2.5c32.965 0 59.784 26.512 59.784 59.1 0 1.381-1.119 2.5-2.5 2.5z"/><path d="m174.847 115.98c-1.381 0-2.5-1.119-2.5-2.5s1.119-2.5 2.5-2.5c1.768 0 3.205-1.438 3.205-3.205s-1.438-3.205-3.205-3.205c-1.381 0-2.5-1.119-2.5-2.5s1.119-2.5 2.5-2.5c4.524 0 8.205 3.681 8.205 8.205s-3.681 8.205-8.205 8.205z"/></g><g fill="#846f75"><path d="m224.697 122.215h-46.046l3.52-6.234h5.363c4.524 0 8.205-3.681 8.205-8.205s-3.681-8.205-8.205-8.205h-119.068c-4.524 0-8.205 3.681-8.205 8.205s3.681 8.205 8.205 8.205h5.363l3.52 6.234h-46.046c-1.381 0-2.5 1.119-2.5 2.5v87.964c0 1.381 1.119 2.5 2.5 2.5h193.395c1.381 0 2.5-1.119 2.5-2.5v-87.964c-.001-1.381-1.12-2.5-2.501-2.5zm-159.436-14.44c0-1.768 1.438-3.205 3.205-3.205h119.068c1.768 0 3.205 1.438 3.205 3.205s-1.438 3.205-3.205 3.205h-119.068c-1.768 0-3.205-1.437-3.205-3.205zm17.636 14.098-3.327-5.893h96.859l-3.327 5.893c-.119.211-.344.342-.586.342h-89.033c-.242 0-.466-.131-.586-.342zm139.3 88.306h-30.086v-44.418c0-1.381-1.119-2.5-2.5-2.5s-2.5 1.119-2.5 2.5v44.418h-36.074v-44.418c0-1.381-1.119-2.5-2.5-2.5s-2.5 1.119-2.5 2.5v44.418h-36.074v-44.418c0-1.381-1.119-2.5-2.5-2.5s-2.5 1.119-2.5 2.5v44.418h-36.074v-44.418c0-1.381-1.119-2.5-2.5-2.5s-2.5 1.119-2.5 2.5v44.418h-30.086v-82.964h188.395v82.964z"/><path d="m48.397 218.628c-1.381 0-2.5 1.119-2.5 2.5v9.968c0 .975-.793 1.768-1.768 1.768-.976 0-1.769-.793-1.769-1.768v-9.968c0-1.381-1.119-2.5-2.5-2.5s-2.5 1.119-2.5 2.5v9.968c0 3.731 3.036 6.768 6.769 6.768 3.731 0 6.768-3.036 6.768-6.768v-9.968c0-1.381-1.119-2.5-2.5-2.5z"/><path d="m216.139 218.628c-1.381 0-2.5 1.119-2.5 2.5v9.968c0 .975-.793 1.768-1.769 1.768-.975 0-1.768-.793-1.768-1.768v-9.968c0-1.381-1.119-2.5-2.5-2.5s-2.5 1.119-2.5 2.5v9.968c0 3.731 3.036 6.768 6.768 6.768s6.769-3.036 6.769-6.768v-9.968c0-1.381-1.119-2.5-2.5-2.5z"/><path d="m70.716 97.609c1.381 0 2.5-1.119 2.5-2.5 0-30.209 24.576-54.785 54.784-54.785s54.784 24.576 54.784 54.785c0 1.381 1.119 2.5 2.5 2.5s2.5-1.119 2.5-2.5c0-29.453-21.414-53.982-49.486-58.879v-7.796c0-5.679-4.619-10.298-10.298-10.298s-10.298 4.619-10.298 10.298v7.796c-28.072 4.897-49.486 29.426-49.486 58.879 0 1.381 1.119 2.5 2.5 2.5zm51.986-69.174c0-2.921 2.377-5.298 5.298-5.298s5.298 2.377 5.298 5.298v7.137c-1.747-.154-3.511-.248-5.298-.248s-3.551.094-5.298.248z"/></g><path d="m143.494 93.257h-31.425c-1.381 0-2.5-1.119-2.5-2.5v-17.791c-2.961-1.933-4.801-5.252-4.801-8.854 0-5.831 4.743-10.574 10.574-10.574 1.349 0 2.657.251 3.881.736 1.925-2.872 5.175-4.665 8.776-4.665s6.852 1.793 8.776 4.665c1.224-.485 2.532-.736 3.881-.736 5.831 0 10.574 4.743 10.574 10.574 0 3.77-2.047 7.243-5.237 9.118v17.527c.001 1.381-1.118 2.5-2.499 2.5zm-28.925-5h26.425v-16.594c0-1.041.646-1.974 1.62-2.34 2.164-.813 3.617-2.908 3.617-5.212 0-3.073-2.501-5.574-5.574-5.574-1.246 0-2.429.409-3.42 1.182-.646.504-1.498.657-2.279.417-.782-.243-1.396-.854-1.643-1.635-.736-2.328-2.872-3.893-5.315-3.893s-4.579 1.564-5.315 3.893c-.247.781-.86 1.392-1.643 1.635-.78.242-1.633.088-2.279-.417-.991-.772-2.174-1.182-3.42-1.182-3.073 0-5.574 2.501-5.574 5.574 0 2.198 1.302 4.197 3.316 5.093.902.401 1.484 1.296 1.484 2.284z" fill="#ed9abc"/><path d="m142.766 84.008h-29.968c-1.381 0-2.5-1.119-2.5-2.5s1.119-2.5 2.5-2.5h29.968c1.381 0 2.5 1.119 2.5 2.5s-1.12 2.5-2.5 2.5z" fill="#ed9abc"/></g></svg>