<svg id="Layer_1" enable-background="new 0 0 256 256" height="512" viewBox="0 0 256 256" width="512" xmlns="http://www.w3.org/2000/svg"><g><g fill="#ed9abc"><path d="m84.435 201.727c-1.381 0-2.5-1.119-2.5-2.5v-91.635c0-1.381 1.119-2.5 2.5-2.5s2.5 1.119 2.5 2.5v91.635c0 1.381-1.12 2.5-2.5 2.5z"/><path d="m153.696 174.438c-10.584 0-19.194-8.61-19.194-19.194s8.61-19.194 19.194-19.194c10.583 0 19.193 8.61 19.193 19.194s-8.61 19.194-19.193 19.194zm0-33.388c-7.827 0-14.194 6.367-14.194 14.194s6.367 14.194 14.194 14.194c7.826 0 14.193-6.367 14.193-14.194s-6.367-14.194-14.193-14.194z"/><path d="m211.178 201.729c-.336 0-.677-.068-1.003-.211-1.265-.555-1.84-2.029-1.285-3.293.788-1.797 1.188-3.714 1.188-5.695 0-7.827-6.367-14.194-14.193-14.194-7.827 0-14.194 6.367-14.194 14.194 0 1.982.399 3.898 1.188 5.695.555 1.265-.021 2.739-1.285 3.294-1.262.551-2.738-.02-3.293-1.285-1.068-2.434-1.609-5.026-1.609-7.704 0-10.583 8.61-19.194 19.194-19.194 10.583 0 19.193 8.61 19.193 19.194 0 2.677-.541 5.269-1.609 7.703-.413.937-1.33 1.496-2.292 1.496z"/><path d="m206.325 147.193c-10.583 0-19.193-8.61-19.193-19.194 0-10.13 7.913-18.545 18.015-19.158 1.384-.079 2.563.966 2.646 2.344.084 1.378-.966 2.563-2.344 2.647-7.468.453-13.317 6.676-13.317 14.167 0 7.827 6.367 14.194 14.193 14.194 4.025 0 7.877-1.72 10.568-4.718.92-1.027 2.502-1.114 3.53-.19 1.027.922 1.113 2.502.19 3.53-3.636 4.054-8.844 6.378-14.288 6.378z"/><path d="m153.696 121.918c-5.74 0-11.133-2.539-14.795-6.965-.881-1.064-.731-2.64.332-3.52 1.062-.879 2.639-.732 3.52.333 2.71 3.275 6.698 5.153 10.943 5.153 7.826 0 14.193-6.367 14.193-14.194 0-7.623-5.96-13.851-13.568-14.18l-.318-.01c-1.38-.027-2.478-1.167-2.451-2.548s1.192-2.507 2.549-2.451c.145.003.29.008.436.014 10.292.445 18.354 8.868 18.354 19.175-.001 10.583-8.612 19.193-19.195 19.193z"/></g><g fill="#846f75"><path d="m236.4 169.876-15.396-31.82c-.602-1.243-2.097-1.761-3.339-1.162-1.243.602-1.763 2.097-1.161 3.339l15.396 31.82c2.594 5.36 2.253 11.572-.91 16.617-3.163 5.044-8.606 8.056-14.561 8.056h-11.74c-1.381 0-2.5 1.119-2.5 2.5s1.119 2.5 2.5 2.5h11.74c7.687 0 14.714-3.888 18.797-10.4 4.085-6.512 4.523-14.531 1.174-21.45z"/><path d="m180.588 196.727h-49.913c-5.955 0-11.398-3.012-14.562-8.057s-3.503-11.257-.91-16.617l52.929-109.384c1.03-2.127 3.056-3.397 5.419-3.397s4.389 1.27 5.419 3.397l26.462 54.686c.602 1.243 2.098 1.762 3.339 1.162 1.243-.602 1.763-2.097 1.161-3.339l-26.462-54.686c-1.856-3.836-5.657-6.22-9.919-6.22s-8.063 2.383-9.919 6.22l-52.93 109.384c-3.348 6.919-2.909 14.938 1.174 21.451s11.111 10.4 18.798 10.4h49.913c1.381 0 2.5-1.119 2.5-2.5s-1.118-2.5-2.499-2.5z"/><path d="m105.652 196.727h-83.293v-87.191h97.403v18.464c0 1.381 1.119 2.5 2.5 2.5s2.5-1.119 2.5-2.5v-20.963c0-1.381-1.119-2.5-2.5-2.5h-102.403c-1.381 0-2.5 1.119-2.5 2.5v92.191c0 1.381 1.119 2.5 2.5 2.5h85.793c1.381 0 2.5-1.119 2.5-2.5s-1.119-2.501-2.5-2.501z"/></g><path d="m90.828 71.624h-7.535v-13.957c0-1.381-1.119-2.5-2.5-2.5h-43.5c-1.381 0-2.5 1.119-2.5 2.5v16.457c0 1.381 1.119 2.5 2.5 2.5h7.535v11.456h-7.535c-1.381 0-2.5 1.119-2.5 2.5v16.456c0 1.381 1.119 2.5 2.5 2.5h43.5c1.381 0 2.5-1.119 2.5-2.5v-13.956h7.535c1.381 0 2.5-1.119 2.5-2.5v-16.456c0-1.381-1.119-2.5-2.5-2.5zm-51.034-11.457h38.5v11.457h-38.5zm38.499 44.369h-38.5v-11.456h38.5zm10.035-16.456h-38.5v-11.456h38.5z" fill="#ed9abc"/></g></svg>