<svg id="Layer_1" enable-background="new 0 0 256 256" height="512" viewBox="0 0 256 256" width="512" xmlns="http://www.w3.org/2000/svg"><g><g fill="#ebe7f2"><path d="m188.209 135.599h-67.373c-1.381 0-2.5-1.119-2.5-2.5s1.119-2.5 2.5-2.5h67.373c1.381 0 2.5 1.119 2.5 2.5s-1.119 2.5-2.5 2.5z"/><path d="m60.701 44.647c-1.381 0-2.5-1.119-2.5-2.5v-5.295c0-1.381 1.119-2.5 2.5-2.5s2.5 1.119 2.5 2.5v5.295c0 1.381-1.119 2.5-2.5 2.5z"/><path d="m72.39 44.647c-1.381 0-2.5-1.119-2.5-2.5v-5.295c0-1.381 1.119-2.5 2.5-2.5s2.5 1.119 2.5 2.5v5.295c0 1.381-1.119 2.5-2.5 2.5z"/></g><g fill="#846f75"><path d="m82.87 105.254-3.568-44.252c-.056-.792.163-1.589.616-2.242.99-1.43 1.514-3.105 1.514-4.845v-4.137c0-1.381-1.119-2.5-2.5-2.5s-2.5 1.119-2.5 2.5v4.137c0 .717-.216 1.408-.625 1.998-1.097 1.583-1.627 3.514-1.491 5.463l.437 5.417h-16.409l.433-5.444c.134-1.921-.396-3.852-1.493-5.436-.408-.589-.624-1.28-.624-1.998v-4.137c0-1.381-1.119-2.5-2.5-2.5s-2.5 1.119-2.5 2.5v4.137c0 1.74.523 3.416 1.513 4.845.453.653.672 1.45.618 2.217l-3.909 49.147c-.274 3.944-1.965 7.655-4.761 10.451-6.505 6.505-10.088 15.154-10.088 24.354v73.795c0 5.429 4.416 9.845 9.845 9.845h43.335c5.429 0 9.845-4.417 9.845-9.845v-73.795c0-8.114-2.855-16.019-8.039-22.258-4.239-5.101-6.709-11.114-7.149-17.417zm-7.715-33.462 1.24 15.384h-19.672l1.224-15.384zm17.903 146.932c0 2.672-2.173 4.845-4.845 4.845h-43.335c-2.672 0-4.845-2.173-4.845-4.845v-73.795c0-7.864 3.063-15.258 8.623-20.819 3.648-3.648 5.855-8.492 6.212-13.614l1.457-18.32h20.474l1.085 13.453c.511 7.327 3.377 14.325 8.289 20.238 4.439 5.343 6.885 12.113 6.885 19.063z"/><path d="m53.107 44.647h26.876c3.022 0 5.481-2.459 5.481-5.482v-5.679c0-3.339-2.717-6.056-6.056-6.056h-25.726c-3.339 0-6.056 2.717-6.056 6.056v5.679c0 3.023 2.459 5.482 5.481 5.482zm-.481-11.161c0-.582.474-1.056 1.056-1.056h25.728c.582 0 1.056.474 1.056 1.056v5.679c0 .266-.216.482-.481.482h-26.878c-.266 0-.481-.216-.481-.482z"/><path d="m208.8 133.665h-18.091v-7.665c0-4.136-3.364-7.5-7.5-7.5h-57.373c-4.136 0-7.5 3.364-7.5 7.5v89.834c0 6.688 5.441 12.13 12.131 12.13h48.112c6.688 0 12.13-5.442 12.13-12.13v-5.574h.515c16.4 0 29.743-13.343 29.743-29.743v-34.687c0-6.707-5.458-12.165-12.167-12.165zm-18.091 15h15.258v31.853c0 8.129-6.613 14.743-14.743 14.743h-.515zm-5 67.169c0 3.932-3.198 7.13-7.13 7.13h-48.112c-3.932 0-7.131-3.199-7.131-7.13v-89.834c0-1.378 1.121-2.5 2.5-2.5h57.373c1.379 0 2.5 1.122 2.5 2.5zm30.258-35.316c0 13.644-11.1 24.743-24.743 24.743h-.515v-5h.515c10.887 0 19.743-8.857 19.743-19.743v-34.353c0-1.381-1.119-2.5-2.5-2.5h-17.758v-5h18.091c3.952 0 7.167 3.215 7.167 7.167z"/><path d="m135.088 142.41c-1.381 0-2.5 1.119-2.5 2.5v65.339c0 1.381 1.119 2.5 2.5 2.5s2.5-1.119 2.5-2.5v-65.339c0-1.381-1.119-2.5-2.5-2.5z"/><path d="m146.693 142.41c-1.381 0-2.5 1.119-2.5 2.5v65.339c0 1.381 1.119 2.5 2.5 2.5s2.5-1.119 2.5-2.5v-65.339c0-1.381-1.119-2.5-2.5-2.5z"/><path d="m162.353 142.41c-1.381 0-2.5 1.119-2.5 2.5v65.339c0 1.381 1.119 2.5 2.5 2.5s2.5-1.119 2.5-2.5v-65.339c0-1.381-1.12-2.5-2.5-2.5z"/><path d="m173.958 142.41c-1.381 0-2.5 1.119-2.5 2.5v65.339c0 1.381 1.119 2.5 2.5 2.5s2.5-1.119 2.5-2.5v-65.339c0-1.381-1.119-2.5-2.5-2.5z"/></g><path d="m95.558 212.097h-58.025c-1.381 0-2.5-1.119-2.5-2.5v-30.591c0-1.381 1.119-2.5 2.5-2.5h7.911v-9.491c0-11.635 9.466-21.101 21.102-21.101 11.635 0 21.101 9.466 21.101 21.101v9.491h7.911c1.381 0 2.5 1.119 2.5 2.5v30.591c0 1.381-1.12 2.5-2.5 2.5zm-55.525-5h53.024v-25.591h-7.911c-1.381 0-2.5-1.119-2.5-2.5v-11.991c0-8.878-7.223-16.101-16.101-16.101-8.879 0-16.102 7.223-16.102 16.101v11.991c0 1.381-1.119 2.5-2.5 2.5h-7.911v25.591z" fill="#a58bc9"/></g></svg>