<svg id="Layer_1" enable-background="new 0 0 256 256" height="512" viewBox="0 0 256 256" width="512" xmlns="http://www.w3.org/2000/svg"><g><path d="m113.89 236.824c-13.088.001-24.846-4.724-33.562-11.274-18.871-14.185-31.64-43.136-15.081-73.18.667-1.208 2.187-1.649 3.396-.982 1.209.666 1.649 2.187.983 3.396-15.119 27.432-3.494 53.84 13.707 66.769 16.712 12.561 45.801 17.658 72.779-9.32 10.855-10.855 23.58-18.297 35.887-25.494 21.905-12.811 40.823-23.874 40.823-50.18 0-35.813-25.476-66.753-60.574-73.567-1.355-.263-2.241-1.575-1.978-2.931.263-1.355 1.576-2.242 2.931-1.978 37.444 7.27 64.621 40.273 64.621 78.476 0 29.174-21.032 41.474-43.299 54.496-12.033 7.037-24.476 14.313-34.876 24.713-15.326 15.325-31.347 21.054-45.757 21.056z" fill="#a58bc9"/><path d="m102.103 141.352c-17.752 0-43.587-14.309-58.954-29.676-15.661-15.66-19.345-30.696-10.95-44.69.71-1.184 2.245-1.569 3.43-.857 1.184.71 1.568 2.246.857 3.43-7.063 11.772-3.631 24.754 10.198 38.583 17.823 17.823 45.865 30.798 60 27.767 1.351-.293 2.679.57 2.968 1.921.29 1.35-.57 2.679-1.92 2.968-1.758.375-3.644.554-5.629.554z" fill="#ebe7f2"/><path d="m92.37 151.093c-18.082 0-44.147-14.947-58.918-29.719-23.69-23.69-15.491-41.836-4.44-52.887 11.049-11.051 29.195-19.25 52.886 4.44 10.439 10.438 19.869 24.898 25.225 38.678 6.122 15.753 5.932 27.99-.536 34.457-3.516 3.516-8.463 5.031-14.217 5.031zm-40.251-88.359c-6.842 0-13.378 3.095-19.573 9.288-13.727 13.728-12.233 29.143 4.44 45.816 20.001 20.001 55.117 35.635 66.064 24.688 4.908-4.908 4.693-15.519-.589-29.11-5.117-13.166-14.126-26.98-24.1-36.954-9.149-9.149-17.922-13.728-26.242-13.728z" fill="#a58bc9"/><g fill="#846f75"><path d="m114.465 115.478c.855 0 1.688-.438 2.154-1.228.981-1.658 6.18-10.532 7.883-13.32.719-1.178.348-2.717-.831-3.437-1.18-.719-2.717-.348-3.437.831-1.724 2.823-6.942 11.729-7.919 13.381-.703 1.188-.309 2.722.879 3.424.4.236.839.349 1.271.349z"/><path d="m169.404 71.292c-1.358-.243-2.655.67-2.896 2.028-.239 1.359.669 2.656 2.028 2.896 29.327 5.165 50.612 30.542 50.612 60.342 0 17.678-11.055 24.928-34.052 38.377-12.445 7.277-26.55 15.525-38.655 27.63-10.178 10.178-21.514 15.574-32.783 15.604-.033 0-.064.001-.097.001-9.684-.001-18.969-3.955-26.155-11.142-10.62-10.62-17.108-29.198-3.47-49.491.771-1.146.466-2.699-.68-3.47-1.146-.768-2.699-.465-3.469.681-15.348 22.836-7.392 44.34 4.084 55.815 8.131 8.133 18.67 12.606 29.69 12.606.037 0 .075-.001.111-.001 12.619-.034 25.173-5.937 36.305-17.069 11.649-11.648 25.46-19.724 37.644-26.849 23.329-13.644 36.528-22.354 36.528-42.693 0-32.231-23.023-59.679-54.745-65.265z"/><path d="m157.655 185.71c4.124-4.124 4.124-10.833 0-14.957-1.997-1.998-4.652-3.099-7.479-3.099-1.972 0-3.861.536-5.502 1.54l-27.257-27.258c-.976-.977-2.56-.977-3.535 0-.977.977-.977 2.559 0 3.535l28.816 28.816c.469.469 1.104.732 1.768.732s1.299-.264 1.768-.732c1.054-1.053 2.454-1.634 3.943-1.634 1.49 0 2.89.58 3.943 1.634 2.174 2.175 2.174 5.712 0 7.887-1.054 1.054-2.453 1.633-3.943 1.633-1.489 0-2.89-.58-3.943-1.633-.977-.977-2.559-.977-3.535 0-.488.488-.732 1.128-.732 1.768s.244 1.279.732 1.768c2.175 2.175 2.175 5.713 0 7.888-2.174 2.174-5.713 2.174-7.887 0-2.175-2.175-2.175-5.713 0-7.888.469-.469.732-1.104.732-1.768s-.264-1.299-.732-1.768l-28.816-28.815c-.976-.977-2.56-.977-3.535 0-.977.977-.977 2.56 0 3.535l27.26 27.259c-2.478 4.07-1.958 9.465 1.557 12.979 2.062 2.063 4.771 3.093 7.479 3.093s5.417-1.03 7.479-3.093c2.286-2.286 3.305-5.367 3.057-8.361.294.024.589.036.887.036 2.823.001 5.478-1.099 7.475-3.097z"/><path d="m182.086 144.805c10.188 0 18.477-8.288 18.477-18.477 0-10.188-8.288-18.476-18.477-18.476-10.188 0-18.476 8.288-18.476 18.476 0 10.189 8.288 18.477 18.476 18.477zm0-31.952c7.431 0 13.477 6.045 13.477 13.476s-6.046 13.477-13.477 13.477-13.476-6.046-13.476-13.477 6.045-13.476 13.476-13.476z"/><path d="m128 91.144c19.832 0 35.967-16.135 35.967-35.967s-16.135-35.967-35.967-35.967-35.967 16.135-35.967 35.967 16.135 35.967 35.967 35.967zm0-66.934c17.075 0 30.967 13.892 30.967 30.967s-13.892 30.967-30.967 30.967-30.967-13.892-30.967-30.967 13.892-30.967 30.967-30.967z"/></g><path d="m145.276 52.677h-14.776v-14.777c0-1.381-1.119-2.5-2.5-2.5s-2.5 1.119-2.5 2.5v14.776h-14.777c-1.381 0-2.5 1.119-2.5 2.5s1.119 2.5 2.5 2.5h14.777v14.776c0 1.381 1.119 2.5 2.5 2.5s2.5-1.119 2.5-2.5v-14.775h14.776c1.381 0 2.5-1.119 2.5-2.5s-1.119-2.5-2.5-2.5z" fill="#a58bc9"/></g></svg>