<svg id="Layer_1" enable-background="new 0 0 256 256" height="512" viewBox="0 0 256 256" width="512" xmlns="http://www.w3.org/2000/svg"><g><path d="m178.965 159.835c-.409 0-.823-.101-1.207-.313-1.208-.667-1.647-2.189-.979-3.397l8.479-15.344c.667-1.208 2.187-1.647 3.397-.979 1.208.667 1.647 2.189.979 3.397l-8.479 15.344c-.455.826-1.309 1.292-2.19 1.292z" fill="#ebe7f2"/><path d="m128 96.356c-6.615 0-11.996-5.381-11.996-11.996s5.381-11.997 11.996-11.997 11.996 5.382 11.996 11.997-5.381 11.996-11.996 11.996zm0-18.993c-3.857 0-6.996 3.139-6.996 6.997 0 3.857 3.139 6.996 6.996 6.996s6.996-3.139 6.996-6.996c0-3.858-3.139-6.997-6.996-6.997z" fill="#ed9abc"/><g fill="#ebe7f2"><path d="m194.107 119.4c-1.381 0-2.5-1.119-2.5-2.5 0-41.246-33.976-74.801-75.737-74.801-1.381 0-2.5-1.119-2.5-2.5s1.119-2.5 2.5-2.5c44.519 0 80.737 35.799 80.737 79.801 0 1.381-1.119 2.5-2.5 2.5z"/><path d="m191.981 144.491c-1.381 0-2.5-1.119-2.5-2.5s1.119-2.5 2.5-2.5c2.918 0 5.292-2.374 5.292-5.292s-2.374-5.292-5.292-5.292c-1.381 0-2.5-1.119-2.5-2.5s1.119-2.5 2.5-2.5c5.675 0 10.292 4.617 10.292 10.292s-4.617 10.292-10.292 10.292z"/><path d="m136.126 233.994c-1.061 0-2.118-.124-3.134-.374l-59.604-14.715v1.125c0 2.56-2.083 4.643-4.643 4.643h-25.368c-1.381 0-2.5-1.119-2.5-2.5s1.119-2.5 2.5-2.5h25.011v-3.96c0-.769.354-1.494.958-1.968s1.395-.644 2.141-.459l62.703 15.48c1.738.429 3.67.262 5.3-.459l64.629-28.686c1.262-.558 2.739.008 3.299 1.271.56 1.262-.009 2.739-1.271 3.299l-64.632 28.687c-1.669.738-3.534 1.116-5.389 1.116z"/></g><path d="m56.058 197.989c-3.926 0-7.12-3.194-7.12-7.121 0-3.926 3.194-7.12 7.12-7.12s7.12 3.194 7.12 7.12c0 3.927-3.194 7.121-7.12 7.121zm0-9.24c-1.169 0-2.12.951-2.12 2.12s.951 2.121 2.12 2.121 2.12-.951 2.12-2.121c0-1.169-.951-2.12-2.12-2.12z" fill="#ed9abc"/><g fill="#846f75"><path d="m159.933 87.457v-6.195c0-2.384-1.612-4.467-3.92-5.065-.001 0-.002 0-.004-.001l-5.117-1.319 2.688-4.553c1.21-2.056.877-4.668-.809-6.354l-4.381-4.381c-1.686-1.686-4.3-2.018-6.356-.807l-4.551 2.686-1.32-5.121c-.598-2.308-2.681-3.92-5.065-3.92h-6.195c-2.385 0-4.468 1.612-5.066 3.923l-1.319 5.118-4.553-2.688c-2.056-1.211-4.668-.877-6.355.809l-4.379 4.38c-1.687 1.686-2.02 4.299-.809 6.357l2.686 4.55-5.121 1.32c-2.308.599-3.92 2.682-3.92 5.065v6.195c0 2.384 1.612 4.467 3.924 5.066l5.117 1.318-2.688 4.553c-1.21 2.055-.877 4.668.81 6.354l4.38 4.38c1.686 1.686 4.299 2.019 6.356.808l4.551-2.686 1.319 5.12c.598 2.309 2.681 3.921 5.065 3.921h6.195c2.384 0 4.467-1.612 5.066-3.924l1.319-5.118 4.553 2.688c2.055 1.209 4.668.877 6.354-.809l4.38-4.38c1.687-1.686 2.02-4.299.808-6.357l-2.686-4.551 5.121-1.319c2.31-.596 3.922-2.679 3.922-5.063zm-5 0c0 .106-.072.199-.171.225l-8.336 2.147c-.761.196-1.385.738-1.686 1.464s-.243 1.551.157 2.228l4.375 7.411c.054.091.039.207-.036.282l-4.38 4.38c-.076.074-.191.089-.28.038l-7.414-4.375c-.676-.4-1.502-.458-2.227-.157-.726.3-1.269.925-1.464 1.686l-2.147 8.333c-.027.103-.119.175-.225.175h-6.195c-.106 0-.198-.072-.224-.172l-2.148-8.336c-.196-.761-.738-1.385-1.464-1.686-.307-.127-.632-.19-.957-.19-.441 0-.881.117-1.271.347l-7.411 4.374c-.09.054-.208.039-.282-.036l-4.38-4.38c-.075-.075-.09-.191-.038-.28l4.375-7.414c.399-.676.458-1.501.157-2.228-.301-.726-.925-1.268-1.686-1.464l-8.332-2.146c-.103-.027-.175-.12-.175-.226v-6.195c0-.106.072-.199.171-.225l8.336-2.148c.761-.196 1.385-.738 1.686-1.464s.243-1.551-.157-2.228l-4.374-7.411c-.054-.091-.039-.207.037-.282l4.38-4.381c.075-.074.191-.089.28-.037l7.414 4.375c.675.399 1.501.457 2.227.157.726-.301 1.269-.925 1.464-1.686l2.147-8.333c.026-.103.119-.174.225-.174h6.195c.106 0 .198.072.224.171l2.148 8.336c.196.761.738 1.385 1.464 1.686.726.302 1.552.243 2.227-.157l7.411-4.374c.091-.053.208-.039.282.036l4.381 4.381c.074.075.089.19.037.279l-4.376 7.413c-.399.677-.458 1.502-.157 2.228.3.726.925 1.269 1.686 1.464l8.334 2.147c.102.027.173.12.173.225z"/><path d="m49.763 119.4c1.381 0 2.5-1.119 2.5-2.5 0-41.761 33.976-75.737 75.737-75.737s75.737 33.976 75.737 75.737c0 1.381 1.119 2.5 2.5 2.5s2.5-1.119 2.5-2.5c0-44.519-36.218-80.737-80.737-80.737s-80.737 36.219-80.737 80.737c0 1.381 1.119 2.5 2.5 2.5z"/><path d="m209.309 123.907h-162.618c-5.675 0-10.292 4.617-10.292 10.292s4.617 10.292 10.292 10.292h7.858l6.703 11.871c1.209 2.142 3.489 3.473 5.949 3.473h121.599c2.46 0 4.74-1.331 5.949-3.473l6.703-11.871h7.858c5.675 0 10.292-4.617 10.292-10.292s-4.618-10.292-10.293-10.292zm-18.914 29.996c-.325.575-.936.932-1.596.932h-121.598c-.66 0-1.271-.357-1.596-.931l-5.315-9.413h135.42zm18.914-14.412h-162.618c-2.918 0-5.292-2.374-5.292-5.292s2.374-5.292 5.292-5.292h162.618c2.918 0 5.292 2.374 5.292 5.292s-2.373 5.292-5.292 5.292z"/><path d="m113.806 36.086c1.381 0 2.5-1.119 2.5-2.5v-4.888c0-6.448 5.246-11.694 11.694-11.694s11.694 5.246 11.694 11.694v4.888c0 1.381 1.119 2.5 2.5 2.5s2.5-1.119 2.5-2.5v-4.888c0-9.205-7.489-16.694-16.694-16.694s-16.694 7.489-16.694 16.694v4.888c0 1.381 1.119 2.5 2.5 2.5z"/><path d="m133.612 35.22c1.381 0 2.5-1.119 2.5-2.5v-4.211c0-4.473-3.639-8.112-8.112-8.112s-8.112 3.639-8.112 8.112v4.211c0 1.381 1.119 2.5 2.5 2.5s2.5-1.119 2.5-2.5v-4.211c0-1.716 1.396-3.112 3.112-3.112s3.112 1.396 3.112 3.112v4.211c0 1.381 1.119 2.5 2.5 2.5z"/><path d="m195.597 185.458-44.771 13.213c.092-1.346-.344-4.574-.344-4.574-.851-5.149-4.81-9.322-10.082-10.63l-35.542-8.883c-2.739-.675-5.56-.473-8.158.582l-23.311 9.447v-6.284c0-2.56-2.083-4.643-4.643-4.643h-25.369c-2.56 0-4.643 2.083-4.643 4.643v51.701c0 2.56 2.083 4.643 4.643 4.643h25.369c2.56 0 4.643-2.083 4.643-4.643v-1.125l59.604 14.715c1.016.25 2.073.374 3.134.374 1.854 0 3.719-.378 5.389-1.116l64.632-28.687c7.64-3.39 11.14-12.104 7.968-19.837-2.991-7.296-10.952-11.12-18.519-8.896zm8.522 24.163-64.629 28.686c-1.629.721-3.562.888-5.3.459l-62.703-15.48c-.198-.049-.399-.073-.599-.073-.553 0-1.097.184-1.542.532-.605.474-.958 1.2-.958 1.968v3.96h-24.654v-50.986h24.654v9.614c0 .008-.002.016-.002.024v28.264c0 1.381 1.119 2.5 2.5 2.5s2.5-1.119 2.5-2.5v-26.579l25.193-10.21c1.617-.656 3.374-.781 5.074-.362l35.539 8.882c3.337.828 5.832 3.416 6.356 6.593 0 0 .859 4.545-.88 6.645-1.397 1.687-4.238 2.579-8.215 2.579-2.71 0-11.479-1.803-12.518-1.967-1.364-.21-2.644.716-2.859 2.081-.215 1.364.717 2.644 2.081 2.859.924.146 10.077 2.028 13.296 2.028 5.594 0 9.653-1.477 12.065-4.389.067-.081.196-.245.196-.245l48.294-14.246c5.102-1.497 10.465 1.079 12.48 5.996 2.139 5.209-.22 11.081-5.369 13.367z"/></g></g></svg>