<svg id="Layer_1" enable-background="new 0 0 256 256" height="512" viewBox="0 0 256 256" width="512" xmlns="http://www.w3.org/2000/svg"><g><path d="m81.785 175.162c-1.381 0-2.5-1.119-2.5-2.5v-143.447c0-1.381 1.119-2.5 2.5-2.5s2.5 1.119 2.5 2.5v143.447c0 1.381-1.119 2.5-2.5 2.5z" fill="#ebe7f2"/><path d="m174.215 175.162c-1.381 0-2.5-1.119-2.5-2.5v-143.447c0-1.381 1.119-2.5 2.5-2.5s2.5 1.119 2.5 2.5v143.447c0 1.381-1.119 2.5-2.5 2.5z" fill="#ebe7f2"/><path d="m139.775 61.898c-1.208 0-2.381.215-3.483.631-1.814-2.611-4.813-4.234-8.13-4.234s-6.316 1.623-8.13 4.234c-1.102-.416-2.275-.631-3.483-.631-5.463 0-9.908 4.444-9.908 9.908 0 3.338 1.685 6.417 4.405 8.235v16.212c0 1.381 1.119 2.5 2.5 2.5h28.833c1.381 0 2.5-1.119 2.5-2.5v-15.962c2.931-1.771 4.805-4.992 4.805-8.484 0-5.464-4.445-9.909-9.909-9.909zm-23.729 31.856v-3.486h23.833v3.486zm25.453-17.358c-.975.366-1.62 1.299-1.62 2.34v6.531h-23.833v-6.692c0-.988-.582-1.884-1.485-2.284-1.774-.789-2.92-2.549-2.92-4.484 0-2.706 2.202-4.908 4.908-4.908 1.097 0 2.139.36 3.011 1.041.646.505 1.497.658 2.279.417.782-.243 1.396-.854 1.643-1.635.648-2.05 2.529-3.427 4.68-3.427s4.032 1.377 4.68 3.427c.247.781.86 1.392 1.643 1.635.781.24 1.634.087 2.279-.417.873-.681 1.914-1.041 3.011-1.041 2.707 0 4.908 2.202 4.908 4.908.001 2.029-1.279 3.873-3.184 4.589z" fill="#65c1d6"/><g fill="#846f75"><path d="m187.225 26.715h-118.45c-1.381 0-2.5 1.119-2.5 2.5v143.447c0 1.381 1.119 2.5 2.5 2.5h118.449c1.381 0 2.5-1.119 2.5-2.5v-143.447c.001-1.381-1.119-2.5-2.499-2.5zm-2.5 143.447h-113.45v-138.447h113.449v138.447z"/><path d="m93.798 180.75c-1.381 0-2.5 1.119-2.5 2.5v46.854h-9.143v-46.854c0-1.381-1.119-2.5-2.5-2.5s-2.5 1.119-2.5 2.5v49.354c0 1.381 1.119 2.5 2.5 2.5h14.143c1.381 0 2.5-1.119 2.5-2.5v-49.354c0-1.381-1.119-2.5-2.5-2.5z"/><path d="m176.344 180.75c-1.381 0-2.5 1.119-2.5 2.5v46.854h-9.143v-46.854c0-1.381-1.119-2.5-2.5-2.5s-2.5 1.119-2.5 2.5v49.354c0 1.381 1.119 2.5 2.5 2.5h14.143c1.381 0 2.5-1.119 2.5-2.5v-49.354c0-1.381-1.119-2.5-2.5-2.5z"/><path d="m135.071 180.75c-1.381 0-2.5 1.119-2.5 2.5v18.569h-9.143v-18.569c0-1.381-1.119-2.5-2.5-2.5s-2.5 1.119-2.5 2.5v21.069c0 1.381 1.119 2.5 2.5 2.5h14.143c1.381 0 2.5-1.119 2.5-2.5v-21.069c0-1.381-1.119-2.5-2.5-2.5z"/><path d="m96.472 114.458h63.057c1.381 0 2.5-1.119 2.5-2.5v-62.961c0-1.381-1.119-2.5-2.5-2.5h-63.057c-1.381 0-2.5 1.119-2.5 2.5v62.961c0 1.381 1.119 2.5 2.5 2.5zm2.5-62.961h58.057v57.961h-58.057z"/><path d="m96.472 130.828h63.057c1.381 0 2.5-1.119 2.5-2.5s-1.119-2.5-2.5-2.5h-63.057c-1.381 0-2.5 1.119-2.5 2.5s1.119 2.5 2.5 2.5z"/><path d="m96.472 147.198h63.057c1.381 0 2.5-1.119 2.5-2.5s-1.119-2.5-2.5-2.5h-63.057c-1.381 0-2.5 1.119-2.5 2.5s1.119 2.5 2.5 2.5z"/></g></g></svg>