<svg id="Layer_1" enable-background="new 0 0 256 256" height="512" viewBox="0 0 256 256" width="512" xmlns="http://www.w3.org/2000/svg"><g><path d="m128 162.181c-14.218 0-25.785-11.567-25.785-25.786 0-14.218 11.567-25.785 25.785-25.785s25.785 11.567 25.785 25.785-11.567 25.786-25.785 25.786zm0-46.572c-11.461 0-20.785 9.324-20.785 20.785 0 11.462 9.324 20.786 20.785 20.786s20.785-9.324 20.785-20.786c0-11.46-9.324-20.785-20.785-20.785z" fill="#ebe7f2"/><path d="m128 174.537c-21.032 0-38.143-17.11-38.143-38.143 0-1.381-1.119-2.5-2.5-2.5h-19.423c-1.381 0-2.5 1.119-2.5 2.5s1.119 2.5 2.5 2.5h7.275c1.271 27.159 23.132 49.022 50.291 50.294v7.273c0 1.381 1.119 2.5 2.5 2.5s2.5-1.119 2.5-2.5v-19.425c0-1.38-1.119-2.499-2.5-2.499zm-47.789-35.642h4.724c1.253 21.801 18.764 39.311 40.565 40.563v4.725c-24.401-1.263-44.027-20.887-45.289-45.288z" fill="#f9b087"/><g fill="#846f75"><path d="m236.377 81.237c0-17.051-9.887-30.922-22.04-30.922s-22.04 13.871-22.04 30.922c0 15.864 8.56 28.969 19.54 30.717v91.23c0 1.381 1.119 2.5 2.5 2.5s2.5-1.119 2.5-2.5v-91.23c10.98-1.747 19.54-14.852 19.54-30.717zm-22.04 25.922c-9.396 0-17.04-11.629-17.04-25.922s7.645-25.922 17.04-25.922 17.04 11.629 17.04 25.922-7.645 25.922-17.04 25.922z"/><path d="m61.203 50.315c-1.381 0-2.5 1.119-2.5 2.5v34.804h-14.571c.013-.102.031-.202.031-.307v-34.497c0-1.381-1.119-2.5-2.5-2.5s-2.5 1.119-2.5 2.5v34.497c0 .105.018.205.031.307h-14.571v-34.804c0-1.381-1.119-2.5-2.5-2.5s-2.5 1.119-2.5 2.5v37.304c0 11.308 8.56 20.648 19.54 21.894v91.171c0 1.381 1.119 2.5 2.5 2.5s2.5-1.119 2.5-2.5v-91.171c10.98-1.246 19.54-10.586 19.54-21.894v-37.304c0-1.38-1.119-2.5-2.5-2.5zm-19.54 56.844c-8.544 0-15.62-6.329-16.836-14.54h33.671c-1.215 8.212-8.291 14.54-16.835 14.54z"/><path d="m128 127.014c-5.173 0-9.382 4.208-9.382 9.381 0 4.306 2.92 7.935 6.882 9.033v18.693c0 1.381 1.119 2.5 2.5 2.5s2.5-1.119 2.5-2.5v-18.693c3.961-1.098 6.882-4.727 6.882-9.033 0-5.173-4.209-9.381-9.382-9.381zm0 13.762c-2.416 0-4.382-1.966-4.382-4.382s1.966-4.381 4.382-4.381 4.382 1.965 4.382 4.381-1.966 4.382-4.382 4.382z"/><path d="m128 73.828c-34.499 0-62.566 28.067-62.566 62.566 0 34.5 28.067 62.567 62.566 62.567s62.566-28.067 62.566-62.567c0-34.498-28.067-62.566-62.566-62.566zm0 120.134c-31.742 0-57.566-25.824-57.566-57.567 0-30.904 24.481-56.188 55.066-57.503v16.861c0 1.381 1.119 2.5 2.5 2.5s2.5-1.119 2.5-2.5v-16.861c29.756 1.279 53.724 25.247 55.003 55.003h-16.86c-1.381 0-2.5 1.119-2.5 2.5s1.119 2.5 2.5 2.5h16.86c-1.315 30.586-26.599 55.067-57.503 55.067z"/></g></g></svg>