<svg id="Layer_1" enable-background="new 0 0 256 256" height="512" viewBox="0 0 256 256" width="512" xmlns="http://www.w3.org/2000/svg"><g><path d="m227.53 125.151h-63.268c-1.381 0-2.5-1.119-2.5-2.5s1.119-2.5 2.5-2.5h63.268c1.381 0 2.5 1.119 2.5 2.5s-1.119 2.5-2.5 2.5z" fill="#ebe7f2"/><path d="m118.996 88.129h-62.265c-1.381 0-2.5-1.119-2.5-2.5s1.119-2.5 2.5-2.5h62.264c1.381 0 2.5 1.119 2.5 2.5s-1.119 2.5-2.499 2.5z" fill="#ebe7f2"/><g fill="#f9b087"><path d="m40.946 143.083c-1.144.138-2.045 1.039-2.183 2.183-.098.811-2.27 19.982 8.582 30.833 7.633 7.633 19.383 8.822 25.963 8.822 2.774 0 4.629-.211 4.87-.24 1.144-.138 2.045-1.039 2.183-2.183.098-.811 2.27-19.982-8.582-30.833-10.85-10.852-30.022-8.681-30.833-8.582zm2.639 4.822c4.888-.211 17.401.038 24.659 7.295 5.885 5.885 7.161 15.221 7.321 21.15l-14.235-14.235c-.976-.977-2.56-.977-3.535 0-.977.976-.977 2.559 0 3.535l14.235 14.235c-5.93-.16-15.265-1.437-21.15-7.321-7.257-7.258-7.506-19.768-7.295-24.659z"/><path d="m136.964 145.266c-.138-1.144-1.039-2.045-2.183-2.183-.812-.1-19.983-2.27-30.833 8.582-10.852 10.851-8.68 30.022-8.582 30.833.138 1.144 1.039 2.045 2.183 2.183.241.029 2.095.24 4.87.24 6.581 0 18.331-1.189 25.963-8.822 10.851-10.85 8.68-30.022 8.582-30.833zm-12.117 27.298c-5.886 5.885-15.221 7.161-21.15 7.321l14.236-14.235c.977-.976.977-2.559 0-3.535-.976-.977-2.56-.977-3.535 0l-14.236 14.235c.16-5.93 1.437-15.265 7.321-21.15 7.259-7.258 19.771-7.506 24.659-7.295.212 4.891-.038 17.401-7.295 24.659z"/><path d="m89.407 105.342c-.906-.711-2.181-.711-3.087 0-.643.504-15.734 12.525-15.734 27.871s15.092 27.367 15.734 27.871c.453.355.998.533 1.543.533s1.09-.178 1.543-.533c.643-.504 15.734-12.525 15.734-27.871.001-15.346-15.09-27.367-15.733-27.871zm.957 48.002v-20.132c0-1.381-1.119-2.5-2.5-2.5s-2.5 1.119-2.5 2.5v20.132c-4.08-4.306-9.778-11.81-9.778-20.132 0-10.266 8.671-19.288 12.278-22.596 3.607 3.309 12.277 12.331 12.277 22.596 0 8.322-5.698 15.826-9.777 20.132z"/></g><g fill="#846f75"><path d="m133.011 86.32c-1.199-1.137-1.887-2.737-1.887-4.39v-10.49h4.739c5.341 0 9.687-4.346 9.687-9.687v-2.958c0-5.341-4.345-9.687-9.687-9.687h-95.999c-5.341 0-9.687 4.346-9.687 9.687v2.958c0 5.341 4.345 9.687 9.687 9.687h4.739v10.49c0 1.653-.688 3.253-1.887 4.391l-13.3 12.617c-2.189 2.078-3.445 5-3.445 8.018v87.435c0 6.893 5.607 12.5 12.5 12.5h98.787c6.893 0 12.5-5.607 12.5-12.5v-87.435c0-3.018-1.256-5.94-3.445-8.018zm-97.833-24.567v-2.958c0-2.584 2.103-4.687 4.687-4.687h95.999c2.584 0 4.687 2.103 4.687 4.687v2.958c0 2.584-2.103 4.687-4.687 4.687h-96c-2.584 0-4.686-2.102-4.686-4.687zm109.579 132.638c0 4.136-3.364 7.5-7.5 7.5h-98.787c-4.136 0-7.5-3.364-7.5-7.5v-87.435c0-1.653.688-3.253 1.887-4.391l13.301-12.618c2.189-2.078 3.445-5 3.445-8.018v-10.489h76.521v10.49c0 3.018 1.256 5.94 3.445 8.018l13.301 12.619c1.199 1.138 1.887 2.738 1.887 4.391z"/><path d="m227.53 87.719h-63.268c-1.381 0-2.5 1.119-2.5 2.5v114.172c0 1.381 1.119 2.5 2.5 2.5h63.268c1.381 0 2.5-1.119 2.5-2.5v-114.172c0-1.381-1.119-2.5-2.5-2.5zm-2.5 5v18.396h-58.268v-18.396zm-58.268 109.172v-85.776h58.268v85.776z"/></g><path d="m216.695 143.873c-.138-1.144-1.039-2.045-2.183-2.183-.812-.1-19.982-2.271-30.833 8.582-10.852 10.851-8.68 30.022-8.582 30.833.138 1.144 1.039 2.045 2.183 2.183.241.029 2.095.24 4.87.24 6.581 0 18.331-1.189 25.963-8.822 10.851-10.851 8.679-30.022 8.582-30.833zm-12.117 27.298c-5.886 5.885-15.221 7.16-21.149 7.321l14.235-14.235c.977-.976.977-2.559 0-3.535-.976-.977-2.56-.977-3.535 0l-14.235 14.235c.16-5.93 1.437-15.265 7.321-21.15 7.259-7.259 19.77-7.507 24.659-7.295.21 4.891-.039 17.401-7.296 24.659z" fill="#f9b087"/></g></svg>