<svg id="Layer_1" enable-background="new 0 0 256 256" height="512" viewBox="0 0 256 256" width="512" xmlns="http://www.w3.org/2000/svg"><g><path d="m128.008 207.618c-.442 0-.891-.118-1.296-.364l-15.144-9.21-15.145 9.21c-.798.484-1.8.485-2.598 0l-15.147-9.21-15.147 9.21c-1.179.718-2.717.342-3.435-.837-.717-1.18-.342-2.718.837-3.435l16.446-10c.798-.485 1.8-.485 2.598 0l15.147 9.21 15.145-9.21c.798-.484 1.8-.485 2.598 0l16.443 10c1.18.718 1.555 2.255.837 3.435-.471.773-1.295 1.201-2.139 1.201z" fill="#ebe7f2"/><path d="m169.362 56.127c-1.38 0-2.718.259-3.968.76-1.949-2.929-5.253-4.758-8.917-4.758s-6.968 1.829-8.916 4.758c-1.25-.501-2.588-.76-3.968-.76-5.911 0-10.719 4.809-10.719 10.719 0 3.661 1.874 7.033 4.887 8.989v18.135c0 1.381 1.119 2.5 2.5 2.5h31.988c1.381 0 2.5-1.119 2.5-2.5v-17.867c3.247-1.898 5.332-5.426 5.332-9.256.001-5.911-4.808-10.72-10.719-10.72zm-26.6 35.343v-4.416h26.988v4.416zm28.608-19.276c-.975.366-1.62 1.298-1.62 2.34v7.521h-26.988v-7.699c0-.988-.582-1.883-1.485-2.285-2.067-.918-3.402-2.969-3.402-5.225 0-3.153 2.565-5.719 5.719-5.719 1.279 0 2.493.419 3.51 1.212.646.504 1.498.658 2.279.417.782-.243 1.396-.854 1.642-1.634.755-2.389 2.946-3.993 5.453-3.993s4.698 1.605 5.453 3.993c.247.781.86 1.391 1.643 1.634.781.241 1.633.087 2.279-.417 1.017-.793 2.23-1.212 3.51-1.212 3.154 0 5.719 2.565 5.719 5.719 0 2.364-1.492 4.513-3.712 5.348z" fill="#f9b087"/><g fill="#846f75"><path d="m125.406 212.775h-60.675v-134.195h32.854c1.381 0 2.5-1.119 2.5-2.5v-32.855h91.183v107.877c0 1.381 1.119 2.5 2.5 2.5s2.5-1.119 2.5-2.5v-110.377c0-1.381-1.119-2.5-2.5-2.5h-96.183c-.663 0-1.299.263-1.768.732l-35.353 35.355c-.469.469-.732 1.104-.732 1.768v139.195c0 1.381 1.119 2.5 2.5 2.5h63.174c1.381 0 2.5-1.119 2.5-2.5s-1.119-2.5-2.5-2.5zm-57.139-139.195 26.818-26.819v26.819z"/><path d="m193.769 182.81c-1.381 0-2.5 1.119-2.5 2.5v27.465h-17.891c-1.381 0-2.5 1.119-2.5 2.5s1.119 2.5 2.5 2.5h20.391c1.381 0 2.5-1.119 2.5-2.5v-29.965c0-1.381-1.12-2.5-2.5-2.5z"/><path d="m99.273 109.555c0-1.381-1.119-2.5-2.5-2.5h-12.654c-1.381 0-2.5 1.119-2.5 2.5v12.655c0 1.381 1.119 2.5 2.5 2.5h12.655c1.381 0 2.5-1.119 2.5-2.5v-12.655zm-5 10.154h-7.655v-7.655h7.655z"/><path d="m171.881 113.382h-62.349c-1.381 0-2.5 1.119-2.5 2.5s1.119 2.5 2.5 2.5h62.349c1.381 0 2.5-1.119 2.5-2.5s-1.119-2.5-2.5-2.5z"/><path d="m99.273 137.673c0-1.381-1.119-2.5-2.5-2.5h-12.654c-1.381 0-2.5 1.119-2.5 2.5v12.654c0 1.381 1.119 2.5 2.5 2.5h12.655c1.381 0 2.5-1.119 2.5-2.5v-12.654zm-5 10.154h-7.655v-7.654h7.655z"/><path d="m171.881 141.5h-62.349c-1.381 0-2.5 1.119-2.5 2.5s1.119 2.5 2.5 2.5h62.349c1.381 0 2.5-1.119 2.5-2.5s-1.119-2.5-2.5-2.5z"/><path d="m96.773 163.291h-12.654c-1.381 0-2.5 1.119-2.5 2.5v12.655c0 1.381 1.119 2.5 2.5 2.5h12.655c1.381 0 2.5-1.119 2.5-2.5v-12.655c-.001-1.381-1.12-2.5-2.501-2.5zm-2.5 12.654h-7.655v-7.655h7.655z"/><path d="m171.881 169.618h-62.349c-1.381 0-2.5 1.119-2.5 2.5s1.119 2.5 2.5 2.5h62.349c1.381 0 2.5-1.119 2.5-2.5s-1.119-2.5-2.5-2.5z"/><path d="m152.654 193.423c-4.567-.121-9.025 1.96-13.263 6.198-7.981 7.981-14.923 24.228-7.632 31.518 2.166 2.166 5.121 3.076 8.416 3.076 7.797 0 17.492-5.096 23.103-10.707 4.238-4.238 6.323-8.701 6.197-13.264-.11-4.005-1.99-7.942-5.434-11.386-3.444-3.445-7.382-5.324-11.387-5.435zm7.088 26.549c-7.645 7.644-20.439 11.639-24.448 7.631-4.007-4.008-.013-16.803 7.632-24.448 3.145-3.145 6.289-4.738 9.347-4.738.081 0 .162.001.243.003 2.742.076 5.43 1.412 7.989 3.972 2.56 2.559 3.896 5.247 3.971 7.989.087 3.136-1.506 6.363-4.734 9.591z"/><path d="m212.851 150.047c-1.431-1.431-3.333-2.219-5.357-2.219-2.023 0-3.926.788-5.356 2.219l-40.698 40.698c-.977.976-.977 2.559 0 3.535.976.977 2.56.977 3.535 0l40.698-40.698c.974-.973 2.67-.973 3.643 0 .486.486.754 1.133.754 1.821s-.268 1.335-.754 1.822l-40.698 40.698c-.977.976-.977 2.559 0 3.535.488.488 1.128.732 1.768.732s1.28-.244 1.768-.732l40.698-40.698c1.431-1.431 2.219-3.333 2.219-5.357s-.789-3.925-2.22-5.356z"/></g></g></svg>