<svg id="Layer_1" enable-background="new 0 0 256 256" height="512" viewBox="0 0 256 256" width="512" xmlns="http://www.w3.org/2000/svg"><g><path d="m128 212.128c-46.388 0-84.128-37.739-84.128-84.128s37.74-84.128 84.128-84.128c46.389 0 84.128 37.739 84.128 84.128s-37.739 84.128-84.128 84.128zm0-163.256c-43.631 0-79.128 35.497-79.128 79.128s35.497 79.128 79.128 79.128 79.128-35.497 79.128-79.128-35.497-79.128-79.128-79.128z" fill="#ebe7f2"/><path d="m127 142.562c-1.381 0-2.5-1.119-2.5-2.5s1.119-2.5 2.5-2.5c6.303 0 11.43-5.127 11.43-11.43s-5.127-11.43-11.43-11.43c-1.381 0-2.5-1.119-2.5-2.5s1.119-2.5 2.5-2.5c9.06 0 16.43 7.37 16.43 16.43s-7.37 16.43-16.43 16.43z" fill="#ed9abc"/><g fill="#846f75"><path d="m128 24.675c-56.974 0-103.325 46.351-103.325 103.325s46.351 103.325 103.325 103.325 103.325-46.351 103.325-103.325-46.351-103.325-103.325-103.325zm0 201.65c-54.217 0-98.325-44.108-98.325-98.325s44.108-98.325 98.325-98.325 98.325 44.108 98.325 98.325-44.108 98.325-98.325 98.325z"/><path d="m127 100.189c-14.305 0-25.943 11.638-25.943 25.942 0 14.306 11.638 25.943 25.943 25.943s25.942-11.638 25.942-25.943c0-14.304-11.637-25.942-25.942-25.942zm0 46.886c-11.548 0-20.943-9.396-20.943-20.943s9.395-20.942 20.943-20.942 20.942 9.395 20.942 20.942-9.394 20.943-20.942 20.943z"/><path d="m184.951 110.933c-.026-19.178-15.637-34.772-34.82-34.772-6.419 0-12.596 1.731-18.026 5.031-6.344-10.161-17.42-16.366-29.526-16.366-19.2 0-34.821 15.62-34.821 34.82 0 4.563.862 8.974 2.565 13.14-8.267 6.588-13.144 16.623-13.144 27.241 0 19.2 15.621 34.82 34.821 34.82 7.678 0 15.046-2.507 21.089-7.118 5.75 11.919 17.951 19.71 31.377 19.71 18.312 0 33.2-13.851 34.689-31.872 10.343-3.038 17.664-12.669 17.664-23.6.001-8.663-4.508-16.585-11.868-21.034zm-8.698 40.211c-1.132.236-1.954 1.218-1.988 2.373-.48 16.218-13.569 28.922-29.798 28.922-12.514 0-23.784-7.902-28.044-19.663-.286-.79-.95-1.383-1.767-1.579-.193-.047-.389-.069-.583-.069-.627 0-1.24.236-1.708.675-5.545 5.188-12.778 8.045-20.364 8.045-16.443 0-29.821-13.377-29.821-29.82 0-9.683 4.738-18.801 12.675-24.392.998-.703 1.342-2.023.814-3.124-1.932-4.032-2.911-8.361-2.911-12.865 0-16.443 13.377-29.82 29.821-29.82 11.161 0 21.301 6.161 26.463 16.078.335.644.934 1.11 1.64 1.278.706.167 1.45.021 2.04-.404 5.099-3.675 11.119-5.617 17.409-5.617 16.443 0 29.82 13.377 29.82 29.82 0 .433-.015.86-.033 1.288-.041.969.482 1.874 1.343 2.322 6.514 3.396 10.56 10.054 10.56 17.376-.001 9.226-6.548 17.292-15.568 19.176z"/></g><g fill="#ebe7f2"><path d="m91.88 164.847c-13.631 0-24.721-11.09-24.721-24.721 0-1.381 1.119-2.5 2.5-2.5s2.5 1.119 2.5 2.5c0 10.874 8.847 19.721 19.721 19.721 5.016 0 9.798-1.89 13.466-5.321 1.009-.941 2.591-.89 3.534.118.943 1.009.891 2.591-.118 3.534-4.597 4.301-10.593 6.669-16.882 6.669z"/><path d="m171.225 113.48c-1.381 0-2.5-1.119-2.5-2.5 0-10.563-8.438-19.158-18.811-19.158-3.961 0-7.753 1.244-10.966 3.598-1.114.815-2.679.574-3.494-.539-.816-1.114-.574-2.679.539-3.494 4.076-2.986 8.89-4.564 13.921-4.564 13.129 0 23.811 10.837 23.811 24.158 0 1.38-1.12 2.499-2.5 2.499z"/></g></g></svg>