<svg id="Layer_1" enable-background="new 0 0 256 256" height="512" viewBox="0 0 256 256" width="512" xmlns="http://www.w3.org/2000/svg"><g><path d="m127.42 85.263c-7.245 0-13.14-5.894-13.14-13.139s5.895-13.139 13.14-13.139 13.139 5.894 13.139 13.139-5.894 13.139-13.139 13.139zm0-21.278c-4.488 0-8.14 3.651-8.14 8.139s3.651 8.139 8.14 8.139c4.487 0 8.139-3.651 8.139-8.139s-3.652-8.139-8.139-8.139z" fill="#65c1d6"/><path d="m92.837 217.343c-.946 0-1.852-.54-2.272-1.455-11.114-24.143-15.753-51.55-14.181-83.788.067-1.379 1.233-2.434 2.619-2.375 1.379.067 2.442 1.24 2.375 2.619-1.532 31.416 2.959 58.059 13.728 81.454.578 1.254.029 2.739-1.226 3.316-.338.156-.693.229-1.043.229z" fill="#ebe7f2"/><path d="m181.283 220.818c-21.589 0-39.152-17.563-39.152-39.152s17.563-39.152 39.152-39.152 39.152 17.563 39.152 39.152c.001 21.589-17.563 39.152-39.152 39.152zm0-73.304c-18.832 0-34.152 15.321-34.152 34.152s15.32 34.152 34.152 34.152 34.152-15.32 34.152-34.152-15.32-34.152-34.152-34.152z" fill="#65c1d6"/><g fill="#846f75"><path d="m207.253 85.908c-2.352-3.535-6.29-5.645-10.535-5.645h-29.582c-2.371-25.252-23.681-45.082-49.543-45.082-32.366 0-55.497 9.588-68.75 28.498-12.888 18.389-16.408 45.603-10.463 80.885 4.832 28.673 14.563 55.478 20.376 71.492l.37 1.019c.368 1.017 1.327 1.648 2.35 1.648.283 0 .571-.048.853-.15 1.298-.471 1.969-1.905 1.497-3.203l-.369-1.02c-10.65-29.333-38.936-107.253-10.519-147.801 12.262-17.496 34.015-26.367 64.655-26.367 24.687 0 44.771 20.084 44.771 44.77 0 24.687-20.084 44.771-44.771 44.771-1.381 0-2.5 1.119-2.5 2.5s1.119 2.5 2.5 2.5c1.633 0 3.245-.084 4.838-.239-15.855 14.958-20.523 38.991-10.164 59.236l12.097 23.643c.442.865 1.318 1.362 2.228 1.362.383 0 .772-.088 1.137-.275 1.229-.629 1.716-2.135 1.087-3.364l-12.097-23.643c-10.969-21.438-3.226-47.6 17.619-59.626 19.137-6.858 32.886-25.118 33.019-46.553h29.362c2.606 0 4.929 1.245 6.372 3.415 1.444 2.17 1.694 4.793.688 7.197-4.271 10.193-14.171 16.779-25.222 16.779h-10.197c-1.381 0-2.5 1.119-2.5 2.5s1.119 2.5 2.5 2.5h10.195c13.072 0 24.782-7.791 29.833-19.848 1.641-3.916 1.216-8.364-1.135-11.899z"/><path d="m197.606 169.418-20.038 20.038-10.537-10.536c-.977-.977-2.559-.977-3.535 0-.977.976-.977 2.559 0 3.535l12.305 12.304c.488.488 1.128.732 1.768.732s1.279-.244 1.768-.732l21.806-21.806c.977-.976.977-2.559 0-3.535-.978-.976-2.56-.976-3.537 0z"/><path d="m107.086 134.722c1.363 0 2.476-1.095 2.496-2.462.021-1.378-1.081-2.514-2.46-2.537-.141-.002-14.333-.37-31.155-11.388-1.154-.755-2.703-.435-3.462.722-.756 1.155-.433 2.705.722 3.461 18.122 11.868 33.193 12.196 33.826 12.205h.033z"/></g></g></svg>