<svg id="Layer_1" enable-background="new 0 0 256 256" height="512" viewBox="0 0 256 256" width="512" xmlns="http://www.w3.org/2000/svg"><g><path d="m78.411 219.072c-.952 0-1.861-.547-2.279-1.47-19.551-43.174-19.551-96.815 0-139.989.569-1.258 2.051-1.815 3.309-1.246s1.816 2.051 1.246 3.309c-18.975 41.902-18.975 93.962 0 135.864.57 1.258.012 2.739-1.246 3.309-.335.151-.685.223-1.03.223z" fill="#ebe7f2"/><path d="m177.588 219.072c-.345 0-.694-.072-1.029-.224-1.258-.569-1.815-2.051-1.246-3.309 18.976-41.902 18.976-93.962 0-135.864-.569-1.258-.012-2.739 1.246-3.309 1.259-.571 2.739-.011 3.309 1.246 19.552 43.174 19.552 96.815 0 139.989-.419.924-1.328 1.471-2.28 1.471z" fill="#ebe7f2"/><g fill="#846f75"><path d="m193.681 77.391c-.691-1.194-2.221-1.602-3.416-.908-1.194.692-1.602 2.222-.908 3.416 23.982 41.35 24.219 92.626.713 134.173h-124.139c-23.506-41.547-23.269-92.823.714-134.173.693-1.194.286-2.724-.908-3.416-1.194-.693-2.724-.286-3.417.908-25.122 43.312-25.122 97.123 0 140.435.447.771 1.271 1.246 2.163 1.246h127.037c.892 0 1.716-.475 2.162-1.246 25.12-43.312 25.12-97.124-.001-140.435z"/><path d="m54.479 67.936h147.042c1.381 0 2.5-1.119 2.5-2.5v-26.007c0-1.381-1.119-2.5-2.5-2.5h-147.042c-1.381 0-2.5 1.119-2.5 2.5v26.007c0 1.38 1.119 2.5 2.5 2.5zm2.5-26.007h142.042v21.007h-142.042z"/></g><g fill="#65c1d6"><path d="m197.542 87.771h-43.212v-3.927c0-1.381-1.119-2.5-2.5-2.5h-2.527v-41.915c0-1.381-1.119-2.5-2.5-2.5h-37.605c-1.381 0-2.5 1.119-2.5 2.5v41.916h-2.527c-1.381 0-2.5 1.119-2.5 2.5v3.919l-42.683.007c-1.38.001-2.5 1.121-2.499 2.501.001 1.381 1.12 2.499 2.5 2.499h.001c12.767-.007 35.264-.015 42.68-.008v3.936c0 1.381 1.119 2.5 2.5 2.5h47.66c1.381 0 2.5-1.119 2.5-2.5v-3.928h43.212c1.381 0 2.5-1.119 2.5-2.5s-1.119-2.5-2.5-2.5zm-85.845-45.842h32.605v39.416h-32.605zm37.633 52.27h-42.66v-7.854h42.66z"/><path d="m102.574 122.417c-1.381 0-2.5-1.119-2.5-2.5v-10.054c0-1.381 1.119-2.5 2.5-2.5s2.5 1.119 2.5 2.5v10.054c0 1.381-1.119 2.5-2.5 2.5z"/><path d="m102.574 152.676c-1.381 0-2.5-1.119-2.5-2.5v-10.054c0-1.381 1.119-2.5 2.5-2.5s2.5 1.119 2.5 2.5v10.054c0 1.381-1.119 2.5-2.5 2.5z"/><path d="m84.964 141.506c-.864 0-1.705-.448-2.167-1.25-.69-1.195-.281-2.725.915-3.415l8.707-5.027c1.195-.692 2.725-.28 3.415.915s.281 2.725-.915 3.415l-8.707 5.027c-.394.227-.824.335-1.248.335z"/><path d="m111.169 126.376c-.864 0-1.705-.448-2.167-1.25-.69-1.196-.281-2.725.915-3.415l8.707-5.026c1.196-.692 2.724-.28 3.415.915.69 1.196.281 2.725-.915 3.415l-8.707 5.026c-.394.228-.824.335-1.248.335z"/><path d="m119.003 142.188c-.424 0-.854-.107-1.248-.335l-8.707-5.027c-1.196-.69-1.605-2.22-.915-3.415.69-1.196 2.22-1.606 3.415-.915l8.707 5.027c1.196.69 1.605 2.22.915 3.415-.462.801-1.303 1.25-2.167 1.25z"/><path d="m92.798 127.058c-.424 0-.854-.107-1.248-.335l-8.707-5.026c-1.196-.69-1.605-2.219-.915-3.415.689-1.195 2.217-1.606 3.415-.915l8.707 5.026c1.196.69 1.605 2.219.915 3.415-.462.801-1.302 1.25-2.167 1.25z"/><path d="m154.606 174.449c-1.381 0-2.5-1.119-2.5-2.5v-10.054c0-1.381 1.119-2.5 2.5-2.5s2.5 1.119 2.5 2.5v10.054c0 1.381-1.119 2.5-2.5 2.5z"/><path d="m154.606 204.708c-1.381 0-2.5-1.119-2.5-2.5v-10.053c0-1.381 1.119-2.5 2.5-2.5s2.5 1.119 2.5 2.5v10.053c0 1.381-1.119 2.5-2.5 2.5z"/><path d="m136.996 193.538c-.863 0-1.704-.448-2.167-1.25-.69-1.196-.28-2.725.915-3.415l8.707-5.026c1.193-.69 2.724-.281 3.415.915.69 1.196.28 2.725-.915 3.415l-8.707 5.026c-.393.228-.823.335-1.248.335z"/><path d="m163.201 178.408c-.863 0-1.704-.448-2.167-1.25-.69-1.196-.28-2.725.915-3.415l8.707-5.026c1.192-.69 2.725-.281 3.415.915s.28 2.725-.915 3.415l-8.707 5.026c-.393.228-.823.335-1.248.335z"/><path d="m171.036 194.22c-.425 0-.854-.107-1.248-.335l-8.706-5.026c-1.195-.69-1.605-2.22-.915-3.415.69-1.196 2.221-1.605 3.415-.915l8.706 5.026c1.195.69 1.605 2.22.915 3.415-.463.801-1.304 1.25-2.167 1.25z"/><path d="m144.831 179.09c-.425 0-.854-.107-1.248-.335l-8.706-5.026c-1.195-.69-1.605-2.22-.915-3.415.691-1.196 2.222-1.605 3.415-.915l8.706 5.026c1.195.69 1.605 2.22.915 3.415-.463.802-1.304 1.25-2.167 1.25z"/><path d="m154.606 142.516c-6.709 0-12.167-5.458-12.167-12.167s5.458-12.168 12.167-12.168 12.168 5.459 12.168 12.168-5.459 12.167-12.168 12.167zm0-19.335c-3.952 0-7.167 3.216-7.167 7.168s3.215 7.167 7.167 7.167 7.168-3.215 7.168-7.167-3.215-7.168-7.168-7.168z"/><path d="m102.277 191.079c-6.709 0-12.167-5.459-12.167-12.168s5.458-12.167 12.167-12.167 12.167 5.458 12.167 12.167-5.458 12.168-12.167 12.168zm0-19.335c-3.952 0-7.167 3.215-7.167 7.167s3.215 7.168 7.167 7.168 7.167-3.216 7.167-7.168-3.215-7.167-7.167-7.167z"/></g></g></svg>