<svg id="Layer_1" enable-background="new 0 0 256 256" height="512" viewBox="0 0 256 256" width="512" xmlns="http://www.w3.org/2000/svg"><g><path d="m199.809 221.928h-143.618c-1.381 0-2.5-1.119-2.5-2.5s1.119-2.5 2.5-2.5h143.617c1.381 0 2.5 1.119 2.5 2.5s-1.119 2.5-2.499 2.5z" fill="#ebe7f2"/><path d="m218.062 99.757h-180.125c-1.381 0-2.5-1.119-2.5-2.5s1.119-2.5 2.5-2.5h180.125c1.381 0 2.5 1.119 2.5 2.5s-1.119 2.5-2.5 2.5z" fill="#ebe7f2"/><path d="m129 101.594c-21.899 0-39.716-17.816-39.716-39.716s17.817-39.715 39.716-39.715 39.716 17.816 39.716 39.716-17.817 39.715-39.716 39.715zm0-74.431c-19.143 0-34.716 15.573-34.716 34.716s15.573 34.715 34.716 34.715 34.716-15.573 34.716-34.716-15.573-34.715-34.716-34.715z" fill="#f9b087"/><g fill="#846f75"><path d="m91.784 181.803h7.348v10.663c0 1.381 1.119 2.5 2.5 2.5s2.5-1.119 2.5-2.5v-10.663h7.348c1.381 0 2.5-1.119 2.5-2.5v-10.213c0-1.381-1.119-2.5-2.5-2.5h-19.696c-1.381 0-2.5 1.119-2.5 2.5v10.212c0 1.382 1.119 2.501 2.5 2.501zm2.5-10.213h14.696v5.212h-14.696z"/><path d="m144.093 181.803h7.349v10.663c0 1.381 1.119 2.5 2.5 2.5s2.5-1.119 2.5-2.5v-10.663h7.348c1.381 0 2.5-1.119 2.5-2.5v-10.213c0-1.381-1.119-2.5-2.5-2.5h-19.696c-1.381 0-2.5 1.119-2.5 2.5v10.212c-.001 1.382 1.118 2.501 2.499 2.501zm2.5-10.213h14.696v5.212h-14.696z"/><path d="m225.778 109.506-20.628-50.392c-2.227-5.437-7.461-8.95-13.335-8.95h-15.593c-1.381 0-2.5 1.119-2.5 2.5s1.119 2.5 2.5 2.5h15.593c3.836 0 7.254 2.294 8.708 5.845l19.379 47.34h-183.804l19.379-47.34c1.454-3.55 4.872-5.845 8.708-5.845h17.755c1.381 0 2.5-1.119 2.5-2.5s-1.119-2.5-2.5-2.5h-17.755c-5.875 0-11.109 3.513-13.335 8.95l-20.621 50.374c-.028.068-.356.943-.356 1.361v18.689c0 11.924 9.701 21.625 21.625 21.625.74 0 1.472-.038 2.193-.111v68.375c0 7.945 6.464 14.409 14.409 14.409h119.799c7.945 0 14.409-6.464 14.409-14.409v-68.375c.721.073 1.453.111 2.193.111 11.924 0 21.625-9.701 21.625-21.625v-18.689c.001-.415-.321-1.278-.348-1.343zm-42.902 20.033c0 9.167-7.458 16.625-16.625 16.625-9.168 0-16.626-7.458-16.626-16.625v-16.189h33.251zm-38.251 0c0 9.167-7.458 16.625-16.625 16.625s-16.625-7.458-16.625-16.625v-16.189h33.25zm-38.25 0c0 9.167-7.458 16.625-16.625 16.625-9.167 0-16.625-7.458-16.625-16.625v-16.189h33.25zm-71.502 0v-16.189h33.251v16.189c0 9.167-7.458 16.625-16.625 16.625s-16.626-7.458-16.626-16.625zm162.436 89.889c0 5.188-4.221 9.409-9.409 9.409h-119.799c-5.188 0-9.409-4.221-9.409-9.409v-69.499c5.149-1.822 9.407-5.54 11.933-10.313 3.63 6.86 10.839 11.548 19.125 11.548s15.495-4.688 19.125-11.548c3.63 6.86 10.839 11.548 19.125 11.548s15.495-4.688 19.125-11.548c3.63 6.86 10.839 11.548 19.126 11.548 8.286 0 15.495-4.688 19.125-11.548 2.525 4.773 6.783 8.491 11.933 10.313zm23.818-89.889c0 9.167-7.458 16.625-16.625 16.625h-.001c-9.167 0-16.625-7.458-16.625-16.625v-16.189h33.251z"/><path d="m123.312 88.604c.535 1.29 1.425 1.851 2.078 2.094.442.166.919.277 1.449.277 2.383 0 5.837-2.261 11.971-12.115 4.131-6.636 7.897-14.181 9.345-17.911 1.781-4.591 2.002-7.894.593-10.285l4.962-1.598c1.314-.423 2.036-1.832 1.613-3.146-.425-1.315-1.837-2.034-3.146-1.613l-3.395 1.094 1.977-3.951c.618-1.235.118-2.736-1.116-3.354-1.237-.618-2.738-.117-3.354 1.117l-2.213 4.422-1.63-3.178c-.631-1.229-2.137-1.712-3.365-1.083-1.229.63-1.714 2.137-1.084 3.366l1.842 3.591c-.339.057-.684.137-1.042.271-2.581.963-4.838 3.917-7.547 9.875-3.272 7.199-10.204 26.668-7.938 32.127zm12.49-30.058c2.712-5.967 4.22-7.064 4.742-7.259.063-.023.133-.035.213-.035.347 0 2.031.751 2.031.751 1.65.75 2.953 1.343.705 7.139-2.956 7.623-11.607 22.619-15.696 26.111.158-4.595 3.615-17.049 8.005-26.707z"/><path d="m112.987 84.73h3.979c1.381 0 2.5-1.119 2.5-2.5s-1.119-2.5-2.5-2.5h-3.979c-3.374 0-8.388-12.445-8.388-18.982 0-4.805 3.763-8.713 8.388-8.713 1.95 0 3.778.674 5.287 1.95.932.787 2.296.787 3.228 0 1.509-1.275 3.337-1.95 5.287-1.95.478 0 .956.042 1.421.124 1.356.243 2.657-.666 2.898-2.025.24-1.359-.666-2.657-2.025-2.897-2.217-.395-4.523-.179-6.648.565.139-1.582.682-4.324 2.703-6.401.963-.989.941-2.572-.048-3.535-.988-.962-2.572-.942-3.535.048-3.251 3.34-3.994 7.541-4.136 9.898-1.415-.508-2.914-.775-4.432-.775-7.382 0-13.388 6.152-13.388 13.713 0 5.968 4.748 23.98 13.388 23.98z"/><path d="m186.024 156.777h-116.049c-1.381 0-2.5 1.119-2.5 2.5v43.686c0 1.381 1.119 2.5 2.5 2.5h116.049c1.381 0 2.5-1.119 2.5-2.5v-43.686c0-1.381-1.119-2.5-2.5-2.5zm-2.5 43.686h-111.049v-38.686h111.049z"/></g><g fill="#f9b087"><path d="m135.812 200.463v-5.498h36.257v5.498h5v-7.998c0-1.381-1.119-2.5-2.5-2.5h-41.257c-1.381 0-2.5 1.119-2.5 2.5v7.998z"/><path d="m83.931 200.463v-5.498h36.257v5.498h5v-7.998c0-1.381-1.119-2.5-2.5-2.5h-41.257c-1.381 0-2.5 1.119-2.5 2.5v7.998z"/></g></g></svg>