<svg id="Layer_1" enable-background="new 0 0 256 256" height="512" viewBox="0 0 256 256" width="512" xmlns="http://www.w3.org/2000/svg"><g><g fill="#f9b087"><path d="m128 67.04c-1.381 0-2.5-1.119-2.5-2.5v-18.072c0-1.381 1.119-2.5 2.5-2.5s2.5 1.119 2.5 2.5v18.072c0 1.381-1.119 2.5-2.5 2.5z"/><path d="m128 212.032c-1.381 0-2.5-1.119-2.5-2.5v-18.072c0-1.381 1.119-2.5 2.5-2.5s2.5 1.119 2.5 2.5v18.072c0 1.381-1.119 2.5-2.5 2.5z"/><path d="m57.394 171.266c-.863 0-1.704-.448-2.167-1.25-.69-1.196-.28-2.725.915-3.415l15.65-9.036c1.193-.69 2.724-.282 3.415.915.69 1.196.28 2.725-.915 3.415l-15.65 9.036c-.394.227-.824.335-1.248.335z"/><path d="m182.96 98.771c-.863 0-1.704-.448-2.167-1.25-.69-1.196-.28-2.725.915-3.415l15.65-9.036c1.193-.69 2.724-.282 3.415.915.69 1.196.28 2.725-.915 3.415l-15.65 9.036c-.394.227-.823.335-1.248.335z"/><path d="m73.04 98.771c-.425 0-.854-.108-1.248-.335l-15.65-9.036c-1.195-.69-1.605-2.219-.915-3.415s2.222-1.605 3.415-.915l15.65 9.036c1.195.69 1.605 2.219.915 3.415-.463.801-1.304 1.25-2.167 1.25z"/><path d="m198.606 171.266c-.425 0-.854-.108-1.248-.335l-15.65-9.036c-1.195-.69-1.605-2.219-.915-3.415.691-1.196 2.222-1.605 3.415-.915l15.65 9.036c1.195.69 1.605 2.219.915 3.415-.462.801-1.303 1.25-2.167 1.25z"/></g><g fill="#846f75"><path d="m128 48.968c7.298 0 13.234-5.937 13.234-13.234s-5.936-13.234-13.234-13.234-13.234 5.937-13.234 13.234 5.936 13.234 13.234 13.234zm0-21.468c4.54 0 8.234 3.694 8.234 8.234s-3.694 8.234-8.234 8.234-8.234-3.694-8.234-8.234 3.694-8.234 8.234-8.234z"/><path d="m128 207.032c-7.298 0-13.234 5.937-13.234 13.234s5.936 13.234 13.234 13.234 13.234-5.937 13.234-13.234-5.936-13.234-13.234-13.234zm0 21.468c-4.54 0-8.234-3.694-8.234-8.234s3.694-8.234 8.234-8.234 8.234 3.694 8.234 8.234-3.694 8.234-8.234 8.234z"/><path d="m48.096 160.898c-7.298 0-13.234 5.937-13.234 13.234s5.937 13.234 13.234 13.234 13.234-5.937 13.234-13.234-5.936-13.234-13.234-13.234zm0 21.469c-4.54 0-8.234-3.694-8.234-8.234s3.694-8.234 8.234-8.234 8.234 3.694 8.234 8.234-3.694 8.234-8.234 8.234z"/><path d="m207.904 95.102c7.298 0 13.234-5.937 13.234-13.234s-5.937-13.234-13.234-13.234-13.234 5.936-13.234 13.233 5.936 13.235 13.234 13.235zm0-21.469c4.54 0 8.234 3.694 8.234 8.234s-3.694 8.234-8.234 8.234-8.234-3.694-8.234-8.234 3.694-8.234 8.234-8.234z"/><path d="m207.904 160.898c-7.298 0-13.234 5.937-13.234 13.234s5.937 13.234 13.234 13.234 13.234-5.937 13.234-13.234-5.936-13.234-13.234-13.234zm0 21.469c-4.54 0-8.234-3.694-8.234-8.234s3.694-8.234 8.234-8.234 8.234 3.694 8.234 8.234-3.694 8.234-8.234 8.234z"/><path d="m48.096 68.633c-7.298 0-13.234 5.937-13.234 13.234s5.937 13.234 13.234 13.234 13.234-5.936 13.234-13.234-5.936-13.234-13.234-13.234zm0 21.469c-4.54 0-8.234-3.694-8.234-8.234s3.694-8.234 8.234-8.234 8.234 3.694 8.234 8.234-3.694 8.234-8.234 8.234z"/><path d="m128 62.04c-36.37 0-65.96 29.589-65.96 65.96s29.59 65.96 65.96 65.96 65.96-29.589 65.96-65.96-29.59-65.96-65.96-65.96zm45.855 25.86c-4.618 2.603-9.998 4.762-15.912 6.421-3.303-10.782-8.171-19.515-14.055-25.167 11.78 3.184 22.15 9.817 29.967 18.746zm15.041 37.6h-26.266c-.177-9.479-1.35-18.394-3.344-26.371 6.622-1.857 12.63-4.316 17.749-7.295 7.024 9.497 11.351 21.097 11.861 33.666zm-11.86 38.665c-5.122-2.982-11.126-5.443-17.748-7.3 1.993-7.976 3.165-16.888 3.343-26.365h26.266c-.511 12.569-4.838 24.168-11.861 33.665zm-51.507 24.556c-9.328-1.669-17.58-12.66-22.482-28.292 7.015-1.565 14.619-2.468 22.482-2.624zm5-.009v-30.906c7.847.16 15.43 1.061 22.424 2.621-4.891 15.6-13.119 26.58-22.424 28.285zm-2.495-35.941c-.002 0-.003 0-.005 0-.001 0-.002 0-.004 0-.009 0-.017 0-.026 0-9.191 0-18.123.997-26.315 2.85-1.948-7.639-3.129-16.164-3.316-25.121h2.555c1.381 0 2.5-1.119 2.5-2.5s-1.119-2.5-2.5-2.5h-2.555c.186-8.956 1.368-17.481 3.315-25.119 8.189 1.852 17.117 2.848 26.316 2.848h.026.004.005c9.179-.002 18.098-.999 26.281-2.85 1.948 7.639 3.129 16.164 3.316 25.122h-2.555c-1.381 0-2.5 1.119-2.5 2.5s1.119 2.5 2.5 2.5h2.555c-.186 8.956-1.368 17.481-3.315 25.119-8.178-1.85-17.095-2.846-26.282-2.849zm-60.931-22.271h26.266c.177 9.479 1.35 18.393 3.344 26.37-6.622 1.857-12.63 4.316-17.749 7.296-7.023-9.497-11.35-21.097-11.861-33.666zm11.861-38.665c5.122 2.982 11.126 5.443 17.748 7.3-1.993 7.976-3.165 16.888-3.343 26.365h-26.266c.511-12.569 4.838-24.168 11.861-33.665zm51.565-24.547c9.304 1.705 17.532 12.683 22.423 28.282-6.998 1.561-14.582 2.464-22.423 2.624zm-5-.009v30.916c-7.867-.156-15.471-1.058-22.482-2.622 4.901-15.633 13.154-26.625 22.482-28.294zm-13.417 1.875c-5.885 5.653-10.753 14.388-14.057 25.172-5.914-1.659-11.296-3.818-15.914-6.422 7.818-8.931 18.189-15.566 29.971-18.75zm-29.968 98.946c4.618-2.603 9.998-4.762 15.912-6.421 3.303 10.782 8.171 19.515 14.055 25.167-11.779-3.184-22.149-9.817-29.967-18.746zm61.744 18.746c5.885-5.653 10.753-14.388 14.057-25.172 5.914 1.659 11.295 3.818 15.914 6.423-7.819 8.93-18.19 15.565-29.971 18.749z"/></g><path d="m142.195 139.73h-28.791c-1.381 0-2.5-1.119-2.5-2.5s1.119-2.5 2.5-2.5h28.791c1.381 0 2.5 1.119 2.5 2.5s-1.119 2.5-2.5 2.5z" fill="#ebe7f2"/><path d="m142.195 148.205h-28.791c-1.381 0-2.5-1.119-2.5-2.5v-16.188c-2.716-1.817-4.398-4.891-4.398-8.225 0-5.458 4.44-9.898 9.897-9.898 1.205 0 2.376.214 3.477.629 1.813-2.607 4.807-4.228 8.12-4.228s6.308 1.62 8.12 4.228c1.101-.415 2.271-.629 3.477-.629 5.457 0 9.897 4.44 9.897 9.898 0 3.488-1.871 6.704-4.799 8.473v15.939c0 1.381-1.119 2.501-2.5 2.501zm-26.291-5h23.791v-14.994c0-1.042.646-1.974 1.62-2.34 1.901-.714 3.179-2.555 3.179-4.579 0-2.701-2.197-4.898-4.897-4.898-1.095 0-2.134.359-3.005 1.039-.646.503-1.498.658-2.279.417-.782-.243-1.396-.854-1.643-1.635-.646-2.045-2.523-3.419-4.67-3.419s-4.023 1.374-4.67 3.419c-.247.781-.86 1.392-1.643 1.635-.78.243-1.633.087-2.279-.417-.871-.68-1.91-1.039-3.005-1.039-2.7 0-4.897 2.197-4.897 4.898 0 1.932 1.144 3.688 2.914 4.474.902.401 1.484 1.297 1.484 2.285z" fill="#f9b087"/></g></svg>