<svg id="Layer_1" enable-background="new 0 0 256 256" height="512" viewBox="0 0 256 256" width="512" xmlns="http://www.w3.org/2000/svg"><g><g fill="#ebe7f2"><path d="m89.337 212.65c-.64 0-1.28-.244-1.768-.732-.977-.977-.977-2.559 0-3.535l62.313-62.313c.976-.977 2.56-.977 3.535 0 .977.977.977 2.559 0 3.535l-62.313 62.313c-.487.488-1.127.732-1.767.732z"/><path d="m66.572 112.615c-.934 0-1.83-.526-2.259-1.425-5.16-10.826-5.179-22.613-.054-35.036.526-1.277 1.989-1.882 3.264-1.358 1.276.527 1.884 1.988 1.358 3.265-4.626 11.217-4.645 21.35-.054 30.978.594 1.247.065 2.738-1.181 3.333-.348.164-.714.243-1.074.243z"/><path d="m77.903 112.615c-.36 0-.727-.079-1.074-.244-1.247-.595-1.775-2.086-1.181-3.333 4.59-9.628 4.572-19.761-.054-30.978-.526-1.276.082-2.737 1.358-3.265 1.276-.522 2.738.082 3.264 1.358 5.125 12.423 5.106 24.21-.054 35.036-.429.9-1.325 1.426-2.259 1.426z"/><path d="m84.524 145.912h-6.251l4.42-4.42c.977-.977.977-2.559 0-3.535-.976-.977-2.56-.977-3.535 0l-4.42 4.42v-6.251c0-1.381-1.119-2.5-2.5-2.5s-2.5 1.119-2.5 2.5v6.251l-4.42-4.42c-.976-.977-2.56-.977-3.535 0-.977.977-.977 2.559 0 3.535l4.42 4.42h-6.251c-1.381 0-2.5 1.119-2.5 2.5s1.119 2.5 2.5 2.5h6.252l-4.421 4.421c-.977.977-.977 2.559 0 3.535.488.488 1.128.732 1.768.732s1.28-.244 1.768-.732l4.42-4.42v6.251c0 1.381 1.119 2.5 2.5 2.5s2.5-1.119 2.5-2.5v-6.251l4.42 4.42c.488.488 1.128.732 1.768.732s1.28-.244 1.768-.732c.977-.977.977-2.559 0-3.535l-4.421-4.421h6.252c1.381 0 2.5-1.119 2.5-2.5s-1.121-2.5-2.502-2.5z"/></g><g fill="#846f75"><path d="m218.935 41.93h-181.87c-1.381 0-2.5 1.119-2.5 2.5v142.02c0 1.381 1.119 2.5 2.5 2.5h40.41c1.381 0 2.5-1.119 2.5-2.5s-1.119-2.5-2.5-2.5h-37.91v-137.02h176.869v137.02h-72.577c-1.381 0-2.5 1.119-2.5 2.5s1.119 2.5 2.5 2.5h75.077c1.381 0 2.5-1.119 2.5-2.5v-142.02c.001-1.381-1.119-2.5-2.499-2.5z"/><path d="m189.287 86.103c-.976-.977-2.56-.977-3.535 0l-41.728 41.728c-.977.977-.977 2.559 0 3.535.975.976 2.559.977 3.535 0l39.96-39.96 8.513 8.514-39.902 39.903c-.977.977-.977 2.559 0 3.535.488.488 1.128.732 1.768.732s1.28-.244 1.768-.732l41.67-41.671c.977-.977.977-2.559 0-3.535z"/><path d="m163.407 156.058-22.038-22.038c-.938-.938-2.598-.938-3.535 0l-66.655 66.655c-.469.469-.732 1.104-.732 1.768s.263 1.299.732 1.768c6.563 6.563 15.185 9.845 23.806 9.845s17.242-3.281 23.805-9.845l44.617-44.617c.976-.978.976-2.56 0-3.536zm-48.153 44.617c-10.581 10.581-27.444 11.146-38.696 1.691l63.043-63.044 18.502 18.503z"/><path d="m187.201 103.772 1.911-1.911c.976-.977.976-2.56 0-3.535-.977-.977-2.559-.977-3.536 0l-1.911 1.911c-.976.977-.976 2.56 0 3.535.488.488 1.128.732 1.768.732s1.28-.243 1.768-.732z"/><path d="m47.845 93.661c0 8.908 7.113 16.607 17.456 19.087 1.674 3.314 4.153 5.187 6.937 5.187s5.263-1.872 6.937-5.187c10.343-2.479 17.456-10.179 17.456-19.087 0-9.195-7.56-17.034-18.265-19.269.39-3.188 2.801-5.729 4.941-7.394l1.71-1.33c1.09-.848 1.287-2.418.439-3.508s-2.419-1.286-3.508-.439l-1.71 1.33c-5.021 3.904-7.446 8.791-6.832 13.759.14 1.129 1.023 2.021 2.15 2.172 9.314 1.242 16.074 7.415 16.074 14.679 0 6.842-6.04 12.786-14.687 14.454-.833.161-1.527.732-1.844 1.519-.921 2.28-2.101 3.301-2.862 3.301s-1.94-1.021-2.862-3.301c-.317-.786-1.012-1.357-1.844-1.519-8.647-1.668-14.687-7.612-14.687-14.454 0-7.264 6.76-13.437 16.074-14.679 1.127-.15 2.011-1.043 2.15-2.172.615-4.968-1.811-9.854-6.832-13.759l-1.71-1.33c-1.09-.847-2.661-.65-3.508.439s-.651 2.66.439 3.508l1.71 1.33c2.14 1.664 4.551 4.205 4.941 7.394-10.703 2.235-18.263 10.074-18.263 19.269z"/><path d="m72.237 172.805c13.45 0 24.393-10.942 24.393-24.393s-10.942-24.392-24.393-24.392-24.393 10.942-24.393 24.393 10.943 24.392 24.393 24.392zm0-43.785c10.693 0 19.393 8.699 19.393 19.393s-8.7 19.393-19.393 19.393-19.393-8.699-19.393-19.393 8.7-19.393 19.393-19.393z"/><path d="m188.7 131.564c-9.29 0-16.848 7.558-16.848 16.848s7.558 16.849 16.848 16.849 16.848-7.559 16.848-16.849-7.558-16.848-16.848-16.848zm0 28.697c-6.533 0-11.848-5.315-11.848-11.849s5.315-11.848 11.848-11.848 11.848 5.314 11.848 11.848-5.315 11.849-11.848 11.849z"/></g><path d="m199.252 148.412c0-1.381-1.119-2.5-2.5-2.5h-2.017l1.426-1.426c.977-.977.977-2.559 0-3.535-.976-.977-2.56-.977-3.535 0l-1.426 1.426v-2.017c0-1.381-1.119-2.5-2.5-2.5s-2.5 1.119-2.5 2.5v2.017l-1.426-1.426c-.976-.977-2.56-.977-3.535 0-.977.977-.977 2.559 0 3.535l1.426 1.426h-2.017c-1.381 0-2.5 1.119-2.5 2.5s1.119 2.5 2.5 2.5h2.018l-1.427 1.427c-.977.977-.977 2.559 0 3.535.488.488 1.128.732 1.768.732s1.28-.244 1.768-.732l1.426-1.426v2.017c0 1.381 1.119 2.5 2.5 2.5s2.5-1.119 2.5-2.5v-2.017l1.426 1.426c.488.488 1.128.732 1.768.732s1.28-.244 1.768-.732c.977-.977.977-2.559 0-3.535l-1.427-1.427h2.018c1.379 0 2.498-1.119 2.498-2.5z" fill="#ebe7f2"/><path d="m119.357 133.552c-11.618 0-21.07-9.452-21.07-21.069 0-4.11 1.185-8.095 3.425-11.52.756-1.156 2.305-1.48 3.461-.724 1.155.756 1.479 2.305.724 3.46-1.708 2.61-2.61 5.647-2.61 8.783 0 8.86 7.209 16.069 16.07 16.069 3.044 0 6.006-.854 8.566-2.47 1.169-.737 2.712-.389 3.449.78.737 1.167.388 2.711-.78 3.448-3.36 2.122-7.245 3.243-11.235 3.243z" fill="#ed9abc"/><path d="m134.466 118.443c-11.618 0-21.07-9.452-21.07-21.069 0-4.207 1.236-8.269 3.575-11.746.771-1.145 2.325-1.449 3.47-.679 1.146.771 1.45 2.323.68 3.47-1.782 2.649-2.724 5.746-2.724 8.955 0 8.86 7.209 16.069 16.07 16.069 3.404 0 6.656-1.05 9.404-3.037 1.119-.807 2.682-.557 3.491.562s.558 2.682-.561 3.491c-3.607 2.606-7.872 3.984-12.335 3.984z" fill="#ed9abc"/><path d="m149.575 103.335c-11.618 0-21.07-9.452-21.07-21.07 0-11.617 9.452-21.069 21.07-21.069s21.07 9.452 21.07 21.069c0 11.618-9.452 21.07-21.07 21.07zm0-37.14c-8.861 0-16.07 7.209-16.07 16.069 0 8.861 7.209 16.07 16.07 16.07s16.07-7.209 16.07-16.07c0-8.86-7.209-16.069-16.07-16.069z" fill="#ed9abc"/></g></svg>