<svg id="Layer_1" enable-background="new 0 0 256 256" height="512" viewBox="0 0 256 256" width="512" xmlns="http://www.w3.org/2000/svg"><g><g fill="#ed9abc"><path d="m106.785 159.522c-.64 0-1.279-.244-1.768-.732l-28.161-28.161c-.977-.976-.977-2.559 0-3.535.977-.977 2.559-.977 3.535 0l28.161 28.161c.977.976.977 2.559 0 3.535-.488.488-1.127.732-1.767.732z"/><path d="m146.701 160.922c-.64 0-1.279-.244-1.768-.732-.977-.976-.977-2.559 0-3.535l29.561-29.561c.977-.977 2.559-.977 3.535 0 .977.976.977 2.559 0 3.535l-29.561 29.561c-.488.488-1.127.732-1.767.732z"/><path d="m127.442 121.36c-1.381 0-2.5-1.119-2.5-2.5v-42.904c0-1.381 1.119-2.5 2.5-2.5s2.5 1.119 2.5 2.5v42.904c0 1.381-1.119 2.5-2.5 2.5z"/><path d="m127.442 228.089c-16.777 0-30.427-13.649-30.427-30.427s13.649-30.427 30.427-30.427 30.428 13.649 30.428 30.427-13.649 30.427-30.428 30.427zm0-55.855c-14.021 0-25.427 11.407-25.427 25.427s11.406 25.427 25.427 25.427 25.428-11.407 25.428-25.427-11.407-25.427-25.428-25.427z"/></g><g fill="#846f75"><path d="m98.416 109.069c-18.101-18.102-50.325-14.452-51.687-14.286-1.144.138-2.045 1.039-2.184 2.183-.164 1.363-3.816 33.586 14.286 51.688 12.704 12.705 32.364 14.694 43.431 14.694 4.7 0 7.851-.359 8.257-.408 1.144-.138 2.045-1.039 2.184-2.183.163-1.363 3.816-33.587-14.287-51.688zm9.489 49.074c-7.153.466-31.604.91-45.539-13.025-13.936-13.936-13.488-38.388-13.024-45.539 7.151-.466 31.604-.91 45.539 13.025 13.935 13.936 13.488 38.388 13.024 45.539z"/><path d="m210.341 96.965c-.139-1.144-1.04-2.045-2.184-2.183-1.361-.166-33.585-3.818-51.688 14.286-18.104 18.102-14.451 50.325-14.287 51.688.139 1.144 1.04 2.045 2.184 2.183.406.049 3.555.408 8.258.408 11.065 0 30.727-1.99 43.431-14.694 18.102-18.101 14.45-50.325 14.286-51.688zm-63.362 61.178c-.464-7.151-.911-31.603 13.025-45.539s38.387-13.489 45.539-13.025c.464 7.152.911 31.603-13.024 45.539-13.936 13.936-38.385 13.492-45.54 13.025z"/><path d="m125.898 122.607c.453.355.999.533 1.544.533s1.091-.178 1.544-.533c1.079-.848 26.447-21.051 26.447-46.651s-25.368-45.803-26.447-46.651c-.906-.711-2.182-.711-3.088 0-1.079.848-26.446 21.051-26.446 46.651s25.367 45.804 26.446 46.651zm1.544-88.062c5.387 4.731 22.991 21.705 22.991 41.411 0 19.707-17.604 36.681-22.991 41.412-5.386-4.731-22.99-21.705-22.99-41.412 0-19.706 17.605-36.68 22.99-41.411z"/><path d="m139.459 187.909-14.848 14.847-7.607-7.607c-.977-.977-2.559-.977-3.535 0-.977.976-.977 2.559 0 3.535l9.375 9.375c.469.469 1.104.732 1.768.732s1.299-.263 1.768-.732l16.615-16.615c.977-.976.977-2.559 0-3.535-.977-.977-2.559-.977-3.536 0z"/><path d="m125.5 131.458v20.942c0 1.381 1.119 2.5 2.5 2.5s2.5-1.119 2.5-2.5v-20.942c0-1.381-1.119-2.5-2.5-2.5s-2.5 1.12-2.5 2.5z"/><path d="m236.66 194.106h-64.454c-1.381 0-2.5 1.119-2.5 2.5s1.119 2.5 2.5 2.5h64.454c1.381 0 2.5-1.119 2.5-2.5s-1.119-2.5-2.5-2.5z"/><path d="m83.794 194.106h-64.454c-1.381 0-2.5 1.119-2.5 2.5s1.119 2.5 2.5 2.5h64.454c1.381 0 2.5-1.119 2.5-2.5s-1.119-2.5-2.5-2.5z"/><path d="m88.191 177.224-67.886-28.431c-1.273-.532-2.738.066-3.271 1.34-.533 1.273.066 2.738 1.34 3.272l67.886 28.431c.315.132.643.194.965.194.978 0 1.905-.577 2.307-1.535.532-1.273-.067-2.738-1.341-3.271z"/><path d="m237.607 154.41c1.278-.523 1.89-1.983 1.366-3.261-.522-1.277-1.983-1.888-3.261-1.366l-67.753 27.753c-1.278.523-1.89 1.983-1.366 3.261.396.967 1.33 1.553 2.314 1.553.315 0 .637-.06.946-.187z"/></g></g></svg>