<svg id="Layer_1" enable-background="new 0 0 256 256" height="512" viewBox="0 0 256 256" width="512" xmlns="http://www.w3.org/2000/svg"><g><g fill="#f9b087"><path d="m104.627 106.39-5.258-12.741c2.481-1.797 4.104-4.709 4.104-8 0-5.449-4.433-9.882-9.882-9.882s-9.881 4.433-9.881 9.882 4.433 9.881 9.881 9.881c.378 0 .75-.026 1.117-.068l5.296 12.834c.398.964 1.33 1.547 2.312 1.547.318 0 .641-.061.953-.189 1.277-.527 1.885-1.988 1.358-3.264zm-15.917-20.741c0-2.692 2.19-4.882 4.881-4.882 2.692 0 4.882 2.19 4.882 4.882 0 2.691-2.19 4.881-4.882 4.881-2.691.001-4.881-2.189-4.881-4.881z"/><path d="m162.409 75.768c-5.449 0-9.882 4.433-9.882 9.882 0 3.291 1.623 6.203 4.104 8l-5.258 12.741c-.527 1.276.081 2.738 1.357 3.265.312.129.635.189.953.189.982 0 1.914-.583 2.312-1.547l5.296-12.834c.367.042.739.068 1.117.068 5.449 0 9.881-4.433 9.881-9.881s-4.432-9.883-9.88-9.883zm0 14.763c-2.692 0-4.882-2.19-4.882-4.881 0-2.692 2.19-4.882 4.882-4.882 2.691 0 4.881 2.19 4.881 4.882 0 2.691-2.19 4.881-4.881 4.881z"/><path d="m128 174.889c-14.892 0-27.007-12.115-27.007-27.007s12.115-27.007 27.007-27.007 27.007 12.115 27.007 27.007-12.115 27.007-27.007 27.007zm0-49.014c-12.135 0-22.007 9.873-22.007 22.007s9.873 22.007 22.007 22.007 22.007-9.872 22.007-22.007-9.872-22.007-22.007-22.007z"/></g><g fill="#846f75"><path d="m178.961 149.911v-9.764c0-11.763-5.825-22.71-15.582-29.282-5.85-3.94-12.67-6.022-19.723-6.022h-31.314c-7.053 0-13.873 2.083-19.723 6.022-9.757 6.572-15.582 17.519-15.582 29.282v9.764c0 6.137 1.61 12.197 4.657 17.525l9.013 15.761c6.271 10.966 18.014 17.779 30.647 17.779h13.289c12.633 0 24.376-6.813 30.647-17.779l9.013-15.761c3.048-5.328 4.658-11.388 4.658-17.525zm-18.01 30.804c-5.382 9.414-15.463 15.261-26.307 15.261h-13.289c-10.844 0-20.924-5.848-26.307-15.261l-9.013-15.761c-2.615-4.573-3.998-9.774-3.998-15.042v-9.764c0-10.097 5-19.494 13.375-25.134 5.021-3.382 10.875-5.17 16.93-5.17h31.314c6.054 0 11.908 1.788 16.93 5.17 8.375 5.641 13.375 15.037 13.375 25.134v9.764c0 5.268-1.382 10.47-3.998 15.042z"/><path d="m170.883 58.067c2.87 6.634 9.12 10.84 15.774 11.361-.805 1.944-.996 4.082-.521 6.186l5.313 23.513c-.341.215-.675.444-.994.702l-15.643 12.64c-1.074.868-1.241 2.441-.373 3.516.867 1.074 2.442 1.241 3.516.373l15.643-12.64c1.081-.874 2.439-1.273 3.819-1.127 1.382.146 2.624.823 3.497 1.904s1.273 2.437 1.127 3.819-.823 2.624-1.904 3.498l-15.643 12.641c-1.074.868-1.241 2.442-.373 3.516.494.611 1.217.929 1.946.929.552 0 1.107-.182 1.57-.556l15.643-12.641c2.12-1.713 3.446-4.148 3.733-6.858.163-1.538-.031-3.057-.532-4.473 0-.01.003-.018.003-.028v-30.999c0-3.073-1.355-5.961-3.719-7.924-.616-.511-1.283-.94-1.983-1.29 1.664-1.683 2.999-3.693 3.919-5.955 1.857-4.569 1.802-9.577-.156-14.104l-5.241-12.112c-2.788-6.443-10.295-9.418-16.74-6.629-.608.263-1.087.757-1.332 1.374-.244.616-.233 1.305.03 1.913l5.626 13.003c.659 1.522.135 3.289-1.193 4.02-.758.417-1.621.495-2.429.219-.809-.277-1.441-.861-1.781-1.645l-5.719-13.219c-.547-1.267-2.02-1.852-3.287-1.302-3.121 1.35-5.53 3.835-6.782 6.997s-1.198 6.622.152 9.743zm30.601 40.603c-1.093-.554-2.284-.919-3.539-1.052-.577-.062-1.15-.064-1.718-.03l-5.215-23.076c-.32-1.418-.057-2.868.742-4.082s2.026-2.03 3.456-2.297c1.553-.291 3.143.123 4.359 1.133s1.914 2.497 1.914 4.078v25.326zm-31.138-60.139c.442-1.117 1.122-2.095 1.987-2.879l4.563 10.547c.893 2.063 2.625 3.663 4.751 4.391 2.126.726 4.48.519 6.459-.57 3.561-1.962 5.041-6.524 3.37-10.386l-4.47-10.331c1.164-.092 2.341.081 3.459.523 1.92.76 3.429 2.223 4.249 4.118l5.241 12.112c1.421 3.285 1.461 6.919.113 10.235-1.348 3.314-3.915 5.89-7.229 7.252-6.619 2.72-14.411-.626-17.368-7.462l-5.033-11.633c-.819-1.895-.853-3.996-.092-5.917z"/><path d="m48.986 108.84c.288 2.71 1.614 5.146 3.733 6.858l15.643 12.641c.462.374 1.018.556 1.57.556.729 0 1.452-.317 1.946-.929.868-1.074.701-2.648-.373-3.516l-15.643-12.64c-1.081-.874-1.757-2.116-1.904-3.498s.253-2.738 1.127-3.819c.873-1.081 2.115-1.757 3.497-1.904 1.382-.146 2.738.254 3.819 1.127l15.643 12.64c1.075.868 2.648.701 3.516-.373s.701-2.648-.373-3.516l-15.643-12.64c-.319-.258-.653-.487-.994-.702l5.313-23.513c.475-2.104.284-4.241-.521-6.186 6.654-.522 12.904-4.728 15.774-11.361l5.033-11.633c1.351-3.121 1.404-6.581.152-9.743s-3.661-5.647-6.782-6.997c-1.269-.548-2.739.034-3.287 1.302l-5.719 13.219c-.339.784-.972 1.368-1.781 1.645-.807.276-1.67.199-2.429-.219-1.328-.731-1.853-2.498-1.193-4.021l5.626-13.003c.263-.608.274-1.297.03-1.913-.244-.617-.723-1.111-1.332-1.374-6.442-2.788-13.952.186-16.74 6.629l-5.241 12.112c-1.958 4.526-2.013 9.535-.156 14.104.92 2.262 2.254 4.271 3.918 5.954-.7.35-1.367.779-1.983 1.29-2.364 1.963-3.719 4.852-3.719 7.924v30.996c0 .01.003.019.003.028-.499 1.419-.693 2.937-.53 4.475zm7.058-62.784 5.241-12.112c.82-1.896 2.329-3.358 4.249-4.118.922-.365 1.886-.547 2.849-.547.204 0 .407.008.61.024l-4.47 10.331c-1.671 3.862-.191 8.424 3.37 10.386 1.98 1.09 4.334 1.297 6.459.57 2.127-.728 3.859-2.328 4.751-4.391l4.563-10.547c.865.784 1.545 1.762 1.987 2.879.761 1.92.728 4.021-.092 5.917l-5.033 11.633c-2.958 6.835-10.75 10.183-17.368 7.462-3.314-1.363-5.881-3.938-7.229-7.252-1.348-3.315-1.308-6.95.113-10.235zm.386 23.209c1.217-1.01 2.803-1.423 4.359-1.133 1.429.267 2.656 1.083 3.456 2.297.799 1.214 1.063 2.664.742 4.082l-5.215 23.08c-.567-.035-1.14-.033-1.717.027-1.255.133-2.446.498-3.539 1.052v-25.327c0-1.581.697-3.068 1.914-4.078z"/><path d="m230.726 155.503c-4.075-13.97-22.668-21.81-45.209-19.064-1.371.167-2.346 1.413-2.179 2.784s1.417 2.351 2.784 2.179c20.065-2.441 36.43 3.932 39.805 15.502.544 1.865.738 3.802.583 5.796-7.1-9.632-22.545-14.538-41.062-12.491-1.373.152-2.361 1.388-2.209 2.76s1.385 2.358 2.76 2.209c19.444-2.156 35.46 4.141 38.945 15.312.315 1.008 1.229 1.71 2.284 1.753.035.001.069.002.103.002 1.015 0 1.934-.615 2.317-1.563 2.123-5.245 2.485-10.353 1.078-15.179z"/><path d="m185.218 159.977c-1.349-.294-2.681.562-2.975 1.911s.562 2.681 1.911 2.975c19.338 4.208 33.073 14.938 31.948 24.958-.157 1.398-.589 2.751-1.293 4.05-3.205-10.227-16.193-19.417-34.267-23.56-1.344-.306-2.687.533-2.996 1.878-.308 1.346.533 2.687 1.878 2.996 18.924 4.338 32.007 14.66 31.109 24.544-.093 1.021.448 1.996 1.363 2.458.357.18.743.268 1.126.268.6 0 1.193-.216 1.661-.631 3.707-3.294 5.916-7.251 6.386-11.445 1.46-12.989-13.283-25.491-35.851-30.402z"/><path d="m176.673 178.911c-1.192-.698-2.723-.297-3.42.895-.697 1.191-.297 2.723.895 3.42 18.879 11.049 30.009 27.967 24.811 37.712-.665 1.248-1.572 2.35-2.714 3.301.797-11.143-8.731-25.229-24.998-35.814-1.158-.754-2.706-.425-3.459.731-.753 1.157-.426 2.706.731 3.459 16.968 11.042 26.257 26.293 21.606 35.475-.463.915-.321 2.02.359 2.788.483.545 1.169.842 1.872.842.286 0 .574-.049.853-.15 4.662-1.693 8.176-4.555 10.161-8.278 6.665-12.494-4.812-31.573-26.697-44.381z"/><path d="m70.001 155.178c1.376.15 2.608-.837 2.76-2.209s-.837-2.608-2.209-2.76c-18.514-2.055-33.961 2.858-41.061 12.491-.155-1.994.039-3.931.583-5.796 3.375-11.57 19.74-17.941 39.805-15.502 1.368.166 2.617-.809 2.784-2.179s-.809-2.617-2.179-2.784c-22.544-2.748-41.134 5.095-45.209 19.064-1.408 4.826-1.045 9.934 1.078 15.18.383.947 1.302 1.563 2.317 1.563.034 0 .068 0 .103-.002 1.055-.043 1.969-.745 2.284-1.753 3.485-11.172 19.501-17.47 38.944-15.313z"/><path d="m76.575 175.186c1.346-.309 2.187-1.65 1.878-2.996s-1.649-2.184-2.996-1.878c-18.074 4.144-31.063 13.333-34.267 23.56-.704-1.299-1.136-2.652-1.293-4.05-1.125-10.021 12.61-20.75 31.948-24.958 1.349-.293 2.205-1.625 1.911-2.975s-1.625-2.206-2.975-1.911c-22.568 4.911-37.312 17.413-35.854 30.402.471 4.194 2.679 8.151 6.386 11.445.468.416 1.062.631 1.661.631.383 0 .769-.088 1.126-.268.916-.462 1.456-1.437 1.363-2.458-.896-9.884 12.188-20.207 31.112-24.544z"/><path d="m84.753 188.425c-16.267 10.585-25.795 24.672-24.998 35.814-1.142-.951-2.049-2.053-2.714-3.301-5.198-9.745 5.932-26.663 24.811-37.712 1.192-.697 1.592-2.229.895-3.42-.697-1.192-2.229-1.593-3.42-.895-21.884 12.808-33.361 31.888-26.697 44.38 1.986 3.724 5.5 6.586 10.162 8.279.279.101.567.15.853.15.702 0 1.388-.296 1.872-.842.68-.768.823-1.873.359-2.788-4.65-9.182 4.638-24.433 21.606-35.475 1.157-.753 1.485-2.302.731-3.459s-2.3-1.484-3.46-.731z"/><path d="m138.329 139.107-12.813 12.813-6.459-6.459c-.976-.977-2.56-.977-3.535 0-.977.976-.977 2.559 0 3.535l8.227 8.228c.469.469 1.104.732 1.768.732s1.299-.263 1.768-.732l14.581-14.581c.977-.976.977-2.559 0-3.535-.978-.978-2.562-.978-3.537-.001z"/><path d="m95.905 52.797c2.529 2.53 6.646 2.53 9.176 0l2.415-2.415c.625.353 1.257.696 1.896 1.028-.661 1.873-1.021 3.672-.238 5.426.623 1.395 1.881 2.447 3.737 3.128 1.318.483 2.803.733 4.32.733 3.304 0 6.759-1.188 8.967-3.749 1.851.253 3.673.381 5.434.381 12.948 0 24.033-6.486 29.487-10.353 1.429-1.013 2.283-2.661 2.283-4.409s-.854-3.396-2.283-4.409c-5.455-3.866-16.54-10.353-29.488-10.353-1.556 0-3.163.1-4.793.297-3.296-3.463-9.31-4.83-14.24-3.02-2.021.741-3.331 1.832-4.002 3.334-.81 1.812-.469 3.683.2 5.63-.428.229-.855.465-1.28.706l-2.415-2.414c-2.529-2.53-6.646-2.53-9.177 0-2.529 2.53-2.529 6.647 0 9.177.281.281.436.655.436 1.052 0 .398-.155.771-.436 1.053-2.53 2.53-2.529 6.647.001 9.177zm3.534-14.818c-.58-.581-.58-1.525 0-2.106.581-.58 1.524-.58 2.105 0l3.78 3.78c.814.815 2.081.968 3.066.369 1.511-.918 3.063-1.768 4.614-2.526 1.174-.574 1.708-1.957 1.224-3.171-.497-1.247-1.328-3.333-1.089-3.869.047-.105.35-.383 1.158-.679 3.342-1.225 7.728-.114 9.384 2.378.54.812 1.503 1.231 2.464 1.086 1.871-.29 3.709-.436 5.465-.436 11.563 0 21.626 5.909 26.596 9.432.115.082.173.193.173.33s-.059.249-.174.33c-4.97 3.522-15.033 9.432-26.596 9.432-1.97 0-4.037-.185-6.144-.55-1.041-.182-2.082.313-2.602 1.23-1.299 2.291-5.234 3.366-8.254 2.26-.692-.254-.881-.465-.889-.465-.137-.479.55-2.204 1.005-3.345l.14-.352c.486-1.225-.062-2.617-1.253-3.182-1.788-.847-3.544-1.794-5.222-2.813-.985-.599-2.251-.447-3.066.369l-3.78 3.78c-.563.562-1.542.562-2.106 0-.58-.581-.58-1.525 0-2.105 1.226-1.226 1.901-2.855 1.901-4.589.001-1.733-.673-3.362-1.9-4.588z"/></g><path d="m144.848 45.067h-3.439c-1.381 0-2.5-1.119-2.5-2.5s1.119-2.5 2.5-2.5h3.439c1.381 0 2.5 1.119 2.5 2.5s-1.119 2.5-2.5 2.5z" fill="#f9b087"/></g></svg>