<svg id="Layer_1" enable-background="new 0 0 256 256" height="512" viewBox="0 0 256 256" width="512" xmlns="http://www.w3.org/2000/svg"><g><g fill="#a58bc9"><path d="m78.628 174.014c-1.094 0-2.062-.712-2.387-1.756l-6.417-20.601c-.881-2.83-.379-5.821 1.377-8.208s4.463-3.755 7.427-3.755 5.67 1.369 7.426 3.755 2.258 5.378 1.377 8.208l-6.417 20.601c-.324 1.044-1.291 1.756-2.386 1.756zm0-29.32c-1.356 0-2.596.626-3.4 1.719-.804 1.092-1.034 2.462-.63 3.757l4.03 12.938 4.03-12.938c.403-1.295.173-2.665-.63-3.757-.804-1.093-2.043-1.719-3.4-1.719z"/><path d="m78.628 220.457c-2.963 0-5.67-1.369-7.427-3.755s-2.258-5.378-1.377-8.208l6.417-20.601c.325-1.044 1.292-1.756 2.387-1.756 1.094 0 2.062.712 2.387 1.756l6.417 20.601c.881 2.83.379 5.821-1.377 8.208s-4.463 3.755-7.427 3.755zm0-23.414-4.03 12.938c-.403 1.295-.173 2.665.63 3.757.804 1.093 2.043 1.719 3.4 1.719s2.595-.626 3.399-1.719c.804-1.092 1.034-2.462.63-3.757z"/><path d="m51.671 204.878c-.347 0-.697-.02-1.049-.059-2.945-.328-5.484-1.987-6.966-4.554-1.481-2.566-1.649-5.595-.461-8.309s3.528-4.645 6.419-5.297l21.049-4.743c1.068-.239 2.167.241 2.715 1.189s.415 2.141-.328 2.945l-14.632 15.857c-1.769 1.92-4.184 2.971-6.747 2.971zm12.263-16.319-13.219 2.979c-1.324.298-2.395 1.182-2.939 2.425-.544 1.242-.467 2.628.211 3.803s1.84 1.935 3.188 2.084 2.648-.335 3.569-1.333z"/><path d="m86.042 178.295c-.879 0-1.711-.465-2.165-1.25-.547-.948-.415-2.141.328-2.945l14.632-15.857c2.01-2.178 4.854-3.24 7.796-2.911 2.945.328 5.484 1.987 6.966 4.554s1.649 5.595.461 8.309c-1.189 2.714-3.528 4.645-6.419 5.296l-21.049 4.744c-.183.04-.368.06-.55.06zm19.559-18.022c-1.173 0-2.278.481-3.088 1.359l-9.189 9.958 13.219-2.979c1.323-.298 2.394-1.182 2.938-2.424.544-1.243.467-2.629-.211-3.804s-1.84-1.935-3.188-2.084c-.162-.017-.322-.026-.481-.026z"/><path d="m105.585 204.878c-2.563 0-4.978-1.052-6.748-2.97l-14.632-15.857c-.742-.804-.875-1.998-.328-2.945s1.649-1.428 2.715-1.189l21.049 4.743c2.891.652 5.231 2.583 6.419 5.297s1.021 5.743-.461 8.309c-1.481 2.566-4.02 4.226-6.965 4.554-.351.039-.702.058-1.049.058zm-12.262-16.319 9.189 9.959c.92.997 2.216 1.478 3.569 1.333 1.348-.15 2.51-.91 3.188-2.084s.755-2.561.211-3.803c-.544-1.243-1.615-2.126-2.938-2.425z"/><path d="m71.214 178.295c-.183 0-.367-.02-.55-.061l-21.049-4.744c-2.891-.651-5.23-2.582-6.419-5.296-1.188-2.714-1.021-5.743.461-8.309s4.021-4.227 6.966-4.554c2.942-.33 5.786.733 7.796 2.911l14.632 15.858c.742.804.875 1.998.328 2.945-.453.785-1.286 1.25-2.165 1.25zm-19.558-18.022c-.159 0-.319.009-.48.027-1.348.15-2.511.91-3.189 2.084s-.755 2.561-.211 3.803c.544 1.243 1.615 2.126 2.938 2.424l13.219 2.979-9.189-9.958c-.81-.877-1.915-1.359-3.088-1.359z"/></g><path d="m159.139 121.718h-17.555c-1.381 0-2.5-1.119-2.5-2.5s1.119-2.5 2.5-2.5h17.555c1.381 0 2.5 1.119 2.5 2.5s-1.119 2.5-2.5 2.5z" fill="#ebe7f2"/><path d="m159.139 150.841h-16.22c-1.381 0-2.5-1.119-2.5-2.5s1.119-2.5 2.5-2.5h16.22c1.381 0 2.5 1.119 2.5 2.5s-1.119 2.5-2.5 2.5z" fill="#ebe7f2"/><path d="m159.139 179.964h-12.992c-1.381 0-2.5-1.119-2.5-2.5s1.119-2.5 2.5-2.5h12.992c1.381 0 2.5 1.119 2.5 2.5s-1.119 2.5-2.5 2.5z" fill="#ebe7f2"/><path d="m68.778 110.915c-.934 0-1.83-.525-2.259-1.425-8.736-18.328-8.754-38.315-.054-59.406.526-1.277 1.988-1.887 3.264-1.358 1.276.526 1.884 1.988 1.358 3.264-8.138 19.729-8.156 38.351-.054 55.349.594 1.247.065 2.738-1.181 3.333-.348.165-.714.243-1.074.243z" fill="#ebe7f2"/><path d="m88.479 110.915c-.36 0-.727-.078-1.074-.244-1.247-.594-1.775-2.086-1.181-3.333 8.102-16.998 8.084-35.62-.054-55.349-.526-1.276.082-2.738 1.358-3.264 1.278-.528 2.738.082 3.264 1.358 8.7 21.091 8.682 41.078-.054 59.406-.429.901-1.325 1.426-2.259 1.426z" fill="#ebe7f2"/><path d="m198.911 174.568c-16.778 0-30.428-13.65-30.428-30.428s13.649-30.427 30.428-30.427c16.777 0 30.427 13.649 30.427 30.427s-13.65 30.428-30.427 30.428zm0-55.855c-14.021 0-25.428 11.407-25.428 25.427 0 14.021 11.407 25.428 25.428 25.428s25.427-11.407 25.427-25.428c0-14.02-11.406-25.427-25.427-25.427z" fill="#a58bc9"/><g fill="#846f75"><path d="m78.628 128.109c-28.654 0-51.966 23.312-51.966 51.966s23.312 51.966 51.966 51.966 51.966-23.312 51.966-51.966-23.311-51.966-51.966-51.966zm0 98.933c-25.897 0-46.966-21.069-46.966-46.966s21.069-46.966 46.966-46.966 46.966 21.069 46.966 46.966-21.068 46.966-46.966 46.966z"/><path d="m162.6 79.506h2.195c10.231-.031 17.059-.057 18.333 29.018.062 1.38 1.25 2.457 2.607 2.388 1.38-.061 2.448-1.228 2.389-2.607-1.382-31.512-10.122-33.831-23.346-33.799h-2.162c-5.429-.013-11.04-.036-15.437 4.347-5.604 5.584-8.102 17.596-8.102 38.946 0 21.379 2.558 49.68 6.517 72.101 7.44 42.141 15.466 42.141 18.103 42.141 8.134 0 14.871-18.243 20.025-54.223.196-1.367-.753-2.633-2.12-2.829-1.367-.205-2.633.753-2.829 2.12-5.868 40.962-12.872 49.932-15.076 49.932-2.237 0-7.87-7.944-13.179-38.011-3.912-22.159-6.44-50.119-6.44-71.231 0-19.646 2.107-30.896 6.631-35.405 2.927-2.917 6.873-2.902 11.891-2.888z"/><path d="m142.266 57.459c3.082 2.991 7.918 7.033 13.459 9.307 1.276.526 2.738-.086 3.262-1.363s-.086-2.738-1.363-3.262c-5.057-2.076-9.61-6.073-11.875-8.27-7.312-7.095-9.474-12.787-9.187-14.109 1.327-.351 7.235 1.658 14.734 8.935 1.636 1.587 3.146 3.249 4.489 4.94.699.879 1.897 1.186 2.933.748 1.034-.438 1.649-1.512 1.504-2.625-.272-2.089-.41-4.259-.41-6.449 0-10.2 2.752-15.771 3.886-16.333 1.134.563 3.885 6.134 3.885 16.333 0 2.19-.138 4.359-.411 6.449-.145 1.114.471 2.188 1.505 2.625 1.035.439 2.234.132 2.933-.748 1.34-1.688 2.851-3.35 4.49-4.94 7.615-7.389 13.571-9.35 14.727-8.967.33 1.26-1.807 6.987-9.178 14.14-2.267 2.198-6.822 6.195-11.877 8.271-1.277.524-1.888 1.985-1.363 3.262.396.967 1.329 1.551 2.313 1.551.316 0 .638-.06.948-.188 5.539-2.273 10.376-6.316 13.46-9.307 5.177-5.024 10.709-12.253 10.708-17.474 0-1.971-.808-3.169-1.485-3.826-4.3-4.173-14.28 1.716-21.735 8.95-.012.011-.022.022-.034.034-.03-10.236-2.813-21.184-8.885-21.184s-8.855 10.948-8.886 21.184c-.012-.012-.022-.022-.034-.034-7.455-7.234-17.436-13.123-21.735-8.95-.678.658-1.485 1.855-1.485 3.827-.002 5.222 5.53 12.45 10.707 17.473z"/><path d="m67.846 111.391c2.591 5.594 6.471 8.771 10.783 8.771s8.192-3.177 10.782-8.771c17.599-3.889 29.775-16.721 29.775-31.578 0-15.537-13.271-28.732-31.846-31.99.015-5.589 3.231-11.022 9.397-15.816l2.973-2.312c1.09-.848 1.287-2.418.439-3.508s-2.418-1.286-3.508-.439l-2.973 2.312c-8.194 6.373-12.163 14.269-11.177 22.234.14 1.128 1.023 2.021 2.15 2.171 17.12 2.285 29.545 13.787 29.545 27.349 0 12.791-11.114 23.868-27.026 26.938-.833.161-1.527.732-1.844 1.518-1.744 4.316-4.244 6.893-6.687 6.893s-4.943-2.577-6.687-6.893c-.317-.786-1.012-1.357-1.844-1.518-15.913-3.07-27.026-14.147-27.026-26.938 0-13.562 12.425-25.064 29.545-27.349 1.127-.15 2.011-1.042 2.15-2.171.986-7.966-2.983-15.862-11.177-22.234l-2.973-2.312c-1.09-.847-2.661-.651-3.508.439-.848 1.09-.651 2.661.439 3.508l2.973 2.312c6.166 4.794 9.382 10.228 9.397 15.816-18.575 3.258-31.846 16.454-31.846 31.99-.001 14.857 12.175 27.689 29.774 31.578z"/><path d="m214.463 134.387c-.977-.977-2.559-.977-3.535 0l-14.848 14.847-7.608-7.607c-.977-.977-2.559-.977-3.535 0-.977.976-.977 2.559 0 3.535l9.376 9.375c.488.488 1.128.732 1.768.732s1.279-.244 1.768-.732l16.615-16.615c.975-.976.975-2.559-.001-3.535z"/></g></g></svg>