<svg id="Layer_1" enable-background="new 0 0 256 256" height="512" viewBox="0 0 256 256" width="512" xmlns="http://www.w3.org/2000/svg"><g><path d="m205.071 101.271c-13.263 0-20.869-8.108-20.869-22.247 0-1.381 1.119-2.5 2.5-2.5s2.5 1.119 2.5 2.5c0 14.254 8.63 17.247 15.869 17.247s15.868-2.992 15.868-17.247c0-1.381 1.119-2.5 2.5-2.5s2.5 1.119 2.5 2.5c0 14.138-7.606 22.247-20.868 22.247z" fill="#ebe7f2"/><g fill="#846f75"><path d="m167.755 53.686c0-1.381-1.119-2.5-2.5-2.5s-2.5 1.119-2.5 2.5c0 19.106-15.544 34.651-34.65 34.651s-34.652-15.545-34.652-34.651c0-1.381-1.119-2.5-2.5-2.5s-2.5 1.119-2.5 2.5c0 17 10.755 31.53 25.817 37.156-15.062 5.626-25.817 20.157-25.817 37.156 0 16.995 10.749 31.521 25.804 37.151-15.055 5.63-25.804 20.156-25.804 37.151 0 1.381 1.119 2.5 2.5 2.5s2.5-1.119 2.5-2.5c0-19.106 15.545-34.651 34.651-34.651s34.65 15.544 34.65 34.651c0 1.381 1.119 2.5 2.5 2.5s2.5-1.119 2.5-2.5c0-16.995-10.749-31.521-25.803-37.151 15.054-5.63 25.803-20.156 25.803-37.151 0-17-10.755-31.53-25.817-37.156 15.063-5.626 25.818-20.156 25.818-37.156zm-5 74.313c0 19.106-15.544 34.651-34.65 34.651s-34.651-15.544-34.651-34.651 15.545-34.651 34.651-34.651 34.65 15.544 34.65 34.651z"/><path d="m205.071 51.186c-12.39 0-21.999 19.687-21.999 36.623 0 14.91 8.019 23.461 21.999 23.461s21.999-8.551 21.999-23.461c0-16.936-9.609-36.623-21.999-36.623zm0 55.085c-7.755 0-16.999-3.203-16.999-18.461 0-13.939 8.004-31.623 16.999-31.623s16.999 17.683 16.999 31.622c0 15.258-9.244 18.462-16.999 18.462z"/><path d="m211.948 114.937c-1.381 0-2.5 1.119-2.5 2.5v77.986c0 2.414-1.964 4.377-4.377 4.377-2.414 0-4.378-1.964-4.378-4.377v-77.986c0-1.381-1.119-2.5-2.5-2.5s-2.5 1.119-2.5 2.5v77.986c0 5.171 4.207 9.377 9.378 9.377s9.377-4.207 9.377-9.377v-77.986c0-1.381-1.119-2.5-2.5-2.5z"/><path d="m69.301 51.186c-1.381 0-2.5 1.119-2.5 2.5v33.649h-13.958c.007-.073.022-.145.022-.22v-33.429c0-1.381-1.119-2.5-2.5-2.5s-2.5 1.119-2.5 2.5v33.429c0 .075.016.146.022.22h-13.957v-33.649c0-1.381-1.119-2.5-2.5-2.5s-2.5 1.119-2.5 2.5v36.149c0 11.82 9.616 21.436 21.436 21.436s21.436-9.616 21.436-21.436v-36.149c-.001-1.381-1.12-2.5-2.501-2.5zm-18.936 55.085c-8.211 0-15.014-6.058-16.225-13.936h32.45c-1.211 7.877-8.014 13.936-16.225 13.936z"/><path d="m57.232 114.937c-1.381 0-2.5 1.119-2.5 2.5v77.986c0 2.414-1.964 4.377-4.377 4.377-2.414 0-4.378-1.964-4.378-4.377v-77.986c0-1.381-1.119-2.5-2.5-2.5s-2.5 1.119-2.5 2.5v77.986c0 5.171 4.207 9.377 9.378 9.377s9.377-4.207 9.377-9.377v-77.986c0-1.381-1.119-2.5-2.5-2.5z"/></g><path d="m140.118 110.783c-1.273 0-2.51.231-3.668.679-1.865-2.732-4.98-4.434-8.43-4.434s-6.564 1.701-8.43 4.434c-1.158-.448-2.395-.679-3.668-.679-5.634 0-10.218 4.583-10.218 10.217 0 3.461 1.757 6.651 4.589 8.523v16.945c0 1.381 1.119 2.5 2.5 2.5h30.036c1.381 0 2.5-1.119 2.5-2.5v-16.69c3.052-1.819 5.006-5.157 5.006-8.778.001-5.633-4.583-10.217-10.217-10.217zm-24.824 33.186v-3.841h25.036v3.841zm26.656-18.091c-.975.367-1.62 1.299-1.62 2.34v6.909h-25.036v-7.076c0-.988-.582-1.883-1.484-2.285-1.886-.838-3.104-2.709-3.104-4.767 0-2.877 2.341-5.217 5.218-5.217 1.167 0 2.274.382 3.201 1.106.646.503 1.495.658 2.279.417.782-.243 1.396-.854 1.643-1.634.688-2.179 2.688-3.643 4.975-3.643s4.286 1.464 4.975 3.643c.247.781.86 1.392 1.643 1.634s1.636.086 2.279-.417c.927-.724 2.034-1.106 3.201-1.106 2.877 0 5.218 2.34 5.218 5.217-.002 2.158-1.362 4.119-3.388 4.879z" fill="#65c1d6"/></g></svg>