<svg id="Layer_1" enable-background="new 0 0 256 256" height="512" viewBox="0 0 256 256" width="512" xmlns="http://www.w3.org/2000/svg"><g><path d="m122.995 220.461c-.045 0-.091-.001-.137-.003-49.76-2.687-88.738-43.863-88.738-93.741 0-17.975 5.096-35.444 14.737-50.518 9.386-14.673 22.615-26.436 38.259-34.016 1.243-.601 2.738-.082 3.34 1.16s.083 2.738-1.16 3.34c-30.481 14.769-50.176 46.184-50.176 80.034 0 47.222 36.9 86.205 84.008 88.748 1.379.075 2.437 1.252 2.361 2.631-.071 1.333-1.175 2.365-2.494 2.365z" fill="#ed9abc"/><path d="m134.618 220.36c-1.299 0-2.396-1.005-2.49-2.321-.099-1.377.938-2.574 2.314-2.672 46.227-3.31 82.438-42.25 82.438-88.65 0-33.664-18.661-64.05-48.7-79.301-1.231-.625-1.723-2.13-1.098-3.361.627-1.23 2.133-1.721 3.361-1.097 31.728 16.108 51.437 48.203 51.437 83.759 0 23.891-8.98 46.654-25.287 64.098-16.227 17.357-38.172 27.848-61.793 29.54-.061.003-.121.005-.182.005z" fill="#ed9abc"/><path d="m173.645 131.041c-.977-.977-2.559-.977-3.535 0l-15.097 15.097-9.956-9.956 9.204-9.024c.986-.967 1.002-2.549.035-3.535-.966-.986-2.55-1.002-3.535-.035l-9.24 9.059-9.201-9.201 3.569-3.569c.977-.976.977-2.559 0-3.535-.977-.977-2.559-.977-3.535 0l-3.569 3.569-3.21-3.21c-.977-.977-2.559-.977-3.535 0-.977.976-.977 2.559 0 3.535l3.21 3.21-9.323 9.323-9.094-9.158c-.972-.98-2.556-.985-3.535-.012s-.985 2.556-.012 3.536l9.106 9.169-9.834 9.834-15.098-15.097c-.977-.977-2.559-.977-3.535 0-.977.976-.977 2.559 0 3.535l15.097 15.097-4.823 4.823c-.977.976-.977 2.559 0 3.535.488.488 1.128.732 1.768.732s1.279-.244 1.768-.732l4.823-4.823 8.907 8.907-9.725 9.535c-.986.967-1.002 2.549-.035 3.535.489.5 1.137.75 1.785.75.632 0 1.264-.238 1.75-.715l9.761-9.57 10.25 10.25-9.578 9.578-7.766-7.766c-.977-.977-2.559-.977-3.535 0-.977.976-.977 2.559 0 3.535l7.766 7.766-1.958 1.958c-.977.976-.977 2.559 0 3.535.488.488 1.128.732 1.768.732s1.279-.244 1.768-.732l1.958-1.958 9.578 9.579-7.083 7.083c-.977.976-.977 2.559 0 3.535.488.488 1.128.732 1.768.732s1.279-.244 1.768-.732l7.083-7.083 7.031 7.031c.488.488 1.128.732 1.768.732s1.279-.244 1.768-.732c.977-.976.977-2.559 0-3.535l-7.031-7.031 9.579-9.579 1.958 1.958c.488.488 1.128.732 1.768.732s1.279-.244 1.768-.732c.977-.976.977-2.559 0-3.535l-1.958-1.958 8.844-8.844c.946-.945.967-2.455.081-3.436.397-.111.774-.311 1.087-.622.979-.973.985-2.556.012-3.536l-9.873-9.942 9.427-9.427 4.823 4.823c.488.488 1.128.732 1.768.732s1.279-.244 1.768-.732c.977-.976.977-2.559 0-3.535l-4.823-4.823 15.097-15.097c.971-.974.971-2.557-.005-3.533zm-44.86-4.06 9.166 9.166-9.46 9.275-9.042-9.105zm-22.692 22.692 9.821-9.821 9.007 9.07-9.887 9.693zm12.477 12.478 9.874-9.681 10.083 10.153-9.743 9.743zm10.215 36.442-9.579-9.579 9.578-9.578 9.579 9.579zm23.037-22.582c-.394.113-.769.313-1.079.624l-8.844 8.844-9.579-9.579 9.73-9.73zm-9.759-16.923-10.048-10.118 9.472-9.287 9.991 9.991z" fill="#ebe7f2"/><g fill="#846f75"><path d="m174.942 125.812c-1.262-.554-2.739.021-3.293 1.287l-42.864 97.852-42.864-97.852c-.554-1.266-2.029-1.841-3.293-1.287-1.265.554-1.841 2.028-1.287 3.293l45.154 103.079c.398.91 1.297 1.497 2.29 1.497s1.892-.587 2.29-1.497l45.154-103.079c.554-1.265-.022-2.739-1.287-3.293z"/><path d="m105.059 127.873c17.319 0 31.41-14.09 31.41-31.41s-14.091-31.411-31.41-31.411-31.41 14.091-31.41 31.411 14.09 31.41 31.41 31.41zm0-57.821c14.563 0 26.41 11.848 26.41 26.411s-11.848 26.41-26.41 26.41-26.41-11.848-26.41-26.41c-.001-14.563 11.847-26.411 26.41-26.411z"/><path d="m133.347 71.574c-1.094.843-1.297 2.413-.453 3.506.843 1.094 2.414 1.297 3.506.454 4.651-3.586 10.223-5.482 16.111-5.482 14.563 0 26.41 11.848 26.41 26.411s-11.848 26.41-26.41 26.41c-6.121 0-12.087-2.142-16.799-6.03-1.063-.877-2.64-.729-3.519.337-.879 1.065-.729 2.641.337 3.52 5.604 4.626 12.701 7.173 19.98 7.173 17.319 0 31.41-14.09 31.41-31.41s-14.091-31.411-31.41-31.411c-7.002 0-13.629 2.256-19.163 6.522z"/><path d="m101.093 62.429c1.349-.298 2.2-1.632 1.902-2.98-.412-1.864-.621-3.788-.621-5.719 0-14.563 11.848-26.41 26.411-26.41s26.41 11.848 26.41 26.41c0 2.072-.24 4.134-.715 6.128-.319 1.343.511 2.691 1.854 3.01.194.046.389.068.58.068 1.132 0 2.157-.773 2.431-1.922.563-2.372.85-4.823.85-7.285 0-17.32-14.091-31.41-31.41-31.41-17.32 0-31.411 14.09-31.411 31.41 0 2.293.248 4.581.738 6.798.298 1.348 1.627 2.203 2.981 1.902z"/></g></g></svg>