<svg id="Layer_1" enable-background="new 0 0 256 256" height="512" viewBox="0 0 256 256" width="512" xmlns="http://www.w3.org/2000/svg"><g><path d="m87.281 166.667h-41.24c-1.381 0-2.5-1.119-2.5-2.5s1.119-2.5 2.5-2.5h41.24c1.381 0 2.5 1.119 2.5 2.5s-1.119 2.5-2.5 2.5z" fill="#ebe7f2"/><path d="m209.959 166.667h-41.24c-1.381 0-2.5-1.119-2.5-2.5s1.119-2.5 2.5-2.5h41.24c1.381 0 2.5 1.119 2.5 2.5s-1.119 2.5-2.5 2.5z" fill="#ebe7f2"/><path d="m156.582 154.058c-3.284-2.373-7.373-3.001-11.221-1.729l-7.18 2.377c-.883-2.963-3.63-5.131-6.877-5.131h-6.609c-3.247 0-5.993 2.168-6.877 5.131l-7.181-2.377c-3.846-1.273-7.936-.642-11.22 1.729-3.284 2.373-5.168 6.057-5.168 10.109 0 4.051 1.884 7.736 5.168 10.108 2.17 1.568 4.691 2.375 7.262 2.375 1.32 0 2.653-.213 3.959-.645l7.18-2.377c.435 1.458 1.322 2.719 2.497 3.628l-11.484 21.159c-.389.716-1.137 1.161-1.952 1.161-1.141 0-1.715-.76-1.909-1.086-.194-.327-.588-1.195-.044-2.198l8.245-15.174c.659-1.213.211-2.731-1.003-3.39-1.213-.66-2.73-.21-3.39 1.003l-8.246 15.174c-1.228 2.26-1.175 4.93.14 7.141 1.315 2.21 3.636 3.53 6.207 3.53 2.649 0 5.082-1.446 6.347-3.775l11.962-22.042h5.622l11.962 22.042c1.265 2.328 3.697 3.774 6.347 3.774 2.571 0 4.892-1.32 6.207-3.53 1.314-2.211 1.367-4.88.139-7.141l-8.245-15.174c-.66-1.214-2.179-1.663-3.39-1.003-1.214.659-1.662 2.177-1.003 3.39l8.244 15.174c.545 1.002.151 1.871-.043 2.198-.194.326-.769 1.086-1.909 1.086-.815 0-1.563-.445-1.952-1.16l-11.484-21.16c1.175-.909 2.063-2.17 2.497-3.628l7.181 2.377c1.305.432 2.638.645 3.958.645 2.57 0 5.092-.807 7.262-2.375 3.284-2.372 5.168-6.057 5.168-10.108.001-4.051-1.883-7.735-5.167-10.108zm-34.064 2.694c0-1.201.977-2.177 2.178-2.177h6.609c1.201 0 2.178.977 2.178 2.177v14.83c0 1.201-.977 2.177-2.178 2.177h-6.609c-1.201 0-2.178-.977-2.178-2.177zm-13.451 14.506c-2.306.762-4.755.385-6.722-1.036-1.968-1.421-3.096-3.628-3.096-6.055s1.128-4.634 3.096-6.056c1.967-1.422 4.419-1.799 6.721-1.036l8.451 2.798v8.586zm44.587-1.036c-1.968 1.421-4.42 1.797-6.721 1.036l-8.451-2.798v-8.586l8.45-2.798c2.304-.763 4.754-.385 6.722 1.036s3.096 3.628 3.096 6.056c0 2.426-1.128 4.633-3.096 6.054z" fill="#ed9abc"/><g fill="#846f75"><path d="m209.959 141.517c-1.381 0-2.5 1.119-2.5 2.5v42.342c0 17.92-14.579 32.5-32.5 32.5h-93.918c-17.921 0-32.5-14.58-32.5-32.5v-42.342c0-1.381-1.119-2.5-2.5-2.5s-2.5 1.119-2.5 2.5v42.342c0 20.678 16.822 37.5 37.5 37.5h93.918c20.678 0 37.5-16.822 37.5-37.5v-42.342c0-1.381-1.119-2.5-2.5-2.5z"/><path d="m219.299 115.85h-182.598c-5.297 0-9.605 4.309-9.605 9.605s4.309 9.605 9.605 9.605h182.598c5.297 0 9.605-4.309 9.605-9.605s-4.308-9.605-9.605-9.605zm0 14.211h-182.598c-2.539 0-4.605-2.066-4.605-4.605s2.066-4.605 4.605-4.605h182.598c2.539 0 4.605 2.066 4.605 4.605s-2.066 4.605-4.605 4.605z"/><path d="m42.214 69.64c1.592.467 3.198.662 4.773.662 4.476 0 8.69-1.578 11.564-2.989.151 1.162 1.274 4.969 1.274 4.969-3.619-.723-7.373-.577-10.925.49-12.17 3.654-19.019 16.792-15.268 29.286.877 2.918 2.62 6.708 4.909 10.671.463.802 1.304 1.25 2.167 1.25.425 0 .854-.108 1.248-.335 1.196-.691 1.605-2.22.915-3.416-2.102-3.638-3.682-7.05-4.45-9.608-2.959-9.854 2.387-20.197 11.916-23.059 3.976-1.195 8.283-.929 12.135.744 1.116.485 2.425.093 3.091-.928 2.292-3.517 5.742-6.111 9.717-7.305 9.526-2.859 19.688 2.827 22.647 12.682.278.927.534 2.028.76 3.273.246 1.358 1.544 2.261 2.905 2.014 1.359-.246 2.261-1.547 2.015-2.906-.259-1.429-.56-2.715-.892-3.821-3.752-12.495-16.705-19.685-28.873-16.032-3.49 1.048-6.655 2.944-9.252 5.472l-.536-1.486c-.969-3.272-.913-6.714.162-9.957.435-1.311-.275-2.725-1.586-3.16-.898-.297-1.835-.049-2.482.55-2.384-3.485-6.182-7.622-11.45-9.167-9.563-2.805-19.668 4.185-20.093 4.484-.955.67-1.319 1.912-.878 2.991.199.485 4.929 11.827 14.487 14.631zm5.077-17.306c5.222 1.531 8.756 6.914 10.331 9.823-2.898 1.597-8.783 4.217-14 2.685-5.222-1.531-8.756-6.914-10.331-9.823 2.898-1.597 8.782-4.217 14-2.685z"/><path d="m91.851 101.19c-.994 2.162-1.942 5.065-2.742 8.396-.323 1.342.504 2.692 1.847 3.015 1.34.325 2.691-.504 3.015-1.847.726-3.019 1.563-5.604 2.424-7.477 2.086-4.542 5.759-8.021 10.343-9.796 4.559-1.767 9.474-1.634 13.842.372 3.77 1.731 6.828 4.778 8.611 8.58.518 1.104 1.757 1.674 2.934 1.347 4.043-1.125 8.35-.79 12.12.942 3.273 1.503 5.978 3.949 7.82 7.075.466.791 1.3 1.231 2.155 1.231.432 0 .869-.112 1.268-.347 1.189-.701 1.585-2.234.884-3.423-2.362-4.009-5.835-7.148-10.04-9.08-3.383-1.554-7.095-2.217-10.793-1.994l.698-1.25c.031-.057.062-.116.088-.175.497-1.082.894-2.194 1.204-3.325 3.135 2.123 8.089 4.738 13.506 4.738.775 0 1.562-.054 2.352-.17 9.854-1.455 16.109-12.033 16.371-12.482.586-1.008.397-2.288-.455-3.084-.38-.354-9.406-8.674-19.279-7.222-5.431.802-9.765 4.374-12.609 7.495-.558-.683-1.453-1.058-2.381-.888-1.357.249-2.257 1.552-2.008 2.91.614 3.351.197 6.757-1.205 9.857l-.775 1.388c-2.218-2.848-5.082-5.15-8.38-6.665-5.606-2.574-11.903-2.748-17.734-.49-5.805 2.245-10.451 6.639-13.081 12.369zm58.901-21.033c5.38-.795 10.846 2.615 13.494 4.597-1.965 2.664-6.21 7.504-11.592 8.299-5.376.797-10.846-2.615-13.494-4.597 1.965-2.664 6.21-7.504 11.592-8.299z"/><path d="m240.178 54.823c-1.782-3.519-7.66-2.639-12.893-.57 1.433-5.34 1.571-11.113-2.203-12.411-1.43-.492-3.693-.371-6.306 3.011-1.111 1.439-2.167 3.316-3.062 5.423-2.854-4.85-6.947-9.159-10.519-7.481-.679.319-1.591 1-2.082 2.427-1.09 3.172.646 8.49 2.633 12.41 1.167 2.302 3.132 5.55 5.866 7.951 1.037.912 2.616.809 3.527-.229s.81-2.617-.229-3.528c-2.248-1.975-3.913-4.892-4.706-6.455-1.667-3.289-2.265-5.775-2.404-7.215 1.163 1.038 2.914 3.161 4.544 6.376.578 1.14 1.075 2.293 1.476 3.428.375 1.059 1.408 1.738 2.53 1.661 1.12-.078 2.052-.893 2.276-1.994.234-1.148.556-2.319.955-3.48 1.164-3.385 2.613-5.676 3.604-6.791.096 1.488-.17 4.186-1.333 7.57-.4 1.161-.867 2.282-1.389 3.332-.499 1.006-.267 2.222.569 2.972.835.75 2.067.852 3.016.247 1.02-.651 2.12-1.255 3.273-1.796 3.262-1.533 5.947-2.13 7.504-2.233-.996 1.049-2.996 2.643-6.334 4.21-1.585.746-4.691 2.021-7.681 2.197-1.378.081-2.43 1.263-2.35 2.642.078 1.329 1.18 2.354 2.494 2.354.049 0 .099-.001.148-.004 3.635-.212 7.181-1.565 9.515-2.663 3.978-1.869 8.616-4.996 9.707-8.167.494-1.428.194-2.525-.146-3.194z"/><path d="m120.293 57.729 1.267-.175c3.009-.428 4.782-.613 6.274.511 2.68 2.022 4.71 8.27 6.208 19.101.189 1.369 1.454 2.327 2.819 2.134 1.367-.189 2.323-1.451 2.134-2.819-1.76-12.725-4.197-19.426-8.15-22.408-3.221-2.43-6.815-1.92-9.987-1.471l-1.233.17c-3.174.429-6.771.914-9.212 4.126-2.995 3.943-3.522 11.055-1.763 23.778.173 1.252 1.245 2.158 2.474 2.158.114 0 .229-.008.346-.024 1.367-.189 2.323-1.451 2.134-2.819-1.498-10.832-1.239-17.396.791-20.069 1.128-1.484 2.887-1.786 5.898-2.193z"/><path d="m107.019 45.251c2.081 1.527 5.302 3.537 8.824 4.445.21.054.419.08.626.08 1.113 0 2.128-.749 2.419-1.877.345-1.337-.46-2.7-1.797-3.044-2.897-.747-5.701-2.598-7.115-3.634-2.973-2.181-4.629-4.13-5.404-5.351 1.508.4 4.028 1.504 6.935 3.636 1.031.755 1.995 1.56 2.865 2.392.811.775 2.041.914 3.007.339.965-.575 1.428-1.723 1.131-2.807-.311-1.138-.553-2.327-.72-3.536-.49-3.545-.232-6.245.148-7.686.758 1.284 1.738 3.812 2.229 7.356.168 1.214.258 2.425.267 3.6.009 1.123.766 2.102 1.851 2.394s2.23-.175 2.802-1.142c.614-1.039 1.323-2.075 2.109-3.081 2.218-2.841 4.345-4.587 5.687-5.381-.415 1.386-1.479 3.71-3.749 6.617-1.078 1.381-3.274 3.924-5.86 5.429-1.194.694-1.599 2.225-.904 3.418s2.227 1.599 3.418.903c3.146-1.83 5.699-4.639 7.288-6.673 2.705-3.464 5.432-8.349 4.972-11.671-.207-1.496-.971-2.338-1.576-2.782-3.182-2.335-8.028 1.106-11.761 5.314-1.133-5.413-3.639-10.621-7.57-10.078-3.953.548-4.928 6.239-4.55 11.755-4.733-3.038-10.332-5.033-12.762-1.923-.461.591-.969 1.61-.762 3.105.457 3.322 4.408 7.284 7.952 9.883z"/><path d="m148.472 73.43c1.191-.698 1.592-2.23.894-3.421-5.91-10.086-6.292-16.92-5.509-17.775 1.211-.326 7.147 3.403 13.206 13.742 1.259 2.149 2.363 4.34 3.284 6.511.438 1.034 1.507 1.647 2.627 1.503 1.113-.146 1.993-1.017 2.15-2.129.322-2.277.81-4.601 1.449-6.906 2.991-10.791 7.672-16.17 9.047-16.17.012 0 .022 0 .034.001 1.213.615 2.501 7.666-.515 18.545-.64 2.307-1.418 4.55-2.313 6.667-.438 1.035-.131 2.234.748 2.932.882.699 2.119.724 3.025.063 1.908-1.388 3.982-2.697 6.167-3.89 10.518-5.745 17.512-5.895 18.359-5.051.269 1.207-3.579 6.869-13.837 12.472-1.212.662-1.657 2.18-.996 3.392.454.832 1.312 1.302 2.196 1.302.405 0 .816-.099 1.196-.306 1.569-.857 3.061-1.755 4.464-2.677-.966 2.254-1.942 4.82-2.948 7.745-.581 1.691-1.162 3.485-1.739 5.344-.547-1.525-1.157-2.928-1.817-4.159-2.766-5.16-5.596-5.867-7.481-5.553-5.484.916-6.462 10.886-5.063 20.022-8.019-5.444-17.424-8.879-20.701-4.431-.819 1.111-.582 2.677.529 3.496 1.083.796 2.588.595 3.424-.436 1.082-.478 6.697.498 14.313 5.763 1.692 1.17 3.285 2.427 4.734 3.734.473.426 1.072.644 1.676.644.463 0 .929-.128 1.34-.39.948-.603 1.378-1.763 1.051-2.837-.552-1.815-.998-3.727-1.324-5.681-1.442-8.641-.051-13.897.855-14.885 1.178.64 4.201 5.159 5.644 13.8.022.132.062.255.103.378-.449 1.688-.889 3.404-1.317 5.143-.33 1.34.49 2.695 1.831 3.024 1.339.328 2.695-.491 3.024-1.831 1.748-7.108 3.7-13.858 5.646-19.52 3.556-10.34 6.751-16.081 9.77-17.549 1.68-.817 3.386-.292 6.256.705l1.209.416c2.877.979 4.545 1.614 5.366 3.29 1.479 3.014.469 9.506-3.087 19.847-1.188 3.457-2.629 7.246-4.281 11.263-.525 1.277.083 2.738 1.36 3.263.312.128.634.188.95.188.983 0 1.916-.583 2.313-1.549 1.69-4.107 3.166-7.99 4.387-11.539 4.176-12.148 5.028-19.228 2.848-23.674-1.775-3.622-5.213-4.791-8.245-5.823l-1.179-.405c-2.3-.799-4.835-1.676-7.512-1.276.156-1.434-.223-2.506-.625-3.193-3.22-5.495-15.264-2.218-25.089 3.147-.168.092-.336.185-.504.278.031-.109.062-.218.092-.327 1.534-5.535 2.245-10.977 2.001-15.325-.377-6.712-2.903-8.8-4.956-9.369-6.246-1.733-12.288 8.969-15.248 19.646-.03.109-.061.219-.09.328-.096-.166-.191-.332-.288-.498-5.662-9.661-14.31-18.667-19.888-15.615-.865.472-2.012 1.453-2.563 3.446-1.235 4.455 1.169 12.799 6.125 21.257.7 1.192 2.233 1.59 3.422.893z"/></g></g></svg>