<svg id="Layer_1" enable-background="new 0 0 256 256" height="512" viewBox="0 0 256 256" width="512" xmlns="http://www.w3.org/2000/svg"><g><g fill="#846f75"><path d="m143.667 75.998c0-13.804-13.547-24.595-14.124-25.047-.904-.711-2.182-.711-3.086 0-.577.453-14.124 11.243-14.124 25.047s13.547 24.594 14.124 25.047c.452.355.998.533 1.543.533s1.091-.178 1.543-.533c.577-.453 14.124-11.244 14.124-25.047zm-15.667 19.761c-3.286-3.051-10.667-10.891-10.667-19.762 0-8.875 7.387-16.718 10.67-19.765 3.286 3.04 10.664 10.859 10.664 19.765 0 8.872-7.381 16.711-10.667 19.762z"/><path d="m90.62 93.167c-1.144.138-2.045 1.039-2.184 2.183-.087.728-2.037 17.937 7.725 27.697 6.871 6.871 17.432 7.94 23.337 7.94 2.484 0 4.146-.189 4.36-.215 1.144-.138 2.045-1.039 2.184-2.183.087-.728 2.036-17.937-7.726-27.697-9.759-9.762-26.97-7.812-27.696-7.725zm30.593 32.775c-4.486.167-15.245-.159-21.517-6.431-6.273-6.273-6.598-17.035-6.431-21.516 4.479-.171 15.242.158 21.516 6.431s6.599 17.037 6.432 21.516z"/><path d="m129.958 128.588c.139 1.144 1.04 2.045 2.184 2.183.215.026 1.876.215 4.36.215 5.906 0 16.467-1.069 23.337-7.94 9.762-9.761 7.812-26.969 7.725-27.697-.139-1.144-1.04-2.045-2.184-2.183-.727-.088-17.938-2.037-27.696 7.725-9.762 9.761-7.813 26.969-7.726 27.697zm32.776-30.593c.167 4.481-.157 15.243-6.431 21.516-6.274 6.275-17.036 6.604-21.517 6.431-.167-4.48.158-15.243 6.432-21.516 6.274-6.274 17.035-6.602 21.516-6.431z"/><path d="m90.62 130.469c-1.144.138-2.045 1.039-2.184 2.183-.087.728-2.037 17.936 7.725 27.697 6.871 6.871 17.431 7.939 23.337 7.939 2.483 0 4.146-.189 4.36-.215 1.144-.138 2.045-1.039 2.184-2.183.087-.728 2.036-17.936-7.726-27.697-9.758-9.761-26.97-7.812-27.696-7.724zm30.593 32.779c-4.476.177-15.22-.138-21.517-6.435-6.273-6.273-6.598-17.036-6.431-21.516 4.479-.171 15.242.158 21.516 6.431 6.276 6.276 6.599 17.044 6.432 21.52z"/><path d="m165.38 130.469c-.727-.088-17.938-2.037-27.696 7.724-9.762 9.761-7.813 26.969-7.726 27.697.139 1.144 1.04 2.045 2.184 2.183.215.026 1.876.215 4.36.215 5.906 0 16.467-1.069 23.337-7.939 9.762-9.761 7.812-26.97 7.725-27.697-.139-1.144-1.041-2.046-2.184-2.183zm-9.076 26.344c-6.275 6.275-17.049 6.599-21.521 6.431-.174-4.473.139-15.219 6.436-21.516 6.273-6.273 17.034-6.602 21.516-6.431.166 4.481-.158 15.243-6.431 21.516z"/><path d="m90.62 167.771c-1.144.138-2.045 1.039-2.184 2.183-.087.728-2.037 17.936 7.725 27.697 6.871 6.871 17.431 7.939 23.337 7.939 2.483 0 4.146-.189 4.36-.215 1.144-.138 2.045-1.039 2.184-2.183.087-.728 2.036-17.936-7.726-27.697-9.758-9.761-26.97-7.812-27.696-7.724zm30.593 32.779c-4.476.179-15.22-.138-21.517-6.435-6.273-6.273-6.598-17.036-6.431-21.516 4.479-.171 15.242.158 21.516 6.431 6.276 6.276 6.599 17.044 6.432 21.52z"/><path d="m165.38 167.771c-.727-.088-17.938-2.037-27.696 7.724-9.762 9.761-7.813 26.969-7.726 27.697.139 1.144 1.04 2.045 2.184 2.183.215.026 1.876.215 4.36.215 5.906 0 16.467-1.069 23.337-7.939 9.762-9.761 7.812-26.97 7.725-27.697-.139-1.144-1.041-2.045-2.184-2.183zm-9.076 26.345c-6.275 6.275-17.049 6.598-21.521 6.431-.174-4.473.139-15.219 6.436-21.516 6.273-6.273 17.034-6.601 21.516-6.431.166 4.48-.158 15.242-6.431 21.516z"/></g><path d="m128 25.623c-56.451 0-102.378 45.926-102.378 102.377s45.927 102.377 102.378 102.377 102.378-45.926 102.378-102.377-45.927-102.377-102.378-102.377zm-97.378 102.377c0-53.694 43.684-97.377 97.378-97.377 25.95 0 49.56 10.204 67.033 26.809l-137.601 137.601c-16.605-17.472-26.81-41.083-26.81-67.033zm97.378 97.377c-25.95 0-49.56-10.204-67.033-26.81l137.601-137.6c16.605 17.472 26.81 41.083 26.81 67.033 0 53.694-43.684 97.377-97.378 97.377z" fill="#f9b087"/></g></svg>