<svg id="Layer_1" enable-background="new 0 0 256 256" height="512" viewBox="0 0 256 256" width="512" xmlns="http://www.w3.org/2000/svg"><g><path d="m189.044 106.016h-122.111c-1.381 0-2.5-1.119-2.5-2.5s1.119-2.5 2.5-2.5h122.111c1.381 0 2.5 1.119 2.5 2.5s-1.119 2.5-2.5 2.5z" fill="#ebe7f2"/><g fill="#846f75"><path d="m128 121.141c-26.629 0-52.108 3.935-71.745 11.081-.988.359-1.646 1.298-1.646 2.349v25.482c0 .816.398 1.58 1.066 2.048.669.469 1.523.581 2.289.301 19.099-6.954 43.971-10.784 70.035-10.784s50.937 3.83 70.035 10.784c.278.101.567.151.855.151.506 0 1.008-.154 1.434-.452.668-.468 1.066-1.232 1.066-2.048v-25.482c0-1.051-.657-1.99-1.646-2.349-19.635-7.146-45.114-11.081-71.743-11.081zm68.391 35.391c-19.138-6.407-43.25-9.915-68.391-9.915s-49.253 3.508-68.391 9.915v-20.198c18.875-6.58 43.071-10.193 68.391-10.193s49.516 3.613 68.391 10.193z"/><path d="m48.77 169.881c0-1.381-1.119-2.5-2.5-2.5h-17.221l5.467-8.936c.489-.801.489-1.809 0-2.609l-5.467-8.936h17.221c1.381 0 2.5-1.119 2.5-2.5s-1.119-2.5-2.5-2.5h-21.681c-.904 0-1.738.489-2.181 1.278-.442.789-.424 1.755.048 2.527l6.996 11.436-6.996 11.436c-.472.771-.49 1.738-.048 2.527s1.276 1.278 2.181 1.278h21.681c1.38-.001 2.5-1.12 2.5-2.501z"/><path d="m226.548 157.14 6.996-11.436c.472-.771.49-1.738.048-2.527s-1.276-1.278-2.181-1.278h-21.681c-1.381 0-2.5 1.119-2.5 2.5s1.119 2.5 2.5 2.5h17.221l-5.467 8.936c-.489.801-.489 1.809 0 2.609l5.467 8.936h-17.221c-1.381 0-2.5 1.119-2.5 2.5s1.119 2.5 2.5 2.5h21.681c.904 0 1.738-.489 2.181-1.278.442-.789.424-1.755-.048-2.527z"/><path d="m154.826 46.194c39.004 11.866 65.209 47.256 65.209 88.064 0 1.381 1.119 2.5 2.5 2.5s2.5-1.119 2.5-2.5c0-21.224-6.728-41.381-19.455-58.293-12.309-16.356-29.816-28.628-49.299-34.555-1.317-.4-2.717.343-3.119 1.664-.402 1.322.343 2.718 1.664 3.12z"/><path d="m33.465 136.758c1.381 0 2.5-1.119 2.5-2.5 0-40.808 26.205-76.199 65.209-88.064 1.321-.402 2.066-1.798 1.664-3.119s-1.801-2.064-3.119-1.664c-19.482 5.927-36.99 18.198-49.299 34.555-12.728 16.912-19.455 37.069-19.455 58.293 0 1.38 1.119 2.499 2.5 2.499z"/><path d="m210.992 179.631c-1.191-.694-2.723-.292-3.419.901-16.45 28.226-46.941 45.761-79.573 45.761-33.08 0-63.778-17.895-80.114-46.702-.682-1.201-2.209-1.622-3.408-.941-1.201.681-1.622 2.207-.941 3.408 17.223 30.37 49.587 49.235 84.464 49.235 34.404 0 66.55-18.486 83.894-48.243.694-1.193.291-2.724-.903-3.419z"/><path d="m104.006 86.508c-1.688-1.442-3.811-2.391-6.147-2.598 1.201-2.044 1.858-4.398 1.858-6.857 0-7.479-6.084-13.563-13.563-13.563s-13.563 6.084-13.563 13.563c0 2.458.657 4.813 1.858 6.857-5.606.497-10.018 5.22-10.018 10.953v18.064c0 1.381 1.119 2.5 2.5 2.5h122.135c1.381 0 2.5-1.119 2.5-2.5v-18.064c0-5.733-4.411-10.456-10.018-10.953 1.201-2.044 1.858-4.398 1.858-6.857 0-7.479-6.085-13.563-13.563-13.563s-13.563 6.084-13.563 13.563c0 2.458.657 4.813 1.858 6.857-2.336.207-4.458 1.156-6.147 2.598-1.919-4.212-6.098-7.186-10.985-7.335 1.618-2.478 2.512-5.402 2.512-8.467 0-1.381-1.119-2.5-2.5-2.5s-2.5 1.119-2.5 2.5c0 3.595-1.817 6.906-4.86 8.856-.935.599-1.362 1.743-1.051 2.808.313 1.065 1.289 1.797 2.399 1.797h5.614c4.136 0 7.5 3.364 7.5 7.5v18.76h-40.246v-18.76c0-4.136 3.364-7.5 7.5-7.5h5.614c1.11 0 2.087-.732 2.399-1.797s-.116-2.208-1.051-2.808c-3.043-1.951-4.86-5.261-4.86-8.856 0-1.381-1.119-2.5-2.5-2.5s-2.5 1.119-2.5 2.5c0 3.065.894 5.99 2.512 8.467-4.884.149-9.063 3.123-10.982 7.335zm55.114 2.359h4.771c1.11 0 2.087-.732 2.399-1.797s-.116-2.209-1.051-2.808c-2.478-1.587-3.957-4.282-3.957-7.208 0-4.722 3.841-8.563 8.563-8.563s8.563 3.841 8.563 8.563c0 2.926-1.479 5.621-3.957 7.208-.935.599-1.362 1.742-1.051 2.808.313 1.065 1.289 1.797 2.399 1.797h4.771c3.307 0 5.997 2.69 5.997 5.997v15.564h-33.444v-15.565c0-3.306 2.69-5.996 5.997-5.996zm-89.687 5.996c0-3.307 2.69-5.997 5.997-5.997h4.77c1.11 0 2.087-.732 2.399-1.797s-.116-2.209-1.051-2.808c-2.478-1.587-3.957-4.282-3.957-7.208 0-4.722 3.842-8.563 8.563-8.563s8.563 3.841 8.563 8.563c0 2.926-1.479 5.621-3.957 7.208-.935.599-1.362 1.742-1.051 2.808.313 1.065 1.289 1.797 2.399 1.797h4.771c3.307 0 5.997 2.69 5.997 5.997v15.564h-33.443z"/></g><path d="m142.195 56.642h-28.791c-1.381 0-2.5-1.119-2.5-2.5s1.119-2.5 2.5-2.5h28.791c1.381 0 2.5 1.119 2.5 2.5s-1.119 2.5-2.5 2.5z" fill="#ebe7f2"/><g fill="#a58bc9"><path d="m142.195 65.116h-28.791c-1.381 0-2.5-1.119-2.5-2.5v-16.187c-2.716-1.817-4.398-4.891-4.398-8.225 0-5.458 4.44-9.898 9.897-9.898 1.205 0 2.376.214 3.477.629 1.813-2.607 4.807-4.228 8.12-4.228s6.308 1.62 8.12 4.228c1.101-.415 2.271-.629 3.477-.629 5.457 0 9.897 4.44 9.897 9.898 0 3.488-1.871 6.704-4.799 8.473v15.939c0 1.381-1.119 2.5-2.5 2.5zm-26.291-5h23.791v-14.993c0-1.042.646-1.974 1.62-2.34 1.901-.714 3.179-2.555 3.179-4.579 0-2.701-2.197-4.898-4.897-4.898-1.095 0-2.134.359-3.005 1.039-.646.503-1.497.658-2.279.417-.782-.243-1.396-.854-1.643-1.635-.646-2.045-2.523-3.419-4.67-3.419s-4.023 1.374-4.67 3.419c-.247.781-.86 1.392-1.643 1.635-.781.242-1.633.087-2.279-.417-.871-.68-1.91-1.039-3.005-1.039-2.7 0-4.897 2.197-4.897 4.898 0 1.932 1.144 3.688 2.914 4.474.902.401 1.484 1.297 1.484 2.285z"/><path d="m153.448 174.913c0-8.238-4.779-14.69-10.881-14.69s-10.881 6.453-10.881 14.69c0 7.071 3.525 12.813 8.381 14.302v24.446c0 1.381 1.119 2.5 2.5 2.5s2.5-1.119 2.5-2.5v-24.446c4.856-1.489 8.381-7.231 8.381-14.302zm-10.881 9.691c-3.188 0-5.881-4.438-5.881-9.691s2.693-9.69 5.881-9.69 5.881 4.438 5.881 9.69-2.693 9.691-5.881 9.691z"/><path d="m121.813 160.223c-1.381 0-2.5 1.119-2.5 2.5v13.5h-3.381v-13.5c0-1.381-1.119-2.5-2.5-2.5s-2.5 1.119-2.5 2.5v13.5h-3.381v-13.5c0-1.381-1.119-2.5-2.5-2.5s-2.5 1.119-2.5 2.5v16c0 5.138 3.584 9.446 8.381 10.58v24.359c0 1.381 1.119 2.5 2.5 2.5s2.5-1.119 2.5-2.5v-24.359c4.797-1.134 8.381-5.442 8.381-10.58v-16c0-1.381-1.119-2.5-2.5-2.5zm-8.38 24.381c-2.348 0-4.374-1.387-5.315-3.381h10.631c-.943 1.994-2.968 3.381-5.316 3.381z"/><path d="m87.577 183.324h-20.633c-1.381 0-2.5-1.119-2.5-2.5s1.119-2.5 2.5-2.5h20.633c1.381 0 2.5 1.119 2.5 2.5s-1.119 2.5-2.5 2.5z"/><path d="m189.056 183.324h-20.633c-1.381 0-2.5-1.119-2.5-2.5s1.119-2.5 2.5-2.5h20.633c1.381 0 2.5 1.119 2.5 2.5s-1.119 2.5-2.5 2.5z"/></g></g></svg>