<svg id="Layer_1" enable-background="new 0 0 256 256" height="512" viewBox="0 0 256 256" width="512" xmlns="http://www.w3.org/2000/svg"><g><g fill="#ebe7f2"><path d="m133.924 215.55c-1.381 0-2.5-1.119-2.5-2.5v-46.78c0-1.381 1.119-2.5 2.5-2.5s2.5 1.119 2.5 2.5v46.781c0 1.38-1.119 2.499-2.5 2.499z"/><path d="m158.43 215.55c-1.381 0-2.5-1.119-2.5-2.5v-46.78c0-1.381 1.119-2.5 2.5-2.5s2.5 1.119 2.5 2.5v46.781c0 1.38-1.119 2.499-2.5 2.499z"/><path d="m182.936 215.55c-1.381 0-2.5-1.119-2.5-2.5v-46.78c0-1.381 1.119-2.5 2.5-2.5s2.5 1.119 2.5 2.5v46.781c0 1.38-1.12 2.499-2.5 2.499z"/><path d="m207.441 215.55c-1.381 0-2.5-1.119-2.5-2.5v-46.78c0-1.381 1.119-2.5 2.5-2.5s2.5 1.119 2.5 2.5v46.781c0 1.38-1.119 2.499-2.5 2.499z"/></g><path d="m161.236 136.741c-.271 0-.546-.044-.816-.138l-4.972-1.718-4.973 1.718c-.529.183-1.104.183-1.634 0l-4.967-1.717-4.962 1.717c-.529.184-1.105.183-1.635 0l-5.782-2c-1.305-.452-1.997-1.875-1.545-3.18.45-1.305 1.871-1.997 3.18-1.545l4.965 1.717 4.962-1.717c.529-.184 1.105-.183 1.635 0l4.967 1.718 4.973-1.718c.529-.183 1.104-.183 1.633 0l5.788 2c1.305.451 1.997 1.874 1.547 3.179-.358 1.035-1.328 1.684-2.364 1.684z" fill="#f9b087"/><g fill="#846f75"><path d="m94.287 40.45h-67.649c-1.381 0-2.5 1.119-2.5 2.5v140.71c0 1.381 1.119 2.5 2.5 2.5h31.325v24.391h-15.879c-1.381 0-2.5 1.119-2.5 2.5s1.119 2.5 2.5 2.5h36.757c1.381 0 2.5-1.119 2.5-2.5s-1.119-2.5-2.5-2.5h-15.879v-24.391h31.325c1.381 0 2.5-1.119 2.5-2.5v-140.71c0-1.381-1.119-2.5-2.5-2.5zm-2.5 140.71h-62.649v-135.71h62.649z"/><path d="m229.362 110.805h-117.359c-1.381 0-2.5 1.119-2.5 2.5v44.286c0 1.381 1.119 2.5 2.5 2.5h117.359c1.381 0 2.5-1.119 2.5-2.5v-44.286c0-1.381-1.119-2.5-2.5-2.5zm-2.5 44.286h-112.359v-39.286h112.359z"/><path d="m229.362 163.77c-1.381 0-2.5 1.119-2.5 2.5v44.281h-112.359v-44.281c0-1.381-1.119-2.5-2.5-2.5s-2.5 1.119-2.5 2.5v46.781c0 1.381 1.119 2.5 2.5 2.5h117.359c1.381 0 2.5-1.119 2.5-2.5v-46.781c0-1.381-1.119-2.5-2.5-2.5z"/><path d="m132.313 142.079c1.381 0 2.5-1.119 2.5-2.5v-11.306h23.923v11.306c0 1.381 1.119 2.5 2.5 2.5s2.5-1.119 2.5-2.5v-13.806c0-1.381-1.119-2.5-2.5-2.5h-28.923c-1.381 0-2.5 1.119-2.5 2.5v13.806c0 1.381 1.12 2.5 2.5 2.5z"/><path d="m126.375 148.422h42.058c1.381 0 2.5-1.119 2.5-2.5s-1.119-2.5-2.5-2.5h-42.058c-1.381 0-2.5 1.119-2.5 2.5s1.119 2.5 2.5 2.5z"/><path d="m181.065 143.422c-1.381 0-2.5 1.119-2.5 2.5s1.119 2.5 2.5 2.5h9.275c1.381 0 2.5-1.119 2.5-2.5s-1.119-2.5-2.5-2.5h-2.138v-3.136c2.704-1.016 4.638-3.622 4.638-6.677v-8.635c0-1.381-1.119-2.5-2.5-2.5h-9.275c-1.381 0-2.5 1.119-2.5 2.5v8.635c0 3.055 1.933 5.661 4.638 6.677v3.136zm2.5-15.948h4.275v6.135c0 1.179-.959 2.138-2.138 2.138s-2.138-.959-2.138-2.138v-6.135z"/><path d="m203.715 143.422c-1.381 0-2.5 1.119-2.5 2.5s1.119 2.5 2.5 2.5h9.275c1.381 0 2.5-1.119 2.5-2.5s-1.119-2.5-2.5-2.5h-2.138v-3.136c2.704-1.016 4.638-3.622 4.638-6.677v-8.635c0-1.381-1.119-2.5-2.5-2.5h-9.275c-1.381 0-2.5 1.119-2.5 2.5v8.635c0 3.055 1.933 5.661 4.638 6.677v3.136zm2.5-15.948h4.275v6.135c0 1.179-.959 2.138-2.138 2.138s-2.138-.959-2.138-2.138v-6.135z"/></g><path d="m72.187 69.026c-1.223 0-2.411.218-3.525.642-1.826-2.639-4.852-4.28-8.199-4.28s-6.373 1.641-8.199 4.28c-1.114-.423-2.302-.641-3.525-.641-5.503 0-9.979 4.477-9.979 9.979 0 3.366 1.702 6.47 4.447 8.301v16.381c0 1.381 1.119 2.5 2.5 2.5h29.109c1.381 0 2.5-1.119 2.5-2.5v-16.132c2.959-1.782 4.851-5.03 4.851-8.551-.001-5.503-4.478-9.979-9.98-9.979zm-23.981 32.161v-3.568h24.109v3.568zm25.729-17.526c-.975.366-1.62 1.298-1.62 2.34v6.619h-24.109v-6.781c0-.988-.582-1.883-1.484-2.285-1.8-.8-2.963-2.585-2.963-4.549 0-2.746 2.234-4.979 4.979-4.979 1.114 0 2.17.365 3.055 1.055.646.504 1.497.658 2.279.417.782-.243 1.396-.854 1.643-1.634.657-2.08 2.565-3.477 4.748-3.477s4.09 1.397 4.748 3.477c.247.781.86 1.391 1.643 1.634.781.24 1.633.087 2.279-.417.885-.69 1.942-1.056 3.056-1.056 2.746 0 4.979 2.233 4.979 4.979-.002 2.059-1.3 3.93-3.233 4.657z" fill="#f9b087"/><path d="m74.14 150.629h-27.759c-1.381 0-2.5-1.119-2.5-2.5s1.119-2.5 2.5-2.5h27.759c1.381 0 2.5 1.119 2.5 2.5s-1.119 2.5-2.5 2.5z" fill="#f9b087"/><path d="m74.14 161.779h-27.759c-1.381 0-2.5-1.119-2.5-2.5s1.119-2.5 2.5-2.5h27.759c1.381 0 2.5 1.119 2.5 2.5s-1.119 2.5-2.5 2.5z" fill="#f9b087"/><path d="m229.362 104.469h-50.753c-1.381 0-2.5-1.119-2.5-2.5v-59.019c0-1.381 1.119-2.5 2.5-2.5h50.753c1.381 0 2.5 1.119 2.5 2.5v59.019c0 1.381-1.119 2.5-2.5 2.5zm-48.253-5h45.753v-54.019h-45.753z" fill="#ebe7f2"/><path d="m162.756 104.469h-50.753c-1.381 0-2.5-1.119-2.5-2.5v-59.019c0-1.381 1.119-2.5 2.5-2.5h50.753c1.381 0 2.5 1.119 2.5 2.5v59.019c0 1.381-1.119 2.5-2.5 2.5zm-48.253-5h45.753v-54.019h-45.753z" fill="#ebe7f2"/></g></svg>