<svg id="Layer_1" enable-background="new 0 0 256 256" height="512" viewBox="0 0 256 256" width="512" xmlns="http://www.w3.org/2000/svg"><g><path d="m58.404 57.563c-1.174 0-2.222-.832-2.452-2.028-.261-1.356.627-2.667 1.982-2.928.864-.166 1.775-.349 2.723-.538 8.271-1.655 18.566-3.717 25.973-1.278 1.312.431 2.025 1.844 1.593 3.156-.431 1.312-1.848 2.023-3.156 1.593-6.157-2.024-16.139-.027-23.43 1.432-.96.192-1.883.377-2.758.545-.159.031-.318.046-.475.046z" fill="#ebe7f2"/><path d="m58.404 77.049c-1.174 0-2.222-.832-2.452-2.028-.261-1.356.626-2.667 1.982-2.928.863-.166 1.773-.348 2.72-.538 8.272-1.656 18.568-3.717 25.976-1.279 1.312.431 2.025 1.844 1.593 3.156-.431 1.312-1.848 2.025-3.156 1.593-6.158-2.024-16.142-.025-23.431 1.434-.959.192-1.881.376-2.756.545-.16.031-.319.045-.476.045z" fill="#ebe7f2"/><g fill="#ed9abc"><path d="m205.456 240.821c-.605 0-1.211-.218-1.692-.66l-22.52-20.712h-106.488l-22.52 20.712c-1.017.935-2.598.869-3.532-.147-.935-1.016-.869-2.598.147-3.532l23.237-21.372c.461-.425 1.065-.66 1.692-.66h108.438c.627 0 1.231.235 1.692.66l23.237 21.372c1.016.935 1.083 2.516.147 3.532-.491.536-1.164.807-1.838.807z"/><path d="m58.37 82.596c-1.319 0-2.423-1.033-2.495-2.366-1.542-28.639 1.939-62.834 16.825-64.954 10.855-1.536 22.521 15.606 31.227 45.877.381 1.327-.385 2.712-1.712 3.094-1.329.382-2.712-.385-3.094-1.712-8.725-30.343-19.448-43.205-25.715-42.309-7.579 1.079-14.549 22.382-12.537 59.735.074 1.378-.983 2.557-2.362 2.631-.046.003-.092.004-.137.004z"/><path d="m195.318 69.123c-.632 0-1.265-.124-1.866-.373l-28.669-11.826c-1.208-.498-2.15-1.438-2.653-2.645-.502-1.207-.504-2.537-.005-3.746l2.682-6.501c1.029-2.496 3.898-3.687 6.391-2.658l28.669 11.826c1.208.498 2.15 1.438 2.653 2.645.502 1.207.504 2.537.005 3.746l-2.682 6.502c-.498 1.208-1.438 2.15-2.645 2.652-.606.252-1.243.378-1.88.378zm.041-4.995h.01zm-28.572-11.785 28.474 11.745 2.601-6.306-28.474-11.745z"/></g><g fill="#846f75"><path d="m206.788 83.293c-.728-.458-1.639-.51-2.413-.138l-18.287 8.776-18.288-8.776c-.684-.328-1.479-.328-2.163 0l-18.284 8.776-18.284-8.776c-.684-.328-1.48-.328-2.164 0l-18.276 8.776-18.282-8.776c-.685-.328-1.48-.328-2.164 0l-18.279 8.776-18.278-8.776c-.774-.371-1.686-.319-2.414.138-.727.458-1.168 1.257-1.168 2.116v152.913c0 1.381 1.119 2.5 2.5 2.5h154.912c1.381 0 2.5-1.119 2.5-2.5v-152.913c0-.86-.441-1.659-1.168-2.116zm-3.832 152.528h-149.912v-146.439l15.778 7.575c.684.328 1.48.328 2.164 0l18.279-8.776 18.282 8.776c.685.328 1.48.328 2.164 0l18.276-8.776 18.283 8.776c.685.328 1.48.328 2.164 0l18.284-8.776 18.287 8.776c.684.328 1.479.328 2.163 0l15.787-7.576v146.44z"/><path d="m191.462 82.285c.248 1.178 1.286 1.986 2.444 1.986.17 0 .344-.018.517-.054 1.351-.284 2.216-1.61 1.932-2.961l-1.586-7.537c-.284-1.351-1.604-2.214-2.961-1.931-1.351.284-2.216 1.61-1.931 2.961z"/><path d="m94.198 80.926c.314 1.344 1.661 2.181 3.002 1.866 1.345-.314 2.181-1.658 1.867-3.002-.218-.934-.372-1.781-.459-2.517-.437-3.728.56-7.393 2.804-10.321 2.228-2.906 5.422-4.736 8.995-5.155 3.085-.363 6.226.396 8.847 2.132 1.017.673 2.372.515 3.205-.375 2.18-2.328 4.987-3.752 8.116-4.119 3.575-.42 7.104.625 9.943 2.937 2.86 2.33 4.676 5.666 5.113 9.393.221 1.889.22 4.587.218 8.322v.605l-1.139 2.761c-.526 1.276.082 2.738 1.358 3.264.312.129.634.189.952.189.982 0 1.914-.583 2.312-1.547l1.317-3.192c.002-.005.004-.01.006-.014l5.74-13.915c.053-.128.141-.235.257-.312l6.136-4.029c1.154-.758 1.476-2.308.718-3.462s-2.308-1.476-3.462-.718l-6.135 4.028c-.959.629-1.699 1.523-2.137 2.585l-1.412 3.423c-.853-4.446-3.183-8.407-6.685-11.259-3.896-3.173-8.752-4.603-13.682-4.026-2.632.308-5.152 1.201-7.393 2.579l-.046-.314c-.082-.702-.217-1.39-.381-2.068.184.004.363.01.555.01 3.413 0 8.01-.648 11.497-3.548 6.174-5.133 6.046-14.972 6.038-15.388-.024-1.167-.851-2.161-1.993-2.397-.408-.084-10.058-2.005-16.231 3.127-3.225 2.682-4.723 6.64-5.424 9.876-.667-.061-1.355.136-1.894.617-1.03.919-1.12 2.5-.201 3.53 1.709 1.915 2.77 4.274 3.078 6.897l.036.247c-2.505-.829-5.171-1.116-7.808-.805-4.927.577-9.324 3.091-12.382 7.079-3.04 3.965-4.391 8.917-3.802 13.945.108.923.296 1.956.556 3.071zm31.035-40.612c2.898-2.409 7.3-2.522 9.897-2.336-.29 2.589-1.206 6.896-4.103 9.304-2.896 2.41-7.301 2.523-9.896 2.335.289-2.588 1.206-6.894 4.102-9.303z"/></g><path d="m122.861 181.867c-2.995 0-5.811-1.167-7.929-3.284l-15.925-15.926c-2.118-2.117-3.285-4.933-3.285-7.929s1.167-5.812 3.285-7.93c4.372-4.372 11.487-4.371 15.858 0l7.996 7.996 18.273-18.273c4.372-4.373 11.486-4.373 15.858 0 2.118 2.118 3.285 4.934 3.285 7.929s-1.167 5.812-3.285 7.93l-26.203 26.202c-2.117 2.119-4.933 3.285-7.928 3.285zm-15.925-33.353c-1.66 0-3.22.646-4.394 1.82s-1.82 2.734-1.82 4.394.646 3.22 1.82 4.393l15.925 15.926c1.174 1.173 2.734 1.82 4.394 1.82s3.22-.646 4.394-1.82l26.203-26.202c1.174-1.174 1.82-2.734 1.82-4.394s-.646-3.22-1.82-4.394c-2.423-2.423-6.365-2.423-8.788 0l-20.041 20.041c-.976.977-2.56.977-3.535 0l-9.764-9.764c-1.174-1.173-2.734-1.82-4.394-1.82z" fill="#ed9abc"/><path d="m128 204.134c-26.131 0-47.39-21.259-47.39-47.389 0-26.131 21.259-47.39 47.39-47.39s47.39 21.259 47.39 47.39c0 26.13-21.259 47.389-47.39 47.389zm0-89.779c-23.374 0-42.39 19.016-42.39 42.39s19.016 42.389 42.39 42.389 42.39-19.016 42.39-42.389-19.016-42.39-42.39-42.39z" fill="#ebe7f2"/></g></svg>