<svg id="Layer_1" enable-background="new 0 0 256 256" height="512" viewBox="0 0 256 256" width="512" xmlns="http://www.w3.org/2000/svg"><g><path d="m128.008 207.618c-.442 0-.891-.118-1.296-.364l-15.144-9.21-15.145 9.21c-.798.484-1.8.485-2.598 0l-15.147-9.21-15.147 9.21c-1.18.718-2.718.342-3.435-.837-.717-1.18-.342-2.718.837-3.435l16.446-10c.798-.485 1.8-.485 2.598 0l15.147 9.21 15.145-9.21c.799-.484 1.801-.485 2.598 0l16.443 10c1.18.718 1.555 2.255.837 3.435-.471.773-1.295 1.201-2.139 1.201z" fill="#ebe7f2"/><path d="m168.658 96.61c-.938 0-1.877-.291-2.678-.873l-9.249-6.72-9.249 6.719c-1.601 1.164-3.753 1.164-5.355 0s-2.267-3.21-1.656-5.093l3.533-10.873-9.248-6.719c-1.602-1.163-2.267-3.21-1.655-5.093.611-1.883 2.353-3.148 4.333-3.148h11.432l3.533-10.872c.612-1.883 2.353-3.148 4.333-3.148 1.979 0 3.721 1.265 4.333 3.147l3.533 10.872h11.431c1.98 0 3.721 1.265 4.333 3.148s-.053 3.93-1.655 5.093l-9.248 6.719 3.532 10.873c.612 1.882-.053 3.929-1.654 5.093-.802.584-1.741.875-2.679.875zm-11.927-12.7c.938 0 1.876.291 2.678.873l8.403 6.106-3.209-9.879c-.612-1.883.053-3.93 1.655-5.094l8.403-6.105h-10.387c-1.98 0-3.722-1.265-4.333-3.148l-3.209-9.879-3.21 9.879c-.611 1.883-2.353 3.148-4.333 3.148h-10.387l8.403 6.105c1.602 1.164 2.267 3.211 1.654 5.094l-3.209 9.878 8.404-6.105c.8-.582 1.739-.873 2.677-.873zm7.966-18.792h.01zm-8.387-9.634v.002z" fill="#65c1d6"/><g fill="#846f75"><path d="m129.288 212.775h-64.557v-134.195h32.854c1.381 0 2.5-1.119 2.5-2.5v-32.855h91.183v117.867c0 1.381 1.119 2.5 2.5 2.5s2.5-1.119 2.5-2.5v-120.367c0-1.381-1.119-2.5-2.5-2.5h-96.183c-.663 0-1.299.263-1.768.732l-35.353 35.355c-.469.469-.732 1.104-.732 1.768v139.195c0 1.381 1.119 2.5 2.5 2.5h67.056c1.381 0 2.5-1.119 2.5-2.5s-1.12-2.5-2.5-2.5zm-61.021-139.195 26.818-26.819v26.819z"/><path d="m99.273 109.555c0-1.381-1.119-2.5-2.5-2.5h-12.654c-1.381 0-2.5 1.119-2.5 2.5v12.655c0 1.381 1.119 2.5 2.5 2.5h12.655c1.381 0 2.5-1.119 2.5-2.5v-12.655zm-5 10.154h-7.655v-7.655h7.655z"/><path d="m109.532 118.382h62.349c1.381 0 2.5-1.119 2.5-2.5s-1.119-2.5-2.5-2.5h-62.349c-1.381 0-2.5 1.119-2.5 2.5s1.119 2.5 2.5 2.5z"/><path d="m99.273 137.673c0-1.381-1.119-2.5-2.5-2.5h-12.654c-1.381 0-2.5 1.119-2.5 2.5v12.654c0 1.381 1.119 2.5 2.5 2.5h12.655c1.381 0 2.5-1.119 2.5-2.5v-12.654zm-5 10.154h-7.655v-7.654h7.655z"/><path d="m109.532 146.5h62.349c1.381 0 2.5-1.119 2.5-2.5s-1.119-2.5-2.5-2.5h-62.349c-1.381 0-2.5 1.119-2.5 2.5s1.119 2.5 2.5 2.5z"/><path d="m96.773 163.291h-12.654c-1.381 0-2.5 1.119-2.5 2.5v12.655c0 1.381 1.119 2.5 2.5 2.5h12.655c1.381 0 2.5-1.119 2.5-2.5v-12.655c-.001-1.381-1.12-2.5-2.501-2.5zm-2.5 12.654h-7.655v-7.655h7.655z"/><path d="m109.532 174.618h62.349c1.381 0 2.5-1.119 2.5-2.5s-1.119-2.5-2.5-2.5h-62.349c-1.381 0-2.5 1.119-2.5 2.5s1.119 2.5 2.5 2.5z"/><path d="m217.506 192.617h-13.048c-1.381 0-2.5 1.119-2.5 2.5s1.119 2.5 2.5 2.5h10.548v.157c0 21.265-17.3 38.565-38.565 38.565s-38.565-17.3-38.565-38.565v-.157h12.156c1.381 0 2.5-1.119 2.5-2.5s-1.119-2.5-2.5-2.5h-14.656c-1.381 0-2.5 1.119-2.5 2.5v2.657c0 24.022 19.543 43.565 43.565 43.565s43.565-19.543 43.565-43.565v-2.657c0-1.381-1.119-2.5-2.5-2.5z"/><path d="m162.449 212.599c3.454 3.321 7.733 5.164 12.105 5.176h.044c4.817 0 9.508-2.145 13.567-6.204 4.079-4.079 7.094-9.623 8.271-15.21 1.322-6.271.158-11.616-3.277-15.051-3.434-3.435-8.781-4.6-15.051-3.278-5.587 1.177-11.131 4.192-15.21 8.271-4.071 4.071-6.217 8.778-6.204 13.611.012 4.497 1.949 8.904 5.453 12.407.089.091.191.185.302.278zm3.881-6.778c.827-1.792 2.709-4.825 6.984-9.1 6.379-6.379 13.054-10.628 15.874-11.441-.813 2.821-5.063 9.495-11.441 15.874-4.276 4.275-7.309 6.158-9.1 6.984-2.01.928-2.883.725-2.964.649 0 0-.001-.001-.001-.001s0 0 0-.001c-.078-.079-.281-.951.648-2.964zm25.212-10.49c-.968 4.595-3.553 9.344-6.914 12.706-3.101 3.101-6.569 4.739-10.032 4.739h-.03c-1.055-.003-2.091-.168-3.104-.461 2.938-1.507 6.31-4.117 9.818-7.625.11-.11 6.927-6.979 10.65-13.507.038 1.29-.078 2.677-.388 4.148zm-25.11-5.492c3.361-3.361 8.111-5.945 12.706-6.914 1.313-.277 2.569-.413 3.743-.413.143 0 .279.011.419.015-6.533 3.722-13.411 10.548-13.521 10.659-3.581 3.581-6.134 6.886-7.633 9.79-.288-1.004-.45-2.031-.453-3.076-.009-3.472 1.629-6.951 4.739-10.061z"/><path d="m228.744 145.724c-2.796-2.797-7.347-2.797-10.143 0l-27.809 27.809c-.977.976-.977 2.559 0 3.535.976.977 2.56.977 3.535 0l27.809-27.809c.848-.847 2.225-.847 3.072 0s.847 2.225 0 3.072l-27.808 27.809c-.977.976-.977 2.559 0 3.535.488.488 1.128.732 1.768.732s1.28-.244 1.768-.732l27.809-27.809c2.795-2.796 2.795-7.345-.001-10.142z"/></g></g></svg>