<svg id="Layer_1" enable-background="new 0 0 256 256" height="512" viewBox="0 0 256 256" width="512" xmlns="http://www.w3.org/2000/svg"><g><g fill="#846f75"><path d="m51.907 62.369c-19.542 0-35.44 15.899-35.44 35.441 0 31.066 31.863 93.096 33.22 95.721.429.831 1.286 1.353 2.221 1.353s1.792-.521 2.221-1.353c1.356-2.625 33.221-64.654 33.221-95.721-.001-19.541-15.901-35.441-35.443-35.441zm0 124.434c-7.356-14.924-30.44-63.768-30.44-88.992 0-16.785 13.655-30.441 30.44-30.441s30.441 13.656 30.441 30.441c.001 25.224-23.083 74.068-30.441 88.992z"/><path d="m51.907 78.025c-10.486 0-19.018 8.531-19.018 19.018s8.531 19.018 19.018 19.018 19.019-8.531 19.019-19.018-8.531-19.018-19.019-19.018zm0 33.036c-7.729 0-14.018-6.288-14.018-14.018s6.288-14.018 14.018-14.018 14.019 6.288 14.019 14.018-6.289 14.018-14.019 14.018z"/><path d="m204.093 62.369c-19.542 0-35.441 15.899-35.441 35.441 0 31.066 31.864 93.096 33.221 95.721.429.831 1.286 1.353 2.221 1.353s1.792-.521 2.221-1.353c1.356-2.625 33.22-64.654 33.22-95.721-.002-19.541-15.9-35.441-35.442-35.441zm0 124.435c-7.357-14.923-30.441-63.762-30.441-88.993 0-16.785 13.656-30.441 30.441-30.441s30.44 13.656 30.44 30.441c0 25.224-23.084 74.068-30.44 88.993z"/><path d="m204.093 78.025c-10.487 0-19.019 8.531-19.019 19.018s8.531 19.018 19.019 19.018c10.486 0 19.018-8.531 19.018-19.018s-8.532-19.018-19.018-19.018zm0 33.036c-7.729 0-14.019-6.288-14.019-14.018s6.289-14.018 14.019-14.018 14.018 6.288 14.018 14.018-6.289 14.018-14.018 14.018z"/></g><g fill="#a58bc9"><path d="m152.08 123.458c-2.925 0-5.735.698-8.274 2.038-3.043-5.791-9.049-9.505-15.784-9.505-6.734 0-12.74 3.714-15.783 9.505-2.539-1.34-5.351-2.038-8.274-2.038-9.841 0-17.848 8.007-17.848 17.848 0 6.484 3.532 12.426 9.126 15.562v35.085c0 1.381 1.119 2.5 2.5 2.5h59.73c1.381 0 2.5-1.119 2.5-2.5v-34.656c6.02-2.979 9.955-9.2 9.955-15.99 0-9.842-8.007-17.849-17.848-17.849zm-51.838 65.994v-12.581h54.73v12.581zm56.351-36.133c-.975.366-1.62 1.299-1.62 2.34v16.212h-54.73v-16.544c0-.988-.582-1.884-1.484-2.284-4.643-2.063-7.642-6.67-7.642-11.737 0-7.084 5.764-12.848 12.848-12.848 2.877 0 5.604.941 7.887 2.723.646.504 1.496.657 2.279.417.782-.243 1.396-.854 1.643-1.634 1.696-5.367 6.619-8.973 12.249-8.973 5.631 0 10.554 3.605 12.25 8.973.247.78.86 1.391 1.643 1.634.782.241 1.634.087 2.279-.417 2.282-1.781 5.01-2.723 7.887-2.723 7.084 0 12.848 5.764 12.848 12.848-.002 5.311-3.352 10.139-8.337 12.013z"/><path d="m57.908 215.863h-6c-1.381 0-2.5-1.119-2.5-2.5s1.119-2.5 2.5-2.5h6c1.381 0 2.5 1.119 2.5 2.5s-1.119 2.5-2.5 2.5z"/><path d="m185.348 215.863h-12.744c-1.381 0-2.5-1.119-2.5-2.5s1.119-2.5 2.5-2.5h12.744c1.381 0 2.5 1.119 2.5 2.5s-1.119 2.5-2.5 2.5zm-25.489 0h-12.743c-1.381 0-2.5-1.119-2.5-2.5s1.119-2.5 2.5-2.5h12.743c1.381 0 2.5 1.119 2.5 2.5s-1.119 2.5-2.5 2.5zm-25.487 0h-12.744c-1.381 0-2.5-1.119-2.5-2.5s1.119-2.5 2.5-2.5h12.744c1.381 0 2.5 1.119 2.5 2.5s-1.119 2.5-2.5 2.5zm-25.488 0h-12.744c-1.381 0-2.5-1.119-2.5-2.5s1.119-2.5 2.5-2.5h12.744c1.381 0 2.5 1.119 2.5 2.5s-1.119 2.5-2.5 2.5zm-25.488 0h-12.745c-1.381 0-2.5-1.119-2.5-2.5s1.119-2.5 2.5-2.5h12.744c1.381 0 2.5 1.119 2.5 2.5s-1.119 2.5-2.499 2.5z"/><path d="m204.092 215.863h-6c-1.381 0-2.5-1.119-2.5-2.5s1.119-2.5 2.5-2.5h6c1.381 0 2.5 1.119 2.5 2.5s-1.119 2.5-2.5 2.5z"/></g><path d="m204.093 56.594c-1.381 0-2.5-1.119-2.5-2.5v-8.956h-147.186v8.956c0 1.381-1.119 2.5-2.5 2.5s-2.5-1.119-2.5-2.5v-11.456c0-1.381 1.119-2.5 2.5-2.5h152.186c1.381 0 2.5 1.119 2.5 2.5v11.456c0 1.381-1.119 2.5-2.5 2.5z" fill="#ebe7f2"/></g></svg>