<svg id="Layer_1" enable-background="new 0 0 256 256" height="512" viewBox="0 0 256 256" width="512" xmlns="http://www.w3.org/2000/svg"><g><g fill="#ebe7f2"><path d="m162.232 85.75c-.535 0-1.074-.171-1.53-.524-1.091-.846-1.289-2.417-.443-3.507 3.3-4.256 8.254-7.161 15.144-8.88 1.34-.337 2.697.481 3.031 1.821.334 1.339-.481 2.696-1.82 3.031-5.76 1.437-9.816 3.757-12.403 7.092-.493.635-1.232.967-1.979.967z"/><path d="m166.228 69.469c-.535 0-1.074-.171-1.53-.524-1.091-.846-1.289-2.417-.443-3.507 3.3-4.256 8.254-7.161 15.144-8.88 1.338-.336 2.697.48 3.031 1.821.334 1.339-.481 2.696-1.82 3.031-5.76 1.437-9.816 3.757-12.403 7.092-.494.634-1.233.967-1.979.967z"/><path d="m189.974 92.739c-.315 0-.636-.06-.945-.187-4.346-1.777-8.558-2.135-12.877-1.092-1.344.321-2.692-.5-3.017-1.843-.324-1.342.501-2.693 1.843-3.017 5.301-1.28 10.666-.834 15.943 1.324 1.278.523 1.891 1.983 1.367 3.261-.395.968-1.329 1.554-2.314 1.554z"/><path d="m202.89 82.891c-.315 0-.636-.06-.945-.187-4.344-1.777-8.558-2.136-12.877-1.092-1.343.322-2.692-.501-3.018-1.843-.323-1.342.502-2.693 1.844-3.017 5.305-1.281 10.666-.834 15.943 1.324 1.278.523 1.891 1.983 1.367 3.261-.395.968-1.329 1.554-2.314 1.554z"/></g><path d="m155.896 202.451h-55.791c-13.983 0-26.661-8.268-32.3-21.062l-16.965-38.494c-.603-1.369-.476-2.934.341-4.187.817-1.252 2.198-2 3.693-2h146.252c1.495 0 2.876.748 3.692 2 .817 1.252.945 2.817.343 4.187v.001l-16.965 38.494c-5.639 12.793-18.318 21.061-32.3 21.061zm-100.116-60.743 16.6 37.665c4.84 10.982 15.723 18.079 27.725 18.079h55.791c12.002 0 22.885-7.096 27.725-18.079l16.6-37.665zm147.093.179h.01zm-2.288-1.008c-.001.001-.001.002-.001.003z" fill="#ed9abc"/><g fill="#846f75"><path d="m225.322 126.001c-3.044-4.668-8.188-7.455-13.762-7.455h-167.121c-5.573 0-10.718 2.787-13.762 7.456-3.044 4.668-3.52 10.5-1.272 15.599l22.331 50.669c6.848 15.537 22.244 25.577 39.223 25.577h74.082c16.979 0 32.375-10.04 39.223-25.577l22.331-50.669c2.247-5.1 1.771-10.931-1.273-15.6zm-3.303 13.583-22.331 50.669c-6.048 13.725-19.648 22.593-34.646 22.593h-74.083c-14.999 0-28.598-8.868-34.647-22.593l-22.332-50.669c-1.563-3.547-1.232-7.604.885-10.852 2.118-3.248 5.697-5.187 9.574-5.187h167.122c3.877 0 7.456 1.939 9.573 5.186 2.118 3.249 2.449 7.306.885 10.853z"/><path d="m157.876 114.98c.249.079.502.116.751.116 1.061 0 2.045-.681 2.384-1.745.05-.155 5.151-15.604 25.314-29.766 14.053-9.871 23.999-12.387 28.695-13.009-6.286 21.339-19.641 31.109-40.774 29.815-1.396-.086-2.563.966-2.646 2.344-.084 1.378.965 2.563 2.344 2.647 8.222.499 15.453-.563 21.683-3.156 8.062-1.307 17.153-2.157 25.091.628-7.61 7.283-15.938 8.69-25.955 4.465-1.271-.538-2.737.059-3.275 1.332-.536 1.272.06 2.738 1.332 3.275 4.41 1.86 8.592 2.793 12.571 2.793 7.909 0 15.015-3.687 21.504-11.105.509-.582.72-1.365.572-2.124s-.638-1.406-1.327-1.754c-6.474-3.271-13.625-3.992-20.585-3.653 7.092-6.177 12.178-15.381 15.206-27.578.174-.703.035-1.446-.381-2.039-.416-.592-1.069-.976-1.789-1.05-.538-.053-13.41-1.185-35.139 14.077-9.415 6.613-15.743 13.458-19.909 19.144-.104-6.158.511-14.143 2.935-23.47 4.639-17.852 11.059-26.711 14.396-30.351 3.692 8.273 5.396 15.977 5.067 22.941-.065 1.379 1 2.55 2.379 2.615 1.396.073 2.551-1 2.615-2.379.409-8.674-1.954-18.247-7.022-28.452-.322-.649-.91-1.126-1.61-1.308-.703-.183-1.446-.051-2.044.358-.469.322-11.573 8.199-18.62 35.318-2.87 11.049-3.77 21.719-2.672 31.715.005.048.021.091.029.138-1.927 3.541-2.675 5.84-2.753 6.09-.413 1.316.319 2.713 1.633 3.128z"/></g><path d="m74.395 115.1c-1.105 0-2.116-.738-2.414-1.856l-15.783-59.197c-.906-3.414-4.417-5.451-7.827-4.546-1.652.438-3.035 1.494-3.893 2.972s-1.089 3.202-.651 4.854l14.287 53.838c.354 1.334-.441 2.703-1.775 3.058-1.337.353-2.704-.441-3.058-1.775l-14.286-53.839c-.781-2.942-.369-6.014 1.16-8.646 1.529-2.633 3.991-4.514 6.935-5.295 6.074-1.611 12.329 2.019 13.941 8.094l15.782 59.193c.356 1.334-.438 2.704-1.771 3.06-.217.057-.434.085-.647.085z" fill="#ed9abc"/></g></svg>