<svg id="Layer_1" enable-background="new 0 0 256 256" height="512" viewBox="0 0 256 256" width="512" xmlns="http://www.w3.org/2000/svg"><g><g fill="#846f75"><path d="m102.653 201.19-21.942 25.135c-.908 1.04-.801 2.62.239 3.527.474.414 1.06.617 1.643.617.697 0 1.39-.29 1.884-.856l21.942-25.135c.908-1.04.801-2.62-.239-3.527-1.039-.906-2.618-.801-3.527.239z"/><path d="m221.559 85.732c-2.263-2.263-5.137-3.55-8.096-3.86l2.389-2.389c5.246-5.246 5.246-13.781 0-19.028-2.263-2.262-5.137-3.549-8.096-3.86l2.389-2.389c5.245-5.246 5.245-13.782 0-19.028-5.246-5.245-13.782-5.245-19.027 0l-2.389 2.389c-.311-2.958-1.598-5.833-3.86-8.097-5.246-5.245-13.782-5.245-19.027 0l-44.226 44.225-.658-.083 1.222-22.422c.52-9.523-6.806-17.693-16.327-18.212l-.196-.011c-5.201-.296-9.635 3.707-9.917 8.892l-1.754 32.202-10.291 25.635c-5.376 13.395-9.514 27.362-12.305 41.528l-39.985 33.12c-1.063.881-1.211 2.457-.331 3.52.495.597 1.208.905 1.927.905.562 0 1.127-.188 1.593-.575l40.673-33.689c.446-.37.75-.883.86-1.452 2.731-14.156 6.838-28.117 12.208-41.495l10.441-26.017c.102-.253.161-.522.176-.795l1.777-32.614c.133-2.434 2.213-4.307 4.65-4.172l.196.011c6.771.369 11.979 6.178 11.61 12.948l-1.349 24.748c-.072 1.31.882 2.453 2.184 2.617l4.184.527c.771.099 1.535-.167 2.08-.713l45.091-45.091c3.296-3.295 8.66-3.296 11.957 0 3.296 3.297 3.296 8.661 0 11.957l-45.091 45.091c-.488.488-.732 1.128-.732 1.768s.244 1.28.732 1.768c.976.977 2.56.977 3.535 0l54.875-54.875c3.296-3.295 8.66-3.297 11.957 0 3.296 3.297 3.296 8.661 0 11.958l-54.875 54.875c-.977.976-.977 2.559 0 3.535.976.977 2.56.977 3.535 0l45.14-45.139c3.3-3.248 8.628-3.232 11.908.048 3.296 3.297 3.296 8.661 0 11.957l-45.091 45.091c-.488.488-.732 1.128-.732 1.768s.244 1.28.732 1.768c.976.977 2.56.977 3.535 0l35.306-35.306c3.297-3.297 8.661-3.296 11.957 0 1.597 1.597 2.477 3.72 2.477 5.979s-.88 4.381-2.477 5.979l-58.177 58.177c-.977.976-.977 2.559 0 3.535.976.977 2.56.977 3.535 0l58.177-58.177c2.542-2.542 3.941-5.92 3.941-9.514.001-3.598-1.398-6.977-3.94-9.518z"/></g><path d="m131.81 198.037c-14.184 0-25.723-11.54-25.723-25.723 0-1.381 1.119-2.5 2.5-2.5s2.5 1.119 2.5 2.5c0 11.427 9.296 20.723 20.723 20.723 11.426 0 20.723-9.296 20.723-20.723 0-1.381 1.119-2.5 2.5-2.5s2.5 1.119 2.5 2.5c0 14.183-11.539 25.723-25.723 25.723z" fill="#ebe7f2"/><g fill="#65c1d6"><path d="m131.81 208.037c-15.128 0-27.435-12.307-27.435-27.435 0-19.712 24.998-36.368 26.062-37.068.833-.547 1.913-.548 2.746 0 1.064.7 26.062 17.356 26.062 37.068 0 15.127-12.308 27.435-27.435 27.435zm0-59.361c-5.072 3.675-22.435 17.325-22.435 31.926 0 12.371 10.064 22.435 22.435 22.435s22.435-10.064 22.435-22.435c0-14.602-17.363-28.251-22.435-31.926z"/><path d="m102.021 157.339c-.322 0-.647-.062-.956-.19-.935-.387-1.543-1.298-1.543-2.31v-14.847c0-.663.263-1.299.732-1.768l15.559-15.559c.469-.469 1.104-.732 1.768-.732h13.194l10.551-10.551c.66-.66 1.633-.897 2.523-.616.89.282 1.549 1.037 1.708 1.957l2.075 11.995c.139.801-.121 1.619-.696 2.194l-10.949 10.949c-.469.469-1.104.732-1.768.732h-12.416l-18.014 18.013c-.477.479-1.117.733-1.768.733zm2.501-16.311v7.776l14.478-14.478c.469-.469 1.104-.732 1.768-.732h12.416l9.3-9.3-1.032-5.967-7.874 7.874c-.469.469-1.104.732-1.768.732h-13.194z"/></g></g></svg>