<svg id="Layer_1" enable-background="new 0 0 256 256" height="512" viewBox="0 0 256 256" width="512" xmlns="http://www.w3.org/2000/svg"><g><g fill="#ebe7f2"><path d="m169.296 118.412c-.315 0-.637-.06-.947-.188l-22.791-9.345c-1.277-.523-1.889-1.984-1.365-3.261.523-1.277 1.983-1.889 3.262-1.365l22.791 9.345c1.277.523 1.889 1.984 1.365 3.261-.397.968-1.331 1.553-2.315 1.553z"/><path d="m152.609 141.948c-.315 0-.637-.06-.947-.188l-16.798-6.887c-1.277-.523-1.889-1.984-1.365-3.261.523-1.277 1.982-1.889 3.262-1.365l16.798 6.887c1.277.523 1.889 1.984 1.365 3.261-.397.968-1.33 1.553-2.315 1.553z"/><path d="m144.905 169.167c-.315 0-.637-.06-.947-.188l-18.149-7.441c-1.278-.523-1.889-1.984-1.365-3.261.523-1.278 1.984-1.89 3.261-1.365l18.149 7.441c1.277.523 1.889 1.984 1.365 3.261-.396.969-1.329 1.553-2.314 1.553z"/></g><path d="m189.698 201.07c-21.063 0-38.199-17.136-38.199-38.199s17.136-38.199 38.199-38.199 38.198 17.136 38.198 38.199-17.135 38.199-38.198 38.199zm0-71.397c-18.306 0-33.199 14.893-33.199 33.199s14.894 33.199 33.199 33.199 33.198-14.893 33.198-33.199-14.892-33.199-33.198-33.199z" fill="#a58bc9"/><path d="m110.211 188.346h-33.559c-12.367 0-21.706-15.728-27.361-28.922-6.231-14.538-10.584-32.431-10.584-43.513 0-1.381 1.119-2.5 2.5-2.5s2.5 1.119 2.5 2.5c0 21.197 16.539 67.435 32.945 67.435h33.559c1.381 0 2.5 1.119 2.5 2.5s-1.119 2.5-2.5 2.5z" fill="#ebe7f2"/><g fill="#846f75"><path d="m181.631 81.128 2.038.926c9.528 4.293 15.822 7.129 5.038 34.197-.511 1.283.114 2.737 1.397 3.248 1.279.512 2.736-.115 3.247-1.397 11.682-29.319 4.563-35.113-7.628-40.606l-2.01-.913c-5.024-2.304-10.221-4.687-16.14-2.479-7.551 2.817-14.936 12.915-23.946 32.74-9.027 19.862-18.602 47.237-24.392 69.74-10.873 42.257-3.446 45.633-1.005 46.742.563.256 1.381.628 2.597.628 4.285 0 13.517-4.612 33.998-35.13.77-1.146.464-2.7-.683-3.469-1.146-.769-2.7-.464-3.47.683-18.932 28.211-28.149 33.744-30.374 32.737-2.092-.951-3.995-10.732 3.779-40.945 5.724-22.245 15.185-49.296 24.103-68.917 8.302-18.268 15.021-27.84 21.142-30.124 3.969-1.484 7.651.204 12.309 2.339z"/><path d="m227.573 58.28c-2.219-5.658-13.948-4.399-23.91-.833l-.161.059c4.318-9.524 6.398-20.92.767-23.479-1.865-.848-5.007-.879-9.385 3.79-2.799 2.984-5.567 7.325-7.8 12.228-.021-.053-.041-.106-.063-.16-3.862-9.847-10.619-19.519-16.351-17.465-.898.321-2.142 1.085-2.967 2.901-2.198 4.837-.113 13.874 2.572 20.719 1.599 4.075 4.382 9.867 8.564 14.315.947 1.007 2.527 1.054 3.534.109 1.006-.946 1.055-2.528.108-3.534-3.828-4.072-6.375-9.715-7.553-12.717-3.851-9.815-3.403-16.024-2.552-17.065 1.365.17 6.039 4.496 9.988 14.563.849 2.163 1.552 4.349 2.089 6.495.272 1.089 1.238 1.863 2.36 1.892 1.086.036 2.128-.694 2.455-1.769.628-2.054 1.416-4.13 2.345-6.171 4.369-9.617 9.334-13.568 10.578-13.567.846.935 1.105 7.276-3.265 16.892-.928 2.04-1.974 4-3.108 5.825-.593.954-.478 2.186.283 3.012.76.827 1.979 1.045 2.979.533 1.966-1.006 4.074-1.913 6.266-2.698 10.181-3.644 16.514-2.967 17.539-2.051-.224 1.326-4.607 5.745-14.535 9.299-3.036 1.086-8.954 2.874-14.546 2.672-1.423-.074-2.54 1.025-2.591 2.406-.052 1.379 1.025 2.54 2.405 2.59.368.014.736.021 1.105.021 5.735 0 11.438-1.595 15.312-2.982 6.922-2.478 15.102-6.849 17.301-11.686.828-1.816.586-3.256.237-4.144z"/><path d="m205.551 150.896-19.472 19.47-10.217-10.216c-.977-.977-2.559-.977-3.535 0-.977.976-.977 2.559 0 3.535l11.984 11.984c.488.488 1.128.732 1.768.732s1.279-.244 1.768-.732l21.239-21.238c.977-.976.977-2.559 0-3.535s-2.559-.976-3.535 0z"/><path d="m108.371 196.07h-37.821c-8.489 0-17.947-10.706-25.949-29.373-6.663-15.542-11.498-35.285-11.498-46.943 0-21.307 16.798-38.641 37.447-38.641 8.625 0 17.044 3.1 23.706 8.728.932.787 2.295.787 3.227 0 6.661-5.628 15.08-8.728 23.705-8.728s17.043 3.099 23.705 8.726c1.054.89 2.63.759 3.523-.296.891-1.055.758-2.632-.297-3.523-7.562-6.389-17.126-9.907-26.931-9.907-8.103 0-16.039 2.409-22.819 6.849v-7.132c0-7.171 2.178-14.064 6.298-19.935.793-1.13.52-2.689-.61-3.482-1.128-.792-2.688-.521-3.482.61-1.419 2.022-2.633 4.152-3.642 6.364-1.827-6.095-5.46-14.059-12.538-18.667-12.323-8.021-29.739-2.379-30.474-2.135-1.107.368-1.813 1.452-1.701 2.613.074.771 1.965 18.98 14.288 27.001 5.076 3.304 11.015 4.29 16.296 4.29 4.335 0 8.221-.664 10.829-1.256-.175 1.518-.264 3.052-.264 4.598v7.132c-6.78-4.441-14.716-6.849-22.819-6.849-23.405 0-42.447 19.577-42.447 43.641 0 12.451 4.895 32.565 11.902 48.914 5.188 12.101 16.054 32.402 30.544 32.402h37.821c1.381 0 2.5-1.119 2.5-2.5s-1.119-2.501-2.499-2.501zm-39.136-132.061c-8.101-5.273-10.898-16.579-11.729-21.23 4.591-1.123 16.06-3.141 24.162 2.132 8.101 5.273 10.898 16.58 11.729 21.23-4.592 1.123-16.062 3.141-24.162-2.132z"/></g></g></svg>