<svg id="Layer_1" enable-background="new 0 0 256 256" height="512" viewBox="0 0 256 256" width="512" xmlns="http://www.w3.org/2000/svg"><g><g fill="#ebe7f2"><path d="m127.947 148.894c-1.381 0-2.5-1.119-2.5-2.5v-19.731c0-1.381 1.119-2.5 2.5-2.5s2.5 1.119 2.5 2.5v19.731c0 1.381-1.119 2.5-2.5 2.5z"/><path d="m88.295 200.953h-22.065c-1.381 0-2.5-1.119-2.5-2.5s1.119-2.5 2.5-2.5h22.065c1.381 0 2.5 1.119 2.5 2.5s-1.119 2.5-2.5 2.5z"/><path d="m189.77 200.953h-22.065c-1.381 0-2.5-1.119-2.5-2.5s1.119-2.5 2.5-2.5h22.065c1.381 0 2.5 1.119 2.5 2.5s-1.119 2.5-2.5 2.5z"/></g><g fill="#846f75"><path d="m164 67.177c-1.381 0-2.5 1.119-2.5 2.5 0 18.472-15.028 33.5-33.5 33.5s-33.5-15.028-33.5-33.5c0-1.381-1.119-2.5-2.5-2.5s-2.5 1.119-2.5 2.5c0 5.967 1.365 11.622 3.798 16.668v20.499c0 1.381 1.119 2.5 2.5 2.5s2.5-1.119 2.5-2.5v-12.697c7.067 8.563 17.758 14.03 29.702 14.03s22.635-5.467 29.702-14.03v12.697c0 1.381 1.119 2.5 2.5 2.5s2.5-1.119 2.5-2.5v-20.499c2.434-5.046 3.798-10.701 3.798-16.668 0-1.381-1.119-2.5-2.5-2.5z"/><path d="m121.562 91.802h12.875c1.381 0 2.5-1.119 2.5-2.5s-1.119-2.5-2.5-2.5h-12.875c-1.381 0-2.5 1.119-2.5 2.5s1.12 2.5 2.5 2.5z"/><path d="m92.517 64.264c9.609 0 17.937-5.581 21.92-13.67 3.983 8.089 12.311 13.67 21.92 13.67h27.643c1.381 0 2.5-1.119 2.5-2.5s-1.119-2.5-2.5-2.5h-27.642c-10.708 0-19.42-8.712-19.42-19.42 0-1.381-1.119-2.5-2.5-2.5s-2.5 1.119-2.5 2.5c0 10.708-8.712 19.42-19.42 19.42-1.381 0-2.5 1.119-2.5 2.5s1.118 2.5 2.499 2.5z"/><path d="m119.522 70.314c-2.804-2.805-7.366-2.805-10.17 0-.977.976-.977 2.559 0 3.535.976.977 2.56.977 3.535 0 .854-.854 2.245-.854 3.1 0 .488.488 1.128.732 1.768.732s1.28-.244 1.768-.732c.976-.976.976-2.559-.001-3.535z"/><path d="m140.013 73.849c.854-.854 2.245-.854 3.1 0 .488.488 1.128.732 1.768.732s1.28-.244 1.768-.732c.977-.976.977-2.559 0-3.535-2.804-2.805-7.366-2.805-10.17 0-.977.976-.977 2.559 0 3.535.974.977 2.558.977 3.534 0z"/><path d="m175.674 114.239v-44.463c0-26.154-21.278-47.432-47.432-47.432h-.485c-26.154 0-47.432 21.278-47.432 47.432v44.463c-9.373 1.393-16.596 9.471-16.596 19.226v83.517c0 7.463 6.071 13.535 13.534 13.535s13.534-6.071 13.534-13.534v-69.479c0-1.381-1.119-2.5-2.5-2.5s-2.5 1.119-2.5 2.5v59.162h-17.067v-73.201c0-7.974 6.487-14.461 14.46-14.461h21.47c6.023 6.471 14.463 10.159 23.339 10.159s17.316-3.688 23.339-10.159h21.47c7.974 0 14.46 6.487 14.46 14.461v73.201h-17.068v-59.162c0-1.381-1.119-2.5-2.5-2.5s-2.5 1.119-2.5 2.5v69.479c0 7.463 6.071 13.534 13.534 13.534s13.534-6.072 13.534-13.535v-83.517c.002-9.755-7.22-17.834-16.594-19.226zm-89.876 97.427v5.317c0 4.706-3.829 8.534-8.534 8.534s-8.534-3.829-8.534-8.535v-5.316zm64.427-97.662c-.726 0-1.416.315-1.891.864-5.111 5.907-12.522 9.295-20.334 9.295s-15.223-3.388-20.334-9.295c-.475-.549-1.165-.864-1.891-.864h-20.45v-44.228c0-23.397 19.035-42.432 42.432-42.432h.485c23.397 0 42.432 19.035 42.432 42.432v44.228zm28.511 111.513c-4.706 0-8.534-3.829-8.534-8.534v-5.317h17.068v5.316c0 4.706-3.829 8.535-8.534 8.535z"/></g><path d="m170.202 166.358c0-.758-.344-1.475-.934-1.949l-11.012-8.847v-39.059c0-1.381-1.119-2.5-2.5-2.5s-2.5 1.119-2.5 2.5v37.757h-50.512v-37.757c0-1.381-1.119-2.5-2.5-2.5s-2.5 1.119-2.5 2.5v39.059l-11.012 8.847c-.59.474-.934 1.191-.934 1.949l-.003 51.684c0 .728.317 1.419.868 1.894 10.123 8.719 25.154 13.72 41.241 13.72h.192c16.087 0 31.118-5 41.241-13.72.551-.475.868-1.167.868-1.894zm-42.106 62.298h-.192c-14.447 0-27.893-4.281-37.109-11.781l.003-49.318 10.326-8.295h53.752l10.326 8.295.003 49.318c-9.216 7.5-22.662 11.781-37.109 11.781z" fill="#f9b087"/></g></svg>