<svg id="Layer_1" enable-background="new 0 0 256 256" height="512" viewBox="0 0 256 256" width="512" xmlns="http://www.w3.org/2000/svg"><g><g fill="#ebe7f2"><path d="m127.947 144.488c-1.381 0-2.5-1.119-2.5-2.5v-19.731c0-1.381 1.119-2.5 2.5-2.5s2.5 1.119 2.5 2.5v19.731c0 1.381-1.119 2.5-2.5 2.5z"/><path d="m88.295 196.547h-22.065c-1.381 0-2.5-1.119-2.5-2.5s1.119-2.5 2.5-2.5h22.065c1.381 0 2.5 1.119 2.5 2.5s-1.119 2.5-2.5 2.5z"/><path d="m189.77 196.547h-22.065c-1.381 0-2.5-1.119-2.5-2.5s1.119-2.5 2.5-2.5h22.065c1.381 0 2.5 1.119 2.5 2.5s-1.119 2.5-2.5 2.5z"/></g><g fill="#846f75"><path d="m119.522 65.887c-2.804-2.805-7.366-2.805-10.17 0-.977.976-.977 2.559 0 3.535.976.977 2.56.977 3.535 0 .854-.854 2.245-.854 3.1 0 .488.488 1.128.732 1.768.732s1.28-.244 1.768-.732c.976-.976.976-2.559-.001-3.535z"/><path d="m136.478 65.887c-.977.976-.977 2.559 0 3.535.976.977 2.56.977 3.535 0 .854-.854 2.245-.854 3.1 0 .488.488 1.128.732 1.768.732s1.28-.244 1.768-.732c.977-.976.977-2.559 0-3.535-2.805-2.805-7.368-2.805-10.171 0z"/><path d="m128 103.75c21.229 0 38.5-17.271 38.5-38.5s-17.271-38.5-38.5-38.5-38.5 17.271-38.5 38.5 17.271 38.5 38.5 38.5zm0-5c-16.153 0-29.671-11.491-32.811-26.727 7.517-4.647 13.243-11.795 16.145-20.093 5.154 2.478 10.844 3.82 16.666 3.82 5.818 0 11.51-1.342 16.666-3.82 2.902 8.296 8.629 15.445 16.146 20.093-3.141 15.236-16.659 26.727-32.812 26.727zm33.47-32.301c-5.817-4.195-10.195-10.186-12.377-17.014 1.981-1.296 3.847-2.779 5.572-4.435 4.285 5.629 6.836 12.646 6.836 20.25-.001.402-.017.801-.031 1.199zm-10.122-25.19c-6.23 6.052-14.63 9.491-23.348 9.491-8.723 0-17.115-3.44-23.346-9.493 6.038-5.877 14.274-9.507 23.346-9.507 9.073 0 17.309 3.631 23.348 9.509zm-50.011 3.74c1.725 1.656 3.589 3.142 5.569 4.439-2.183 6.829-6.559 12.817-12.376 17.011-.014-.399-.03-.797-.03-1.199 0-7.605 2.551-14.622 6.837-20.251z"/><path d="m134.438 82.375h-12.875c-1.381 0-2.5 1.119-2.5 2.5s1.119 2.5 2.5 2.5h12.875c1.381 0 2.5-1.119 2.5-2.5s-1.12-2.5-2.5-2.5z"/><path d="m172.81 109.598h-22.585c-.726 0-1.416.315-1.891.864-5.111 5.907-12.522 9.295-20.334 9.295s-15.223-3.388-20.334-9.295c-.475-.549-1.165-.864-1.891-.864h-22.585c-10.73 0-19.46 8.73-19.46 19.46v83.518c0 7.463 6.071 13.534 13.534 13.534s13.534-6.071 13.534-13.534v-69.478c0-1.381-1.119-2.5-2.5-2.5s-2.5 1.119-2.5 2.5v59.161h-17.068v-73.201c0-7.974 6.487-14.46 14.46-14.46h21.47c6.023 6.471 14.463 10.159 23.339 10.159s17.316-3.688 23.339-10.159h21.47c7.974 0 14.46 6.487 14.46 14.46v73.201h-17.068v-59.161c0-1.381-1.119-2.5-2.5-2.5s-2.5 1.119-2.5 2.5v69.478c0 7.463 6.071 13.534 13.534 13.534s13.534-6.071 13.534-13.534v-83.518c.002-10.73-8.728-19.46-19.458-19.46zm-87.012 97.661v5.317c0 4.706-3.829 8.534-8.534 8.534s-8.534-3.829-8.534-8.534v-5.317zm92.938 13.851c-4.706 0-8.534-3.829-8.534-8.534v-5.317h17.068v5.317c0 4.706-3.829 8.534-8.534 8.534z"/></g><path d="m170.202 161.953c0-.758-.344-1.475-.934-1.949l-11.012-8.847v-39.059c0-1.381-1.119-2.5-2.5-2.5s-2.5 1.119-2.5 2.5v37.757h-50.512v-37.757c0-1.381-1.119-2.5-2.5-2.5s-2.5 1.119-2.5 2.5v39.059l-11.012 8.847c-.59.474-.934 1.191-.934 1.949l-.003 51.684c0 .728.317 1.419.868 1.894 10.123 8.719 25.154 13.72 41.241 13.72h.096.096c16.087 0 31.118-5 41.241-13.72.551-.475.868-1.167.868-1.894zm-42.057 62.297c-.016 0-.033 0-.049 0h-.192c-.016 0-.033 0-.049 0-14.428-.01-27.854-4.29-37.06-11.781l.003-49.318 10.326-8.295h53.752l10.326 8.295.003 49.318c-9.205 7.491-22.632 11.771-37.06 11.781z" fill="#ed9abc"/></g></svg>