<svg id="Layer_1" enable-background="new 0 0 256 256" height="512" viewBox="0 0 256 256" width="512" xmlns="http://www.w3.org/2000/svg"><g><g fill="#ebe7f2"><path d="m235.378 74.952h-44.815c-1.381 0-2.5-1.119-2.5-2.5s1.119-2.5 2.5-2.5h44.815c1.381 0 2.5 1.119 2.5 2.5s-1.119 2.5-2.5 2.5z"/><path d="m235.378 146.887h-44.815c-1.381 0-2.5-1.119-2.5-2.5s1.119-2.5 2.5-2.5h44.815c1.381 0 2.5 1.119 2.5 2.5s-1.119 2.5-2.5 2.5z"/><path d="m235.378 218.82h-44.815c-1.381 0-2.5-1.119-2.5-2.5s1.119-2.5 2.5-2.5h44.815c1.381 0 2.5 1.119 2.5 2.5s-1.119 2.5-2.5 2.5z"/><path d="m65.438 74.952h-44.816c-1.381 0-2.5-1.119-2.5-2.5s1.119-2.5 2.5-2.5h44.815c1.381 0 2.5 1.119 2.5 2.5s-1.119 2.5-2.499 2.5z"/><path d="m65.438 146.887h-44.816c-1.381 0-2.5-1.119-2.5-2.5s1.119-2.5 2.5-2.5h44.815c1.381 0 2.5 1.119 2.5 2.5s-1.119 2.5-2.499 2.5z"/><path d="m65.438 218.82h-44.816c-1.381 0-2.5-1.119-2.5-2.5s1.119-2.5 2.5-2.5h44.815c1.381 0 2.5 1.119 2.5 2.5s-1.119 2.5-2.499 2.5z"/></g><g fill="#846f75"><path d="m128 73.78c-29.896 0-54.219 24.323-54.219 54.22s24.323 54.22 54.219 54.22 54.219-24.323 54.219-54.22-24.323-54.22-54.219-54.22zm0 103.44c-27.14 0-49.219-22.08-49.219-49.22s22.079-49.22 49.219-49.22 49.219 22.08 49.219 49.22-22.079 49.22-49.219 49.22z"/><path d="m142.792 93.694c-6.165 0-10.994 6.524-10.994 14.854 0 7.163 3.574 12.978 8.494 14.47v38.537c0 1.381 1.119 2.5 2.5 2.5s2.5-1.119 2.5-2.5v-38.537c4.919-1.493 8.493-7.308 8.493-14.47 0-8.329-4.828-14.854-10.993-14.854zm0 24.708c-3.249 0-5.994-4.513-5.994-9.854s2.745-9.854 5.994-9.854 5.993 4.513 5.993 9.854c0 5.342-2.744 9.854-5.993 9.854z"/><path d="m121.702 93.694c-1.381 0-2.5 1.119-2.5 2.5v13.715h-3.494v-13.715c0-1.381-1.119-2.5-2.5-2.5s-2.5 1.119-2.5 2.5v13.715h-3.493v-13.715c0-1.381-1.119-2.5-2.5-2.5s-2.5 1.119-2.5 2.5v16.215c0 5.2 3.634 9.559 8.493 10.695v38.45c0 1.381 1.119 2.5 2.5 2.5s2.5-1.119 2.5-2.5v-38.45c4.86-1.136 8.494-5.495 8.494-10.695v-16.215c0-1.381-1.119-2.5-2.5-2.5zm-8.494 24.708c-2.412 0-4.49-1.435-5.44-3.493h10.88c-.95 2.058-3.028 3.493-5.44 3.493z"/><path d="m225.898 49.969c1.591-2.449 2.469-5.338 2.469-8.364 0-8.489-6.907-15.396-15.396-15.396s-15.396 6.907-15.396 15.396c0 3.026.877 5.914 2.469 8.364-6.645.225-11.98 5.699-11.98 12.397v21.058c0 1.381 1.119 2.5 2.5 2.5h44.815c1.381 0 2.5-1.119 2.5-2.5v-21.058c-.001-6.697-5.337-12.172-11.981-12.397zm6.98 30.955h-39.815v-18.558c0-4.083 3.322-7.404 7.405-7.404h5.561c1.11 0 2.087-.732 2.399-1.797s-.116-2.209-1.051-2.808c-3.008-1.928-4.803-5.199-4.803-8.753 0-5.732 4.664-10.396 10.396-10.396s10.396 4.664 10.396 10.396c0 3.554-1.795 6.825-4.803 8.752-.935.6-1.363 1.743-1.051 2.808s1.29 1.798 2.399 1.798h5.561c4.083 0 7.405 3.321 7.405 7.404v18.558z"/><path d="m225.898 121.902c1.591-2.449 2.469-5.338 2.469-8.364 0-8.489-6.907-15.396-15.396-15.396s-15.396 6.906-15.396 15.396c0 3.026.877 5.914 2.469 8.364-6.645.225-11.98 5.7-11.98 12.398v21.057c0 1.381 1.119 2.5 2.5 2.5h44.815c1.381 0 2.5-1.119 2.5-2.5v-21.057c-.001-6.697-5.337-12.172-11.981-12.398zm6.98 30.955h-39.815v-18.557c0-4.083 3.322-7.405 7.405-7.405h5.561c1.11 0 2.087-.732 2.399-1.797s-.116-2.209-1.051-2.808c-3.008-1.928-4.803-5.199-4.803-8.753 0-5.732 4.664-10.396 10.396-10.396s10.396 4.663 10.396 10.396c0 3.554-1.795 6.825-4.803 8.752-.935.6-1.363 1.743-1.051 2.808s1.29 1.798 2.399 1.798h5.561c4.083 0 7.405 3.322 7.405 7.405v18.557z"/><path d="m225.898 193.836c1.591-2.449 2.469-5.337 2.469-8.363 0-8.489-6.907-15.396-15.396-15.396s-15.396 6.907-15.396 15.396c0 3.026.877 5.914 2.469 8.363-6.644.226-11.98 5.7-11.98 12.398v21.058c0 1.381 1.119 2.5 2.5 2.5h44.815c1.381 0 2.5-1.119 2.5-2.5v-21.058c-.001-6.698-5.337-12.172-11.981-12.398zm6.98 30.956h-39.815v-18.558c0-4.083 3.322-7.405 7.405-7.405h5.561c1.11 0 2.087-.732 2.399-1.797s-.116-2.209-1.051-2.808c-3.008-1.928-4.803-5.199-4.803-8.752 0-5.732 4.664-10.396 10.396-10.396s10.396 4.664 10.396 10.396c0 3.553-1.795 6.824-4.803 8.751-.935.6-1.363 1.743-1.051 2.808s1.29 1.798 2.399 1.798h5.561c4.083 0 7.405 3.322 7.405 7.405v18.558z"/><path d="m55.958 49.969c1.591-2.45 2.469-5.338 2.469-8.364 0-8.489-6.907-15.396-15.396-15.396s-15.396 6.907-15.396 15.396c0 3.026.877 5.915 2.469 8.364-6.644.226-11.98 5.7-11.98 12.397v21.058c0 1.381 1.119 2.5 2.5 2.5h44.815c1.381 0 2.5-1.119 2.5-2.5v-21.058c-.001-6.698-5.337-12.173-11.981-12.397zm6.98 30.955h-39.816v-18.558c0-4.083 3.322-7.404 7.405-7.404h5.561c1.11 0 2.087-.732 2.399-1.798.312-1.064-.116-2.208-1.051-2.808-3.008-1.927-4.803-5.198-4.803-8.752 0-5.732 4.664-10.396 10.396-10.396s10.396 4.664 10.396 10.396c0 3.554-1.795 6.825-4.803 8.753-.935.599-1.363 1.742-1.051 2.808.312 1.064 1.29 1.797 2.399 1.797h5.561c4.083 0 7.405 3.321 7.405 7.404v18.558z"/><path d="m55.958 121.902c1.591-2.45 2.469-5.338 2.469-8.364 0-8.489-6.907-15.396-15.396-15.396s-15.396 6.906-15.396 15.396c0 3.026.877 5.915 2.469 8.364-6.644.226-11.98 5.7-11.98 12.398v21.057c0 1.381 1.119 2.5 2.5 2.5h44.815c1.381 0 2.5-1.119 2.5-2.5v-21.057c-.001-6.697-5.337-12.173-11.981-12.398zm6.98 30.955h-39.816v-18.557c0-4.083 3.322-7.405 7.405-7.405h5.561c1.11 0 2.087-.732 2.399-1.798.312-1.064-.116-2.208-1.051-2.808-3.008-1.927-4.803-5.198-4.803-8.752 0-5.732 4.664-10.396 10.396-10.396s10.396 4.663 10.396 10.396c0 3.554-1.795 6.825-4.803 8.753-.935.599-1.363 1.742-1.051 2.808.312 1.064 1.29 1.797 2.399 1.797h5.561c4.083 0 7.405 3.322 7.405 7.405v18.557z"/><path d="m55.958 193.836c1.591-2.449 2.469-5.337 2.469-8.363 0-8.489-6.907-15.396-15.396-15.396s-15.396 6.907-15.396 15.396c0 3.026.877 5.914 2.469 8.363-6.644.226-11.98 5.7-11.98 12.398v21.058c0 1.381 1.119 2.5 2.5 2.5h44.815c1.381 0 2.5-1.119 2.5-2.5v-21.058c-.001-6.698-5.337-12.172-11.981-12.398zm6.98 30.956h-39.816v-18.558c0-4.083 3.322-7.405 7.405-7.405h5.561c1.11 0 2.087-.732 2.399-1.798.312-1.064-.116-2.208-1.051-2.808-3.008-1.927-4.803-5.198-4.803-8.751 0-5.732 4.664-10.396 10.396-10.396s10.396 4.664 10.396 10.396c0 3.553-1.795 6.824-4.803 8.752-.935.599-1.363 1.742-1.051 2.808.312 1.064 1.29 1.797 2.399 1.797h5.561c4.083 0 7.405 3.322 7.405 7.405v18.558z"/></g><path d="m176.516 54.383h-97.032c-1.381 0-2.5 1.119-2.5 2.5s1.119 2.5 2.5 2.5h46.016v6.535c0 1.381 1.119 2.5 2.5 2.5s2.5-1.119 2.5-2.5v-6.535h46.016c1.381 0 2.5-1.119 2.5-2.5s-1.12-2.5-2.5-2.5z" fill="#a58bc9"/><path d="m176.516 196.617h-46.016v-6.535c0-1.381-1.119-2.5-2.5-2.5s-2.5 1.119-2.5 2.5v6.535h-46.016c-1.381 0-2.5 1.119-2.5 2.5s1.119 2.5 2.5 2.5h97.031c1.381 0 2.5-1.119 2.5-2.5s-1.119-2.5-2.499-2.5z" fill="#a58bc9"/></g></svg>