<svg id="Layer_1" enable-background="new 0 0 256 256" height="512" viewBox="0 0 256 256" width="512" xmlns="http://www.w3.org/2000/svg"><g><g fill="#f9b087"><path d="m105.189 113.953c-1.381 0-2.5-1.119-2.5-2.5 0-17.608-14.325-31.934-31.934-31.934-17.608 0-31.933 14.325-31.933 31.934 0 1.381-1.119 2.5-2.5 2.5s-2.5-1.119-2.5-2.5c0-20.365 16.568-36.934 36.933-36.934s36.934 16.568 36.934 36.934c0 1.381-1.119 2.5-2.5 2.5z"/><path d="m93.084 113.953c-1.381 0-2.5-1.119-2.5-2.5 0-10.934-8.895-19.829-19.829-19.829s-19.829 8.896-19.829 19.829c0 1.381-1.119 2.5-2.5 2.5s-2.5-1.119-2.5-2.5c0-13.69 11.138-24.829 24.829-24.829s24.829 11.139 24.829 24.829c0 1.381-1.119 2.5-2.5 2.5z"/><path d="m80.82 113.953c-1.381 0-2.5-1.119-2.5-2.5 0-4.172-3.394-7.565-7.565-7.565s-7.565 3.394-7.565 7.565c0 1.381-1.119 2.5-2.5 2.5s-2.5-1.119-2.5-2.5c0-6.929 5.637-12.565 12.565-12.565s12.565 5.637 12.565 12.565c0 1.381-1.119 2.5-2.5 2.5z"/><path d="m162.047 113.953c-1.381 0-2.5-1.119-2.5-2.5 0-17.608-14.325-31.934-31.933-31.934-7.826 0-15.354 2.858-21.198 8.05-1.032.917-2.611.824-3.529-.209-.917-1.032-.823-2.612.209-3.529 6.76-6.005 15.468-9.312 24.519-9.312 20.365 0 36.933 16.568 36.933 36.934-.001 1.381-1.12 2.5-2.501 2.5z"/><path d="m149.942 113.953c-1.381 0-2.5-1.119-2.5-2.5 0-10.934-8.896-19.829-19.829-19.829-5.744 0-11.202 2.489-14.975 6.83-.905 1.043-2.484 1.154-3.527.247-1.042-.905-1.152-2.484-.247-3.526 4.722-5.435 11.556-8.551 18.748-8.551 13.691 0 24.829 11.139 24.829 24.829.001 1.381-1.118 2.5-2.499 2.5z"/><path d="m137.679 113.953c-1.381 0-2.5-1.119-2.5-2.5 0-4.172-3.394-7.565-7.565-7.565s-7.565 3.394-7.565 7.565c0 1.381-1.119 2.5-2.5 2.5s-2.5-1.119-2.5-2.5c0-6.929 5.637-12.565 12.565-12.565s12.565 5.637 12.565 12.565c0 1.381-1.119 2.5-2.5 2.5z"/></g><path d="m81.03 181.519c-29.363 0-53.252-23.889-53.252-53.252 0-1.381 1.119-2.5 2.5-2.5s2.5 1.119 2.5 2.5c0 26.606 21.646 48.252 48.252 48.252 1.381 0 2.5 1.119 2.5 2.5s-1.119 2.5-2.5 2.5z" fill="#ebe7f2"/><path d="m153.198 181.519c-1.381 0-2.5-1.119-2.5-2.5s1.119-2.5 2.5-2.5c26.606 0 48.252-21.646 48.252-48.252 0-1.381 1.119-2.5 2.5-2.5s2.5 1.119 2.5 2.5c0 29.363-23.888 53.252-53.252 53.252z" fill="#ebe7f2"/><g fill="#846f75"><path d="m203.95 108.953h-173.673c-1.381 0-2.5 1.119-2.5 2.5v36.813c0 29.363 23.889 53.252 53.252 53.252h72.168c29.363 0 53.252-23.889 53.252-53.252v-36.813c.001-1.381-1.118-2.5-2.499-2.5zm-2.5 39.314c0 26.606-21.646 48.252-48.252 48.252h-72.168c-26.606 0-48.252-21.646-48.252-48.252v-34.313h168.672z"/><path d="m161.444 206.735c-1.381 0-2.5 1.119-2.5 2.5v8.925c0 1.949-1.585 3.534-3.534 3.534h-76.592c-1.949 0-3.534-1.585-3.534-3.534v-8.925c0-1.381-1.119-2.5-2.5-2.5s-2.5 1.119-2.5 2.5v8.925c0 4.706 3.829 8.534 8.534 8.534h76.592c4.706 0 8.534-3.828 8.534-8.534v-8.925c0-1.381-1.119-2.5-2.5-2.5z"/><path d="m159.945 87.822c1.242.606 2.737.095 3.346-1.145l25.266-51.526 7.305 3.581-29.329 59.808c-.607 1.239-.096 2.737 1.145 3.346.354.173.729.256 1.099.256.924 0 1.813-.515 2.247-1.4l30.429-62.052c.291-.595.335-1.282.12-1.909-.214-.628-.669-1.145-1.265-1.437l-11.794-5.783c-1.241-.605-2.738-.095-3.346 1.145l-26.367 53.771c-.608 1.239-.096 2.737 1.144 3.345z"/><path d="m228.088 43.214c-.214-.628-.669-1.145-1.265-1.437l-11.794-5.783c-.596-.291-1.281-.335-1.909-.12-.628.214-1.145.669-1.437 1.265l-31.75 64.75c-.607 1.239-.096 2.737 1.145 3.346 1.241.606 2.737.096 3.346-1.145l30.648-62.505 7.305 3.581-27.814 56.723c-.607 1.239-.096 2.737 1.145 3.346.354.173.729.256 1.099.256.924 0 1.813-.515 2.247-1.4l28.915-58.967c.29-.597.334-1.283.119-1.91z"/><path d="m89.894 157.736h6.452v28.594c0 1.381 1.119 2.5 2.5 2.5h35.536c1.381 0 2.5-1.119 2.5-2.5v-28.594h6.452c1.023 0 1.943-.624 2.322-1.574.379-.951.14-2.037-.604-2.741l-26.72-25.31c-.964-.912-2.475-.912-3.438 0l-26.72 25.31c-.743.704-.982 1.79-.603 2.741.379.95 1.3 1.574 2.323 1.574zm22.157 26.094v-14.881h9.126v14.881zm19.831 0h-5.705v-17.381c0-1.381-1.119-2.5-2.5-2.5h-14.126c-1.381 0-2.5 1.119-2.5 2.5v17.381h-5.705v-26.094h30.536zm-15.268-50.46 20.446 19.366h-40.892z"/></g></g></svg>