<svg id="Layer_1" enable-background="new 0 0 256 256" height="512" viewBox="0 0 256 256" width="512" xmlns="http://www.w3.org/2000/svg"><g><g fill="#846f75"><path d="m90.723 45.047c-1.381 0-2.5 1.119-2.5 2.5s1.119 2.5 2.5 2.5c9.841 0 17.847 8.006 17.847 17.847v120.213c0 9.841-8.006 17.848-17.847 17.848-1.381 0-2.5 1.119-2.5 2.5s1.119 2.5 2.5 2.5c12.598 0 22.847-10.249 22.847-22.848v-120.213c0-12.598-10.249-22.847-22.847-22.847z"/><path d="m78.639 208.454c0-1.381-1.119-2.5-2.5-2.5-9.841 0-17.847-8.007-17.847-17.848v-120.212c0-9.841 8.006-17.847 17.848-17.847 1.381 0 2.5-1.119 2.5-2.5s-1.119-2.5-2.5-2.5c-12.598 0-22.847 10.249-22.847 22.847v120.213c0 12.599 10.249 22.848 22.847 22.848 1.38-.001 2.499-1.12 2.499-2.501z"/><path d="m65.991 32.987c.436.883 1.322 1.395 2.244 1.395.372 0 .749-.084 1.104-.259 1.238-.611 1.747-2.11 1.135-3.349l-4.806-9.738 3.889-3.736c1.945-1.868 4.993-1.868 6.944.006 3.889 3.737 9.98 3.734 13.868-.002 1.945-1.871 4.995-1.871 6.94 0l3.876 3.725-4.867 9.734c-.618 1.235-.117 2.736 1.118 3.354s2.737.116 3.354-1.118l5.69-11.38c.49-.979.286-2.162-.503-2.921l-5.203-5c-3.89-3.736-9.982-3.736-13.87 0-1.944 1.87-4.992 1.871-6.945-.004-3.888-3.734-9.978-3.734-13.866 0l-5.209 5.004c-.786.755-.992 1.932-.51 2.909z"/><path d="m100.791 223.001c-.617-1.235-2.119-1.733-3.354-1.118-1.235.618-1.735 2.119-1.118 3.354l4.867 9.734-3.876 3.725c-1.946 1.871-4.995 1.871-6.94 0-3.887-3.736-9.979-3.737-13.874.004-1.944 1.869-4.992 1.867-6.938 0l-3.889-3.736 4.806-9.738c.611-1.238.103-2.737-1.135-3.349-1.239-.609-2.737-.102-3.348 1.136l-5.616 11.38c-.482.978-.276 2.154.51 2.909l5.209 5.004c1.943 1.866 4.436 2.8 6.931 2.8 2.496 0 4.994-.935 6.941-2.806 1.946-1.869 4.993-1.869 6.939.002 3.888 3.735 9.98 3.737 13.87 0l5.203-5c.789-.759.993-1.941.503-2.921z"/><path d="m179.861 45.047c-1.381 0-2.5 1.119-2.5 2.5s1.119 2.5 2.5 2.5c9.841 0 17.847 8.006 17.847 17.847v120.213c0 9.841-8.006 17.848-17.848 17.848-1.381 0-2.5 1.119-2.5 2.5s1.119 2.5 2.5 2.5c12.598 0 22.847-10.249 22.847-22.848v-120.213c.001-12.598-10.248-22.847-22.846-22.847z"/><path d="m167.777 208.454c0-1.381-1.119-2.5-2.5-2.5-9.841 0-17.847-8.007-17.847-17.848v-120.212c0-9.841 8.006-17.847 17.847-17.847 1.381 0 2.5-1.119 2.5-2.5s-1.119-2.5-2.5-2.5c-12.598 0-22.847 10.249-22.847 22.847v120.213c0 12.599 10.249 22.848 22.847 22.848 1.381-.001 2.5-1.12 2.5-2.501z"/><path d="m155.129 32.987c.436.883 1.322 1.395 2.244 1.395.372 0 .749-.084 1.104-.259 1.238-.611 1.747-2.11 1.135-3.349l-4.806-9.738 3.889-3.736c1.945-1.868 4.993-1.868 6.944.006 3.889 3.737 9.98 3.734 13.868-.002 1.945-1.871 4.995-1.871 6.94 0l3.876 3.725-4.867 9.734c-.618 1.235-.117 2.736 1.118 3.354 1.236.618 2.737.116 3.354-1.118l5.69-11.38c.49-.979.286-2.162-.503-2.921l-5.203-5c-3.89-3.736-9.982-3.736-13.87 0-1.945 1.87-4.993 1.871-6.945-.004-3.888-3.734-9.978-3.734-13.866 0l-5.209 5.004c-.786.755-.992 1.932-.51 2.909z"/><path d="m189.929 223.001c-.617-1.235-2.118-1.733-3.354-1.118-1.235.618-1.735 2.119-1.118 3.354l4.867 9.734-3.876 3.725c-1.946 1.871-4.995 1.871-6.94 0-3.887-3.736-9.979-3.737-13.874.004-1.944 1.869-4.992 1.867-6.938 0l-3.889-3.736 4.806-9.738c.611-1.238.103-2.737-1.135-3.349-1.239-.609-2.737-.102-3.348 1.136l-5.616 11.38c-.482.978-.276 2.154.51 2.909l5.209 5.004c1.943 1.866 4.436 2.8 6.931 2.8 2.496 0 4.994-.935 6.941-2.806 1.946-1.869 4.993-1.869 6.939.002 3.888 3.735 9.98 3.737 13.87 0l5.203-5c.789-.759.993-1.941.503-2.921z"/></g><path d="m91.829 198.736c-1.381 0-2.5-1.119-2.5-2.5s1.119-2.5 2.5-2.5c3.298 0 5.981-2.684 5.981-5.981v-119.51c0-3.298-2.683-5.981-5.981-5.981-1.381 0-2.5-1.119-2.5-2.5s1.119-2.5 2.5-2.5c6.055 0 10.981 4.926 10.981 10.981v119.51c.001 6.056-4.926 10.981-10.981 10.981z" fill="#ebe7f2"/><path d="m92.978 50.046h-19.094c-3.584 0-6.5-2.916-6.5-6.5v-1.353c0-3.584 2.916-6.5 6.5-6.5h19.093c3.584 0 6.5 2.916 6.5 6.5v1.353c.001 3.584-2.915 6.5-6.499 6.5zm-19.094-9.353c-.827 0-1.5.673-1.5 1.5v1.353c0 .827.673 1.5 1.5 1.5h19.093c.827 0 1.5-.673 1.5-1.5v-1.353c0-.827-.673-1.5-1.5-1.5z" fill="#65c1d6"/><path d="m92.978 220.307h-19.094c-3.584 0-6.5-2.916-6.5-6.5v-1.353c0-3.584 2.916-6.5 6.5-6.5h19.093c3.584 0 6.5 2.916 6.5 6.5v1.353c.001 3.584-2.915 6.5-6.499 6.5zm-19.094-9.353c-.827 0-1.5.673-1.5 1.5v1.353c0 .827.673 1.5 1.5 1.5h19.093c.827 0 1.5-.673 1.5-1.5v-1.353c0-.827-.673-1.5-1.5-1.5z" fill="#65c1d6"/><path d="m180.967 198.736c-1.381 0-2.5-1.119-2.5-2.5s1.119-2.5 2.5-2.5c3.298 0 5.981-2.684 5.981-5.981v-119.51c0-3.298-2.683-5.981-5.981-5.981-1.381 0-2.5-1.119-2.5-2.5s1.119-2.5 2.5-2.5c6.055 0 10.981 4.926 10.981 10.981v119.51c.001 6.056-4.926 10.981-10.981 10.981z" fill="#ebe7f2"/><g fill="#65c1d6"><path d="m182.116 50.046h-19.093c-3.584 0-6.5-2.916-6.5-6.5v-1.353c0-3.584 2.916-6.5 6.5-6.5h19.093c3.584 0 6.5 2.916 6.5 6.5v1.353c0 3.584-2.916 6.5-6.5 6.5zm-19.094-9.353c-.827 0-1.5.673-1.5 1.5v1.353c0 .827.673 1.5 1.5 1.5h19.093c.827 0 1.5-.673 1.5-1.5v-1.353c0-.827-.673-1.5-1.5-1.5z"/><path d="m182.116 220.307h-19.093c-3.584 0-6.5-2.916-6.5-6.5v-1.353c0-3.584 2.916-6.5 6.5-6.5h19.093c3.584 0 6.5 2.916 6.5 6.5v1.353c0 3.584-2.916 6.5-6.5 6.5zm-19.094-9.353c-.827 0-1.5.673-1.5 1.5v1.353c0 .827.673 1.5 1.5 1.5h19.093c.827 0 1.5-.673 1.5-1.5v-1.353c0-.827-.673-1.5-1.5-1.5z"/></g></g></svg>