<svg id="Layer_1" enable-background="new 0 0 256 256" height="512" viewBox="0 0 256 256" width="512" xmlns="http://www.w3.org/2000/svg"><g><path d="m122.396 105.454h-81.83c-1.381 0-2.5-1.119-2.5-2.5s1.119-2.5 2.5-2.5h81.83c1.381 0 2.5 1.119 2.5 2.5s-1.12 2.5-2.5 2.5z" fill="#ebe7f2"/><path d="m64.926 202.398c-1.231 0-2.465-.068-3.701-.205-1.373-.153-2.361-1.389-2.208-2.761s1.386-2.359 2.761-2.208c14.032 1.565 28.061-7.474 34.905-22.486 5.85-12.831 3.567-27.842-5.816-38.243-.925-1.025-.843-2.606.182-3.531 1.025-.924 2.606-.843 3.531.182 10.719 11.882 13.331 29.022 6.653 43.667-7.152 15.686-21.416 25.585-36.307 25.585z" fill="#ebe7f2"/><path d="m97.832 127.943c-2.833-2.346-6.748-2.733-9.974-.989-.211.114-.422.236-.633.354-1.554-1.844-4.276-4.792-7.609-7.187-1.121-.806-2.683-.55-3.489.571s-.55 2.683.571 3.489c2.571 1.848 4.775 4.136 6.198 5.764-.309.205-.619.408-.927.619-1.961 1.345-3.281 3.377-3.715 5.721-.438 2.369.075 4.768 1.446 6.756 6.662 9.664 7.882 21.479 3.264 31.607-4.889 10.723-15.664 17.784-28.121 18.427-2.509.129-4.516 1.884-4.993 4.366-.478 2.484.737 4.86 3.021 5.911.002.001.112.051.115.053 4.879 2.224 10.022 3.277 15.161 3.277 15.975-.001 31.893-10.179 39.555-26.982 8.494-18.629 4.435-39.912-9.87-51.757zm5.321 49.682c-8.983 19.702-30.558 29.227-48.092 21.23 0 0-.358-.165-.3-.47.058-.302.234-.311.34-.316 14.327-.74 26.747-8.919 32.413-21.346 5.354-11.743 3.972-25.395-3.698-36.519-.611-.887-.841-1.955-.646-3.008.19-1.029.768-1.919 1.626-2.508 1.802-1.235 3.632-2.358 5.44-3.336 1.421-.771 3.151-.596 4.406.443 12.57 10.406 16.069 29.252 8.511 45.83z" fill="#a58bc9"/><g fill="#846f75"><path d="m117.004 84.564h-71.047c-4.351 0-7.891 3.54-7.891 7.891v130.819c0 4.352 3.54 7.892 7.891 7.892h71.047c4.352 0 7.892-3.54 7.892-7.892v-130.819c0-4.351-3.541-7.891-7.892-7.891zm2.892 138.71c0 1.594-1.297 2.892-2.892 2.892h-71.047c-1.594 0-2.891-1.297-2.891-2.892v-130.819c0-1.594 1.297-2.891 2.891-2.891h71.047c1.594 0 2.892 1.297 2.892 2.891z"/><path d="m55.742 80.751c1.381 0 2.5-1.119 2.5-2.5v-12.753c0-.623.507-1.13 1.13-1.13h44.217c.623 0 1.13.507 1.13 1.13v12.754c0 1.381 1.119 2.5 2.5 2.5s2.5-1.119 2.5-2.5v-12.754c0-3.38-2.75-6.13-6.13-6.13h-9.226v-17.317c0-1.929-.828-3.77-2.272-5.048l-12.257-10.862c-2.014-1.784-4.788-2.207-7.242-1.103-2.453 1.104-3.977 3.461-3.977 6.151v28.178h-9.244c-3.38 0-6.13 2.75-6.13 6.13v12.754c.001 1.381 1.12 2.5 2.501 2.5zm17.873-49.562c0-1.019.72-1.452 1.029-1.591.309-.14 1.111-.39 1.874.285l12.257 10.862c.374.331.588.807.588 1.306v17.317h-15.748z"/><path d="m192.014 112.433h-1.522v-30.524h1.077c4.743 0 8.601-3.858 8.601-8.601 0-4.742-3.858-8.601-8.601-8.601h-29.501c-4.742 0-8.601 3.858-8.601 8.601s3.858 8.601 8.601 8.601h.91v30.523h-1.523c-8.682 0-15.745 7.063-15.745 15.745v94.98c0 4.416 3.592 8.008 8.008 8.008h46.035c4.416 0 8.008-3.592 8.008-8.008v-94.98c-.002-8.681-7.065-15.744-15.747-15.744zm-33.548-39.125c0-1.985 1.615-3.601 3.601-3.601h29.501c1.986 0 3.601 1.615 3.601 3.601s-1.615 3.601-3.601 3.601h-29.501c-1.985 0-3.601-1.615-3.601-3.601zm44.293 149.85c0 1.659-1.349 3.008-3.008 3.008h-46.035c-1.659 0-3.008-1.349-3.008-3.008v-94.98c0-5.925 4.82-10.745 10.745-10.745h4.023c1.381 0 2.5-1.119 2.5-2.5v-32.94h17.515v32.94c0 1.381 1.119 2.5 2.5 2.5h4.022c5.925 0 10.745 4.82 10.745 10.745v94.98z"/><path d="m165.477 61.18c1.381 0 2.5-1.119 2.5-2.5v-6.111h17.515v6.111c0 1.381 1.119 2.5 2.5 2.5s2.5-1.119 2.5-2.5v-8.611c0-1.381-1.119-2.5-2.5-2.5h-22.515c-1.381 0-2.5 1.119-2.5 2.5v8.611c0 1.381 1.119 2.5 2.5 2.5z"/></g><path d="m176.689 202.449c-11.666 0-21.156-12.721-21.156-28.357s9.49-28.357 21.156-28.357c11.665 0 21.155 12.721 21.155 28.357s-9.49 28.357-21.155 28.357zm0-51.714c-8.908 0-16.156 10.478-16.156 23.357s7.248 23.357 16.156 23.357 16.155-10.478 16.155-23.357-7.246-23.357-16.155-23.357z" fill="#a58bc9"/></g></svg>