<svg id="Layer_1" enable-background="new 0 0 256 256" height="512" viewBox="0 0 256 256" width="512" xmlns="http://www.w3.org/2000/svg"><g><path d="m99.667 210.585c-1.381 0-2.5-1.119-2.5-2.5v-70.297c0-15.762-5.427-31.417-15.28-44.081-.848-1.09-.652-2.66.438-3.508 1.09-.85 2.66-.652 3.508.438 10.533 13.537 16.334 30.283 16.334 47.151v70.297c0 1.381-1.12 2.5-2.5 2.5z" fill="#ebe7f2"/><g fill="#65c1d6"><path d="m29.754 164.651c-1.277 0-2.367-.974-2.486-2.271-.127-1.375.885-2.593 2.26-2.719 7.503-.69 13.761-5.807 15.941-13.033.237-.787.846-1.406 1.628-1.658.781-.253 1.638-.103 2.29.397 2.36 1.815 5.17 2.774 8.125 2.774 7.371 0 13.367-5.996 13.367-13.367 0-7.37-5.996-13.366-13.367-13.366-4.977 0-9.511 2.744-11.833 7.162-.382.727-1.096 1.22-1.911 1.318-.816.105-1.627-.209-2.171-.821-2.874-3.236-6.784-5.371-11.01-6.012-1.365-.207-2.304-1.48-2.097-2.846.207-1.365 1.483-2.308 2.846-2.098 4.319.654 8.375 2.531 11.695 5.372 3.445-4.429 8.749-7.076 14.481-7.076 10.127 0 18.367 8.239 18.367 18.366 0 10.128-8.239 18.367-18.367 18.367-2.961 0-5.814-.698-8.398-2.04-3.461 7.564-10.672 12.761-19.127 13.538-.079.01-.156.013-.233.013z"/><path d="m83.219 201.569c-10.127 0-18.367-8.239-18.367-18.366 0-8.567 6.009-15.979 14.226-17.879 3.325-10.396 12.989-17.522 24.042-17.522 4.355 0 8.65 1.128 12.421 3.263 1.202.681 1.625 2.206.944 3.407-.68 1.202-2.205 1.624-3.407.944-3.021-1.71-6.465-2.614-9.958-2.614-9.303 0-17.378 6.294-19.639 15.307-.249.99-1.074 1.73-2.086 1.868-6.58.899-11.542 6.586-11.542 13.227 0 7.37 5.996 13.366 13.367 13.366 3.667 0 7.091-1.466 9.643-4.128.706-.737 1.787-.971 2.735-.591 5.64 2.259 12.221 1.813 17.482-1.165 1.203-.679 2.728-.257 3.407.944.68 1.201.257 2.728-.944 3.407-6.095 3.45-13.63 4.19-20.271 2.013-3.345 2.926-7.566 4.519-12.053 4.519z"/><path d="m214.543 161.793c-1.381 0-2.5-1.119-2.5-2.5 0-5.032-4.094-9.127-9.126-9.127-.332 0-.687.024-1.118.078-1.117.134-2.186-.487-2.616-1.524-2.52-6.077-8.395-10.004-14.968-10.004-3.706 0-7.2 1.228-10.104 3.55-.806.645-1.925.728-2.817.21-1.392-.809-2.971-1.235-4.567-1.235-4.44 0-8.216 3.175-8.979 7.549-.127.727-.568 1.36-1.206 1.731-.637.371-1.406.442-2.102.191-1.01-.362-2.045-.546-3.078-.546-5.032 0-9.125 4.095-9.125 9.127 0 1.381-1.119 2.5-2.5 2.5s-2.5-1.119-2.5-2.5c0-7.79 6.337-14.127 14.125-14.127.726 0 1.45.058 2.168.172 2.043-5.4 7.232-9.098 13.196-9.098 1.915 0 3.812.395 5.569 1.151 3.522-2.41 7.61-3.676 11.918-3.676 7.995 0 15.202 4.439 18.825 11.451 7.732.066 14.002 6.378 14.002 14.126.003 1.382-1.116 2.501-2.497 2.501z"/></g><path d="m182.667 200.127h-8.625c-25.406 0-46.076-18.318-46.076-40.835 0-1.381 1.119-2.5 2.5-2.5s2.5 1.119 2.5 2.5c0 19.76 18.427 35.835 41.076 35.835h8.625c22.65 0 41.077-16.075 41.077-35.835 0-1.381 1.119-2.5 2.5-2.5s2.5 1.119 2.5 2.5c0 22.517-20.67 40.835-46.077 40.835z" fill="#ebe7f2"/><g fill="#846f75"><path d="m93.249 63.156c0-1.381-1.119-2.5-2.5-2.5s-2.5 1.119-2.5 2.5c0 8.919 2.928 17.774 8.244 24.936 9.876 13.301 15.315 29.751 15.315 46.318v73.675c0 4.388-3.57 7.958-7.958 7.958h-63.636c-4.388 0-7.958-3.57-7.958-7.958v-73.675c0-16.567 5.439-33.018 15.315-46.318 5.316-7.161 8.245-16.017 8.245-24.936 0-1.381-1.119-2.5-2.5-2.5s-2.5 1.119-2.5 2.5c0 7.854-2.578 15.65-7.259 21.955-10.511 14.157-16.3 31.665-16.3 49.299v73.675c0 7.146 5.813 12.958 12.958 12.958h63.635c7.145 0 12.958-5.813 12.958-12.958v-73.675c0-17.634-5.789-35.142-16.3-49.299-4.682-6.304-7.259-14.102-7.259-21.955z"/><path d="m50.41 57.488h43.244c6.212 0 11.266-5.054 11.266-11.266s-5.054-11.266-11.266-11.266h-43.244c-6.212 0-11.266 5.054-11.266 11.266s5.054 11.266 11.266 11.266zm0-17.531h43.244c3.455 0 6.266 2.811 6.266 6.266s-2.811 6.266-6.266 6.266h-43.244c-3.455 0-6.266-2.811-6.266-6.266s2.811-6.266 6.266-6.266z"/><path d="m226.244 156.792h-95.778c-1.381 0-2.5 1.119-2.5 2.5v15.675c0 25.406 20.67 46.076 46.076 46.076h8.625c25.407 0 46.077-20.67 46.077-46.076v-15.675c0-1.381-1.119-2.5-2.5-2.5zm-2.5 18.175c0 22.649-18.427 41.076-41.077 41.076h-8.625c-22.649 0-41.076-18.427-41.076-41.076v-13.175h90.778z"/></g></g></svg>