<svg id="Layer_1" enable-background="new 0 0 256 256" height="512" viewBox="0 0 256 256" width="512" xmlns="http://www.w3.org/2000/svg"><g><path d="m90.31 90.03-6.259-13.048c-1.327-2.767-3.816-4.682-6.829-5.254-3.018-.574-6.041.297-8.293 2.388-.303.28-.665.52-1.109.732-1.538.737-2.5.468-4.356-.162-1.975-.672-4.68-1.591-8.126.063-3.447 1.652-4.423 4.337-5.136 6.297-.67 1.843-1.06 2.761-2.599 3.499-.446.214-.858.347-1.261.405-3.042.449-5.614 2.263-7.056 4.976-1.439 2.707-1.503 5.847-.176 8.613l1.674 3.49c.43.896 1.324 1.42 2.256 1.42.362 0 .73-.08 1.08-.247 1.245-.597 1.77-2.091 1.172-3.335l-1.674-3.49c-.633-1.319-.602-2.815.083-4.104.688-1.295 1.917-2.161 3.371-2.375.208-.031.416-.071.625-.118l5.876 12.25c.43.896 1.324 1.42 2.256 1.42.362 0 .73-.08 1.079-.247 1.245-.597 1.77-2.09 1.173-3.335l-5.954-12.413c1.607-1.506 2.261-3.289 2.774-4.7.669-1.842 1.06-2.76 2.599-3.498 1.539-.737 2.499-.469 4.356.162 1.421.483 3.223 1.09 5.404.779l10.472 21.832c.43.896 1.324 1.42 2.256 1.42.362 0 .73-.08 1.079-.247 1.245-.597 1.77-2.09 1.173-3.335l-10.406-21.695c.164-.131.343-.25.495-.391 1.077-.999 2.522-1.418 3.96-1.142 1.436.272 2.622 1.186 3.276 2.549l6.237 13.003c.597 1.246 2.089 1.77 3.335 1.173 1.245-.596 1.77-2.09 1.173-3.335z" fill="#f9b087"/><path d="m142.254 94.41c-1.728-2.54-4.482-4.063-7.555-4.177-.41-.016-.834-.103-1.3-.267-1.61-.566-2.099-1.437-2.965-3.195-.922-1.87-2.185-4.433-5.792-5.701-3.607-1.27-6.195-.061-8.084.822-1.776.828-2.703 1.201-4.312.636-.464-.163-.85-.361-1.178-.604-2.469-1.834-5.569-2.372-8.507-1.472-2.932.896-5.198 3.071-6.215 5.966l-5.029 14.3c-.458 1.302.227 2.729 1.529 3.188 1.3.457 2.729-.227 3.188-1.529l5.029-14.3c.485-1.379 1.564-2.416 2.961-2.843 1.403-.43 2.883-.172 4.064.705.165.123.356.221.533.333l-4.87 13.849c-.458 1.302.227 2.729 1.529 3.188.274.097.554.143.83.143 1.031 0 1.997-.644 2.358-1.672l4.921-13.993c2.201.071 3.925-.729 5.284-1.363 1.776-.829 2.703-1.202 4.312-.636 1.611.566 2.099 1.437 2.965 3.195.663 1.345 1.517 3.041 3.275 4.362l-2.383 6.776c-.458 1.302.227 2.729 1.529 3.188.274.097.554.143.83.143 1.031 0 1.997-.644 2.358-1.672l2.329-6.623c.208.023.419.066.626.074 1.468.055 2.784.781 3.608 1.994.822 1.207 1.015 2.691.519 4.103l-.016.048c-.438 1.303.264 2.69 1.563 3.138.265.091.534.135.8.135 1.04 0 2.017-.66 2.38-1.692 1.017-2.897.611-6.012-1.114-8.547z" fill="#f9b087"/><path d="m164.584 179.592h-72.168c-29.363 0-53.252-23.889-53.252-53.252 0-1.381 1.119-2.5 2.5-2.5s2.5 1.119 2.5 2.5c0 26.606 21.646 48.252 48.252 48.252h72.168c26.606 0 48.252-21.646 48.252-48.252 0-1.381 1.119-2.5 2.5-2.5s2.5 1.119 2.5 2.5c0 29.363-23.889 53.252-53.252 53.252z" fill="#ebe7f2"/><g fill="#846f75"><path d="m215.336 107.025h-173.672c-1.381 0-2.5 1.119-2.5 2.5v36.814c0 29.363 23.889 53.252 53.252 53.252h72.168c29.363 0 53.252-23.889 53.252-53.252v-36.814c0-1.38-1.119-2.5-2.5-2.5zm-2.5 39.315c0 26.606-21.646 48.252-48.252 48.252h-72.168c-26.606 0-48.252-21.646-48.252-48.252v-34.314h168.673v34.314z"/><path d="m172.831 204.808c-1.381 0-2.5 1.119-2.5 2.5v8.926c0 1.949-1.585 3.534-3.534 3.534h-76.593c-1.949 0-3.534-1.585-3.534-3.534v-8.926c0-1.381-1.119-2.5-2.5-2.5s-2.5 1.119-2.5 2.5v8.926c0 4.706 3.829 8.534 8.534 8.534h76.593c4.706 0 8.534-3.828 8.534-8.534v-8.926c0-1.381-1.12-2.5-2.5-2.5z"/><path d="m142.721 89.749c1.238.604 2.737.095 3.345-1.145l25.267-51.526 7.304 3.581-27.814 56.723c-.608 1.239-.096 2.737 1.144 3.346.354.173.729.256 1.099.256.924 0 1.813-.515 2.247-1.4l28.915-58.967c.608-1.239.096-2.737-1.144-3.346l-11.793-5.782c-.595-.293-1.281-.335-1.91-.121-.627.214-1.144.669-1.436 1.265l-26.368 53.771c-.608 1.239-.096 2.737 1.144 3.345z"/><path d="m166.406 100.728c.354.173.729.256 1.099.256.924 0 1.813-.515 2.247-1.4l30.65-62.505 7.304 3.581-27.814 56.723c-.608 1.239-.096 2.737 1.144 3.346 1.24.604 2.738.096 3.345-1.145l28.915-58.967c.608-1.239.096-2.737-1.144-3.346l-11.793-5.782c-.595-.293-1.281-.335-1.91-.121-.627.214-1.144.669-1.436 1.265l-31.751 64.75c-.608 1.238-.095 2.736 1.144 3.345z"/></g></g></svg>