<svg id="Layer_1" enable-background="new 0 0 256 256" height="512" viewBox="0 0 256 256" width="512" xmlns="http://www.w3.org/2000/svg"><g><path d="m160.643 220.826c-7.754 0-14.062-6.308-14.062-14.061s6.308-14.061 14.062-14.061c7.753 0 14.061 6.308 14.061 14.061s-6.308 14.061-14.061 14.061zm0-23.122c-4.996 0-9.062 4.065-9.062 9.061s4.065 9.061 9.062 9.061 9.061-4.065 9.061-9.061-4.065-9.061-9.061-9.061z" fill="#a58bc9"/><path d="m150.577 159.298c-1.271 0-2.358-.964-2.485-2.255l-4.801-48.766c-.135-1.374.869-2.598 2.243-2.733 1.371-.14 2.599.869 2.733 2.243l4.801 48.766c.135 1.374-.869 2.598-2.243 2.733-.083.008-.166.012-.248.012z" fill="#ebe7f2"/><path d="m168.692 159.298c-.082 0-.164-.004-.248-.012-1.374-.135-2.378-1.359-2.243-2.733l4.802-48.766c.135-1.374 1.366-2.383 2.733-2.243 1.374.135 2.378 1.359 2.243 2.733l-4.802 48.766c-.126 1.29-1.214 2.255-2.485 2.255z" fill="#ebe7f2"/><g fill="#846f75"><path d="m121.819 98.558 6.822 64.127c.137 1.283 1.222 2.235 2.483 2.235.088 0 .178-.004.268-.014 1.373-.146 2.367-1.377 2.222-2.75l-6.913-64.98c-.06-.553-.301-1.071-.688-1.471l-9.452-9.798c-.758-.786-.509-1.649-.367-1.983.143-.335.591-1.113 1.683-1.113 1.381 0 2.5-1.119 2.5-2.5s-1.119-2.5-2.5-2.5c-2.787 0-5.195 1.594-6.284 4.159-1.09 2.565-.564 5.404 1.371 7.41z"/><path d="m122.061 74.971v.955c0 3.353 2.728 6.08 6.08 6.08h62.989c3.352 0 6.079-2.728 6.079-6.08v-.955c0-3.352-2.728-6.08-6.079-6.08h-62.989c-3.353 0-6.08 2.728-6.08 6.08zm70.148 0v.955c0 .596-.484 1.08-1.079 1.08h-62.989c-.596 0-1.08-.484-1.08-1.08v-.955c0-.595.484-1.08 1.08-1.08h62.989c.595 0 1.079.484 1.079 1.08z"/><path d="m198.209 189.881c-.248-1.357-1.552-2.259-2.909-2.008-1.358.249-2.258 1.551-2.009 2.91l5.878 32.091c.207 1.166-.11 2.354-.87 3.262-.761.907-1.876 1.428-3.06 1.428h-70.699c-1.184 0-2.299-.521-3.06-1.428-.76-.907-1.077-2.096-.873-3.249l5.88-32.104c.249-1.358-.65-2.661-2.009-2.909-1.358-.25-2.66.651-2.909 2.009l-5.882 32.117c-.466 2.625.249 5.304 1.962 7.348 1.713 2.043 4.225 3.216 6.892 3.216h70.699c2.667 0 5.179-1.172 6.892-3.216s2.428-4.722 1.959-7.361z"/><path d="m127.162 185.636h65.455c1.381 0 2.5-1.119 2.5-2.5v-8.655c0-3.765-3.063-6.828-6.828-6.828h-56.8c-3.765 0-6.827 3.063-6.827 6.828v8.655c0 1.381 1.119 2.5 2.5 2.5zm2.5-11.156c0-1.008.819-1.828 1.827-1.828h56.8c1.008 0 1.828.82 1.828 1.828v6.155h-60.455z"/><path d="m191.59 94.731.793-7.459c.146-1.373-.849-2.604-2.222-2.75-1.378-.15-2.604.85-2.751 2.222l-.793 7.458c-.074.703-.664 1.232-1.37 1.232h-50.889c-.682 0-1.269-.509-1.364-1.185l-1.071-7.553c-.194-1.366-1.447-2.32-2.827-2.124-1.366.194-2.317 1.459-2.124 2.826l1.071 7.553c.444 3.125 3.159 5.482 6.315 5.482h50.889c3.27.002 5.996-2.45 6.343-5.702z"/><path d="m211.467 95.004h-13.13l1.026-9.645c.146-1.373-.849-2.604-2.222-2.75-1.378-.15-2.604.85-2.751 2.221l-8.227 77.325c-.146 1.373.849 2.604 2.222 2.75.09.01.18.014.268.014 1.262 0 2.347-.953 2.483-2.235l.814-7.651 23.61-10.023c3.877-1.646 6.382-5.431 6.382-9.643v-29.887c0-5.776-4.699-10.476-10.475-10.476zm5.475 40.365c0 2.201-1.31 4.18-3.336 5.04l-21.051 8.937 5.249-49.341h13.662c3.02 0 5.476 2.457 5.476 5.476z"/><path d="m116.987 103.271c0-1.381-1.119-2.5-2.5-2.5h-71.93c-1.93 0-3.5-1.57-3.5-3.5v-31.334c0-20.678 16.822-37.5 37.5-37.5h63.334c7.444 0 13.5 6.056 13.5 13.5v20.167c0 1.381 1.119 2.5 2.5 2.5s2.5-1.119 2.5-2.5v-20.167c0-10.201-8.299-18.5-18.5-18.5h-63.333c-23.435 0-42.5 19.065-42.5 42.5v31.333c0 4.687 3.813 8.5 8.5 8.5h71.93c1.38.001 2.499-1.119 2.499-2.499z"/><path d="m143.975 55.99v-10.856c0-4.75-3.864-8.613-8.613-8.613h-48.604c-9.806 0-17.783 7.978-17.783 17.783v1.687c0 4.75 3.864 8.613 8.613 8.613h57.773c4.749 0 8.614-3.864 8.614-8.614zm-70 .001v-1.687c0-7.049 5.734-12.783 12.783-12.783h48.604c1.992 0 3.613 1.621 3.613 3.613v10.856c0 1.993-1.621 3.614-3.613 3.614h-57.774c-1.992 0-3.613-1.621-3.613-3.613z"/><path d="m76.917 109.033c-1.381 0-2.5 1.119-2.5 2.5v8.364h-24.951v-8.364c0-1.381-1.119-2.5-2.5-2.5s-2.5 1.119-2.5 2.5v10.864c0 1.381 1.119 2.5 2.5 2.5h29.951c1.381 0 2.5-1.119 2.5-2.5v-10.864c0-1.381-1.119-2.5-2.5-2.5z"/></g><path d="m64.441 162.815v-33.551c0-1.381-1.119-2.5-2.5-2.5s-2.5 1.119-2.5 2.5v33.551c-10.453 1.96-17.996 15.929-17.996 28.524 0 13.003 8.236 21.739 20.496 21.739s20.496-8.736 20.496-21.739c0-12.595-7.542-26.564-17.996-28.524zm-2.5 45.263c-1.05 0-4.098-4.121-4.098-16.739 0-11.822 2.459-21.109 4.098-23.413 1.639 2.304 4.098 11.591 4.098 23.413 0 12.618-3.048 16.739-4.098 16.739zm-15.496-16.74c0-8.667 4.009-17.216 9.184-21.293-2.673 8.459-2.786 21.102-2.786 21.293 0 6.416.764 11.594 2.159 15.296-5.346-2.456-8.557-7.922-8.557-15.296zm22.435 15.296c1.395-3.702 2.159-8.88 2.159-15.296 0-.191-.113-12.833-2.786-21.293 5.175 4.077 9.184 12.625 9.184 21.293 0 7.374-3.21 12.84-8.557 15.296z" fill="#a58bc9"/></g></svg>