<svg id="Layer_1" enable-background="new 0 0 256 256" height="512" viewBox="0 0 256 256" width="512" xmlns="http://www.w3.org/2000/svg"><g><path d="m187.794 174.105h-17.061c-1.381 0-2.5-1.119-2.5-2.5s1.119-2.5 2.5-2.5h17.061c1.552 0 2.857-1.112 3.103-2.645l6.106-38.097c.189-1.184-.282-2.032-.711-2.535-.43-.504-1.193-1.104-2.392-1.104h-23.167c-1.381 0-2.5-1.119-2.5-2.5s1.119-2.5 2.5-2.5h23.167c3.271 0 5.286 1.792 6.196 2.86.911 1.068 2.36 3.343 1.844 6.57l-6.106 38.097c-.638 3.973-4.019 6.854-8.04 6.854z" fill="#ed9abc"/><path d="m187.794 189.105h-17.061c-1.381 0-2.5-1.119-2.5-2.5s1.119-2.5 2.5-2.5h17.061c8.962 0 16.495-6.422 17.913-15.271l6.106-38.096c.843-5.255-.654-10.592-4.106-14.642-3.452-4.051-8.484-6.373-13.807-6.373h-23.167c-1.381 0-2.5-1.119-2.5-2.5s1.119-2.5 2.5-2.5h23.167c6.789 0 13.208 2.963 17.611 8.129 4.404 5.167 6.314 11.974 5.239 18.677l-6.106 38.096c-1.808 11.288-11.418 19.48-22.85 19.48z" fill="#ed9abc"/><g fill="#ebe7f2"><path d="m55.734 53.589c-1.381 0-2.5-1.119-2.5-2.5v-14.242c0-1.381 1.119-2.5 2.5-2.5s2.5 1.119 2.5 2.5v14.242c0 1.381-1.119 2.5-2.5 2.5z"/><path d="m70.125 53.589c-1.381 0-2.5-1.119-2.5-2.5v-14.242c0-1.381 1.119-2.5 2.5-2.5s2.5 1.119 2.5 2.5v14.242c0 1.381-1.119 2.5-2.5 2.5z"/><path d="m84.517 53.589c-1.381 0-2.5-1.119-2.5-2.5v-14.242c0-1.381 1.119-2.5 2.5-2.5s2.5 1.119 2.5 2.5v14.242c0 1.381-1.12 2.5-2.5 2.5z"/><path d="m98.908 53.589c-1.381 0-2.5-1.119-2.5-2.5v-14.242c0-1.381 1.119-2.5 2.5-2.5s2.5 1.119 2.5 2.5v14.242c0 1.381-1.119 2.5-2.5 2.5z"/><path d="m113.3 53.589c-1.381 0-2.5-1.119-2.5-2.5v-14.242c0-1.381 1.119-2.5 2.5-2.5s2.5 1.119 2.5 2.5v14.242c0 1.381-1.119 2.5-2.5 2.5z"/><path d="m127.691 53.589c-1.381 0-2.5-1.119-2.5-2.5v-14.242c0-1.381 1.119-2.5 2.5-2.5s2.5 1.119 2.5 2.5v14.242c0 1.381-1.119 2.5-2.5 2.5z"/><path d="m142.083 53.589c-1.381 0-2.5-1.119-2.5-2.5v-14.242c0-1.381 1.119-2.5 2.5-2.5s2.5 1.119 2.5 2.5v14.242c0 1.381-1.119 2.5-2.5 2.5z"/><path d="m156.474 53.589c-1.381 0-2.5-1.119-2.5-2.5v-14.242c0-1.381 1.119-2.5 2.5-2.5s2.5 1.119 2.5 2.5v14.242c0 1.381-1.12 2.5-2.5 2.5z"/><path d="m141.391 94.432h-70.574c-1.381 0-2.5-1.119-2.5-2.5s1.119-2.5 2.5-2.5h70.573c1.381 0 2.5 1.119 2.5 2.5s-1.119 2.5-2.499 2.5z"/></g><path d="m140.881 206.803h-69.554c-8.037 0-14.575-6.538-14.575-14.575v-49.881c0-1.381 1.119-2.5 2.5-2.5h18.45c1.381 0 2.5 1.119 2.5 2.5s-1.119 2.5-2.5 2.5h-15.95v47.381c0 5.28 4.296 9.575 9.575 9.575h69.554c5.279 0 9.575-4.295 9.575-9.575v-47.381h-15.706c-1.381 0-2.5-1.119-2.5-2.5s1.119-2.5 2.5-2.5h18.206c1.381 0 2.5 1.119 2.5 2.5v49.881c0 8.037-6.538 14.575-14.575 14.575z" fill="#ed9abc"/><g fill="#846f75"><path d="m160.324 90.493c-2.048-4.685-3.094-9.576-3.094-14.549 0-1.381-1.119-2.5-2.5-2.5s-2.5 1.119-2.5 2.5c0 4.597.788 9.125 2.321 13.511-.155-.004-.306-.023-.461-.023-1.381 0-2.5 1.119-2.5 2.5s1.119 2.5 2.5 2.5c7.809 0 14.162 6.354 14.162 14.162v93.897c0 7.809-6.354 14.162-14.162 14.162h-95.972c-7.809 0-14.162-6.354-14.162-14.162v-93.897c0-7.809 6.354-14.162 14.162-14.162 1.381 0 2.5-1.119 2.5-2.5s-1.119-2.5-2.5-2.5c-.156 0-.307.02-.461.023 1.533-4.386 2.321-8.914 2.321-13.511 0-1.381-1.119-2.5-2.5-2.5s-2.5 1.119-2.5 2.5c0 4.973-1.046 9.864-3.094 14.549-7.51 2.595-12.928 9.719-12.928 18.1v93.897c0 10.566 8.596 19.162 19.162 19.162h95.972c10.566 0 19.162-8.596 19.162-19.162v-93.897c0-8.381-5.417-15.505-12.928-18.1z"/><path d="m48.563 67.831h115.083c5.287 0 9.588-4.302 9.588-9.589v-14.306c0-5.287-4.301-9.589-9.588-9.589h-115.083c-5.287 0-9.588 4.302-9.588 9.589v14.307c0 5.286 4.3 9.588 9.588 9.588zm-4.588-23.895c0-2.53 2.059-4.589 4.588-4.589h115.083c2.529 0 4.588 2.059 4.588 4.589v14.307c0 2.53-2.059 4.589-4.588 4.589h-115.083c-2.529 0-4.588-2.059-4.588-4.589z"/><path d="m104.63 124.365c-.815.596-19.972 14.799-19.972 32.935s19.156 32.338 19.972 32.934c.439.321.957.481 1.475.481s1.035-.16 1.475-.481c.815-.596 19.971-14.798 19.971-32.934s-19.155-32.339-19.971-32.935c-.88-.642-2.071-.642-2.95 0zm17.92 32.935c0 10.889-8.665 20.607-13.945 25.518v-31.77c0-1.381-1.119-2.5-2.5-2.5s-2.5 1.119-2.5 2.5v31.771c-5.281-4.911-13.946-14.629-13.946-25.519 0-12.896 12.155-24.152 16.446-27.723 4.29 3.57 16.445 14.826 16.445 27.723z"/></g></g></svg>