<svg id="Layer_1" enable-background="new 0 0 256 256" height="512" viewBox="0 0 256 256" width="512" xmlns="http://www.w3.org/2000/svg"><g><path d="m197.362 151.379c-.466 0-.937-.13-1.356-.401-17.507-11.327-29.268-49.215-29.268-77.494 0-25.801 9.321-41.214 27.706-45.812 1.331-.335 2.696.479 3.032 1.819.335 1.34-.479 2.697-1.819 3.032-15.871 3.969-23.919 17.75-23.919 40.96 0 29.745 12.609 63.996 26.984 73.297 1.159.75 1.49 2.298.74 3.457-.478.74-1.28 1.142-2.1 1.142z" fill="#ebe7f2"/><path d="m108.273 191.217h-31.971c-11.847 0-20.773-15.022-26.176-27.625-5.942-13.863-10.093-30.929-10.093-41.501 0-1.381 1.119-2.5 2.5-2.5s2.5 1.119 2.5 2.5c0 20.157 15.696 64.126 31.269 64.126h31.972c1.381 0 2.5 1.119 2.5 2.5s-1.12 2.5-2.501 2.5z" fill="#ebe7f2"/><g fill="#846f75"><path d="m225.872 47.811c-6.02-14.284-17.94-21.526-35.431-21.526-18.165 0-39.819 8.188-39.819 47.199 0 32.188 15.882 80.85 39.819 80.85 10.518 0 20.67-9.845 28.586-27.72.297-.671.284-1.437-.034-2.097-.317-.66-.91-1.147-1.618-1.333-6.713-1.762-11.4-7.845-11.4-14.795 0-2.432.567-4.771 1.686-6.954.388-.757.364-1.658-.062-2.394s-1.196-1.204-2.046-1.244c-8.169-.384-14.568-7.085-14.568-15.255 0-8.412 6.826-15.26 15.23-15.294.055.003.114.005.155.005 1.283 0 2.358-.972 2.487-2.248.771-7.612 7.125-13.513 14.78-13.725.825-.022 1.586-.451 2.032-1.146.448-.694.523-1.563.203-2.323zm-21.654 14.541c-10.227 1.036-18.233 9.695-18.233 20.19 0 9.675 6.76 17.798 15.915 19.8-.615 1.948-.925 3.972-.925 6.047 0 8.225 4.95 15.535 12.343 18.678-6.766 14.191-15.024 22.267-22.876 22.267-18.426 0-34.819-42.416-34.819-75.85 0-28.001 11.715-42.199 34.819-42.199 13.974 0 23.838 5.189 29.375 15.439-7.755 1.665-13.94 7.789-15.599 15.628z"/><path d="m202.433 205.994v-45.651c0-1.381-1.119-2.5-2.5-2.5s-2.5 1.119-2.5 2.5v47.89c0 1.381 1.119 2.5 2.5 2.5 3.854 0 6.991 3.137 6.991 6.992 0 3.854-3.137 6.991-6.991 6.991s-6.991-3.137-6.991-6.991c0-1.381-1.119-2.5-2.5-2.5s-2.5 1.119-2.5 2.5c0 3.854-3.137 6.991-6.992 6.991-3.854 0-6.991-3.137-6.991-6.991 0-3.855 3.137-6.992 6.991-6.992 1.381 0 2.5-1.119 2.5-2.5v-47.89c0-1.381-1.119-2.5-2.5-2.5s-2.5 1.119-2.5 2.5v45.651c-5.416 1.153-9.491 5.976-9.491 11.73 0 6.612 5.379 11.991 11.991 11.991 3.858 0 7.297-1.831 9.492-4.671 2.194 2.84 5.633 4.671 9.491 4.671 6.612 0 11.991-5.379 11.991-11.991 0-5.754-4.075-10.577-9.491-11.73z"/><path d="m136.962 88.497c-5.688-2.946-11.821-4.44-18.23-4.44-7.669 0-15.184 2.257-21.622 6.423v-6.574c0-6.807 2.067-13.351 5.979-18.924.794-1.13.521-2.689-.609-3.482-1.132-.793-2.689-.521-3.482.609-4.506 6.419-6.888 13.956-6.888 21.797v6.574c-6.438-4.167-13.952-6.423-21.621-6.423-22.363 0-40.557 18.704-40.557 41.695 0 11.877 4.667 31.059 11.349 46.646 4.954 11.556 15.335 30.941 29.208 30.94l53.699.001c1.182 0 2.202-.828 2.446-1.984s-.355-2.325-1.437-2.803c-9.624-4.247-15.309-14.132-14.145-24.596.421-3.791 1.711-7.34 3.833-10.55.469-.709.546-1.607.203-2.386-.342-.778-1.056-1.329-1.896-1.462-12.667-2.015-21.48-13.567-20.065-26.302.708-6.367 3.854-12.078 8.856-16.08 4.982-3.986 11.215-5.802 17.57-5.115.055.01.12.021.156.024 1.293.167 2.488-.686 2.761-1.954 1.652-7.692 6.997-14.087 14.295-17.105.899-.372 1.501-1.231 1.543-2.203.043-.97-.483-1.879-1.346-2.326zm-18.833 18.447c-6.988-.282-13.758 1.922-19.268 6.329-6.046 4.836-9.847 11.737-10.702 19.432-1.579 14.199 7.363 27.184 20.775 31.022-1.517 3.03-2.473 6.272-2.851 9.677-1.069 9.61 2.642 18.816 9.591 24.935h-45.186c-8.038 0-17.009-10.173-24.612-27.911-6.342-14.794-10.944-33.583-10.944-44.676 0-20.233 15.95-36.695 35.557-36.695 8.189 0 16.183 2.943 22.508 8.287.932.787 2.295.787 3.227 0 6.325-5.344 14.319-8.287 22.509-8.287 3.904 0 7.691.634 11.312 1.891-5.718 3.74-9.962 9.399-11.916 15.996z"/></g><path d="m82.162 80.84c-5.051 0-10.732-.943-15.59-4.105-11.787-7.673-13.593-25.075-13.664-25.812-.112-1.161.594-2.245 1.7-2.613.704-.232 17.347-5.624 29.134 2.047.001 0 .001 0 .001.001 11.787 7.672 13.593 25.074 13.664 25.811.112 1.161-.594 2.245-1.7 2.613-.413.137-6.338 2.058-13.545 2.058zm-23.965-28.334c.813 4.479 3.485 15.08 11.104 20.039 7.617 4.957 18.391 3.112 22.817 2.041-.813-4.479-3.485-15.08-11.104-20.039-7.616-4.957-18.392-3.112-22.817-2.041z" fill="#a58bc9"/></g></svg>