<svg id="Layer_1" enable-background="new 0 0 256 256" height="512" viewBox="0 0 256 256" width="512" xmlns="http://www.w3.org/2000/svg"><g><path d="m127.678 189.1c-.695 0-1.358-.289-1.831-.798-2.354-2.533-57.65-62.65-57.65-116.32 0-32.798 26.683-59.481 59.481-59.481s59.481 26.684 59.481 59.481c0 53.67-55.296 113.787-57.65 116.32-.473.509-1.136.798-1.831.798zm0-171.6c-30.041 0-54.481 24.44-54.481 54.481 0 46.335 44.787 99.835 54.481 110.869 9.694-11.034 54.481-64.534 54.481-110.869 0-30.041-24.44-54.481-54.481-54.481z" fill="#846f75"/><g fill="#ed9abc"><path d="m148.161 46.172c-2.378 0-4.669.536-6.756 1.569-2.672-4.776-7.727-7.818-13.38-7.818s-10.708 3.042-13.38 7.818c-2.087-1.033-4.378-1.569-6.756-1.569-8.461 0-15.346 6.884-15.346 15.346 0 5.494 2.95 10.536 7.638 13.262v29.129c0 1.381 1.119 2.5 2.5 2.5h49.994c1.381 0 2.5-1.119 2.5-2.5v-28.758c5.047-2.604 8.332-7.88 8.332-13.634 0-8.461-6.884-15.345-15.346-15.345zm-42.98 55.236v-9.716h44.994v9.716zm46.614-30.217c-.975.366-1.621 1.299-1.621 2.34v13.161h-44.994v-13.438c0-.988-.582-1.883-1.484-2.284-3.738-1.662-6.153-5.372-6.153-9.452 0-5.705 4.641-10.346 10.346-10.346 2.316 0 4.512.758 6.35 2.192.646.505 1.498.659 2.279.417.782-.243 1.396-.854 1.643-1.635 1.366-4.32 5.33-7.224 9.864-7.224s8.499 2.903 9.864 7.224c.247.781.86 1.392 1.643 1.635.781.241 1.633.087 2.279-.417 1.838-1.435 4.034-2.192 6.35-2.192 5.705 0 10.346 4.641 10.346 10.346 0 4.277-2.697 8.165-6.712 9.673z"/><path d="m128 206.556c-16.586 0-29.579-8.766-29.579-19.956 0-2.946.909-5.776 2.702-8.411.777-1.142 2.333-1.437 3.474-.66s1.437 2.331.66 3.473c-1.218 1.79-1.836 3.674-1.836 5.599 0 8.107 11.256 14.956 24.579 14.956s24.579-6.849 24.579-14.956c0-2.13-.751-4.199-2.233-6.151-.835-1.1-.62-2.668.479-3.503s2.667-.62 3.503.479c2.127 2.802 3.251 5.974 3.251 9.175 0 11.189-12.993 19.955-29.579 19.955z"/><path d="m128 243.5c-47.913 0-86.894-25.525-86.894-56.9 0-18.423 13.644-35.771 36.496-46.404 1.253-.583 2.739-.039 3.321 1.212.583 1.252.04 2.739-1.212 3.321-21.042 9.792-33.605 25.444-33.605 41.871 0 28.618 36.737 51.9 81.894 51.9s81.894-23.282 81.894-51.9c0-16.579-12.747-32.316-34.098-42.099-1.255-.574-1.807-2.059-1.232-3.313.575-1.256 2.059-1.81 3.314-1.231 23.178 10.618 37.016 28.056 37.016 46.644 0 31.374-38.981 56.899-86.894 56.899z"/></g><path d="m128 224.224c-31.424 0-56.99-16.878-56.99-37.624 0-10.617 6.439-20.412 18.132-27.582 1.178-.722 2.716-.354 3.438.824.722 1.177.353 2.716-.825 3.438-10.154 6.227-15.746 14.509-15.746 23.32 0 17.989 23.322 32.624 51.99 32.624s51.99-14.635 51.99-32.624c0-8.826-5.898-17.423-16.182-23.585-1.184-.71-1.569-2.245-.859-3.43s2.246-1.568 3.43-.859c11.828 7.088 18.612 17.248 18.612 27.874 0 20.746-25.566 37.624-56.99 37.624z" fill="#ebe7f2"/></g></svg>