<svg id="Layer_1" enable-background="new 0 0 256 256" height="512" viewBox="0 0 256 256" width="512" xmlns="http://www.w3.org/2000/svg"><g><path d="m128 162.181c-14.218 0-25.785-11.567-25.785-25.786 0-14.218 11.567-25.785 25.785-25.785s25.785 11.567 25.785 25.785-11.567 25.786-25.785 25.786zm0-46.572c-11.461 0-20.785 9.324-20.785 20.785 0 11.462 9.324 20.786 20.785 20.786s20.785-9.324 20.785-20.786c0-11.46-9.324-20.785-20.785-20.785z" fill="#ebe7f2"/><path d="m188.067 133.895h-7.274c-1.271-27.159-23.134-49.02-50.293-50.291v-7.275c0-1.381-1.119-2.5-2.5-2.5s-2.5 1.119-2.5 2.5v19.425c0 1.381 1.119 2.5 2.5 2.5 21.032 0 38.143 17.11 38.143 38.142 0 1.381 1.119 2.5 2.5 2.5h19.424c1.381 0 2.5-1.119 2.5-2.5s-1.119-2.501-2.5-2.501zm-57.567-40.564v-4.726c24.401 1.262 44.025 20.888 45.287 45.289h-4.724c-1.252-21.799-18.762-39.311-40.563-40.563z" fill="#a58bc9"/><g fill="#846f75"><path d="m236.376 81.237c0-17.051-9.887-30.922-22.04-30.922s-22.04 13.871-22.04 30.922c0 15.864 8.561 28.969 19.54 30.717v91.23c0 1.381 1.119 2.5 2.5 2.5s2.5-1.119 2.5-2.5v-91.23c10.98-1.747 19.54-14.852 19.54-30.717zm-22.039 25.922c-9.396 0-17.04-11.629-17.04-25.922s7.644-25.922 17.04-25.922 17.04 11.629 17.04 25.922-7.645 25.922-17.04 25.922z"/><path d="m61.203 50.315c-1.381 0-2.5 1.119-2.5 2.5v34.804h-14.571c.013-.102.031-.202.031-.307v-34.497c0-1.381-1.119-2.5-2.5-2.5s-2.5 1.119-2.5 2.5v34.497c0 .105.018.205.031.307h-14.57v-34.804c0-1.381-1.119-2.5-2.5-2.5s-2.5 1.119-2.5 2.5v37.304c0 11.308 8.56 20.648 19.54 21.894v91.171c0 1.381 1.119 2.5 2.5 2.5s2.5-1.119 2.5-2.5v-91.171c10.979-1.246 19.54-10.586 19.54-21.894v-37.304c-.001-1.38-1.12-2.5-2.501-2.5zm-19.54 56.844c-8.544 0-15.619-6.329-16.835-14.54h33.671c-1.216 8.212-8.291 14.54-16.836 14.54z"/><path d="m128 73.828c-34.5 0-62.567 28.067-62.567 62.566 0 34.5 28.067 62.567 62.567 62.567s62.567-28.067 62.567-62.567c0-34.498-28.067-62.566-62.567-62.566zm2.5 120.07v-16.861c0-1.381-1.119-2.5-2.5-2.5s-2.5 1.119-2.5 2.5v16.861c-29.757-1.279-53.724-25.247-55.003-55.004h16.861c1.381 0 2.5-1.119 2.5-2.5s-1.119-2.5-2.5-2.5h-16.861c1.314-30.585 26.599-55.066 57.503-55.066 31.743 0 57.567 25.824 57.567 57.566 0 30.905-24.481 56.19-55.067 57.504z"/><path d="m130.5 127.362v-18.693c0-1.381-1.119-2.5-2.5-2.5s-2.5 1.119-2.5 2.5v18.693c-3.962 1.098-6.882 4.726-6.882 9.032 0 5.173 4.208 9.382 9.382 9.382s9.382-4.209 9.382-9.382c0-4.306-2.92-7.934-6.882-9.032zm-2.5 13.414c-2.416 0-4.382-1.966-4.382-4.382s1.966-4.381 4.382-4.381 4.382 1.965 4.382 4.381-1.966 4.382-4.382 4.382z"/></g></g></svg>