<svg id="Layer_1" enable-background="new 0 0 256 256" height="512" viewBox="0 0 256 256" width="512" xmlns="http://www.w3.org/2000/svg"><g><path d="m216.383 114.71h-176.766c-1.381 0-2.5-1.119-2.5-2.5s1.119-2.5 2.5-2.5h176.766c1.381 0 2.5 1.119 2.5 2.5s-1.119 2.5-2.5 2.5z" fill="#ebe7f2"/><g fill="#846f75"><path d="m216.383 93.49h-176.766c-1.381 0-2.5 1.119-2.5 2.5v104.113c0 1.381 1.119 2.5 2.5 2.5h176.766c1.381 0 2.5-1.119 2.5-2.5v-104.113c0-1.381-1.119-2.5-2.5-2.5zm-2.5 104.113h-29.084v-53.032c0-1.381-1.119-2.5-2.5-2.5s-2.5 1.119-2.5 2.5v53.032h-31.199v-53.032c0-1.381-1.119-2.5-2.5-2.5s-2.5 1.119-2.5 2.5v53.032h-31.2v-53.032c0-1.381-1.119-2.5-2.5-2.5s-2.5 1.119-2.5 2.5v53.032h-31.199v-53.032c0-1.381-1.119-2.5-2.5-2.5s-2.5 1.119-2.5 2.5v53.032h-29.084v-99.113h171.766z"/><path d="m59.85 207.603c-1.381 0-2.5 1.119-2.5 2.5v11.797c0 1.407-1.145 2.552-2.552 2.552s-2.552-1.145-2.552-2.552v-11.797c0-1.381-1.119-2.5-2.5-2.5s-2.5 1.119-2.5 2.5v11.797c0 4.164 3.388 7.552 7.552 7.552s7.552-3.388 7.552-7.552v-11.797c0-1.381-1.12-2.5-2.5-2.5z"/><path d="m206.254 207.603c-1.381 0-2.5 1.119-2.5 2.5v11.797c0 1.407-1.145 2.552-2.552 2.552s-2.552-1.145-2.552-2.552v-11.797c0-1.381-1.119-2.5-2.5-2.5s-2.5 1.119-2.5 2.5v11.797c0 4.164 3.388 7.552 7.552 7.552s7.552-3.388 7.552-7.552v-11.797c0-1.381-1.119-2.5-2.5-2.5z"/></g><g fill="#ed9abc"><g><path d="m199.56 79.604h-37.57c-1.76 0-3.252 1.141-3.715 2.838-.462 1.698.246 3.438 1.762 4.33l5.729 3.372c1.19.702 2.723.304 3.423-.886s.304-2.722-.886-3.422l-2.092-1.231h29.129l-2.092 1.231c-1.189.7-1.586 2.232-.886 3.422.466.792 1.3 1.232 2.156 1.232.432 0 .868-.112 1.267-.346l5.728-3.371c1.517-.893 2.225-2.633 1.763-4.331-.464-1.697-1.957-2.838-3.716-2.838z"/><path d="m199.56 66.719h-37.57c-1.76 0-3.252 1.141-3.715 2.838-.462 1.698.246 3.438 1.762 4.33l5.729 3.372c1.19.702 2.723.304 3.423-.886s.304-2.722-.886-3.422l-2.092-1.231h29.129l-2.092 1.231c-1.189.7-1.586 2.232-.886 3.422.466.792 1.3 1.232 2.156 1.232.432 0 .868-.112 1.267-.346l5.728-3.371c1.517-.893 2.225-2.633 1.763-4.331-.464-1.697-1.957-2.838-3.716-2.838z"/><path d="m160.036 61.002 5.729 3.372c1.19.702 2.723.304 3.423-.886s.304-2.722-.886-3.422l-2.092-1.231h29.129l-2.092 1.231c-1.189.7-1.586 2.232-.886 3.422.466.792 1.3 1.232 2.156 1.232.432 0 .868-.112 1.267-.346l5.728-3.371c1.517-.892 2.225-2.632 1.763-4.33-.463-1.698-1.955-2.839-3.715-2.839h-37.57c-1.76 0-3.252 1.141-3.715 2.839-.462 1.698.246 3.438 1.761 4.329z"/></g><path d="m141.227 53.834h-5.696c-1.161-10.284-9.903-18.307-20.492-18.307h-16.196v-3.979h1.989c1.381 0 2.5-1.119 2.5-2.5s-1.119-2.5-2.5-2.5h-8.979c-1.381 0-2.5 1.119-2.5 2.5s1.119 2.5 2.5 2.5h1.989v3.979h-16.194c-10.59 0-19.333 8.022-20.493 18.307h-5.696c-1.381 0-2.5 1.119-2.5 2.5s1.119 2.5 2.5 2.5h5.556v29.156c0 1.381 1.119 2.5 2.5 2.5s2.5-1.119 2.5-2.5v-3.385h68.656v3.385c0 1.381 1.119 2.5 2.5 2.5s2.5-1.119 2.5-2.5v-29.156h5.556c1.381 0 2.5-1.119 2.5-2.5s-1.12-2.5-2.5-2.5zm-63.579-13.307h37.39c7.828 0 14.311 5.789 15.44 13.307h-68.271c1.13-7.518 7.614-13.307 15.441-13.307zm52.777 18.307c-1.274 7.348-7.68 12.959-15.387 12.959h-37.39c-7.707 0-14.114-5.611-15.388-12.959zm-68.41 20.77v-10.016c3.787 4.402 9.385 7.205 15.634 7.205h37.39c6.249 0 11.846-2.803 15.633-7.205v10.016z"/></g></g></svg>