<svg id="Layer_1" enable-background="new 0 0 256 256" height="512" viewBox="0 0 256 256" width="512" xmlns="http://www.w3.org/2000/svg"><g><g fill="#ed9abc"><path d="m49.4 171.474c-5.324 0-9.655-4.331-9.655-9.655v-33.766c0-1.381 1.119-2.5 2.5-2.5s2.5 1.119 2.5 2.5v33.766c0 2.567 2.088 4.655 4.655 4.655s4.655-2.088 4.655-4.655v-26.346c0-1.381 1.119-2.5 2.5-2.5s2.5 1.119 2.5 2.5v26.346c0 5.324-4.331 9.655-9.655 9.655z"/><path d="m134.939 171.474c-5.324 0-9.655-4.331-9.655-9.655v-33.766c0-1.381 1.119-2.5 2.5-2.5s2.5 1.119 2.5 2.5v33.766c0 2.567 2.088 4.655 4.655 4.655 2.566 0 4.654-2.088 4.654-4.655v-18.633c0-1.381 1.119-2.5 2.5-2.5s2.5 1.119 2.5 2.5v18.633c.001 5.324-4.33 9.655-9.654 9.655z"/><path d="m109.768 166.25c-5.484 0-9.946-4.461-9.946-9.946v-9.574c0-3.065-2.493-5.558-5.558-5.558h-.758c-1.283 0-2.489.5-3.396 1.407s-1.406 2.114-1.405 3.396c.002 2.898-1.125 5.623-3.173 7.673s-4.772 3.179-7.67 3.179h-.216c-2.981 0-5.781-1.154-7.882-3.249s-3.258-4.884-3.257-7.853l.001-7.054c0-1.381 1.119-2.5 2.5-2.5s2.5 1.119 2.5 2.5l-.001 7.055c0 1.63.634 3.161 1.788 4.311 1.158 1.154 2.703 1.79 4.352 1.79h.216c1.562 0 3.03-.608 4.133-1.713 1.104-1.105 1.711-2.573 1.71-4.135-.002-2.619 1.017-5.082 2.868-6.935 1.852-1.853 4.313-2.873 6.933-2.873h.758c5.822 0 10.558 4.736 10.558 10.558v9.574c0 2.727 2.219 4.946 4.946 4.946 1.326 0 2.57-.517 3.505-1.455.933-.936 1.445-2.179 1.44-3.501-.04-12.915.126-35.57.127-35.797.01-1.375 1.127-2.481 2.5-2.481h.019c1.38.01 2.492 1.138 2.481 2.519-.002.227-.167 22.856-.127 35.745.008 2.66-1.021 5.163-2.899 7.046-1.88 1.886-4.383 2.925-7.047 2.925z"/></g><g fill="#846f75"><path d="m74.923 132.977c27.851 0 50.508-22.658 50.508-50.508s-22.657-50.509-50.508-50.509c-27.85 0-50.508 22.658-50.508 50.508s22.658 50.509 50.508 50.509zm-2.5-5.072c-10.668-.581-20.366-4.853-27.844-11.558l27.844-27.844zm5-39.401 27.844 27.844c-7.478 6.704-17.176 10.977-27.844 11.558zm0-51.472c10.668.581 20.366 4.853 27.844 11.558l-27.844 27.844zm-5 39.401-27.843-27.843c7.478-6.704 17.176-10.977 27.844-11.558v39.401zm-31.379 36.38c-6.704-7.478-10.977-17.176-11.557-27.844h39.401zm67.759-.001-27.844-27.843h39.401c-.581 10.667-4.853 20.365-11.557 27.843zm11.557-32.843h-39.401l27.844-27.844c6.704 7.478 10.976 17.176 11.557 27.844zm-79.316-27.844 27.844 27.844h-39.401c.581-10.668 4.853-20.366 11.557-27.844z"/><path d="m196.427 195.897h-1.49v-6.079c0-6.109-4.97-11.079-11.079-11.079h-133.034c-6.109 0-11.079 4.97-11.079 11.079v6.079h-1.259c-7.759 0-14.071 6.313-14.071 14.071s6.312 14.071 14.071 14.071h157.941c7.759 0 14.071-6.313 14.071-14.071s-6.312-14.071-14.071-14.071zm-151.682-6.079c0-3.352 2.727-6.079 6.079-6.079h133.035c3.352 0 6.079 2.727 6.079 6.079v6.079h-145.193zm151.682 29.222h-157.941c-5.001 0-9.071-4.069-9.071-9.071s4.069-9.071 9.071-9.071h157.941c5.001 0 9.071 4.069 9.071 9.071s-4.069 9.071-9.071 9.071z"/><path d="m229.452 64.151-28.264-28.264c-2.839-2.839-7.459-2.839-10.298 0l-34.338 34.338c-5.459 5.458-5.459 14.34 0 19.799l.702.702-18.274 18.275-.429-.429c-3.04-3.04-7.986-3.04-11.026 0-1.473 1.473-2.284 3.431-2.284 5.513 0 2.083.812 4.041 2.284 5.514l18.112 18.113c1.473 1.473 3.431 2.284 5.514 2.284s4.041-.811 5.514-2.284c3.04-3.041 3.04-7.987 0-11.026l-.326-.326 18.274-18.274.702.702c2.644 2.645 6.16 4.101 9.899 4.101 3.74 0 7.255-1.457 9.899-4.101l34.338-34.338c1.375-1.375 2.133-3.204 2.133-5.149.001-1.946-.757-3.774-2.132-5.15zm-76.324 70.026c-1.058 1.057-2.899 1.057-3.956 0l-18.113-18.113c-.528-.528-.819-1.23-.819-1.978s.291-1.449.819-1.978c.545-.545 1.262-.818 1.978-.818s1.433.272 1.978.817l18.113 18.113c1.091 1.092 1.091 2.866 0 3.957zm72.789-63.262-34.339 34.338c-1.7 1.7-3.959 2.636-6.364 2.636-2.404 0-4.664-.937-6.364-2.636l-2.47-2.47c-.938-.938-2.598-.938-3.535 0l-19.991 19.991-10.288-10.288 19.99-19.991c.977-.976.977-2.559 0-3.535l-2.47-2.47c-1.7-1.7-2.636-3.96-2.636-6.364s.937-4.664 2.636-6.364l34.338-34.338c.89-.89 2.338-.89 3.228 0l28.264 28.264c.89.889.89 2.336.001 3.227z"/></g><path d="m187.914 97.827c-.64 0-1.28-.244-1.768-.732l-18.004-18.004c-.977-.976-.977-2.559 0-3.535l26.829-26.829c.976-.977 2.56-.977 3.535 0l18.004 18.003c.977.976.977 2.559 0 3.535l-26.829 26.829c-.488.489-1.128.733-1.767.733zm-14.469-20.504 14.468 14.468 23.293-23.293-14.467-14.468z" fill="#ebe7f2"/></g></svg>