<svg id="Layer_1" enable-background="new 0 0 256 256" height="512" viewBox="0 0 256 256" width="512" xmlns="http://www.w3.org/2000/svg"><g><g><path d="m129.001 208.822c-22.366 0-40.563-18.196-40.563-40.562s18.196-40.563 40.563-40.563 40.563 18.196 40.563 40.563-18.197 40.562-40.563 40.562zm0-76.124c-19.609 0-35.563 15.953-35.563 35.563 0 19.609 15.953 35.562 35.563 35.562s35.563-15.953 35.563-35.562c-.001-19.61-15.954-35.563-35.563-35.563z" fill="#65c1d6"/></g><g><path d="m214.598 219.468c-1.381 0-2.5-1.119-2.5-2.5v-104.71c0-1.381 1.119-2.5 2.5-2.5s2.5 1.119 2.5 2.5v104.71c0 1.381-1.119 2.5-2.5 2.5z" fill="#ebe7f2"/></g><g><path d="m50.792 216.763h-10.333c-5.127 0-9.8-2.377-12.819-6.521s-3.849-9.321-2.276-14.201c.423-1.314 1.832-2.036 3.146-1.613s2.036 1.832 1.613 3.146c-1.077 3.342-.508 6.886 1.559 9.724s5.267 4.465 8.777 4.465h10.333c3.511 0 6.71-1.627 8.777-4.465s2.636-6.382 1.559-9.724c-.423-1.314.299-2.723 1.613-3.146 1.316-.422 2.723.298 3.146 1.613 1.572 4.88.743 10.057-2.276 14.201s-7.692 6.521-12.819 6.521z" fill="#ebe7f2"/></g><g fill="#846f75"><path d="m129.001 109.757c-32.259 0-58.503 26.244-58.503 58.503s26.244 58.503 58.503 58.503 58.503-26.244 58.503-58.503-26.244-58.503-58.503-58.503zm0 112.006c-29.501 0-53.503-24.001-53.503-53.503s24.001-53.503 53.503-53.503 53.503 24.001 53.503 53.503-24.001 53.503-53.503 53.503z"/><path d="m118.877 94.673h2.998v9.879c0 1.381 1.119 2.5 2.5 2.5s2.5-1.119 2.5-2.5v-9.879h4.25v9.879c0 1.381 1.119 2.5 2.5 2.5s2.5-1.119 2.5-2.5v-9.879h2.998c1.381 0 2.5-1.119 2.5-2.5v-60.436c0-1.381-1.119-2.5-2.5-2.5h-20.247c-1.381 0-2.5 1.119-2.5 2.5v60.437c.001 1.38 1.121 2.499 2.501 2.499zm2.5-60.436h15.247v55.437h-15.247z"/><path d="m194.351 107.053c1.381 0 2.5-1.119 2.5-2.5v-70.316h15.247v70.316c0 1.381 1.119 2.5 2.5 2.5s2.5-1.119 2.5-2.5v-72.816c0-1.381-1.119-2.5-2.5-2.5h-20.247c-1.381 0-2.5 1.119-2.5 2.5v72.816c0 1.381 1.119 2.5 2.5 2.5z"/><path d="m231.383 109.757h-37.032c-1.381 0-2.5 1.119-2.5 2.5v112.006c0 1.381 1.119 2.5 2.5 2.5 21.798 0 39.532-17.734 39.532-39.532v-74.974c0-1.381-1.119-2.5-2.5-2.5zm-2.5 77.474c0 18.201-14.153 33.158-32.032 34.443v-106.917h32.032z"/><path d="m201.974 42.155v3.21c0 1.381 1.119 2.5 2.5 2.5s2.5-1.119 2.5-2.5v-3.21c0-1.381-1.119-2.5-2.5-2.5s-2.5 1.119-2.5 2.5z"/><path d="m129.001 47.866c1.381 0 2.5-1.119 2.5-2.5v-3.21c0-1.381-1.119-2.5-2.5-2.5s-2.5 1.119-2.5 2.5v3.21c0 1.381 1.119 2.5 2.5 2.5z"/><path d="m43.125 42.155v3.21c0 1.381 1.119 2.5 2.5 2.5s2.5-1.119 2.5-2.5v-3.21c0-1.381-1.119-2.5-2.5-2.5s-2.5 1.119-2.5 2.5z"/><path d="m38.563 156.06c1.38-.034 2.472-1.18 2.438-2.561l-2.937-119.262h15.122l-2.936 119.262c-.034 1.38 1.057 2.527 2.437 2.561.021 0 .042.001.063.001 1.353 0 2.465-1.079 2.498-2.438l3-121.823c.017-.673-.239-1.325-.709-1.808-.471-.482-1.116-.754-1.79-.754h-20.247c-.674 0-1.319.272-1.79.754-.47.482-.726 1.134-.709 1.808l3 121.823c.033 1.379 1.156 2.462 2.56 2.437z"/><path d="m54.646 161.418c-.333-1.033-1.294-1.733-2.379-1.733h-13.283c-1.085 0-2.047.7-2.379 1.733l-13.626 42.294c-1.749 5.429-.826 11.187 2.532 15.797s8.556 7.254 14.259 7.254h11.71c5.704 0 10.901-2.644 14.259-7.254s4.281-10.368 2.532-15.797zm7.052 55.147c-2.406 3.304-6.131 5.198-10.218 5.198h-11.71c-4.087 0-7.812-1.895-10.218-5.198-2.407-3.304-3.068-7.43-1.815-11.32l13.068-40.561h9.64l13.068 40.561c1.253 3.89.592 8.016-1.815 11.32z"/></g></g></svg>