<svg id="Layer_1" enable-background="new 0 0 256 256" height="512" viewBox="0 0 256 256" width="512" xmlns="http://www.w3.org/2000/svg"><g><path d="m98.642 38.798h-40.498c-1.381 0-2.5-1.119-2.5-2.5s1.119-2.5 2.5-2.5h40.498c1.381 0 2.5 1.119 2.5 2.5s-1.12 2.5-2.5 2.5z" fill="#ebe7f2"/><path d="m98.642 220.403h-40.498c-1.381 0-2.5-1.119-2.5-2.5v-106.508c0-1.381 1.119-2.5 2.5-2.5h40.498c1.381 0 2.5 1.119 2.5 2.5v106.509c0 1.38-1.12 2.499-2.5 2.499zm-37.998-5h35.498v-101.508h-35.498z" fill="#a58bc9"/><path d="m196.247 68.868h-38.499c-1.381 0-2.5-1.119-2.5-2.5s1.119-2.5 2.5-2.5h38.499c1.381 0 2.5 1.119 2.5 2.5s-1.119 2.5-2.5 2.5z" fill="#ebe7f2"/><g fill="#846f75"><path d="m101.878 80.714c-3.389-4.679-5.18-10.205-5.18-15.98v-9.439c0-1.381-1.119-2.5-2.5-2.5s-2.5 1.119-2.5 2.5v9.439c0 6.836 2.12 13.376 6.131 18.914l12.698 17.529c3.389 4.678 5.18 10.204 5.18 15.98v106.251c0 4.136-3.364 7.5-7.5 7.5h-59.63c-4.136 0-7.5-3.364-7.5-7.5v-106.251c0-5.777 1.791-11.303 5.18-15.98l12.699-17.53c4.01-5.537 6.13-12.077 6.13-18.913v-9.439c0-1.381-1.119-2.5-2.5-2.5s-2.5 1.119-2.5 2.5v9.439c0 5.776-1.791 11.302-5.18 15.98l-12.698 17.529c-4.011 5.537-6.131 12.077-6.131 18.914v106.251c0 6.893 5.607 12.5 12.5 12.5h59.63c6.893 0 12.5-5.607 12.5-12.5v-106.251c0-6.837-2.12-13.377-6.131-18.914z"/><path d="m58.144 47.794h40.498c1.381 0 2.5-1.119 2.5-2.5v-22.703c0-1.381-1.119-2.5-2.5-2.5h-40.498c-1.381 0-2.5 1.119-2.5 2.5v22.703c0 1.381 1.119 2.5 2.5 2.5zm2.5-22.703h35.498v17.703h-35.498z"/><path d="m204.314 105.753c-4.462-6.01-6.92-13.443-6.92-20.928 0-1.381-1.119-2.5-2.5-2.5s-2.5 1.119-2.5 2.5c0 8.551 2.808 17.042 7.905 23.909 9.43 12.701 14.623 28.407 14.623 44.225v70.45c0 4.136-3.364 7.5-7.5 7.5h-60.849c-4.136 0-7.5-3.364-7.5-7.5v-70.45c0-15.818 5.193-31.524 14.623-44.225 5.098-6.866 7.905-15.356 7.905-23.909 0-1.381-1.119-2.5-2.5-2.5s-2.5 1.119-2.5 2.5c0 7.486-2.458 14.918-6.92 20.928-10.065 13.557-15.608 30.321-15.608 47.206v70.45c0 6.893 5.607 12.5 12.5 12.5h60.849c6.893 0 12.5-5.607 12.5-12.5v-70.45c0-16.884-5.543-33.649-15.608-47.206z"/><path d="m157.749 77.411h38.499c1.381 0 2.5-1.119 2.5-2.5v-21.948c0-1.381-1.119-2.5-2.5-2.5h-38.499c-1.381 0-2.5 1.119-2.5 2.5v21.948c0 1.381 1.119 2.5 2.5 2.5zm2.5-21.948h33.499v16.948h-33.499z"/></g><path d="m217.422 203.916h-80.849c-1.381 0-2.5-1.119-2.5-2.5v-49.327c0-1.381 1.119-2.5 2.5-2.5h80.849c1.381 0 2.5 1.119 2.5 2.5v49.327c0 1.381-1.119 2.5-2.5 2.5zm-78.349-5h75.849v-44.327h-75.849z" fill="#a58bc9"/></g></svg>