<svg id="Layer_1" enable-background="new 0 0 256 256" height="512" viewBox="0 0 256 256" width="512" xmlns="http://www.w3.org/2000/svg"><g><path d="m70.134 88.356c-.64 0-1.279-.244-1.768-.732l-22.406-22.407c-.977-.976-.977-2.559 0-3.535.977-.977 2.559-.977 3.535 0l22.406 22.406c.977.976.977 2.559 0 3.535-.488.489-1.128.733-1.767.733z" fill="#ebe7f2"/><path d="m79.468 125.337h-46.511c-1.381 0-2.5-1.119-2.5-2.5s1.119-2.5 2.5-2.5h46.511c1.381 0 2.5 1.119 2.5 2.5s-1.119 2.5-2.5 2.5z" fill="#ebe7f2"/><path d="m56.213 217.489c-14.61 0-26.496-11.886-26.496-26.496 0-1.381 1.119-2.5 2.5-2.5s2.5 1.119 2.5 2.5c0 11.853 9.644 21.496 21.496 21.496s21.496-9.643 21.496-21.496c0-1.381 1.119-2.5 2.5-2.5s2.5 1.119 2.5 2.5c0 14.61-11.886 26.496-26.496 26.496z" fill="#ebe7f2"/><path d="m208.514 137.423c-9.926 0-18.001-8.075-18.001-18.001 0-1.381 1.119-2.5 2.5-2.5s2.5 1.119 2.5 2.5c0 7.169 5.832 13.001 13.001 13.001s13.001-5.832 13.001-13.001c0-1.381 1.119-2.5 2.5-2.5s2.5 1.119 2.5 2.5c0 9.926-8.076 18.001-18.001 18.001z" fill="#ebe7f2"/><path d="m161.57 137.423c-9.926 0-18.001-8.075-18.001-18.001 0-1.381 1.119-2.5 2.5-2.5s2.5 1.119 2.5 2.5c0 7.169 5.832 13.001 13.001 13.001s13.001-5.832 13.001-13.001c0-1.381 1.119-2.5 2.5-2.5s2.5 1.119 2.5 2.5c0 9.926-8.075 18.001-18.001 18.001z" fill="#ebe7f2"/><path d="m161.57 149.126c-11.453 0-20.771-9.318-20.771-20.771s9.318-20.772 20.771-20.772 20.771 9.318 20.771 20.772-9.318 20.771-20.771 20.771zm0-36.543c-8.696 0-15.771 7.075-15.771 15.772 0 8.696 7.075 15.771 15.771 15.771s15.771-7.075 15.771-15.771c.001-8.697-7.074-15.772-15.771-15.772z" fill="#ed9abc"/><g fill="#ebe7f2"><path d="m161.57 216.278c-9.767 0-17.713-7.946-17.713-17.713 0-1.381 1.119-2.5 2.5-2.5s2.5 1.119 2.5 2.5c0 7.01 5.703 12.713 12.713 12.713s12.713-5.703 12.713-12.713c0-1.381 1.119-2.5 2.5-2.5s2.5 1.119 2.5 2.5c0 9.768-7.946 17.713-17.713 17.713z"/><path d="m114.627 137.423c-9.925 0-18-8.075-18-18.001 0-1.381 1.119-2.5 2.5-2.5s2.5 1.119 2.5 2.5c0 7.169 5.832 13.001 13 13.001 7.169 0 13.001-5.832 13.001-13.001 0-1.381 1.119-2.5 2.5-2.5s2.5 1.119 2.5 2.5c0 9.926-8.075 18.001-18.001 18.001z"/><path d="m185.813 98.178c-10.084 0-18.287-8.204-18.287-18.287 0-1.381 1.119-2.5 2.5-2.5s2.5 1.119 2.5 2.5c0 7.327 5.961 13.287 13.287 13.287 7.327 0 13.288-5.96 13.288-13.287 0-1.381 1.119-2.5 2.5-2.5s2.5 1.119 2.5 2.5c0 10.083-8.205 18.287-18.288 18.287z"/><path d="m185.813 176.667c-10.112 0-18.34-8.228-18.34-18.34 0-1.381 1.119-2.5 2.5-2.5s2.5 1.119 2.5 2.5c0 7.356 5.984 13.34 13.34 13.34s13.341-5.984 13.341-13.34c0-1.381 1.119-2.5 2.5-2.5s2.5 1.119 2.5 2.5c-.001 10.113-8.228 18.34-18.341 18.34z"/><path d="m138.099 98.178c-10.084 0-18.287-8.204-18.287-18.287 0-1.381 1.119-2.5 2.5-2.5s2.5 1.119 2.5 2.5c0 7.327 5.961 13.287 13.287 13.287s13.287-5.96 13.287-13.287c0-1.381 1.119-2.5 2.5-2.5s2.5 1.119 2.5 2.5c0 10.083-8.203 18.287-18.287 18.287z"/><path d="m138.099 176.668c-10.113 0-18.341-8.228-18.341-18.341 0-1.381 1.119-2.5 2.5-2.5s2.5 1.119 2.5 2.5c0 7.356 5.984 13.341 13.341 13.341s13.341-5.985 13.341-13.341c0-1.381 1.119-2.5 2.5-2.5s2.5 1.119 2.5 2.5c-.001 10.113-8.228 18.341-18.341 18.341z"/></g><g fill="#846f75"><path d="m56.213 63.57c1.381 0 2.5-1.119 2.5-2.5v-30.552c0-1.381-1.119-2.5-2.5-2.5s-2.5 1.119-2.5 2.5v30.552c0 1.381 1.119 2.5 2.5 2.5z"/><path d="m58.713 171.644v-10.43c0-1.381-1.119-2.5-2.5-2.5s-2.5 1.119-2.5 2.5v10.43c-14.261 1.27-25.481 13.278-25.481 27.864 0 15.429 12.553 27.981 27.981 27.981s27.981-12.552 27.981-27.981c0-14.586-11.22-26.595-25.481-27.864zm-2.5 50.845c-12.672 0-22.981-10.31-22.981-22.981s10.31-22.981 22.981-22.981 22.981 10.309 22.981 22.981-10.309 22.981-22.981 22.981z"/><path d="m58.713 105.4v-11.718c0-1.381-1.119-2.5-2.5-2.5s-2.5 1.119-2.5 2.5v11.718c-14.261 1.27-25.481 13.278-25.481 27.864 0 1.381 1.119 2.5 2.5 2.5h22.981v11.601c0 1.381 1.119 2.5 2.5 2.5s2.5-1.119 2.5-2.5v-11.601h22.981c1.381 0 2.5-1.119 2.5-2.5 0-14.586-11.22-26.594-25.481-27.864zm-25.347 25.364c1.25-11.5 11.02-20.481 22.847-20.481s21.597 8.98 22.847 20.481z"/><path d="m208.514 107.583c-11.453 0-20.771 9.318-20.771 20.772s9.318 20.771 20.771 20.771 20.771-9.318 20.771-20.771-9.318-20.772-20.771-20.772zm0 36.543c-8.696 0-15.771-7.075-15.771-15.771 0-8.697 7.075-15.772 15.771-15.772s15.771 7.075 15.771 15.772c0 8.696-7.075 15.771-15.771 15.771z"/><path d="m161.57 186.438c-11.453 0-20.771 9.318-20.771 20.771s9.318 20.772 20.771 20.772 20.771-9.318 20.771-20.772-9.318-20.771-20.771-20.771zm0 36.544c-8.696 0-15.771-7.075-15.771-15.772 0-8.696 7.075-15.771 15.771-15.771s15.771 7.075 15.771 15.771c.001 8.697-7.074 15.772-15.771 15.772z"/><path d="m135.399 128.354c0-11.454-9.318-20.772-20.772-20.772-11.453 0-20.771 9.318-20.771 20.772s9.318 20.771 20.771 20.771c11.454.001 20.772-9.317 20.772-20.771zm-20.772 15.772c-8.696 0-15.771-7.075-15.771-15.771 0-8.697 7.075-15.772 15.771-15.772 8.697 0 15.772 7.075 15.772 15.772 0 8.696-7.075 15.771-15.772 15.771z"/><path d="m185.813 109.881c11.454 0 20.772-9.318 20.772-20.772s-9.318-20.771-20.772-20.771c-11.453 0-20.771 9.318-20.771 20.771s9.317 20.772 20.771 20.772zm0-36.543c8.697 0 15.772 7.075 15.772 15.771 0 8.697-7.075 15.772-15.772 15.772-8.696 0-15.771-7.075-15.771-15.772-.001-8.696 7.074-15.771 15.771-15.771z"/><path d="m185.813 146.828c-11.453 0-20.771 9.318-20.771 20.771s9.318 20.772 20.771 20.772c11.454 0 20.772-9.318 20.772-20.772s-9.318-20.771-20.772-20.771zm0 36.543c-8.696 0-15.771-7.075-15.771-15.772 0-8.696 7.075-15.771 15.771-15.771 8.697 0 15.772 7.075 15.772 15.771 0 8.697-7.075 15.772-15.772 15.772z"/><path d="m138.099 109.881c11.453 0 20.771-9.318 20.771-20.772s-9.318-20.771-20.771-20.771-20.771 9.318-20.771 20.771 9.318 20.772 20.771 20.772zm0-36.543c8.696 0 15.771 7.075 15.771 15.771 0 8.697-7.075 15.772-15.771 15.772s-15.771-7.075-15.771-15.772c-.001-8.696 7.074-15.771 15.771-15.771z"/><path d="m158.87 167.599c0-11.454-9.318-20.771-20.771-20.771s-20.771 9.318-20.771 20.771 9.318 20.772 20.771 20.772 20.771-9.318 20.771-20.772zm-20.771 15.772c-8.696 0-15.771-7.075-15.771-15.772 0-8.696 7.075-15.771 15.771-15.771s15.771 7.075 15.771 15.771c0 8.697-7.075 15.772-15.771 15.772z"/><path d="m142.928 32.49 6.249 4.872c6.287 4.901 9.894 12.285 9.894 20.258v9.202c0 1.381 1.119 2.5 2.5 2.5s2.5-1.119 2.5-2.5v-9.202c0-9.524-4.308-18.346-11.819-24.201l-6.249-4.872c-1.09-.848-2.659-.654-3.509.435-.849 1.088-.655 2.659.434 3.508z"/></g><path d="m76.287 163.713h-40.148c-5.196 0-9.424-4.228-9.424-9.424s4.228-9.424 9.424-9.424h40.148c5.196 0 9.424 4.228 9.424 9.424s-4.228 9.424-9.424 9.424zm-40.148-13.848c-2.439 0-4.424 1.985-4.424 4.424s1.984 4.424 4.424 4.424h40.148c2.439 0 4.424-1.985 4.424-4.424s-1.984-4.424-4.424-4.424z" fill="#ed9abc"/><path d="m56.213 96.182c-10.369 0-18.806-8.437-18.806-18.806s8.437-18.806 18.806-18.806 18.806 8.436 18.806 18.806-8.437 18.806-18.806 18.806zm0-32.612c-7.612 0-13.806 6.193-13.806 13.806s6.193 13.806 13.806 13.806 13.806-6.193 13.806-13.806c0-7.612-6.194-13.806-13.806-13.806z" fill="#ed9abc"/></g></svg>