<svg id="Layer_1" enable-background="new 0 0 256 256" height="512" viewBox="0 0 256 256" width="512" xmlns="http://www.w3.org/2000/svg"><g><path d="m128 162.982c-19.289 0-34.981-15.693-34.981-34.982s15.692-34.982 34.981-34.982 34.981 15.693 34.981 34.982-15.692 34.982-34.981 34.982zm0-64.964c-16.532 0-29.981 13.45-29.981 29.982s13.449 29.982 29.981 29.982 29.981-13.45 29.981-29.982-13.449-29.982-29.981-29.982z" fill="#f9b087"/><g fill="#846f75"><path d="m140.188 83.941c.977.977 2.559.977 3.535 0 8.925-8.923 24.399-9.023 29.921-8.741.281 5.527.18 20.999-8.741 29.921-.977.976-.977 2.559 0 3.535.488.488 1.128.732 1.768.732s1.279-.244 1.768-.732c12.677-12.677 10.134-35.136 10.02-36.086-.139-1.144-1.04-2.045-2.184-2.183-.95-.114-23.409-2.658-36.086 10.019-.978.976-.978 2.559-.001 3.535z"/><path d="m164.902 147.344c-.977.976-.977 2.559 0 3.535 8.922 8.923 9.022 24.396 8.741 29.921-5.529.28-21 .179-29.921-8.741-.977-.977-2.559-.977-3.535 0-.977.976-.977 2.559 0 3.535 8.911 8.911 22.653 10.301 30.363 10.301 3.259 0 5.44-.249 5.723-.283 1.144-.138 2.045-1.039 2.184-2.183.114-.95 2.657-23.409-10.02-36.086-.976-.976-2.558-.976-3.535.001z"/><path d="m236.048 126.457c-.591-.752-14.673-18.433-32.601-18.433-17.929 0-32.011 17.68-32.602 18.433-.711.906-.711 2.181 0 3.087.591.752 14.673 18.433 32.602 18.433 17.928 0 32.01-17.68 32.601-18.433.711-.907.711-2.181 0-3.087zm-32.601 16.519c-10.541 0-19.958-7.584-24.936-12.476h24.936c1.381 0 2.5-1.119 2.5-2.5s-1.119-2.5-2.5-2.5h-24.936c4.978-4.892 14.395-12.476 24.936-12.476 12.618 0 23.63 10.871 27.338 14.976-3.71 4.107-14.721 14.976-27.338 14.976z"/><path d="m115.813 172.059c-.977-.977-2.559-.977-3.535 0-8.925 8.924-24.399 9.02-29.921 8.741-.281-5.527-.18-20.999 8.741-29.921.977-.976.977-2.559 0-3.535-.977-.977-2.559-.977-3.535 0-12.677 12.677-10.134 35.136-10.02 36.086.139 1.144 1.04 2.045 2.184 2.183.282.034 2.463.283 5.723.283 7.711 0 21.453-1.391 30.363-10.301.976-.977.976-2.56 0-3.536z"/><path d="m89.33 109.389c.64 0 1.279-.244 1.768-.732.977-.976.977-2.559 0-3.535-8.922-8.923-9.022-24.396-8.741-29.921 5.527-.281 21-.179 29.921 8.741.977.977 2.559.977 3.535 0 .977-.976.977-2.559 0-3.535-12.678-12.678-35.137-10.133-36.086-10.019-1.144.138-2.045 1.039-2.184 2.183-.114.95-2.657 23.409 10.02 36.086.488.488 1.127.732 1.767.732z"/><path d="m85.154 129.543c.711-.906.711-2.181 0-3.087-.591-.752-14.673-18.433-32.602-18.433-17.928 0-32.01 17.68-32.601 18.433-.711.906-.711 2.181 0 3.087.591.752 14.673 18.433 32.601 18.433 17.929 0 32.011-17.68 32.602-18.433zm-59.939-1.543c3.71-4.107 14.721-14.976 27.338-14.976 10.541 0 19.958 7.584 24.936 12.476h-24.936c-1.381 0-2.5 1.119-2.5 2.5s1.119 2.5 2.5 2.5h24.936c-4.978 4.892-14.395 12.476-24.936 12.476-12.618 0-23.63-10.871-27.338-14.976z"/><path d="m129.544 172.646c-.906-.711-2.182-.711-3.088 0-.752.591-18.432 14.672-18.432 32.601 0 17.928 17.68 32.01 18.432 32.601.453.355.999.533 1.544.533s1.091-.178 1.544-.533c.752-.591 18.432-14.672 18.432-32.601s-17.68-32.01-18.432-32.601zm-1.544 59.939c-4.106-3.709-14.976-14.721-14.976-27.338 0-10.542 7.584-19.958 12.476-24.936v24.936c0 1.381 1.119 2.5 2.5 2.5s2.5-1.119 2.5-2.5v-24.936c4.891 4.978 12.476 14.394 12.476 24.936 0 12.618-10.871 23.63-14.976 27.338z"/><path d="m126.456 83.354c.453.355.999.533 1.544.533s1.091-.178 1.544-.533c.752-.591 18.432-14.672 18.432-32.601 0-17.928-17.68-32.01-18.432-32.601-.906-.711-2.182-.711-3.088 0-.752.591-18.432 14.672-18.432 32.601s17.68 32.01 18.432 32.601zm1.544-59.939c4.106 3.709 14.976 14.721 14.976 27.338 0 10.542-7.584 19.958-12.476 24.936v-24.936c0-1.381-1.119-2.5-2.5-2.5s-2.5 1.119-2.5 2.5v24.936c-4.891-4.978-12.476-14.394-12.476-24.936 0-12.618 10.871-23.63 14.976-27.338z"/><path d="m142.265 116.945-17.558 17.557-9.137-9.137c-.977-.977-2.559-.977-3.535 0-.977.976-.977 2.559 0 3.535l10.904 10.905c.469.469 1.104.732 1.768.732s1.299-.263 1.768-.732l19.325-19.325c.977-.976.977-2.559 0-3.535-.977-.977-2.559-.977-3.535 0z"/></g></g></svg>