<svg id="Layer_1" enable-background="new 0 0 256 256" height="512" viewBox="0 0 256 256" width="512" xmlns="http://www.w3.org/2000/svg"><g><path d="m92.349 91.689h-14.732c-1.381 0-2.5-1.119-2.5-2.5v-22.238c0-1.381 1.119-2.5 2.5-2.5h14.731c1.381 0 2.5 1.119 2.5 2.5v22.238c.001 1.381-1.119 2.5-2.499 2.5zm-12.232-5h9.731v-17.238h-9.731z" fill="#ebe7f2"/><g fill="#65c1d6"><path d="m188.03 48.926h-20.569c-2.254 0-4.088-1.834-4.088-4.088v-4.665c0-2.254 1.834-4.088 4.088-4.088h20.569c2.254 0 4.088 1.834 4.088 4.088v4.665c0 2.254-1.834 4.088-4.088 4.088zm-19.657-5h18.745v-2.841h-18.745z"/><path d="m182.588 77.615h-10.558c-1.381 0-2.5-1.119-2.5-2.5s1.119-2.5 2.5-2.5h10.558c1.381 0 2.5 1.119 2.5 2.5s-1.119 2.5-2.5 2.5z"/><path d="m85.669 178.288h-24.803c-1.381 0-2.5-1.119-2.5-2.5s1.119-2.5 2.5-2.5h24.803c1.381 0 2.5 1.119 2.5 2.5s-1.119 2.5-2.5 2.5z"/><path d="m84.892 166.402h-23.248c-1.381 0-2.5-1.119-2.5-2.5s1.119-2.5 2.5-2.5h23.248c1.381 0 2.5 1.119 2.5 2.5s-1.12 2.5-2.5 2.5z"/><path d="m186.181 199.412h-23.946c-1.381 0-2.5-1.119-2.5-2.5s1.119-2.5 2.5-2.5h23.946c1.381 0 2.5 1.119 2.5 2.5s-1.119 2.5-2.5 2.5z"/></g><path d="m184.278 209.67h-20.141c-1.381 0-2.5-1.119-2.5-2.5s1.119-2.5 2.5-2.5h20.141c1.381 0 2.5 1.119 2.5 2.5s-1.119 2.5-2.5 2.5z" fill="#ebe7f2"/><path d="m159.491 199.412h-23.946c-1.381 0-2.5-1.119-2.5-2.5s1.119-2.5 2.5-2.5h23.946c1.381 0 2.5 1.119 2.5 2.5s-1.119 2.5-2.5 2.5z" fill="#65c1d6"/><path d="m157.588 209.67h-20.141c-1.381 0-2.5-1.119-2.5-2.5s1.119-2.5 2.5-2.5h20.141c1.381 0 2.5 1.119 2.5 2.5s-1.119 2.5-2.5 2.5z" fill="#ebe7f2"/><path d="m172.836 172.723h-23.946c-1.381 0-2.5-1.119-2.5-2.5s1.119-2.5 2.5-2.5h23.946c1.381 0 2.5 1.119 2.5 2.5s-1.119 2.5-2.5 2.5z" fill="#65c1d6"/><path d="m170.934 182.98h-20.142c-1.381 0-2.5-1.119-2.5-2.5s1.119-2.5 2.5-2.5h20.142c1.381 0 2.5 1.119 2.5 2.5s-1.12 2.5-2.5 2.5z" fill="#ebe7f2"/><path d="m159.491 146.032h-23.946c-1.381 0-2.5-1.119-2.5-2.5s1.119-2.5 2.5-2.5h23.946c1.381 0 2.5 1.119 2.5 2.5s-1.119 2.5-2.5 2.5z" fill="#65c1d6"/><path d="m157.588 156.29h-20.141c-1.381 0-2.5-1.119-2.5-2.5s1.119-2.5 2.5-2.5h20.141c1.381 0 2.5 1.119 2.5 2.5s-1.119 2.5-2.5 2.5z" fill="#ebe7f2"/><path d="m146.146 172.723h-23.946c-1.381 0-2.5-1.119-2.5-2.5s1.119-2.5 2.5-2.5h23.945c1.381 0 2.5 1.119 2.5 2.5s-1.119 2.5-2.499 2.5z" fill="#65c1d6"/><path d="m144.243 182.98h-20.141c-1.381 0-2.5-1.119-2.5-2.5s1.119-2.5 2.5-2.5h20.141c1.381 0 2.5 1.119 2.5 2.5s-1.119 2.5-2.5 2.5z" fill="#ebe7f2"/><path d="m132.801 199.412h-23.946c-1.381 0-2.5-1.119-2.5-2.5s1.119-2.5 2.5-2.5h23.946c1.381 0 2.5 1.119 2.5 2.5s-1.119 2.5-2.5 2.5z" fill="#65c1d6"/><path d="m130.898 209.67h-20.142c-1.381 0-2.5-1.119-2.5-2.5s1.119-2.5 2.5-2.5h20.142c1.381 0 2.5 1.119 2.5 2.5s-1.119 2.5-2.5 2.5z" fill="#ebe7f2"/><g fill="#846f75"><path d="m202.312 96.461h-7.86c.002-.064.019-.124.019-.188v-35.131c0-.934-.278-1.834-.803-2.599l-4.173-6.119c-.779-1.141-2.333-1.435-3.475-.656-1.141.778-1.435 2.334-.656 3.475l4.106 6.021v35.01c0 .104-.085.188-.188.188h-23.072c-.104 0-.188-.085-.188-.188v-35.013l4.105-6.02c.778-1.141.484-2.695-.657-3.474-1.139-.777-2.694-.483-3.474.657l-4.173 6.117c-.524.769-.802 1.668-.802 2.6v35.131c0 .064.017.125.019.188h-13.841c.032-.246.055-.494.055-.748v-32.336c0-3.882-1.366-7.664-3.848-10.651-1.668-2.007-2.64-4.365-2.813-6.848l-1.537-19.465c.596-.863.911-1.873.911-2.92v-1.812c0-1.381-1.119-2.5-2.5-2.5h-10.855c-1.381 0-2.5 1.119-2.5 2.5v1.813c0 1.047.315 2.057.938 2.983l-1.714 21.551c-.097 1.39-.692 2.698-1.678 3.685-3.116 3.116-4.833 7.259-4.833 11.665v32.337c0 .254.022.502.055.748h-13.455c.023-.205.037-.412.037-.623v-31.425c0-5.401-4.33-9.812-9.702-9.938v-17.414c0-1.381-1.119-2.5-2.5-2.5s-2.5 1.119-2.5 2.5v19.911c0 1.381 1.119 2.5 2.5 2.5h2.261c2.725 0 4.941 2.217 4.941 4.941v31.424c0 .327-.267.594-.595.594h-25.863c-.328 0-.595-.267-.595-.594v-31.424c0-2.725 2.217-4.941 4.941-4.941h2.261c1.381 0 2.5-1.119 2.5-2.5v-19.911c0-1.381-1.119-2.5-2.5-2.5s-2.5 1.119-2.5 2.5v17.414c-5.372.127-9.702 4.537-9.702 9.938v31.424c0 .211.014.418.037.623h-12.758c-1.381 0-2.5 1.119-2.5 2.5v18.663c0 1.381 1.119 2.5 2.5 2.5h148.623c1.381 0 2.5-1.119 2.5-2.5v-18.663c.001-1.381-1.119-2.5-2.499-2.5zm-72.743-63.731h4.948l.317 3.933h-5.578zm5.012-8.55c-.413.822-.603 1.752-.536 2.695l.069.855h-4.147l.07-.885c.063-.909-.12-1.82-.531-2.666h5.075zm-12.755 39.196c0-3.07 1.196-5.958 3.369-8.13 1.838-1.84 2.949-4.28 3.128-6.848l.536-6.735h6.379l.37 4.589c.244 3.507 1.611 6.85 3.953 9.668 1.736 2.091 2.693 4.738 2.693 7.456v32.337c0 .396-.322.719-.719.719h-18.99c-.396 0-.719-.322-.719-.719zm77.986 51.748h-143.624v-13.663h143.623v13.663z"/><path d="m202.312 213.156h-16.066l3.779-24.912c.109-.721-.101-1.452-.576-2.005s-1.167-.87-1.896-.87h-14.487l3.614-23.814c.109-.721-.101-1.452-.576-2.005s-1.167-.87-1.896-.87h-14.487l3.614-23.815c.109-.721-.101-1.452-.576-2.005s-1.167-.87-1.896-.87h-26.69c-.729 0-1.421.317-1.896.87-.476.553-.686 1.284-.576 2.005l3.613 23.815h-14.486c-.729 0-1.421.317-1.896.87-.476.553-.686 1.284-.576 2.005l3.613 23.814h-14.487c-.729 0-1.421.317-1.896.87-.476.553-.686 1.284-.576 2.005l3.78 24.912h-33.022v-24.988c3.523-.581 6.762-2.356 9.128-5.103 2.918-3.387 4.213-7.865 3.552-12.286l-2.975-19.906c-.183-1.225-1.234-2.131-2.473-2.131h-19.464c-1.238 0-2.289.906-2.473 2.131l-2.976 19.906c-.66 4.422.635 8.9 3.553 12.287 2.367 2.746 5.605 4.521 9.127 5.102v24.988h-17.079c-1.381 0-2.5 1.119-2.5 2.5v18.664c0 1.381 1.119 2.5 2.5 2.5h148.623c1.381 0 2.5-1.119 2.5-2.5v-18.664c.001-1.381-1.119-2.5-2.499-2.5zm-136.883-33.353c-1.968-2.284-2.841-5.304-2.396-8.285l2.657-17.775h15.155l2.656 17.776c.446 2.98-.427 6-2.395 8.283-1.968 2.284-4.825 3.594-7.84 3.594-3.012 0-5.87-1.31-7.837-3.593zm92.526 10.566-3.291 21.69h-14.293l-3.29-21.69zm-11.578-5 1.141-7.523 1.142 7.523zm14.486 19.167 1.308 8.62h-2.616zm20.491 7.524h-14.293l-3.29-21.69h20.873zm-13.345-26.691h-14.292l-3.291-21.689h20.874zm-30.928-48.38h20.874l-3.291 21.69h-14.293zm-13.345 26.691h20.873l-3.29 21.689h-14.293zm7.529 26.689-3.29 21.69h-14.293l-3.291-21.69zm2.908 14.169 1.307 8.618h-2.615zm65.639 27.282h-143.624v-13.664h143.623v13.664z"/><path d="m76.695 32.515h16.575c3.269 0 5.928-2.659 5.928-5.928s-2.659-5.928-5.928-5.928h-16.575c-3.269 0-5.928 2.659-5.928 5.928s2.66 5.928 5.928 5.928zm0-6.856h16.575c.512 0 .928.416.928.928s-.416.928-.928.928h-16.575c-.512 0-.928-.416-.928-.928s.417-.928.928-.928z"/></g><path d="m144.754 94.214h-25.428c-1.381 0-2.5-1.119-2.5-2.5v-13.405c0-1.381 1.119-2.5 2.5-2.5h2.063v-2.755c0-5.873 4.778-10.651 10.651-10.651s10.651 4.778 10.651 10.651v2.755h2.063c1.381 0 2.5 1.119 2.5 2.5v13.405c0 1.381-1.119 2.5-2.5 2.5zm-22.928-5h20.428v-8.405h-2.063c-1.381 0-2.5-1.119-2.5-2.5v-5.255c0-3.116-2.535-5.651-5.651-5.651s-5.651 2.535-5.651 5.651v5.255c0 1.381-1.119 2.5-2.5 2.5h-2.063z" fill="#65c1d6"/></g></svg>