<svg id="Layer_1" enable-background="new 0 0 256 256" height="512" viewBox="0 0 256 256" width="512" xmlns="http://www.w3.org/2000/svg"><g><path d="m54.925 100.045c-1.381 0-2.5-1.119-2.5-2.5v-11.594c0-1.381 1.119-2.5 2.5-2.5s2.5 1.119 2.5 2.5v11.594c0 1.381-1.119 2.5-2.5 2.5z" fill="#ebe7f2"/><path d="m70.844 100.045c-1.381 0-2.5-1.119-2.5-2.5v-11.594c0-1.381 1.119-2.5 2.5-2.5s2.5 1.119 2.5 2.5v11.594c0 1.381-1.119 2.5-2.5 2.5z" fill="#ebe7f2"/><path d="m86.763 100.045c-1.381 0-2.5-1.119-2.5-2.5v-11.594c0-1.381 1.119-2.5 2.5-2.5s2.5 1.119 2.5 2.5v11.594c0 1.381-1.119 2.5-2.5 2.5z" fill="#ebe7f2"/><path d="m102.683 100.045c-1.381 0-2.5-1.119-2.5-2.5v-11.594c0-1.381 1.119-2.5 2.5-2.5s2.5 1.119 2.5 2.5v11.594c0 1.381-1.12 2.5-2.5 2.5z" fill="#ebe7f2"/><g fill="#f9b087"><path d="m62.977 184.031c-1.381 0-2.5-1.119-2.5-2.5v-66.492c0-1.381 1.119-2.5 2.5-2.5s2.5 1.119 2.5 2.5v66.492c0 1.381-1.119 2.5-2.5 2.5z"/><path d="m80.493 170.977c-1.381 0-2.5-1.119-2.5-2.5v-53.438c0-1.381 1.119-2.5 2.5-2.5s2.5 1.119 2.5 2.5v53.438c0 1.38-1.119 2.5-2.5 2.5z"/><path d="m98.009 184.031c-1.381 0-2.5-1.119-2.5-2.5v-66.492c0-1.381 1.119-2.5 2.5-2.5s2.5 1.119 2.5 2.5v66.492c0 1.381-1.119 2.5-2.5 2.5z"/><path d="m115.525 170.977c-1.381 0-2.5-1.119-2.5-2.5v-53.438c0-1.381 1.119-2.5 2.5-2.5s2.5 1.119 2.5 2.5v53.438c0 1.38-1.119 2.5-2.5 2.5z"/><path d="m133.042 184.031c-1.381 0-2.5-1.119-2.5-2.5v-66.492c0-1.381 1.119-2.5 2.5-2.5s2.5 1.119 2.5 2.5v66.492c0 1.381-1.12 2.5-2.5 2.5z"/></g><path d="m223.152 38.958h-24.981c-5.886 0-10.771 4.312-11.697 9.94l-2.758.798c-8.458 2.448-14.365 10.308-14.365 19.112v14.289c0 7.361-5.372 13.476-12.397 14.671v-11.817c0-1.381-1.119-2.5-2.5-2.5h-112.889c-1.381 0-2.5 1.119-2.5 2.5v29.088c0 1.381 1.119 2.5 2.5 2.5h4.428v79.338c-9.72.026-17.621 7.939-17.621 17.665 0 1.381 1.119 2.5 2.5 2.5h134.273c1.381 0 2.5-1.119 2.5-2.5 0-9.741-7.925-17.667-17.667-17.667h-.399v-79.336h4.875c1.381 0 2.5-1.119 2.5-2.5v-12.219c9.793-1.236 17.397-9.6 17.397-19.723v-14.288c0-6.593 4.423-12.477 10.755-14.31l1.646-.477c1.4 4.994 5.983 8.672 11.418 8.672h24.981c6.544 0 11.868-5.324 11.868-11.868s-5.323-11.868-11.867-11.868zm-60.754 173.084h-128.778c1.164-5.791 6.291-10.167 12.42-10.167h103.939c6.129 0 11.255 4.376 12.419 10.167zm-17.818-15.167h-93.587v-79.336h93.586v79.336zm7.374-84.336h-107.889v-24.088h107.889zm71.198-54.845h-24.981c-3.787 0-6.868-3.081-6.868-6.868s3.081-6.868 6.868-6.868h24.981c3.787 0 6.868 3.081 6.868 6.868s-3.081 6.868-6.868 6.868z" fill="#846f75"/><path d="m137.329 107.575h-18.02c-1.381 0-2.5-1.119-2.5-2.5v-7.53c0-1.381 1.119-2.5 2.5-2.5h18.02c1.381 0 2.5 1.119 2.5 2.5v7.53c0 1.381-1.119 2.5-2.5 2.5zm-15.52-5h13.02v-2.53h-13.02z" fill="#f9b087"/><path d="m33.162 114.03h-9.682c-1.381 0-2.5-1.119-2.5-2.5v-20.44c0-1.381 1.119-2.5 2.5-2.5h9.682c1.381 0 2.5 1.119 2.5 2.5s-1.119 2.5-2.5 2.5h-7.182v15.44h7.182c1.381 0 2.5 1.119 2.5 2.5s-1.119 2.5-2.5 2.5z" fill="#f9b087"/><path d="m145.453 78.678c-1.381 0-2.5-1.119-2.5-2.5v-.105c0-3.991-1.841-7.638-5.052-10.003-3.219-2.371-7.26-3.05-11.082-1.863-1.584.492-3.249.731-5.089.731-6.951 0-10.489-3.464-13.611-6.52-2.791-2.732-5.202-5.092-10.113-5.092-4.91 0-7.32 2.359-10.111 5.092-3.122 3.056-6.659 6.52-13.609 6.52-1.834 0-3.497-.238-5.082-.729-3.828-1.188-7.868-.508-11.087 1.864-3.209 2.365-5.05 6.01-5.05 10 0 1.381-1.119 2.5-2.5 2.5s-2.5-1.119-2.5-2.5c0-5.596 2.582-10.708 7.084-14.025 4.511-3.324 10.172-4.276 15.532-2.615 1.098.34 2.277.505 3.603.505 4.91 0 7.32-2.359 10.111-5.092 3.122-3.056 6.659-6.52 13.609-6.52 6.951 0 10.489 3.464 13.611 6.52 2.791 2.732 5.202 5.092 10.113 5.092 1.33 0 2.509-.166 3.606-.507 5.359-1.661 11.019-.71 15.531 2.613 4.503 3.318 7.086 8.431 7.086 14.028v.105c0 1.382-1.119 2.501-2.5 2.501z" fill="#f9b087"/></g></svg>