<svg id="Layer_1" enable-background="new 0 0 256 256" height="512" viewBox="0 0 256 256" width="512" xmlns="http://www.w3.org/2000/svg"><g><path d="m128 231.325c-56.974 0-103.325-46.352-103.325-103.325s46.351-103.325 103.325-103.325 103.325 46.351 103.325 103.325-46.351 103.325-103.325 103.325zm0-201.65c-54.217 0-98.325 44.108-98.325 98.325s44.108 98.325 98.325 98.325 98.325-44.108 98.325-98.325-44.108-98.325-98.325-98.325z" fill="#a58bc9"/><path d="m128 43.302c-46.703 0-84.698 37.995-84.698 84.698s37.995 84.698 84.698 84.698 84.698-37.995 84.698-84.698-37.995-84.698-84.698-84.698zm58.045 139.227-52.02-52.02h73.609c-.625 20.089-8.713 38.321-21.589 52.02zm-137.68-52.02h73.591l-52.01 52.01c-12.871-13.697-20.955-31.925-21.581-52.01zm21.572-57.019 52.018 52.019h-73.59c.621-20.088 8.702-38.319 21.572-52.019zm60.554-25.125c20.092.621 38.327 8.706 52.028 21.581l-52.028 52.028zm-5 73.609-52.02-52.02c13.698-12.876 31.93-20.963 52.02-21.589zm0 12.07v73.59c-20.085-.626-38.313-8.709-52.01-21.58zm5 .001 52.018 52.019c-13.7 12.87-31.931 20.95-52.018 21.572zm3.536-8.536 52.028-52.028c12.875 13.701 20.959 31.936 21.581 52.028z" fill="#846f75"/><g fill="#ebe7f2"><path d="m143.796 73.267c-4.827 0-8.754-3.927-8.754-8.754 0-4.826 3.927-8.753 8.754-8.753s8.753 3.927 8.753 8.753c0 4.827-3.926 8.754-8.753 8.754zm0-12.507c-2.07 0-3.754 1.684-3.754 3.753 0 2.07 1.684 3.754 3.754 3.754s3.753-1.684 3.753-3.754-1.683-3.753-3.753-3.753z"/><path d="m150.049 93.733c-4.827 0-8.753-3.927-8.753-8.753 0-4.827 3.927-8.754 8.753-8.754 4.827 0 8.754 3.927 8.754 8.754s-3.927 8.753-8.754 8.753zm0-12.506c-2.07 0-3.753 1.684-3.753 3.754 0 2.069 1.684 3.753 3.753 3.753s3.754-1.684 3.754-3.753c0-2.071-1.684-3.754-3.754-3.754z"/><path d="m105.951 179.773c-4.827 0-8.754-3.927-8.754-8.754 0-4.826 3.927-8.753 8.754-8.753s8.753 3.927 8.753 8.753c0 4.828-3.927 8.754-8.753 8.754zm0-12.506c-2.07 0-3.754 1.684-3.754 3.753 0 2.07 1.684 3.754 3.754 3.754s3.753-1.684 3.753-3.754-1.683-3.753-3.753-3.753z"/><path d="m112.204 200.24c-4.827 0-8.753-3.927-8.753-8.753 0-4.827 3.927-8.754 8.753-8.754 4.827 0 8.754 3.927 8.754 8.754 0 4.826-3.927 8.753-8.754 8.753zm0-12.507c-2.07 0-3.753 1.684-3.753 3.754 0 2.069 1.684 3.753 3.753 3.753s3.754-1.684 3.754-3.753c0-2.07-1.684-3.754-3.754-3.754z"/><path d="m191.487 152.55c-4.827 0-8.754-3.927-8.754-8.754s3.927-8.754 8.754-8.754 8.754 3.927 8.754 8.754-3.927 8.754-8.754 8.754zm0-12.508c-2.07 0-3.754 1.684-3.754 3.754s1.684 3.754 3.754 3.754 3.754-1.684 3.754-3.754-1.684-3.754-3.754-3.754z"/><path d="m171.02 158.804c-4.827 0-8.754-3.927-8.754-8.754s3.927-8.754 8.754-8.754 8.754 3.927 8.754 8.754-3.927 8.754-8.754 8.754zm0-12.508c-2.07 0-3.754 1.684-3.754 3.754s1.684 3.754 3.754 3.754 3.754-1.684 3.754-3.754-1.684-3.754-3.754-3.754z"/><path d="m84.98 114.704c-4.827 0-8.754-3.927-8.754-8.754s3.927-8.754 8.754-8.754 8.754 3.927 8.754 8.754-3.927 8.754-8.754 8.754zm0-12.508c-2.07 0-3.754 1.684-3.754 3.754s1.684 3.754 3.754 3.754 3.754-1.684 3.754-3.754-1.684-3.754-3.754-3.754z"/><path d="m64.513 120.958c-4.827 0-8.754-3.927-8.754-8.754s3.927-8.754 8.754-8.754 8.754 3.927 8.754 8.754-3.927 8.754-8.754 8.754zm0-12.508c-2.07 0-3.754 1.684-3.754 3.754s1.684 3.754 3.754 3.754 3.754-1.684 3.754-3.754-1.684-3.754-3.754-3.754z"/><path d="m184.061 103.026c-2.241 0-4.483-.853-6.189-2.56-3.413-3.413-3.413-8.966 0-12.379 3.413-3.415 8.966-3.414 12.379 0 3.413 3.413 3.413 8.966 0 12.379-1.707 1.708-3.948 2.56-6.19 2.56zm0-12.501c-.961 0-1.922.366-2.654 1.098-1.463 1.464-1.463 3.845 0 5.309 1.464 1.463 3.845 1.463 5.309 0 1.463-1.464 1.463-3.845 0-5.309-.732-.731-1.694-1.098-2.655-1.098z"/><path d="m174.011 121.921c-2.242 0-4.483-.853-6.19-2.56-1.654-1.653-2.564-3.852-2.564-6.189 0-2.339.911-4.537 2.564-6.19 3.414-3.412 8.967-3.413 12.379.001 1.653 1.652 2.564 3.851 2.564 6.189s-.91 4.536-2.564 6.189c-1.706 1.707-3.948 2.56-6.189 2.56zm0-12.501c-.961 0-1.922.366-2.654 1.098-.709.709-1.099 1.651-1.099 2.654 0 1.002.39 1.945 1.099 2.654 1.463 1.462 3.844 1.463 5.309 0 .709-.709 1.099-1.652 1.099-2.654 0-1.003-.39-1.945-1.099-2.653-.732-.733-1.694-1.099-2.655-1.099z"/><path d="m81.989 151.577c-2.241 0-4.483-.853-6.189-2.56-1.653-1.652-2.564-3.851-2.564-6.189s.91-4.536 2.564-6.189c3.413-3.415 8.966-3.414 12.379 0 1.654 1.653 2.564 3.852 2.564 6.189 0 2.339-.911 4.537-2.564 6.19-1.707 1.707-3.949 2.559-6.19 2.559zm0-12.501c-.961 0-1.922.366-2.654 1.098-.709.709-1.099 1.652-1.099 2.654 0 1.003.39 1.945 1.099 2.653 1.464 1.465 3.845 1.464 5.309.001 0 0 0 0 0-.001.709-.708 1.099-1.65 1.099-2.653 0-1.002-.39-1.945-1.099-2.654-.732-.732-1.694-1.098-2.655-1.098z"/><path d="m71.939 170.472c-2.242 0-4.483-.853-6.19-2.56-3.413-3.413-3.413-8.966 0-12.379s8.966-3.414 12.379 0c3.413 3.413 3.413 8.966 0 12.379-1.706 1.707-3.948 2.56-6.189 2.56zm0-12.501c-.961 0-1.923.366-2.655 1.098-1.463 1.464-1.463 3.845 0 5.309 1.463 1.462 3.844 1.463 5.309 0 1.463-1.464 1.463-3.845 0-5.309-.732-.732-1.693-1.098-2.654-1.098z"/><path d="m161.723 192.815c-2.338 0-4.537-.911-6.19-2.564-3.413-3.413-3.413-8.967 0-12.38 3.412-3.412 8.965-3.411 12.379-.001 3.413 3.414 3.413 8.968 0 12.381-1.653 1.653-3.851 2.564-6.189 2.564zm0-12.505c-.961 0-1.923.365-2.655 1.097-1.463 1.464-1.463 3.846 0 5.31 1.417 1.418 3.89 1.418 5.309 0 1.463-1.464 1.463-3.846 0-5.31-.731-.732-1.693-1.097-2.654-1.097z"/><path d="m142.829 182.761c-2.242 0-4.483-.854-6.19-2.56-1.653-1.653-2.564-3.852-2.564-6.19s.91-4.536 2.564-6.189c3.413-3.413 8.966-3.413 12.379 0 1.654 1.653 2.564 3.852 2.564 6.189 0 2.339-.911 4.537-2.564 6.19-1.706 1.706-3.948 2.559-6.189 2.56zm0-12.502c-.961 0-1.923.366-2.655 1.098-.709.709-1.099 1.652-1.099 2.654 0 1.003.39 1.945 1.099 2.653v.001c1.463 1.462 3.844 1.462 5.309 0 .709-.709 1.099-1.651 1.099-2.654 0-1.002-.39-1.945-1.099-2.654-.732-.732-1.693-1.098-2.654-1.098z"/><path d="m113.171 90.738c-2.241 0-4.483-.853-6.189-2.56-1.654-1.653-2.564-3.852-2.564-6.189 0-2.339.911-4.537 2.564-6.19 3.414-3.413 8.967-3.412 12.379.001 1.653 1.652 2.564 3.851 2.564 6.189s-.91 4.536-2.564 6.189c-1.706 1.708-3.948 2.56-6.19 2.56zm0-12.501c-.961 0-1.922.366-2.654 1.098-.709.709-1.099 1.651-1.099 2.654 0 1.002.39 1.945 1.099 2.654 1.464 1.463 3.846 1.463 5.309 0 .709-.709 1.099-1.652 1.099-2.654 0-1.003-.39-1.945-1.099-2.653-.732-.732-1.693-1.099-2.655-1.099z"/><path d="m94.277 80.688c-2.242 0-4.483-.854-6.19-2.559 0-.001 0-.001 0-.001-3.412-3.413-3.412-8.967 0-12.38 1.654-1.653 3.852-2.564 6.19-2.564s4.537.911 6.19 2.564c3.413 3.413 3.413 8.967 0 12.38-1.706 1.707-3.948 2.56-6.19 2.56zm-2.654-6.094c1.464 1.463 3.845 1.463 5.309 0 1.463-1.464 1.463-3.846 0-5.31-1.418-1.419-3.891-1.417-5.309 0-1.463 1.464-1.464 3.846 0 5.31z"/><path d="m138.788 106.37c-.64 0-1.28-.244-1.768-.732-3.413-3.413-3.413-8.966 0-12.379.976-.977 2.56-.977 3.535 0 .977.977.977 2.559 0 3.535-1.463 1.464-1.463 3.845 0 5.309.977.977.977 2.559 0 3.535-.488.488-1.128.732-1.767.732z"/><path d="m162.483 75.734c-.64 0-1.279-.244-1.768-.732-.977-.976-.977-2.559 0-3.535 1.464-1.464 1.464-3.846 0-5.31-.976-.977-.976-2.56 0-3.535.976-.978 2.559-.978 3.536 0 3.412 3.413 3.412 8.967 0 12.38-.488.488-1.128.732-1.768.732z"/><path d="m93.517 194.11c-.64 0-1.28-.244-1.768-.732-3.412-3.413-3.412-8.967 0-12.38.977-.977 2.559-.977 3.536 0 .977.976.977 2.559 0 3.535-1.464 1.464-1.464 3.846 0 5.31.976.977.976 2.56 0 3.535-.489.488-1.129.732-1.768.732z"/><path d="m117.212 163.474c-.64 0-1.28-.244-1.768-.732-.977-.977-.977-2.559 0-3.535 1.463-1.464 1.463-3.845 0-5.309-.977-.977-.977-2.559 0-3.535.976-.977 2.56-.977 3.535 0 3.413 3.413 3.413 8.966 0 12.379-.487.487-1.127.732-1.767.732z"/><path d="m160.974 141.288c-.64 0-1.28-.244-1.768-.732-1.418-1.417-3.891-1.419-5.309 0-.977.977-2.559.977-3.536 0-.977-.976-.977-2.559 0-3.535 1.653-1.653 3.852-2.564 6.19-2.564s4.537.911 6.19 2.564c.977.977.977 2.559 0 3.535-.487.488-1.127.732-1.767.732z"/><path d="m187.188 166.811c-2.242 0-4.483-.853-6.19-2.56-.977-.977-.977-2.559 0-3.535.976-.977 2.56-.977 3.535 0 1.463 1.462 3.844 1.463 5.309 0 .976-.977 2.56-.977 3.535 0 .977.977.977 2.559 0 3.535-1.706 1.707-3.948 2.56-6.189 2.56z"/><path d="m73.234 96.017c-.64 0-1.28-.244-1.768-.732-1.464-1.463-3.845-1.464-5.309 0-.976.977-2.56.977-3.535 0-.977-.977-.977-2.559 0-3.535 3.413-3.415 8.966-3.414 12.379 0 .977.977.977 2.559 0 3.535-.487.487-1.127.732-1.767.732z"/><path d="m99.448 121.544c-2.338 0-4.537-.911-6.19-2.564-.977-.977-.977-2.559 0-3.535.976-.977 2.56-.977 3.535 0 1.419 1.417 3.892 1.419 5.309 0 .977-.977 2.559-.977 3.536 0 .977.976.977 2.559 0 3.535-1.653 1.653-3.851 2.564-6.19 2.564z"/><path d="m152.69 121.065c-1.381 0-2.5-1.119-2.5-2.5 0-4.827 3.927-8.754 8.754-8.754 1.381 0 2.5 1.119 2.5 2.5s-1.119 2.5-2.5 2.5c-2.07 0-3.754 1.684-3.754 3.754 0 1.381-1.119 2.5-2.5 2.5z"/><path d="m191.108 116.158c-1.381 0-2.5-1.119-2.5-2.5s1.119-2.5 2.5-2.5c2.07 0 3.754-1.684 3.754-3.754 0-1.381 1.119-2.5 2.5-2.5s2.5 1.119 2.5 2.5c0 4.827-3.926 8.754-8.754 8.754z"/><path d="m58.638 151.096c-1.381 0-2.5-1.119-2.5-2.5 0-4.827 3.927-8.754 8.754-8.754 1.381 0 2.5 1.119 2.5 2.5s-1.119 2.5-2.5 2.5c-2.07 0-3.754 1.684-3.754 3.754 0 1.381-1.119 2.5-2.5 2.5z"/><path d="m97.056 146.188c-1.381 0-2.5-1.119-2.5-2.5s1.119-2.5 2.5-2.5c2.07 0 3.754-1.684 3.754-3.754 0-1.381 1.119-2.5 2.5-2.5s2.5 1.119 2.5 2.5c0 4.828-3.927 8.754-8.754 8.754z"/><path d="m143.688 161.444c-1.381 0-2.5-1.119-2.5-2.5 0-2.07-1.684-3.754-3.754-3.754-1.381 0-2.5-1.119-2.5-2.5s1.119-2.5 2.5-2.5c4.827 0 8.754 3.927 8.754 8.754 0 1.381-1.119 2.5-2.5 2.5z"/><path d="m148.596 199.862c-4.827 0-8.754-3.927-8.754-8.754 0-1.381 1.119-2.5 2.5-2.5s2.5 1.119 2.5 2.5c0 2.07 1.684 3.754 3.754 3.754 1.381 0 2.5 1.119 2.5 2.5s-1.119 2.5-2.5 2.5z"/><path d="m113.658 67.392c-1.381 0-2.5-1.119-2.5-2.5 0-2.07-1.684-3.754-3.754-3.754-1.381 0-2.5-1.119-2.5-2.5s1.119-2.5 2.5-2.5c4.827 0 8.754 3.927 8.754 8.754 0 1.38-1.119 2.5-2.5 2.5z"/><path d="m118.566 105.81c-4.827 0-8.754-3.927-8.754-8.754 0-1.381 1.119-2.5 2.5-2.5s2.5 1.119 2.5 2.5c0 2.07 1.684 3.754 3.754 3.754 1.381 0 2.5 1.119 2.5 2.5s-1.119 2.5-2.5 2.5z"/></g></g></svg>