<svg id="Layer_1" enable-background="new 0 0 256 256" height="512" viewBox="0 0 256 256" width="512" xmlns="http://www.w3.org/2000/svg"><g><g fill="#ebe7f2"><path d="m164 65.539h-70.5c-1.381 0-2.5-1.119-2.5-2.5s1.119-2.5 2.5-2.5h70.5c1.381 0 2.5 1.119 2.5 2.5s-1.119 2.5-2.5 2.5z"/><path d="m88.295 193.547h-22.065c-1.381 0-2.5-1.119-2.5-2.5s1.119-2.5 2.5-2.5h22.064c1.381 0 2.5 1.119 2.5 2.5s-1.118 2.5-2.499 2.5z"/><path d="m189.77 193.547h-22.064c-1.381 0-2.5-1.119-2.5-2.5s1.119-2.5 2.5-2.5h22.064c1.381 0 2.5 1.119 2.5 2.5s-1.12 2.5-2.5 2.5z"/></g><g fill="#846f75"><path d="m77.091 115.74c2.427 4.807 7.334 7.858 12.78 7.858 1.381 0 2.5-1.119 2.5-2.5s-1.119-2.5-2.5-2.5c-2.787 0-5.351-1.234-7.091-3.28 2.944-1.454 4.978-4.479 4.978-7.978 0-1.381-1.119-2.5-2.5-2.5s-2.5 1.119-2.5 2.5c0 2.016-1.542 3.659-3.505 3.861-3.248-1.518-5.402-4.806-5.402-8.415 0-4.512 3.222-8.365 7.661-9.164.688-.124 1.293-.53 1.668-1.12s.485-1.31.305-1.985c-.218-.817-.328-1.629-.328-2.414 0-5.14 4.182-9.321 9.321-9.321 1.381 0 2.5-1.119 2.5-2.5s-1.119-2.5-2.5-2.5c-7.896 0-14.321 6.424-14.321 14.321 0 .415.02.832.058 1.251-5.547 2.036-9.363 7.344-9.363 13.431 0 5.536 3.27 10.615 8.239 12.955z"/><path d="m164 78.782c5.14 0 9.321 4.182 9.321 9.321 0 .785-.11 1.596-.329 2.411-.181.676-.07 1.396.305 1.987s.979.997 1.668 1.121c4.439.798 7.662 4.652 7.662 9.164 0 3.64-2.191 6.955-5.486 8.455-2.151-.001-3.9-1.75-3.9-3.901 0-1.381-1.119-2.5-2.5-2.5s-2.5 1.119-2.5 2.5c0 3.628 2.185 6.751 5.305 8.136-1.736 1.947-4.229 3.123-6.94 3.123-1.381 0-2.5 1.119-2.5 2.5s1.119 2.5 2.5 2.5c5.445 0 10.354-3.051 12.78-7.858 4.97-2.34 8.24-7.419 8.24-12.954 0-6.086-3.815-11.394-9.363-13.431.038-.419.058-.837.058-1.251 0-7.897-6.425-14.321-14.321-14.321-1.381 0-2.5 1.119-2.5 2.5s1.119 2.498 2.5 2.498z"/><path d="m94.5 82.25c0-1.381-1.119-2.5-2.5-2.5s-2.5 1.119-2.5 2.5c0 21.229 17.271 38.5 38.5 38.5s38.5-17.271 38.5-38.5c0-1.381-1.119-2.5-2.5-2.5s-2.5 1.119-2.5 2.5c0 .404-.016.803-.031 1.204-2.972-2.143-5.607-4.775-7.733-7.752-.803-1.124-2.364-1.384-3.487-.581-1.123.802-1.384 2.364-.581 3.487 2.968 4.156 6.801 7.723 11.144 10.41-3.139 15.239-16.659 26.732-32.812 26.732s-29.673-11.493-32.812-26.731c4.343-2.687 8.175-6.255 11.145-10.412.803-1.124.542-2.685-.581-3.487-1.124-.804-2.686-.542-3.487.581-2.127 2.978-4.762 5.61-7.734 7.753-.015-.401-.031-.801-.031-1.204z"/><path d="m119.063 101.875c0 1.381 1.119 2.5 2.5 2.5h12.875c1.381 0 2.5-1.119 2.5-2.5s-1.119-2.5-2.5-2.5h-12.875c-1.381 0-2.5 1.119-2.5 2.5z"/><path d="m112.888 86.422c.855-.854 2.244-.854 3.1 0 .488.488 1.128.732 1.768.732s1.28-.244 1.768-.732c.977-.977.977-2.56 0-3.536-2.805-2.803-7.365-2.803-10.17 0-.977.976-.977 2.559 0 3.536.973.976 2.557.976 3.534 0z"/><path d="m140.013 86.422c.855-.854 2.244-.854 3.1 0 .488.488 1.128.732 1.768.732s1.28-.244 1.768-.732c.977-.977.977-2.56 0-3.536-2.805-2.803-7.365-2.803-10.17 0-.977.976-.977 2.559 0 3.536.973.976 2.557.976 3.534 0z"/><path d="m172.81 126.598h-20.085v-5.5c0-.958-.548-1.832-1.41-2.25-.86-.417-1.887-.307-2.639.288l-15.787 12.464c-.601.474-.951 1.197-.951 1.962v5.541l-3.938 1.691-3.938-1.691v-5.541c0-.765-.351-1.488-.951-1.962l-15.787-12.464c-.751-.595-1.778-.705-2.639-.288-.862.418-1.41 1.292-1.41 2.25v5.5h-20.085c-10.73 0-19.46 8.73-19.46 19.46v83.518c0 7.463 6.071 13.534 13.534 13.534 5.57 0 10.361-3.383 12.435-8.201 9.972 7.237 23.649 11.341 38.203 11.341h.097.097c14.554 0 28.231-4.104 38.203-11.341 2.074 4.818 6.866 8.201 12.435 8.201 7.463 0 13.534-6.071 13.534-13.534v-83.518c.002-10.73-8.728-19.46-19.458-19.46zm-89.62 5h22.585c1.381 0 2.5-1.119 2.5-2.5v-2.841l10.787 8.517v5.976c0 1 .595 1.903 1.514 2.297l1.089.468-15.275 6.561c-.919.394-1.514 1.297-1.514 2.297v84.929c-5.313-1.955-10.088-4.602-14.077-7.85v-69.353c0-1.381-1.119-2.5-2.5-2.5s-2.5 1.119-2.5 2.5v39.161h-17.069v-53.201c0-7.974 6.487-14.461 14.46-14.461zm-5.925 106.512c-4.706 0-8.534-3.829-8.534-8.534v-25.317h17.068v25.317c0 4.706-3.828 8.534-8.534 8.534zm50.832 3.14h-.193c-.017 0-.032 0-.049 0-6.272-.004-12.349-.825-17.979-2.356v-84.874l25.548-10.972c.919-.395 1.514-1.298 1.514-2.297v-5.976l10.787-8.517v2.841c0 1.381 1.119 2.5 2.5 2.5h22.585c7.974 0 14.46 6.487 14.46 14.46v53.201h-17.068v-39.161c0-1.381-1.119-2.5-2.5-2.5s-2.5 1.119-2.5 2.5v69.353c-9.206 7.495-22.624 11.789-37.056 11.799-.017-.001-.033-.001-.049-.001zm50.638-3.14c-4.706 0-8.534-3.829-8.534-8.534v-25.317h17.068v25.317c.001 4.706-3.828 8.534-8.534 8.534z"/><path d="m117.231 160.957c-1.381 0-2.5 1.119-2.5 2.5v2.954c0 1.381 1.119 2.5 2.5 2.5s2.5-1.119 2.5-2.5v-2.954c0-1.381-1.119-2.5-2.5-2.5z"/><path d="m117.231 180.877c-1.381 0-2.5 1.119-2.5 2.5v2.954c0 1.381 1.119 2.5 2.5 2.5s2.5-1.119 2.5-2.5v-2.954c0-1.38-1.119-2.5-2.5-2.5z"/><path d="m117.231 200.798c-1.381 0-2.5 1.119-2.5 2.5v2.954c0 1.381 1.119 2.5 2.5 2.5s2.5-1.119 2.5-2.5v-2.954c0-1.381-1.119-2.5-2.5-2.5z"/><path d="m117.231 220.718c-1.381 0-2.5 1.119-2.5 2.5v2.954c0 1.381 1.119 2.5 2.5 2.5s2.5-1.119 2.5-2.5v-2.954c0-1.381-1.119-2.5-2.5-2.5z"/><path d="m138.769 160.957c-1.381 0-2.5 1.119-2.5 2.5v2.954c0 1.381 1.119 2.5 2.5 2.5s2.5-1.119 2.5-2.5v-2.954c0-1.381-1.12-2.5-2.5-2.5z"/><path d="m138.769 180.877c-1.381 0-2.5 1.119-2.5 2.5v2.954c0 1.381 1.119 2.5 2.5 2.5s2.5-1.119 2.5-2.5v-2.954c0-1.38-1.12-2.5-2.5-2.5z"/><path d="m138.769 200.798c-1.381 0-2.5 1.119-2.5 2.5v2.954c0 1.381 1.119 2.5 2.5 2.5s2.5-1.119 2.5-2.5v-2.954c0-1.381-1.12-2.5-2.5-2.5z"/><path d="m138.769 220.718c-1.381 0-2.5 1.119-2.5 2.5v2.954c0 1.381 1.119 2.5 2.5 2.5s2.5-1.119 2.5-2.5v-2.954c0-1.381-1.12-2.5-2.5-2.5z"/></g><path d="m164.5 78.75h-72c-1.381 0-2.5-1.119-2.5-2.5v-18.044c-6.733-3.651-11-10.726-11-18.456 0-11.58 9.421-21 21-21 3.616 0 7.086.907 10.191 2.647 3.5-7.079 10.706-11.647 18.809-11.647s15.309 4.568 18.809 11.647c3.105-1.74 6.575-2.647 10.191-2.647 11.579 0 21 9.42 21 21 0 8.097-4.757 15.505-12 18.954v17.546c0 1.381-1.119 2.5-2.5 2.5zm-69.5-5h67v-16.697c0-1.042.646-1.974 1.62-2.34 6.209-2.335 10.38-8.347 10.38-14.963 0-8.822-7.178-16-16-16-3.583 0-6.979 1.172-9.822 3.391-.646.504-1.498.659-2.279.417-.782-.243-1.396-.854-1.643-1.634-2.112-6.684-8.243-11.174-15.256-11.174s-13.144 4.49-15.256 11.173c-.247.781-.86 1.392-1.643 1.634-.781.243-1.633.087-2.279-.417-2.843-2.218-6.239-3.391-9.822-3.391-8.822 0-16 7.178-16 16 0 6.311 3.735 12.048 9.516 14.618.902.402 1.484 1.298 1.484 2.285z" fill="#a58bc9"/></g></svg>