<svg id="Layer_1" enable-background="new 0 0 256 256" height="512" viewBox="0 0 256 256" width="512" xmlns="http://www.w3.org/2000/svg"><g><g fill="#ebe7f2"><path d="m164 65.539h-70.5c-1.381 0-2.5-1.119-2.5-2.5s1.119-2.5 2.5-2.5h70.5c1.381 0 2.5 1.119 2.5 2.5s-1.119 2.5-2.5 2.5z"/><path d="m88.295 193.547h-22.065c-1.381 0-2.5-1.119-2.5-2.5s1.119-2.5 2.5-2.5h22.065c1.381 0 2.5 1.119 2.5 2.5s-1.119 2.5-2.5 2.5z"/><path d="m189.77 193.547h-22.064c-1.381 0-2.5-1.119-2.5-2.5s1.119-2.5 2.5-2.5h22.064c1.381 0 2.5 1.119 2.5 2.5s-1.12 2.5-2.5 2.5z"/></g><g fill="#846f75"><path d="m172.81 126.598h-20.085v-5.5c0-.958-.548-1.832-1.41-2.25-.859-.417-1.888-.307-2.639.288l-15.787 12.464c-.601.474-.951 1.197-.951 1.962v5.541l-3.938 1.691-3.938-1.691v-5.541c0-.765-.35-1.488-.951-1.962l-15.787-12.464c-.752-.594-1.776-.705-2.64-.288-.862.418-1.41 1.292-1.41 2.25v5.5h-20.084c-10.73 0-19.46 8.73-19.46 19.46v83.518c0 7.463 6.071 13.534 13.534 13.534 5.57 0 10.361-3.384 12.435-8.202 9.973 7.237 23.65 11.341 38.204 11.341h.096.096c14.554 0 28.231-4.104 38.204-11.341 2.074 4.818 6.866 8.201 12.435 8.201 7.463 0 13.534-6.071 13.534-13.534v-83.518c.002-10.729-8.728-19.459-19.458-19.459zm-89.62 5h22.585c1.381 0 2.5-1.119 2.5-2.5v-2.841l10.787 8.517v5.976c0 1 .595 1.903 1.514 2.297l1.089.468-15.275 6.561c-.918.394-1.513 1.297-1.513 2.297v84.929c-5.314-1.955-10.089-4.603-14.078-7.851v-69.353c0-1.381-1.119-2.5-2.5-2.5s-2.5 1.119-2.5 2.5v39.161h-17.069v-53.201c0-7.973 6.487-14.46 14.46-14.46zm-5.926 106.512c-4.706 0-8.534-3.829-8.534-8.534v-25.317h17.068v25.317c0 4.706-3.828 8.534-8.534 8.534zm50.832 3.14h-.192c-.016 0-.033 0-.049 0-6.272-.004-12.349-.825-17.979-2.356v-84.874l25.547-10.972c.919-.395 1.514-1.298 1.514-2.297v-5.976l10.787-8.517v2.841c0 1.381 1.119 2.5 2.5 2.5h22.585c7.974 0 14.46 6.487 14.46 14.46v53.201h-17.068v-39.161c0-1.381-1.119-2.5-2.5-2.5s-2.5 1.119-2.5 2.5v69.353c-9.206 7.495-22.623 11.789-37.056 11.799-.016-.001-.033-.001-.049-.001zm50.639-3.14c-4.706 0-8.534-3.829-8.534-8.534v-25.317h17.068v25.317c.001 4.706-3.828 8.534-8.534 8.534z"/><path d="m128 120.75c21.229 0 38.5-17.271 38.5-38.5 0-1.381-1.119-2.5-2.5-2.5s-2.5 1.119-2.5 2.5c0 .404-.016.803-.031 1.204-2.972-2.143-5.607-4.775-7.733-7.752-.803-1.124-2.363-1.384-3.487-.581-1.123.802-1.384 2.364-.581 3.487 2.968 4.156 6.801 7.723 11.144 10.41-3.139 15.239-16.659 26.732-32.812 26.732-16.154 0-29.673-11.493-32.812-26.731 4.343-2.687 8.176-6.254 11.146-10.412.803-1.124.542-2.685-.581-3.487-1.123-.803-2.685-.543-3.487.581-2.128 2.978-4.763 5.609-7.735 7.753-.014-.4-.031-.799-.031-1.203 0-1.381-1.119-2.5-2.5-2.5s-2.5 1.119-2.5 2.5c0 21.228 17.271 38.499 38.5 38.499z"/><path d="m119.062 101.875c0 1.381 1.119 2.5 2.5 2.5h12.875c1.381 0 2.5-1.119 2.5-2.5s-1.119-2.5-2.5-2.5h-12.875c-1.38 0-2.5 1.119-2.5 2.5z"/><path d="m112.888 86.422c.854-.854 2.245-.854 3.1 0 .488.488 1.128.732 1.768.732s1.28-.244 1.768-.732c.977-.976.977-2.559 0-3.535-2.804-2.805-7.366-2.805-10.17 0-.977.976-.977 2.559 0 3.535.974.976 2.558.976 3.534 0z"/><path d="m140.013 86.422c.855-.854 2.244-.854 3.1 0 .488.488 1.128.732 1.768.732s1.28-.244 1.768-.732c.977-.977.977-2.56 0-3.536-2.805-2.803-7.365-2.803-10.17 0-.977.976-.977 2.559 0 3.536.973.976 2.557.976 3.534 0z"/><path d="m117.231 160.957c-1.381 0-2.5 1.119-2.5 2.5v2.954c0 1.381 1.119 2.5 2.5 2.5s2.5-1.119 2.5-2.5v-2.954c0-1.381-1.119-2.5-2.5-2.5z"/><path d="m117.231 180.877c-1.381 0-2.5 1.119-2.5 2.5v2.954c0 1.381 1.119 2.5 2.5 2.5s2.5-1.119 2.5-2.5v-2.954c0-1.38-1.119-2.5-2.5-2.5z"/><path d="m117.231 200.798c-1.381 0-2.5 1.119-2.5 2.5v2.954c0 1.381 1.119 2.5 2.5 2.5s2.5-1.119 2.5-2.5v-2.954c0-1.381-1.119-2.5-2.5-2.5z"/><path d="m117.231 220.718c-1.381 0-2.5 1.119-2.5 2.5v2.954c0 1.381 1.119 2.5 2.5 2.5s2.5-1.119 2.5-2.5v-2.954c0-1.381-1.119-2.5-2.5-2.5z"/><path d="m138.769 160.957c-1.381 0-2.5 1.119-2.5 2.5v2.954c0 1.381 1.119 2.5 2.5 2.5s2.5-1.119 2.5-2.5v-2.954c0-1.381-1.12-2.5-2.5-2.5z"/><path d="m138.769 180.877c-1.381 0-2.5 1.119-2.5 2.5v2.954c0 1.381 1.119 2.5 2.5 2.5s2.5-1.119 2.5-2.5v-2.954c0-1.38-1.12-2.5-2.5-2.5z"/><path d="m138.769 200.798c-1.381 0-2.5 1.119-2.5 2.5v2.954c0 1.381 1.119 2.5 2.5 2.5s2.5-1.119 2.5-2.5v-2.954c0-1.381-1.12-2.5-2.5-2.5z"/><path d="m138.769 220.718c-1.381 0-2.5 1.119-2.5 2.5v2.954c0 1.381 1.119 2.5 2.5 2.5s2.5-1.119 2.5-2.5v-2.954c0-1.381-1.12-2.5-2.5-2.5z"/></g><path d="m164.5 78.75h-72c-1.381 0-2.5-1.119-2.5-2.5v-18.044c-6.733-3.65-11-10.725-11-18.456 0-11.58 9.42-21 21-21 3.616 0 7.086.907 10.191 2.647 3.5-7.079 10.706-11.647 18.809-11.647s15.309 4.568 18.809 11.647c3.105-1.74 6.575-2.647 10.191-2.647 11.579 0 21 9.42 21 21 0 8.097-4.757 15.505-12 18.954v17.546c0 1.381-1.119 2.5-2.5 2.5zm-69.5-5h67v-16.697c0-1.042.646-1.974 1.62-2.34 6.209-2.335 10.38-8.347 10.38-14.963 0-8.822-7.178-16-16-16-3.583 0-6.979 1.172-9.822 3.391-.646.504-1.499.659-2.279.417-.782-.243-1.396-.854-1.643-1.634-2.112-6.684-8.243-11.174-15.256-11.174s-13.144 4.49-15.256 11.173c-.247.781-.86 1.392-1.643 1.634-.781.242-1.633.087-2.279-.417-2.843-2.218-6.239-3.391-9.822-3.391-8.822 0-16 7.178-16 16 0 6.311 3.735 12.048 9.516 14.618.902.402 1.484 1.298 1.484 2.285z" fill="#65c1d6"/></g></svg>