<svg id="Layer_1" enable-background="new 0 0 256 256" height="512" viewBox="0 0 256 256" width="512" xmlns="http://www.w3.org/2000/svg"><g><path d="m207.485 92.659c-1.381 0-2.5-1.119-2.5-2.5 0-10.866-6.243-24.502-9.649-31.134-3.406 6.635-9.651 20.282-9.651 31.134 0 1.381-1.119 2.5-2.5 2.5s-2.5-1.119-2.5-2.5c0-16.215 11.985-36.788 12.495-37.656.449-.764 1.269-1.233 2.155-1.233s1.706.469 2.155 1.233c.51.868 12.495 21.441 12.495 37.656 0 1.381-1.119 2.5-2.5 2.5z" fill="#ebe7f2"/><path d="m37.14 176.498c-1.381 0-2.5-1.119-2.5-2.5v-117.614c0-1.381 1.119-2.5 2.5-2.5s2.5 1.119 2.5 2.5v117.613c0 1.381-1.119 2.501-2.5 2.501z" fill="#ebe7f2"/><g fill="#846f75"><path d="m230.163 99.855c-.168-1.073-1.01-1.915-2.083-2.083-.558-.088-12.908-1.93-20.832 4.17-3.102-7.424-10.088-12.601-10.438-12.857-.879-.642-2.071-.642-2.95 0-.35.256-7.337 5.433-10.438 12.857-7.924-6.101-20.273-4.258-20.832-4.171-1.073.168-1.915 1.01-2.083 2.083-.093.595-2.193 14.662 5.544 22.398 4.803 4.803 12 5.833 17.095 5.869v59.918c0 6.721 5.468 12.189 12.189 12.189s12.189-5.468 12.189-12.189v-59.918c5.095-.037 12.292-1.067 17.094-5.869 7.738-7.735 5.638-21.801 5.545-22.397zm-9.08 18.864c-4.496 4.496-12.625 4.537-15.914 4.345-.695-.042-1.36.205-1.861.677-.5.472-.784 1.13-.784 1.818v62.482c0 3.964-3.225 7.189-7.189 7.189s-7.189-3.225-7.189-7.189v-62.481c0-.688-.284-1.346-.784-1.818-.465-.439-1.08-.682-1.716-.682-.048 0-.097.001-.146.004-3.287.191-11.417.15-15.914-4.345-4.506-4.506-4.565-12.541-4.326-16.192 3.655-.24 11.686-.179 16.192 4.326.396.396.771.84 1.147 1.359.595.82 1.625 1.2 2.611.962.985-.238 1.729-1.047 1.883-2.048.876-5.671 5.746-10.594 8.241-12.788 2.497 2.195 7.365 7.118 8.241 12.788.155 1.001.899 1.811 1.884 2.048.988.238 2.017-.143 2.611-.963.375-.518.75-.962 1.146-1.358 4.506-4.506 12.541-4.566 16.192-4.326.24 3.653.181 11.686-4.325 16.192z"/><path d="m166.869 92.659c1.381 0 2.5-1.119 2.5-2.5 0-11.141 17.54-26.838 25.966-33.271 8.427 6.429 25.964 22.119 25.964 33.271 0 1.381 1.119 2.5 2.5 2.5s2.5-1.119 2.5-2.5c0-16.802-28.292-37.538-29.496-38.412-.876-.636-2.062-.636-2.938 0-1.205.875-29.497 21.61-29.497 38.412.001 1.381 1.12 2.5 2.501 2.5z"/><path d="m40.328 51.595c-8.169 0-14.815 6.646-14.815 14.815v129.389c0 1.381 1.119 2.5 2.5 2.5s2.5-1.119 2.5-2.5c0-2.113 4.495-3.897 9.815-3.897 5.321 0 9.815 1.785 9.815 3.897v2.218c0 .604-1.929 1.714-5.081 1.714s-5.082-1.109-5.082-1.714c0-1.381-1.119-2.5-2.5-2.5s-2.5 1.119-2.5 2.5c0 2.285 1.336 4.203 3.762 5.402 1.712.846 3.957 1.312 6.32 1.312 5.936 0 10.081-2.761 10.081-6.714v-131.607c0-8.169-6.646-14.815-14.815-14.815zm-.001 135.306c-3.531 0-7.078.631-9.815 1.963v-122.454c0-5.412 4.403-9.815 9.815-9.815s9.815 4.403 9.815 9.815v122.455c-2.737-1.333-6.283-1.964-9.815-1.964z"/><path d="m148.626 113.008c0-6.583-5.355-11.938-11.938-11.938s-11.938 5.355-11.938 11.938 5.355 11.938 11.938 11.938c6.583.001 11.938-5.355 11.938-11.938zm-18.877 0c0-3.826 3.113-6.938 6.938-6.938 3.826 0 6.938 3.113 6.938 6.938s-3.113 6.938-6.938 6.938c-3.825.001-6.938-3.112-6.938-6.938z"/><path d="m142.291 126.765c-6.583 0-11.938 5.355-11.938 11.938s5.355 11.938 11.938 11.938 11.938-5.355 11.938-11.938-5.355-11.938-11.938-11.938zm0 18.877c-3.826 0-6.938-3.113-6.938-6.938s3.113-6.938 6.938-6.938 6.938 3.113 6.938 6.938-3.112 6.938-6.938 6.938z"/><path d="m89.748 125.833c0-6.583-5.355-11.938-11.938-11.938s-11.938 5.355-11.938 11.938 5.355 11.938 11.938 11.938 11.938-5.355 11.938-11.938zm-18.877 0c0-3.826 3.113-6.938 6.938-6.938s6.938 3.113 6.938 6.938-3.113 6.938-6.938 6.938-6.938-3.112-6.938-6.938z"/><path d="m89.557 144.502c-6.583 0-11.938 5.355-11.938 11.938s5.355 11.938 11.938 11.938 11.938-5.355 11.938-11.938-5.355-11.938-11.938-11.938zm0 18.877c-3.826 0-6.938-3.113-6.938-6.938s3.113-6.938 6.938-6.938 6.938 3.113 6.938 6.938-3.113 6.938-6.938 6.938z"/><path d="m119.609 131.503c1.548-2.013 2.479-4.525 2.479-7.255 0-6.583-5.355-11.938-11.938-11.938s-11.938 5.355-11.938 11.938c0 4.938 3.014 9.185 7.298 11-1.548 2.013-2.479 4.525-2.479 7.255 0 6.583 5.355 11.938 11.938 11.938s11.938-5.355 11.938-11.938c0-4.938-3.014-9.185-7.298-11zm-16.398-7.255c0-3.826 3.113-6.938 6.938-6.938s6.938 3.113 6.938 6.938-3.113 6.938-6.938 6.938-6.938-3.112-6.938-6.938zm11.757 25.193c-3.826 0-6.938-3.113-6.938-6.938s3.113-6.938 6.938-6.938 6.938 3.113 6.938 6.938-3.112 6.938-6.938 6.938z"/><path d="m90.885 108.854c4.438 0 8.311-2.439 10.368-6.043 2.152 2.098 5.088 3.397 8.324 3.397 6.583 0 11.938-5.355 11.938-11.938s-5.355-11.938-11.938-11.938c-4.438 0-8.311 2.439-10.368 6.043-2.153-2.098-5.088-3.397-8.324-3.397-6.583 0-11.938 5.355-11.938 11.938s5.355 11.938 11.938 11.938zm18.693-21.523c3.826 0 6.938 3.113 6.938 6.938s-3.113 6.938-6.938 6.938-6.938-3.113-6.938-6.938 3.112-6.938 6.938-6.938zm-18.693 2.646c3.826 0 6.939 3.113 6.939 6.938s-3.113 6.938-6.939 6.938-6.938-3.113-6.938-6.938 3.113-6.938 6.938-6.938z"/></g><g fill="#f9b087"><path d="m166.869 66.636h-98.498c-1.381 0-2.5-1.119-2.5-2.5s1.119-2.5 2.5-2.5h98.499c1.381 0 2.5 1.119 2.5 2.5s-1.12 2.5-2.501 2.5z"/><path d="m166.869 193.447h-98.498c-1.381 0-2.5-1.119-2.5-2.5s1.119-2.5 2.5-2.5h98.499c1.381 0 2.5 1.119 2.5 2.5s-1.12 2.5-2.501 2.5z"/></g></g></svg>