<svg id="Layer_1" enable-background="new 0 0 256 256" height="512" viewBox="0 0 256 256" width="512" xmlns="http://www.w3.org/2000/svg"><g><g fill="#65c1d6"><path d="m204.328 159.831c-3.828 0-5.854-.583-7.642-1.098-1.683-.484-3.136-.902-6.259-.902s-4.576.418-6.259.902c-1.788.515-3.814 1.098-7.642 1.098-3.826 0-5.851-.583-7.638-1.098-1.682-.484-3.134-.902-6.253-.902-1.381 0-2.5-1.119-2.5-2.5s1.119-2.5 2.5-2.5c3.825 0 5.851.583 7.637 1.098 1.682.484 3.134.902 6.254.902 3.123 0 4.576-.418 6.259-.902 1.788-.515 3.814-1.098 7.642-1.098s5.854.583 7.642 1.098c1.683.484 3.136.902 6.259.902 1.381 0 2.5 1.119 2.5 2.5s-1.12 2.5-2.5 2.5z"/><path d="m183.481 192.942c-3.828 0-5.854-.583-7.642-1.098-1.683-.484-3.136-.902-6.259-.902s-4.576.418-6.259.902c-1.788.515-3.814 1.098-7.642 1.098-3.825 0-5.851-.583-7.637-1.098-1.682-.484-3.134-.902-6.254-.902-1.381 0-2.5-1.119-2.5-2.5s1.119-2.5 2.5-2.5c3.826 0 5.851.583 7.638 1.098 1.682.484 3.134.902 6.253.902 3.123 0 4.576-.418 6.259-.902 1.788-.515 3.814-1.098 7.642-1.098s5.854.583 7.642 1.098c1.683.484 3.136.902 6.259.902 1.381 0 2.5 1.119 2.5 2.5s-1.119 2.5-2.5 2.5z"/><path d="m225.173 192.942c-3.828 0-5.854-.583-7.642-1.098-1.683-.484-3.136-.902-6.259-.902s-4.576.418-6.259.902c-1.788.515-3.814 1.098-7.642 1.098-3.825 0-5.851-.583-7.637-1.098-1.682-.484-3.134-.902-6.254-.902-1.381 0-2.5-1.119-2.5-2.5s1.119-2.5 2.5-2.5c3.826 0 5.851.583 7.638 1.098 1.682.484 3.134.902 6.253.902 3.123 0 4.576-.418 6.259-.902 1.788-.515 3.814-1.098 7.642-1.098s5.854.583 7.642 1.098c1.683.484 3.136.902 6.259.902 1.381 0 2.5 1.119 2.5 2.5s-1.119 2.5-2.5 2.5z"/><path d="m128.027 131.785c-5.467 0-8.336-1.479-10.867-2.783-2.319-1.195-4.322-2.228-8.576-2.228s-6.257 1.032-8.576 2.228c-2.531 1.304-5.4 2.783-10.867 2.783s-8.335-1.479-10.866-2.783c-2.318-1.195-4.321-2.227-8.575-2.227s-6.256 1.032-8.575 2.228c-2.531 1.304-5.399 2.783-10.865 2.783-5.465 0-8.333-1.479-10.863-2.783-2.317-1.195-4.319-2.227-8.57-2.227-1.381 0-2.5-1.119-2.5-2.5s1.119-2.5 2.5-2.5c5.465 0 8.332 1.479 10.862 2.783 2.318 1.195 4.319 2.227 8.571 2.227 4.253 0 6.256-1.032 8.574-2.227 2.531-1.305 5.399-2.783 10.866-2.783 5.466 0 8.335 1.479 10.866 2.783 2.319 1.195 4.321 2.228 8.575 2.228s6.257-1.032 8.576-2.228c2.531-1.304 5.4-2.783 10.867-2.783s8.336 1.479 10.867 2.783c2.319 1.195 4.322 2.228 8.576 2.228 1.381 0 2.5 1.119 2.5 2.5s-1.119 2.498-2.5 2.498z"/><path d="m128.027 152.982c-5.467 0-8.336-1.479-10.867-2.783-2.319-1.195-4.322-2.228-8.576-2.228s-6.257 1.032-8.576 2.228c-2.531 1.304-5.4 2.783-10.867 2.783s-8.335-1.479-10.866-2.783c-2.318-1.195-4.321-2.227-8.575-2.227s-6.256 1.032-8.575 2.228c-2.531 1.304-5.399 2.783-10.865 2.783-5.465 0-8.333-1.479-10.863-2.783-2.317-1.195-4.319-2.227-8.57-2.227-1.381 0-2.5-1.119-2.5-2.5s1.119-2.5 2.5-2.5c5.465 0 8.332 1.479 10.862 2.783 2.318 1.195 4.319 2.227 8.571 2.227 4.253 0 6.256-1.032 8.574-2.227 2.531-1.305 5.399-2.783 10.866-2.783 5.466 0 8.335 1.479 10.866 2.783 2.319 1.195 4.321 2.228 8.575 2.228s6.257-1.032 8.576-2.228c2.531-1.304 5.4-2.783 10.867-2.783s8.336 1.479 10.867 2.783c2.319 1.195 4.322 2.228 8.576 2.228 1.381 0 2.5 1.119 2.5 2.5s-1.119 2.498-2.5 2.498z"/><path d="m128.027 174.18c-5.467 0-8.336-1.479-10.867-2.783-2.319-1.195-4.322-2.228-8.576-2.228s-6.257 1.032-8.576 2.228c-2.531 1.304-5.4 2.783-10.867 2.783s-8.335-1.479-10.866-2.783c-2.318-1.195-4.321-2.227-8.575-2.227s-6.256 1.032-8.575 2.228c-2.531 1.304-5.399 2.783-10.865 2.783-5.465 0-8.333-1.479-10.863-2.783-2.317-1.195-4.319-2.227-8.57-2.227-1.381 0-2.5-1.119-2.5-2.5s1.119-2.5 2.5-2.5c5.465 0 8.332 1.479 10.862 2.783 2.318 1.195 4.319 2.227 8.571 2.227 4.253 0 6.256-1.032 8.574-2.227 2.531-1.305 5.399-2.783 10.866-2.783 5.466 0 8.335 1.479 10.866 2.783 2.319 1.195 4.321 2.228 8.575 2.228s6.257-1.032 8.576-2.228c2.531-1.304 5.4-2.783 10.867-2.783s8.336 1.479 10.867 2.783c2.319 1.195 4.322 2.228 8.576 2.228 1.381 0 2.5 1.119 2.5 2.5s-1.119 2.498-2.5 2.498z"/><path d="m128.027 195.378c-5.467 0-8.336-1.479-10.867-2.783-2.319-1.195-4.322-2.228-8.576-2.228s-6.257 1.032-8.576 2.228c-2.531 1.304-5.4 2.783-10.867 2.783s-8.335-1.479-10.866-2.783c-2.318-1.195-4.321-2.227-8.575-2.227s-6.256 1.032-8.575 2.228c-2.531 1.304-5.399 2.783-10.865 2.783-5.465 0-8.333-1.479-10.863-2.783-2.317-1.195-4.319-2.227-8.57-2.227-1.381 0-2.5-1.119-2.5-2.5s1.119-2.5 2.5-2.5c5.465 0 8.332 1.479 10.862 2.783 2.318 1.195 4.319 2.227 8.571 2.227 4.253 0 6.256-1.032 8.574-2.227 2.531-1.305 5.399-2.783 10.866-2.783 5.466 0 8.335 1.479 10.866 2.783 2.319 1.195 4.321 2.228 8.575 2.228s6.257-1.032 8.576-2.228c2.531-1.304 5.4-2.783 10.867-2.783s8.336 1.479 10.867 2.783c2.319 1.195 4.322 2.228 8.576 2.228 1.381 0 2.5 1.119 2.5 2.5s-1.119 2.498-2.5 2.498z"/></g><path d="m115.983 62.679h-73.112c-1.381 0-2.5-1.119-2.5-2.5s1.119-2.5 2.5-2.5h73.112c1.381 0 2.5 1.119 2.5 2.5s-1.119 2.5-2.5 2.5z" fill="#ebe7f2"/><g fill="#846f75"><path d="m120.656 70.628c-2.956-6.943-2.887-14.532.228-21.441.349-.773.281-1.671-.18-2.384-.46-.712-1.251-1.143-2.1-1.143h-78.355c-.849 0-1.639.431-2.1 1.143-.461.713-.528 1.611-.18 2.384 3.114 6.908 3.184 14.498.228 21.441-5.75 2.11-9.871 7.623-9.871 14.096v110.59c0 8.285 6.741 15.026 15.026 15.026h72.149c8.285 0 15.026-6.741 15.026-15.026v-110.59c0-6.472-4.121-11.986-9.871-14.096zm-5.683-19.968c-1.988 6.238-1.98 12.799.008 19.038h-71.108c1.988-6.238 1.996-12.799.008-19.038zm10.554 144.654c0 5.528-4.498 10.026-10.026 10.026h-72.148c-5.528 0-10.026-4.498-10.026-10.026v-110.59c0-5.528 4.498-10.026 10.026-10.026h72.149c5.528 0 10.026 4.498 10.026 10.026v110.59z"/><path d="m221.416 173.565h-14.715c.083-.406.127-.827.127-1.258v-24.259c0-3.451-2.807-6.258-6.258-6.258h-34.176c-3.451 0-6.258 2.807-6.258 6.258v24.259c0 .431.044.851.127 1.258h-14.715c-3.451 0-6.258 2.807-6.258 6.258v24.259c0 3.451 2.807 6.258 6.258 6.258h34.176c1.411 0 2.71-.475 3.758-1.266 1.048.791 2.347 1.266 3.758 1.266h34.176c3.451 0 6.258-2.807 6.258-6.258v-24.259c-.001-3.45-2.808-6.258-6.258-6.258zm-56.28-1.257v-24.259c0-.693.564-1.258 1.258-1.258h34.176c.693 0 1.258.564 1.258 1.258v24.259c0 .693-.564 1.258-1.258 1.258h-34.176c-.694-.001-1.258-.565-1.258-1.258zm14.588 33.032h-34.176c-.693 0-1.258-.564-1.258-1.258v-24.259c0-.693.564-1.258 1.258-1.258h34.176c.693 0 1.258.564 1.258 1.258v24.259c-.001.693-.565 1.258-1.258 1.258zm42.949-1.258c0 .693-.564 1.258-1.258 1.258h-34.176c-.693 0-1.258-.564-1.258-1.258v-24.259c0-.693.564-1.258 1.258-1.258h34.176c.693 0 1.258.564 1.258 1.258z"/></g></g></svg>