<svg id="Layer_1" enable-background="new 0 0 256 256" height="512" viewBox="0 0 256 256" width="512" xmlns="http://www.w3.org/2000/svg"><g><g fill="#ebe7f2"><path d="m77.63 53.589c-1.381 0-2.5-1.119-2.5-2.5v-14.242c0-1.381 1.119-2.5 2.5-2.5s2.5 1.119 2.5 2.5v14.242c0 1.381-1.119 2.5-2.5 2.5z"/><path d="m92.021 53.589c-1.381 0-2.5-1.119-2.5-2.5v-14.242c0-1.381 1.119-2.5 2.5-2.5s2.5 1.119 2.5 2.5v14.242c0 1.381-1.119 2.5-2.5 2.5z"/><path d="m106.413 53.589c-1.381 0-2.5-1.119-2.5-2.5v-14.242c0-1.381 1.119-2.5 2.5-2.5s2.5 1.119 2.5 2.5v14.242c0 1.381-1.12 2.5-2.5 2.5z"/><path d="m120.804 53.589c-1.381 0-2.5-1.119-2.5-2.5v-14.242c0-1.381 1.119-2.5 2.5-2.5s2.5 1.119 2.5 2.5v14.242c0 1.381-1.119 2.5-2.5 2.5z"/><path d="m135.196 53.589c-1.381 0-2.5-1.119-2.5-2.5v-14.242c0-1.381 1.119-2.5 2.5-2.5s2.5 1.119 2.5 2.5v14.242c0 1.381-1.119 2.5-2.5 2.5z"/><path d="m149.587 53.589c-1.381 0-2.5-1.119-2.5-2.5v-14.242c0-1.381 1.119-2.5 2.5-2.5s2.5 1.119 2.5 2.5v14.242c0 1.381-1.119 2.5-2.5 2.5z"/><path d="m163.979 53.589c-1.381 0-2.5-1.119-2.5-2.5v-14.242c0-1.381 1.119-2.5 2.5-2.5s2.5 1.119 2.5 2.5v14.242c0 1.381-1.12 2.5-2.5 2.5z"/><path d="m178.37 53.589c-1.381 0-2.5-1.119-2.5-2.5v-14.242c0-1.381 1.119-2.5 2.5-2.5s2.5 1.119 2.5 2.5v14.242c0 1.381-1.119 2.5-2.5 2.5z"/><path d="m163.286 94.432h-70.572c-1.381 0-2.5-1.119-2.5-2.5s1.119-2.5 2.5-2.5h70.572c1.381 0 2.5 1.119 2.5 2.5s-1.119 2.5-2.5 2.5z"/></g><path d="m162.777 206.803h-69.554c-8.037 0-14.575-6.539-14.575-14.575v-70.88c0-4.278 2.903-8.076 7.06-9.235 2.294-.64 3.971-1.782 5.746-2.992 3.044-2.074 6.494-4.425 13.122-4.425 6.627 0 10.078 2.351 13.122 4.424 2.801 1.909 5.22 3.557 10.306 3.557 5.085 0 7.504-1.648 10.305-3.557 3.043-2.074 6.493-4.424 13.12-4.424s10.076 2.351 13.12 4.424c1.774 1.209 3.451 2.352 5.745 2.992 4.156 1.16 7.059 4.958 7.059 9.235v70.881c-.001 8.037-6.54 14.575-14.576 14.575zm-58.201-97.107c-5.086 0-7.505 1.648-10.307 3.557-1.937 1.32-4.132 2.815-7.218 3.676-2.004.559-3.403 2.375-3.403 4.418v70.88c0 5.28 4.295 9.575 9.575 9.575h69.554c5.28 0 9.575-4.295 9.575-9.575v-70.881c0-2.042-1.399-3.859-3.403-4.418-3.086-.861-5.281-2.356-7.217-3.676-2.8-1.908-5.219-3.556-10.304-3.556s-7.503 1.648-10.304 3.556c-3.043 2.074-6.493 4.425-13.12 4.425s-10.078-2.351-13.122-4.424c-2.8-1.909-5.219-3.557-10.306-3.557z" fill="#a58bc9"/><g fill="#846f75"><path d="m182.22 90.494c-2.048-4.685-3.094-9.576-3.094-14.549 0-1.381-1.119-2.5-2.5-2.5s-2.5 1.119-2.5 2.5c0 4.596.787 9.124 2.321 13.511-.155-.004-.305-.023-.461-.023-1.381 0-2.5 1.119-2.5 2.5s1.119 2.5 2.5 2.5c7.809 0 14.162 6.353 14.162 14.162v93.898c0 7.809-6.353 14.162-14.162 14.162h-95.972c-7.809 0-14.162-6.353-14.162-14.162v-93.898c0-7.809 6.353-14.162 14.162-14.162 1.381 0 2.5-1.119 2.5-2.5s-1.119-2.5-2.5-2.5c-.156 0-.306.02-.461.023 1.534-4.386 2.321-8.914 2.321-13.511 0-1.381-1.119-2.5-2.5-2.5s-2.5 1.119-2.5 2.5c0 4.973-1.047 9.864-3.094 14.549-7.51 2.595-12.927 9.719-12.927 18.1v93.898c0 10.566 8.596 19.162 19.162 19.162h95.972c10.566 0 19.162-8.596 19.162-19.162v-93.898c-.002-8.382-5.419-15.505-12.929-18.1z"/><path d="m70.459 67.831h115.082c5.287 0 9.588-4.301 9.588-9.588v-14.308c0-5.287-4.301-9.588-9.588-9.588h-115.082c-5.287 0-9.588 4.301-9.588 9.588v14.308c0 5.286 4.301 9.588 9.588 9.588zm-4.588-23.896c0-2.53 2.058-4.588 4.588-4.588h115.082c2.53 0 4.588 2.058 4.588 4.588v14.308c0 2.53-2.058 4.588-4.588 4.588h-115.082c-2.53 0-4.588-2.058-4.588-4.588z"/><path d="m116.417 193.395c.474.414 1.06.617 1.644.617.697 0 1.39-.29 1.884-.855 3.986-4.565 7.405-9.201 10.29-13.922 2.567.818 7.885 2.22 14.259 2.22 1.614 0 3.296-.09 5.016-.303 11.062-1.366 19.337-7.256 19.684-7.506.74-.534 1.131-1.429 1.019-2.334-.112-.906-.708-1.679-1.557-2.016-.333-.133-7.03-2.739-15.696-2.781 8.798-6.138 13.333-14.628 13.527-14.997.424-.808.374-1.783-.131-2.544-.505-.76-1.381-1.178-2.294-1.108-.426.036-10.542.954-19.828 7.119-1.894 1.258-3.59 2.633-5.109 4.027 1.979-7.165 2.856-14.565 2.653-22.254-.037-1.381-1.183-2.467-2.565-2.433-1.38.036-2.47 1.185-2.433 2.565.217 8.216-.905 16.088-3.373 23.698.044-2.965-.175-6.286-.9-9.723-2.351-11.145-9.064-19.059-9.349-19.39-.594-.692-1.517-1.006-2.413-.817-.893.188-1.612.849-1.877 1.723-.126.418-3.071 10.37-.72 21.514.563 2.666 1.378 5.141 2.292 7.378-1.826-1.862-3.912-3.719-6.267-5.425-10.64-7.709-22.502-9.278-23.002-9.341-.901-.114-1.801.274-2.337 1.014s-.626 1.711-.235 2.537c.216.455 5.401 11.239 16.042 18.948 7.874 5.705 16.412 8.046 20.524 8.904-2.568 4.045-5.553 8.029-8.986 11.961-.908 1.037-.802 2.616.238 3.524zm32.479-17.206c-4.923.608-9.562.057-12.956-.644 3.123-1.505 7.486-3.169 12.41-3.778 4.93-.608 9.572-.055 12.968.646-3.114 1.504-7.474 3.165-12.422 3.776zm-1.896-17.04c4.134-2.745 8.53-4.322 11.88-5.213-2.122 2.742-5.282 6.181-9.416 8.924-4.134 2.745-8.529 4.322-11.879 5.213 2.121-2.741 5.281-6.179 9.415-8.924zm-24.406-19.753c1.825 3.057 3.95 7.421 5.021 12.5 1.066 5.054.883 9.911.449 13.453-1.828-3.066-3.957-7.434-5.022-12.488-1.068-5.06-.884-9.921-.448-13.465zm-15.02 25.558c-5.373-3.893-9.254-8.754-11.634-12.287 4.099 1.161 9.928 3.335 15.3 7.228 5.373 3.893 9.254 8.754 11.634 12.288-4.099-1.162-9.928-3.336-15.3-7.229z"/></g></g></svg>