<svg id="Layer_1" enable-background="new 0 0 256 256" height="512" viewBox="0 0 256 256" width="512" xmlns="http://www.w3.org/2000/svg"><g><g fill="#f9b087"><path d="m83.269 130.519h-27.486c-1.381 0-2.5-1.119-2.5-2.5v-27.486c0-1.381 1.119-2.5 2.5-2.5h27.485c1.381 0 2.5 1.119 2.5 2.5v27.486c.001 1.38-1.119 2.5-2.499 2.5zm-24.986-5h22.485v-22.486h-22.485z"/><path d="m83.269 169.4h-27.486c-1.381 0-2.5-1.119-2.5-2.5v-27.485c0-1.381 1.119-2.5 2.5-2.5h27.485c1.381 0 2.5 1.119 2.5 2.5v27.485c.001 1.381-1.119 2.5-2.499 2.5zm-24.986-5h22.485v-22.485h-22.485z"/><path d="m122.251 130.519h-27.485c-1.381 0-2.5-1.119-2.5-2.5v-27.486c0-1.381 1.119-2.5 2.5-2.5h27.485c1.381 0 2.5 1.119 2.5 2.5v27.486c0 1.38-1.119 2.5-2.5 2.5zm-24.985-5h22.485v-22.486h-22.485z"/><path d="m161.234 130.519h-27.485c-1.381 0-2.5-1.119-2.5-2.5v-27.486c0-1.381 1.119-2.5 2.5-2.5h27.485c1.381 0 2.5 1.119 2.5 2.5v27.486c0 1.38-1.119 2.5-2.5 2.5zm-24.985-5h22.485v-22.486h-22.485z"/><path d="m200.217 130.519h-27.485c-1.381 0-2.5-1.119-2.5-2.5v-27.486c0-1.381 1.119-2.5 2.5-2.5h27.485c1.381 0 2.5 1.119 2.5 2.5v27.486c0 1.38-1.119 2.5-2.5 2.5zm-24.986-5h22.485v-22.486h-22.485z"/><path d="m200.217 169.4h-27.485c-1.381 0-2.5-1.119-2.5-2.5v-27.485c0-1.381 1.119-2.5 2.5-2.5h27.485c1.381 0 2.5 1.119 2.5 2.5v27.485c0 1.381-1.119 2.5-2.5 2.5zm-24.986-5h22.485v-22.485h-22.485z"/></g><path d="m128 212.075c-9.598 0-17.405-7.808-17.405-17.405 0-1.381 1.119-2.5 2.5-2.5s2.5 1.119 2.5 2.5c0 6.84 5.565 12.405 12.405 12.405s12.405-5.565 12.405-12.405c0-1.381 1.119-2.5 2.5-2.5s2.5 1.119 2.5 2.5c0 9.598-7.807 17.405-17.405 17.405z" fill="#ebe7f2"/><path d="m128 216.909c-9.598 0-17.405-7.808-17.405-17.405v-19.677c0-.156.005-.313.016-.469.142-2.094 1.325-3.991 3.166-5.068 1.897-1.111 4.212-1.21 6.19-.269 5.104 2.432 10.961 2.432 16.066 0 1.977-.941 4.292-.843 6.19.269 1.841 1.077 3.024 2.975 3.166 5.076.011.147.016.305.016.461v19.677c0 9.598-7.807 17.405-17.405 17.405zm-10.871-38.529c-.286 0-.571.076-.827.226-.245.144-.661.476-.703 1.099l-.004.123v19.677c0 6.84 5.565 12.405 12.405 12.405s12.405-5.565 12.405-12.405l-.004-19.792c-.042-.631-.458-.963-.703-1.106-.468-.273-1.033-.299-1.515-.07-6.473 3.082-13.895 3.082-20.367 0-.217-.105-.452-.157-.687-.157z" fill="#f9b087"/><path d="m128 205.772c-1.381 0-2.5-1.119-2.5-2.5v-24.941c0-1.381 1.119-2.5 2.5-2.5s2.5 1.119 2.5 2.5v24.941c0 1.381-1.119 2.5-2.5 2.5z" fill="#f9b087"/><g fill="#846f75"><path d="m213.667 47.14h-23.152c-1.381 0-2.5 1.119-2.5 2.5s1.119 2.5 2.5 2.5h20.652v27.986h-166.334v-27.986h18.426c1.381 0 2.5-1.119 2.5-2.5s-1.119-2.5-2.5-2.5h-20.926c-1.381 0-2.5 1.119-2.5 2.5v136.902c0 1.381 1.119 2.5 2.5 2.5h29.833c1.381 0 2.5-1.119 2.5-2.5s-1.119-2.5-2.5-2.5h-27.333v-98.916h166.334v98.916h-27.501c-1.381 0-2.5 1.119-2.5 2.5s1.119 2.5 2.5 2.5h30.001c1.381 0 2.5-1.119 2.5-2.5v-136.902c0-1.381-1.119-2.5-2.5-2.5z"/><path d="m96.74 52.14h60.293c1.381 0 2.5-1.119 2.5-2.5s-1.119-2.5-2.5-2.5h-60.293c-1.381 0-2.5 1.119-2.5 2.5s1.119 2.5 2.5 2.5z"/><path d="m79.938 74.222c5.063 0 9.181-4.118 9.181-9.181v-30.804c0-5.062-4.118-9.18-9.181-9.18-5.062 0-9.18 4.118-9.18 9.18v30.804c.001 5.063 4.119 9.181 9.18 9.181zm-4.179-39.985c0-2.305 1.875-4.18 4.18-4.18 2.306 0 4.181 1.875 4.181 4.18v30.804c0 2.306-1.875 4.181-4.181 4.181-2.305 0-4.18-1.875-4.18-4.181z"/><path d="m173.834 74.222c5.063 0 9.181-4.118 9.181-9.181v-30.804c0-5.062-4.118-9.18-9.181-9.18-5.062 0-9.18 4.118-9.18 9.18v30.804c0 5.063 4.118 9.181 9.18 9.181zm-4.18-39.985c0-2.305 1.875-4.18 4.18-4.18 2.306 0 4.181 1.875 4.181 4.18v30.804c0 2.306-1.875 4.181-4.181 4.181-2.305 0-4.18-1.875-4.18-4.181z"/><path d="m100.737 164.4c-3.266 0-5.923 2.657-5.923 5.923 0 8.825 3.426 17.133 9.646 23.393.975.978 2.556.984 3.536.011.979-.974.983-2.557.011-3.536-5.283-5.315-8.193-12.371-8.193-19.867 0-.509.414-.923.923-.923h54.525c.509 0 .923.414.923.923 0 7.496-2.91 14.552-8.193 19.867-.973.979-.968 2.563.011 3.536.488.484 1.125.727 1.763.727.643 0 1.284-.246 1.773-.737 6.221-6.26 9.646-14.567 9.646-23.393 0-3.266-2.657-5.923-5.923-5.923h-54.525z"/><path d="m128 134.273c-26.651 0-48.334 21.683-48.334 48.335 0 26.651 21.683 48.334 48.334 48.334s48.334-21.683 48.334-48.334c0-26.652-21.683-48.335-48.334-48.335zm0 91.669c-23.895 0-43.334-19.439-43.334-43.334s19.439-43.335 43.334-43.335 43.334 19.44 43.334 43.335-19.439 43.334-43.334 43.334z"/></g></g></svg>