<svg id="Layer_1" enable-background="new 0 0 256 256" height="512" viewBox="0 0 256 256" width="512" xmlns="http://www.w3.org/2000/svg"><g><path d="m202.828 128c.931-1.26 1.836-2.523 2.688-3.79 11.837-17.594 14.622-33.75 7.843-45.492s-22.157-17.403-43.319-15.955c-1.523.105-3.069.257-4.626.433-.626-1.436-1.267-2.851-1.938-4.222-9.318-19.048-21.917-29.538-35.476-29.538s-26.158 10.49-35.476 29.538c-.671 1.372-1.312 2.786-1.938 4.222-1.557-.176-3.103-.328-4.626-.433-21.159-1.453-36.54 4.211-43.319 15.955-6.779 11.742-3.994 27.898 7.843 45.492.852 1.267 1.757 2.53 2.688 3.79-.931 1.26-1.836 2.523-2.688 3.79-11.837 17.594-14.622 33.75-7.843 45.492 6.083 10.535 19.088 16.178 36.976 16.178 2.05 0 4.167-.074 6.343-.224 1.523-.105 3.069-.257 4.626-.433.626 1.436 1.267 2.851 1.938 4.222 9.318 19.048 21.917 29.538 35.476 29.538s26.158-10.49 35.476-29.538c.671-1.372 1.312-2.786 1.938-4.222 1.557.176 3.103.328 4.626.433 2.177.149 4.292.224 6.343.224 17.886 0 30.894-5.644 36.976-16.178 6.779-11.742 3.994-27.898-7.843-45.492-.852-1.267-1.757-2.53-2.688-3.79zm-32.445-60.248c19.149-1.317 32.873 3.466 38.646 13.466s3.052 24.276-7.661 40.201c-.555.825-1.141 1.649-1.732 2.471-6.589-8.127-14.734-16.025-24.065-23.355-1.682-11.747-4.45-22.749-8.193-32.519 1.007-.1 2.013-.196 3.005-.264zm-20.135 98.782c-7.351 4.244-14.819 7.917-22.248 10.996-7.428-3.079-14.897-6.752-22.248-10.996s-14.266-8.875-20.646-13.769c-1.048-7.973-1.601-16.277-1.601-24.765s.553-16.792 1.601-24.765c6.38-4.894 13.296-9.525 20.646-13.769 7.351-4.244 14.819-7.917 22.248-10.996 7.428 3.079 14.897 6.752 22.248 10.996s14.266 8.875 20.646 13.769c1.048 7.973 1.601 16.277 1.601 24.765s-.553 16.792-1.601 24.765c-6.381 4.894-13.296 9.525-20.646 13.769zm19.589-6.746c-1.727 9.948-4.276 19.249-7.569 27.566-8.849-1.307-18.179-3.75-27.657-7.229 6.074-2.715 12.147-5.803 18.137-9.262 5.99-3.458 11.701-7.173 17.089-11.075zm-48.448 20.337c-9.479 3.479-18.808 5.921-27.657 7.229-3.293-8.318-5.842-17.618-7.569-27.566 5.388 3.903 11.099 7.618 17.089 11.076 5.991 3.458 12.063 6.547 18.137 9.261zm-41.836-31.787c-7.752-6.469-14.532-13.328-20.089-20.338 5.557-7.01 12.337-13.869 20.089-20.338-.686 6.618-1.048 13.421-1.048 20.338s.362 13.72 1.048 20.338zm6.61-52.126c1.727-9.948 4.276-19.249 7.569-27.566 8.849 1.307 18.179 3.75 27.657 7.229-6.074 2.715-12.147 5.803-18.137 9.262-5.99 3.458-11.701 7.173-17.089 11.075zm48.448-20.337c9.479-3.479 18.808-5.921 27.657-7.229 3.293 8.318 5.842 17.618 7.569 27.566-5.388-3.903-11.099-7.618-17.089-11.076-5.991-3.458-12.063-6.547-18.137-9.261zm41.836 31.787c7.752 6.469 14.532 13.328 20.089 20.338-5.557 7.01-12.337 13.869-20.089 20.338.686-6.618 1.048-13.421 1.048-20.338s-.362-13.72-1.048-20.338zm-79.431-46.491c8.434-17.24 19.438-26.735 30.984-26.735s22.551 9.495 30.984 26.735c.437.894.857 1.813 1.274 2.735-10.333 1.643-21.245 4.747-32.259 9.164-11.014-4.417-21.926-7.521-32.259-9.164.419-.923.838-1.842 1.276-2.735zm-42.384 60.248c-10.713-15.924-13.435-30.201-7.661-40.201 5.773-10 19.498-14.784 38.646-13.466.992.068 1.998.164 3.006.264-3.743 9.77-6.511 20.772-8.193 32.519-9.332 7.33-17.476 15.228-24.065 23.355-.591-.822-1.177-1.646-1.733-2.471zm30.985 66.829c-19.15 1.315-32.873-3.466-38.646-13.466s-3.052-24.276 7.661-40.201c.555-.825 1.141-1.649 1.732-2.471 6.589 8.127 14.734 16.025 24.065 23.355 1.682 11.747 4.45 22.749 8.193 32.519-1.007.1-2.013.196-3.005.264zm73.367 6.581c-8.434 17.24-19.438 26.735-30.984 26.735s-22.551-9.495-30.984-26.735c-.437-.894-.857-1.813-1.274-2.735 10.333-1.643 21.245-4.747 32.259-9.164 11.014 4.417 21.926 7.521 32.259 9.164-.419.923-.838 1.842-1.276 2.735zm50.045-20.047c-5.774 10-19.502 14.782-38.646 13.466-.992-.068-1.998-.164-3.006-.264 3.743-9.77 6.511-20.772 8.193-32.519 9.332-7.33 17.476-15.228 24.065-23.355.591.823 1.177 1.646 1.732 2.471 10.714 15.924 13.435 30.201 7.662 40.201z" fill="#846f75"/><path d="m141.808 108.704c-1.506 0-2.964.292-4.321.857-2.045-3.162-5.572-5.143-9.487-5.143s-7.442 1.981-9.487 5.143c-1.357-.565-2.815-.857-4.321-.857-6.235 0-11.308 5.073-11.308 11.309 0 3.895 2.011 7.48 5.237 9.536v19.533c0 1.381 1.119 2.5 2.5 2.5h34.282c1.381 0 2.5-1.119 2.5-2.5v-19.252c3.477-1.989 5.713-5.741 5.713-9.816 0-6.237-5.073-11.31-11.308-11.31zm-28.687 37.877v-5.09h29.282v5.09zm30.902-20.669c-.975.366-1.62 1.299-1.62 2.34v8.239h-29.282v-8.43c0-.988-.582-1.883-1.485-2.285-2.279-1.013-3.752-3.275-3.752-5.763 0-3.479 2.83-6.309 6.308-6.309 1.411 0 2.75.462 3.871 1.338.647.504 1.498.658 2.279.417.782-.243 1.396-.853 1.643-1.634.833-2.635 3.25-4.405 6.015-4.405s5.182 1.771 6.015 4.405c.247.781.86 1.392 1.643 1.634.781.241 1.633.086 2.279-.417 1.122-.875 2.46-1.338 3.871-1.338 3.479 0 6.308 2.83 6.308 6.309 0 2.607-1.645 4.978-4.093 5.899z" fill="#f9b087"/><g><path d="m128 166.847c-21.373 0-38.762-17.389-38.762-38.762s17.389-38.762 38.762-38.762 38.762 17.389 38.762 38.762-17.389 38.762-38.762 38.762zm0-72.524c-18.616 0-33.762 15.146-33.762 33.762 0 18.617 15.146 33.762 33.762 33.762s33.762-15.146 33.762-33.762-15.146-33.762-33.762-33.762z" fill="#ebe7f2"/></g></g></svg>