<svg id="Layer_1" enable-background="new 0 0 256 256" height="512" viewBox="0 0 256 256" width="512" xmlns="http://www.w3.org/2000/svg"><g><path d="m215.889 126.333-8.247-4.761 7.469-2.001c1.333-.357 2.125-1.729 1.768-3.062s-1.726-2.124-3.062-1.768l-12.299 3.295-10.054-5.805 10.033-5.793 12.299 3.295c.217.058.434.085.648.085 1.104 0 2.114-.736 2.414-1.854.357-1.333-.434-2.705-1.768-3.062l-7.469-2.001 8.247-4.761c1.196-.69 1.605-2.219.915-3.415s-2.22-1.608-3.415-.915l-8.246 4.761 2.001-7.469c.357-1.333-.434-2.705-1.768-3.062-1.333-.356-2.705.434-3.062 1.768l-3.296 12.298-10.033 5.793v-11.608l9.003-9.003c.977-.976.977-2.559 0-3.535-.976-.977-2.56-.977-3.535 0l-5.468 5.468v-9.522c0-1.381-1.119-2.5-2.5-2.5s-2.5 1.119-2.5 2.5v9.522l-5.467-5.467c-.976-.977-2.56-.977-3.535 0-.977.976-.977 2.559 0 3.535l9.002 9.003v11.61l-10.033-5.793-3.295-12.298c-.357-1.334-1.726-2.123-3.062-1.768-1.333.357-2.125 1.729-1.768 3.062l2.001 7.469-8.246-4.761c-1.197-.693-2.725-.281-3.415.915s-.281 2.725.915 3.415l8.246 4.761-7.469 2.001c-1.334.357-2.125 1.729-1.768 3.062.299 1.117 1.31 1.854 2.414 1.854.214 0 .432-.028.648-.085l12.298-3.296 10.033 5.793-10.054 5.805-12.299-3.295c-1.334-.357-2.705.434-3.062 1.768-.357 1.333.435 2.705 1.768 3.062l7.469 2.001-8.247 4.761c-1.196.69-1.605 2.219-.915 3.415.463.802 1.303 1.25 2.167 1.25.424 0 .854-.108 1.248-.335l8.246-4.761-2.001 7.469c-.357 1.333.434 2.705 1.768 3.062.217.058.434.085.648.085 1.104 0 2.114-.736 2.414-1.854l3.295-12.298 10.054-5.805v11.586l-9.002 9.003c-.977.976-.977 2.559 0 3.535.488.488 1.128.732 1.768.732s1.28-.244 1.768-.732l5.467-5.467v9.522c0 1.381 1.119 2.5 2.5 2.5s2.5-1.119 2.5-2.5v-9.522l5.468 5.468c.976.977 2.56.977 3.535 0 .977-.976.977-2.559 0-3.535l-9.003-9.003v-11.586l10.055 5.805 3.295 12.298c.299 1.117 1.31 1.854 2.414 1.854.214 0 .432-.028.648-.085 1.334-.357 2.125-1.729 1.768-3.062l-2.001-7.468 8.246 4.761c.394.228.824.335 1.248.335.864 0 1.705-.448 2.167-1.25.691-1.199.281-2.728-.914-3.419z" fill="#65c1d6"/><path d="m133.847 206.293c-36.295 0-65.824-29.528-65.824-65.824 0-1.381 1.119-2.5 2.5-2.5s2.5 1.119 2.5 2.5c0 33.538 27.286 60.824 60.824 60.824 1.381 0 2.5 1.119 2.5 2.5s-1.119 2.5-2.5 2.5z" fill="#ebe7f2"/><g fill="#846f75"><path d="m186.464 65.531c-25.597 0-46.422 20.825-46.422 46.422s20.825 46.422 46.422 46.422 46.422-20.825 46.422-46.422-20.825-46.422-46.422-46.422zm0 87.845c-22.84 0-41.422-18.582-41.422-41.422s18.582-41.422 41.422-41.422 41.422 18.582 41.422 41.422-18.582 41.422-41.422 41.422z"/><path d="m199.906 162.803c-1.337-.335-2.697.478-3.033 1.817-7.92 31.602-36.237 53.673-68.862 53.673-39.143 0-70.988-31.845-70.988-70.988s31.845-70.988 70.988-70.988c5.268 0 10.519.579 15.609 1.721 1.349.298 2.684-.544 2.987-1.892.302-1.347-.545-2.685-1.892-2.987-4.049-.909-8.194-1.483-12.368-1.719v-37.342c0-1.381-1.119-2.5-2.5-2.5s-2.5 1.119-2.5 2.5v6.383c-7.947-1.091-30.434-3.004-52.938 5.929-27.387 10.871-43.754 33.428-44.437 34.383-.495.692-.604 1.587-.291 2.377.314.79 1.008 1.367 1.842 1.531.569.112 7.54 1.436 17.752 1.436 10.457 0 24.313-1.389 38.168-6.888 19.362-7.686 33.205-21.205 39.903-28.81v20.895c-41.594.36-75.324 34.294-75.324 75.971 0 41.9 34.088 75.988 75.988 75.988 34.922 0 65.234-23.627 73.712-57.458.337-1.339-.477-2.697-1.816-3.032zm-114.307-88.202c-16.576 6.58-33.506 6.897-43.664 6.253l59.525-24.574c1.276-.527 1.884-1.989 1.357-3.265-.528-1.276-1.989-1.882-3.265-1.357l-58.925 24.326c7.034-7.439 19.395-18.484 35.626-24.927 19.909-7.903 40.339-6.774 48.919-5.792-5.57 6.6-19.664 21.433-39.573 29.336z"/></g><g fill="#ebe7f2"><path d="m102.185 125.711c-6.67 0-12.096-5.426-12.096-12.096s5.426-12.096 12.096-12.096 12.096 5.426 12.096 12.096-5.427 12.096-12.096 12.096zm0-19.192c-3.913 0-7.096 3.183-7.096 7.096s3.183 7.096 7.096 7.096 7.096-3.183 7.096-7.096-3.183-7.096-7.096-7.096z"/><path d="m96.487 152.565c-5.382 0-9.76-4.378-9.76-9.76 0-5.381 4.378-9.76 9.76-9.76 5.381 0 9.76 4.378 9.76 9.76s-4.378 9.76-9.76 9.76zm0-14.52c-2.625 0-4.76 2.135-4.76 4.76s2.135 4.76 4.76 4.76 4.76-2.135 4.76-4.76c0-2.624-2.135-4.76-4.76-4.76z"/></g></g></svg>