<svg id="Layer_1" enable-background="new 0 0 256 256" height="512" viewBox="0 0 256 256" width="512" xmlns="http://www.w3.org/2000/svg"><g><g fill="#ed9abc"><path d="m110.181 159.899c-6.355 0-9.689-1.84-12.631-3.463-2.762-1.523-5.147-2.84-10.214-2.84s-7.452 1.316-10.214 2.84c-2.941 1.623-6.274 3.463-12.629 3.463s-9.688-1.84-12.629-3.463c-2.762-1.523-5.146-2.84-10.212-2.84-1.381 0-2.5-1.119-2.5-2.5s1.119-2.5 2.5-2.5c6.354 0 9.688 1.84 12.628 3.463 2.762 1.523 5.146 2.84 10.213 2.84s7.451-1.316 10.213-2.84c2.941-1.623 6.274-3.463 12.63-3.463 6.354 0 9.688 1.84 12.63 3.462 2.762 1.524 5.147 2.841 10.215 2.841 1.381 0 2.5 1.119 2.5 2.5s-1.119 2.5-2.5 2.5z"/><path d="m72.56 45.777c-1.381 0-2.5-1.119-2.5-2.5v-10.282c0-1.381 1.119-2.5 2.5-2.5s2.5 1.119 2.5 2.5v10.282c0 1.381-1.12 2.5-2.5 2.5z"/><path d="m87.339 45.777c-1.381 0-2.5-1.119-2.5-2.5v-10.282c0-1.381 1.119-2.5 2.5-2.5s2.5 1.119 2.5 2.5v10.282c0 1.381-1.119 2.5-2.5 2.5z"/><path d="m102.118 45.777c-1.381 0-2.5-1.119-2.5-2.5v-10.282c0-1.381 1.119-2.5 2.5-2.5s2.5 1.119 2.5 2.5v10.282c0 1.381-1.119 2.5-2.5 2.5z"/></g><path d="m123.008 212.971h-72.585c-1.381 0-2.5-1.119-2.5-2.5s1.119-2.5 2.5-2.5h72.585c.425 0 .693-.227.815-.361s.321-.424.279-.847l-10.161-103.605c-.135-1.374.87-2.598 2.244-2.732 1.359-.131 2.598.869 2.732 2.244l10.161 103.605c.168 1.71-.397 3.421-1.552 4.693s-2.799 2.003-4.518 2.003z" fill="#ebe7f2"/><g fill="#846f75"><path d="m133.722 186.957c.135 1.375 1.358 2.379 2.732 2.244s2.379-1.358 2.244-2.732l-9.289-94.707c-.656-6.689-6.22-11.734-12.941-11.734h-58.257c-6.723 0-12.286 5.045-12.942 11.734l-11.725 119.54c-.357 3.646.849 7.292 3.309 10.005s5.972 4.269 9.634 4.269h61.164c1.381 0 2.5-1.119 2.5-2.5s-1.119-2.5-2.5-2.5h-61.165c-2.287 0-4.394-.933-5.93-2.627-1.536-1.695-2.26-3.882-2.036-6.158l11.725-119.541c.403-4.117 3.828-7.223 7.966-7.223h58.257c4.137 0 7.562 3.105 7.965 7.223z"/><path d="m49.141 63.232h8.357v9.1c0 1.381 1.119 2.5 2.5 2.5s2.5-1.119 2.5-2.5v-9.1h49.683v9.1c0 1.381 1.119 2.5 2.5 2.5s2.5-1.119 2.5-2.5v-9.1h8.357c1.381 0 2.5-1.119 2.5-2.5v-2.598c0-15.279-12.431-27.71-27.71-27.71h-25.978c-15.278 0-27.709 12.431-27.709 27.71v2.598c0 1.381 1.119 2.5 2.5 2.5zm2.5-5.097c0-12.522 10.188-22.71 22.709-22.71h25.979c12.522 0 22.71 10.188 22.71 22.71v.098h-71.398z"/><path d="m229.953 212.824-46.257-54.835c-1.476-1.75-3.636-2.754-5.925-2.754-2.29 0-4.449 1.003-5.926 2.753l-46.257 54.837c-1.967 2.332-2.39 5.499-1.104 8.266 1.285 2.766 3.979 4.484 7.029 4.484h92.513c3.05 0 5.744-1.719 7.029-4.484 1.288-2.767.865-5.934-1.102-8.267zm-3.431 6.159c-.463.997-1.396 1.592-2.495 1.592h-92.513c-1.1 0-2.032-.595-2.495-1.592-.464-.997-.317-2.095.392-2.935l46.257-54.836v-.001c.531-.63 1.278-.977 2.104-.977.824 0 1.571.347 2.103.978l46.257 54.835c.708.842.854 1.939.39 2.936z"/><path d="m160.923 197.855c-4.731 0-8.581 3.849-8.581 8.58s3.85 8.581 8.581 8.581 8.58-3.85 8.58-8.581-3.849-8.58-8.58-8.58zm0 12.162c-1.975 0-3.581-1.606-3.581-3.581 0-1.974 1.606-3.58 3.581-3.58 1.974 0 3.58 1.606 3.58 3.58s-1.607 3.581-3.58 3.581z"/><path d="m182.232 178.132c-4.731 0-8.581 3.85-8.581 8.581s3.85 8.58 8.581 8.58 8.58-3.849 8.58-8.58-3.848-8.581-8.58-8.581zm0 12.161c-1.975 0-3.581-1.606-3.581-3.58 0-1.975 1.606-3.581 3.581-3.581 1.974 0 3.58 1.606 3.58 3.581.001 1.974-1.606 3.58-3.58 3.58z"/><path d="m171.69 140.799c4.731 0 8.581-3.85 8.581-8.581s-3.85-8.58-8.581-8.58-8.581 3.849-8.581 8.58 3.85 8.581 8.581 8.581zm0-12.161c1.975 0 3.581 1.606 3.581 3.58 0 1.975-1.606 3.581-3.581 3.581s-3.581-1.606-3.581-3.581c0-1.974 1.607-3.58 3.581-3.58z"/></g><path d="m64.604 178.492c-3.918 0-7.105-3.188-7.105-7.106s3.188-7.105 7.105-7.105c3.919 0 7.106 3.188 7.106 7.105 0 3.919-3.188 7.106-7.106 7.106zm0-9.212c-1.161 0-2.105.944-2.105 2.105s.944 2.106 2.105 2.106 2.106-.945 2.106-2.106-.945-2.105-2.106-2.105z" fill="#ed9abc"/><path d="m82.733 196.238c-3.919 0-7.106-3.188-7.106-7.106s3.188-7.106 7.106-7.106 7.105 3.188 7.105 7.106-3.187 7.106-7.105 7.106zm0-9.213c-1.161 0-2.106.945-2.106 2.106s.945 2.106 2.106 2.106 2.105-.945 2.105-2.106-.943-2.106-2.105-2.106z" fill="#ed9abc"/><path d="m100.477 178.492c-3.918 0-7.105-3.188-7.105-7.106s3.188-7.105 7.105-7.105c3.919 0 7.106 3.188 7.106 7.105 0 3.919-3.187 7.106-7.106 7.106zm0-9.212c-1.161 0-2.105.944-2.105 2.105s.944 2.106 2.105 2.106 2.106-.945 2.106-2.106-.945-2.105-2.106-2.105z" fill="#ed9abc"/></g></svg>