<svg id="Layer_1" enable-background="new 0 0 256 256" height="512" viewBox="0 0 256 256" width="512" xmlns="http://www.w3.org/2000/svg"><g><g fill="#ebe7f2"><path d="m188.53 195.051c-11.587 0-21.741-7.817-24.691-19.009-.352-1.335.445-2.703 1.78-3.055 1.334-.35 2.702.445 3.055 1.78 2.372 8.999 10.538 15.283 19.856 15.283s17.484-6.285 19.856-15.283c.353-1.335 1.721-2.131 3.055-1.78 1.335.352 2.132 1.72 1.78 3.055-2.95 11.192-13.104 19.009-24.691 19.009z"/><path d="m65.831 195.051c-11.587 0-21.741-7.816-24.692-19.009-.352-1.335.445-2.703 1.78-3.055 1.334-.35 2.703.445 3.055 1.78 2.373 8.999 10.538 15.283 19.857 15.283 9.318 0 17.484-6.285 19.856-15.283.353-1.335 1.721-2.131 3.055-1.78 1.335.352 2.132 1.72 1.78 3.055-2.951 11.192-13.104 19.009-24.691 19.009z"/><path d="m46.795 170.821h-22.777c-1.381 0-2.5-1.119-2.5-2.5s1.119-2.5 2.5-2.5h22.777c1.381 0 2.5 1.119 2.5 2.5s-1.119 2.5-2.5 2.5z"/><path d="m169.494 170.821h-84.627c-1.381 0-2.5-1.119-2.5-2.5s1.119-2.5 2.5-2.5h84.627c1.381 0 2.5 1.119 2.5 2.5s-1.119 2.5-2.5 2.5z"/><path d="m231.982 170.821h-24.417c-1.381 0-2.5-1.119-2.5-2.5s1.119-2.5 2.5-2.5h24.417c1.381 0 2.5 1.119 2.5 2.5s-1.119 2.5-2.5 2.5z"/><path d="m171.771 120.379h-12.795c-1.381 0-2.5-1.119-2.5-2.5s1.119-2.5 2.5-2.5h12.795c1.381 0 2.5 1.119 2.5 2.5s-1.119 2.5-2.5 2.5z"/></g><path d="m34.12 150.894c-.675 0-1.348-.271-1.84-.808-.935-1.016-.869-2.598.147-3.532l14.698-13.519c.461-.425 1.065-.66 1.692-.66h68.59c.627 0 1.231.235 1.692.66l14.698 13.519c1.016.935 1.083 2.516.147 3.532s-2.516 1.082-3.532.147l-13.98-12.858h-66.64l-13.98 12.858c-.48.442-1.087.661-1.692.661z" fill="#ed9abc"/><g fill="#846f75"><path d="m155.676 178.793h-55.156c-1.381 0-2.5 1.119-2.5 2.5s1.119 2.5 2.5 2.5h55.156c1.381 0 2.5-1.119 2.5-2.5s-1.119-2.5-2.5-2.5z"/><path d="m65.831 155.76c-14.079 0-25.534 11.455-25.534 25.534 0 14.08 11.455 25.534 25.534 25.534 14.08 0 25.534-11.455 25.534-25.534 0-14.08-11.455-25.534-25.534-25.534zm0 46.068c-11.322 0-20.534-9.211-20.534-20.534 0-11.322 9.211-20.534 20.534-20.534s20.534 9.211 20.534 20.534c0 11.322-9.212 20.534-20.534 20.534z"/><path d="m188.53 155.76c-14.08 0-25.534 11.455-25.534 25.534 0 14.08 11.455 25.534 25.534 25.534s25.534-11.455 25.534-25.534c0-14.08-11.455-25.534-25.534-25.534zm0 46.068c-11.323 0-20.534-9.211-20.534-20.534 0-11.322 9.211-20.534 20.534-20.534s20.534 9.211 20.534 20.534c0 11.322-9.211 20.534-20.534 20.534z"/><path d="m233.833 112.93-20.086-45.973c-1.655-3.788-5.395-6.235-9.528-6.235h-52.143c-4.282 0-7.765 3.483-7.765 7.765v77.406h-9.705v-94.221c0-.859-.441-1.658-1.168-2.116s-1.639-.51-2.413-.138l-11.169 5.36-11.17-5.36c-.683-.328-1.479-.328-2.163 0l-11.168 5.36-11.167-5.36c-.684-.328-1.48-.328-2.164 0l-11.163 5.36-11.166-5.36c-.685-.328-1.479-.328-2.164 0l-11.165 5.36-11.164-5.36c-.774-.371-1.685-.319-2.414.138-.727.458-1.168 1.257-1.168 2.116v94.221h-7.602c-1.381 0-2.5 1.119-2.5 2.5v32.9c0 1.381 1.119 2.5 2.5 2.5h8.98c1.381 0 2.5-1.119 2.5-2.5s-1.119-2.5-2.5-2.5h-6.48v-27.9h202.965v27.9h-8.443c-1.381 0-2.5 1.119-2.5 2.5s1.119 2.5 2.5 2.5h10.943c1.381 0 2.5-1.119 2.5-2.5v-65.254c-.001-1.076-.219-2.122-.65-3.109zm-4.351 22.864h-15.418v-15.418h15.418zm-192.862 10.1v-90.248l8.664 4.16c.685.328 1.479.328 2.164 0l11.165-5.36 11.166 5.36c.685.328 1.48.328 2.164 0l11.163-5.36 11.167 5.36c.684.328 1.479.328 2.163 0l11.168-5.36 11.17 5.36c.684.328 1.479.328 2.163 0l8.669-4.16v90.249h-92.986zm112.691 0v-77.407c0-1.525 1.24-2.765 2.765-2.765h52.143c2.146 0 4.087 1.271 4.946 3.237l20.086 45.973c.063.144.105.293.142.444h-17.829c-1.381 0-2.5 1.119-2.5 2.5v20.418c0 1.381 1.119 2.5 2.5 2.5h17.918v5.099h-80.171z"/><path d="m217.033 107.177c.462-.706.537-1.597.199-2.37l-12.285-28.119c-1.248-2.854-4.066-4.699-7.181-4.699h-35.231c-3.34 0-6.058 2.717-6.058 6.058v27.761c0 1.381 1.119 2.5 2.5 2.5h55.964c.843 0 1.63-.426 2.092-1.131zm-55.556-3.869v-25.262c0-.583.475-1.058 1.058-1.058h35.231c1.127 0 2.148.667 2.599 1.701l10.756 24.618h-49.644z"/></g><path d="m100.016 120.379h-34.282c-1.381 0-2.5-1.119-2.5-2.5v-19.532c-3.227-2.056-5.237-5.641-5.237-9.535 0-6.235 5.073-11.309 11.309-11.309 1.506 0 2.964.292 4.321.857 2.045-3.161 5.571-5.142 9.487-5.142s7.442 1.981 9.487 5.142c1.357-.565 2.815-.857 4.321-.857 6.235 0 11.309 5.073 11.309 11.309 0 4.076-2.237 7.827-5.714 9.816v19.251c-.001 1.381-1.121 2.5-2.501 2.5zm-31.782-5h29.282v-18.329c0-1.042.646-1.974 1.621-2.34 2.448-.92 4.093-3.291 4.093-5.898 0-3.479-2.83-6.309-6.309-6.309-1.412 0-2.75.462-3.871 1.337-.646.504-1.498.658-2.279.417-.782-.243-1.396-.854-1.643-1.634-.833-2.635-3.25-4.405-6.015-4.405s-5.182 1.77-6.015 4.405c-.247.781-.86 1.392-1.643 1.634-.781.242-1.632.088-2.279-.417-1.121-.875-2.459-1.337-3.871-1.337-3.479 0-6.309 2.83-6.309 6.309 0 2.488 1.473 4.75 3.752 5.763.903.401 1.485 1.297 1.485 2.285v18.519z" fill="#ed9abc"/><path d="m99.221 110.289h-32.692c-1.381 0-2.5-1.119-2.5-2.5s1.119-2.5 2.5-2.5h32.692c1.381 0 2.5 1.119 2.5 2.5s-1.119 2.5-2.5 2.5z" fill="#ed9abc"/></g></svg>