<svg id="Layer_1" enable-background="new 0 0 256 256" height="512" viewBox="0 0 256 256" width="512" xmlns="http://www.w3.org/2000/svg"><g><path d="m182.476 70.688c-.37 0-.739-.082-1.082-.246l-17.082-8.198-17.08 8.198c-.684.328-1.48.328-2.164 0l-17.079-8.198-17.073 8.198c-.684.328-1.479.328-2.164 0l-17.078-8.198-17.076 8.198c-.685.328-1.48.328-2.164 0l-18.157-8.717c-1.245-.598-1.769-2.091-1.172-3.336s2.09-1.771 3.336-1.172l17.075 8.198 17.076-8.198c.685-.328 1.479-.328 2.164 0l17.078 8.198 17.073-8.198c.684-.328 1.48-.328 2.164 0l17.079 8.198 17.08-8.198c.684-.328 1.479-.328 2.164 0l17.082 8.198 17.083-8.198c1.249-.597 2.74-.072 3.336 1.172.598 1.245.072 2.738-1.172 3.335l-18.165 8.717c-.342.164-.712.247-1.082.247z" fill="#ebe7f2"/><path d="m201.972 39.355c-.726-.458-1.637-.509-2.413-.138l-17.083 8.198-17.082-8.198c-.686-.328-1.48-.328-2.164 0l-17.08 8.198-17.079-8.198c-.684-.328-1.48-.328-2.164 0l-17.073 8.198-17.078-8.198c-.685-.328-1.479-.328-2.164 0l-17.076 8.198-17.075-8.198c-.774-.371-1.685-.319-2.414.138-.727.458-1.168 1.257-1.168 2.116v173.059c0 1.381 1.119 2.5 2.5 2.5h145.281c1.381 0 2.5-1.119 2.5-2.5v-173.059c.001-.86-.441-1.658-1.168-2.116zm-129.537 13.086c.684.328 1.479.328 2.164 0l17.076-8.198 17.078 8.198c.685.328 1.48.328 2.164 0l17.073-8.198 17.079 8.198c.684.328 1.48.328 2.164 0l17.08-8.198 17.082 8.198c.686.328 1.48.328 2.164 0l14.583-6.998v162.39l-17.6-16.187c-.461-.425-1.065-.66-1.692-.66h-101.698c-.627 0-1.231.235-1.692.66l-17.6 16.187v-162.389zm122.882 159.588h-134.634l17.443-16.043h99.748z" fill="#846f75"/><path d="m151.816 101.455c-2.89 0-5.669.688-8.18 2.009-3.021-5.729-8.968-9.401-15.637-9.401-6.668 0-12.616 3.672-15.637 9.401-2.511-1.321-5.29-2.009-8.18-2.009-9.756 0-17.693 7.937-17.693 17.693 0 6.423 3.497 12.31 9.034 15.421v34.718c0 1.381 1.119 2.5 2.5 2.5h59.132c1.381 0 2.5-1.119 2.5-2.5v-34.292c5.96-2.957 9.855-9.119 9.855-15.846.001-9.757-7.937-17.694-17.694-17.694zm-51.293 65.332v-12.405h54.132v12.405zm55.752-35.768c-.975.367-1.62 1.299-1.62 2.34v16.023h-54.132v-16.352c0-.988-.582-1.883-1.485-2.285-4.585-2.038-7.549-6.59-7.549-11.597 0-6.999 5.694-12.693 12.693-12.693 2.842 0 5.537.93 7.792 2.69.646.504 1.497.659 2.279.417.782-.243 1.396-.854 1.643-1.634 1.676-5.302 6.54-8.864 12.103-8.864s10.428 3.562 12.103 8.864c.247.781.86 1.391 1.643 1.634.781.241 1.633.087 2.279-.417 2.256-1.76 4.95-2.69 7.792-2.69 7 0 12.694 5.694 12.694 12.693.001 5.248-3.309 10.019-8.235 11.871z" fill="#a58bc9"/></g></svg>