<svg id="Layer_1" enable-background="new 0 0 256 256" height="512" viewBox="0 0 256 256" width="512" xmlns="http://www.w3.org/2000/svg"><g><path d="m113.111 206.773c-11.342 0-22.191-4.605-30.561-12.976-11.813-11.813-20.002-33.949-4.202-57.458.771-1.145 2.325-1.452 3.47-.68 1.146.77 1.45 2.323.681 3.469-14.091 20.965-7.386 40.16 3.587 51.133 7.425 7.425 17.02 11.511 27.025 11.511h.101c11.642-.032 23.351-5.604 33.861-16.115 12.476-12.475 27.016-20.977 39.844-28.479 23.741-13.885 35.153-21.37 35.153-39.641 0-34.88-28.378-63.258-63.26-63.258-18.272 0-25.757 11.412-39.642 35.153-.971 1.661-1.959 3.351-2.972 5.062-.703 1.189-2.237 1.581-3.424.879-1.188-.703-1.582-2.236-.879-3.425 1.007-1.703 1.991-3.386 2.958-5.04 14.055-24.033 23.026-37.629 43.958-37.629 37.639 0 68.26 30.62 68.26 68.258 0 20.931-13.597 29.902-37.63 43.958-12.567 7.349-26.812 15.679-38.832 27.698-11.465 11.464-24.391 17.543-37.383 17.579-.036.001-.075.001-.113.001z" fill="#f9b087"/><path d="m101.289 122.405c-18.282 0-44.897-14.744-60.731-30.579-16.121-16.12-19.916-31.593-11.28-45.989.712-1.186 2.249-1.566 3.43-.858 1.184.71 1.568 2.246.857 3.43-7.303 12.174-3.761 25.593 10.528 39.882 18.394 18.394 47.338 31.779 61.941 28.653 1.35-.291 2.68.57 2.969 1.92s-.57 2.679-1.92 2.968c-1.809.388-3.751.573-5.794.573z" fill="#ebe7f2"/><g fill="#846f75"><path d="m158.811 35.182c-27.485 0-40.273 17.807-53.02 39.319-.704 1.188-.312 2.721.876 3.425 1.187.703 2.721.313 3.425-.876 12.378-20.889 23.824-36.868 48.719-36.868 42.655 0 77.357 34.703 77.357 77.357 0 27.171-19.525 38.59-42.135 51.813-12.686 7.418-25.804 15.09-36.99 26.277-27.855 27.856-57.893 22.59-75.15 9.618-17.763-13.351-29.769-40.623-14.155-68.951.666-1.209.227-2.729-.982-3.396-1.209-.666-2.73-.227-3.396.983-17.053 30.94-3.903 60.753 15.529 75.36 8.976 6.746 21.084 11.61 34.562 11.61 14.842-.001 31.343-5.902 47.129-21.689 10.731-10.731 23.567-18.238 35.979-25.497 22.941-13.417 44.61-26.089 44.61-56.128-.001-45.412-36.946-82.357-82.358-82.357z"/><path d="m105.863 127.285c14.982-14.983-5.401-55.248-25.459-75.305-24.383-24.383-43.055-15.949-54.425-4.58-11.37 11.37-19.805 30.042 4.579 54.425 15.221 15.221 42.076 30.629 60.691 30.629 5.916.001 11.001-1.556 14.614-5.169zm-76.349-76.349c6.406-6.405 13.164-9.605 20.238-9.605 8.599 0 17.664 4.731 27.117 14.184 20.649 20.65 36.776 56.917 25.459 68.235-11.321 11.315-47.586-4.81-68.235-25.459-17.23-17.231-18.771-33.163-4.579-47.355z"/><path d="m135.701 166.401c0-.663-.264-1.299-.732-1.768l-29.715-29.715c-.977-.977-2.559-.977-3.535 0-.977.976-.977 2.559 0 3.535l28.15 28.151c-1.048 1.692-1.607 3.646-1.607 5.686 0 2.893 1.126 5.612 3.172 7.657 2.045 2.045 4.764 3.172 7.656 3.172s5.612-1.126 7.657-3.171c2.364-2.364 3.404-5.558 3.121-8.652.331.03.664.045 1 .045 2.894 0 5.612-1.126 7.657-3.171 2.046-2.045 3.172-4.765 3.172-7.658s-1.126-5.612-3.172-7.657c-2.045-2.045-4.764-3.172-7.656-3.172-2.04 0-3.993.56-5.686 1.608l-28.151-28.15c-.977-.977-2.559-.977-3.535 0-.977.976-.977 2.559 0 3.535l29.715 29.714c.977.977 2.559.976 3.535 0 1.102-1.101 2.565-1.708 4.122-1.708s3.021.606 4.121 1.708c1.101 1.101 1.707 2.564 1.707 4.121s-.606 3.021-1.707 4.122-2.564 1.707-4.122 1.707c-1.557 0-3.021-.606-4.121-1.707-.977-.977-2.559-.976-3.535 0-.488.488-.732 1.128-.732 1.768s.244 1.279.732 1.768c2.272 2.273 2.272 5.971 0 8.243-1.102 1.101-2.565 1.708-4.122 1.708s-3.021-.606-4.121-1.708c-1.101-1.101-1.707-2.564-1.707-4.121s.606-3.021 1.707-4.121c.469-.469.732-1.106.732-1.769z"/><path d="m177.091 144.1c16.777 0 30.427-13.649 30.427-30.427s-13.649-30.427-30.427-30.427-30.428 13.649-30.428 30.427 13.65 30.427 30.428 30.427zm0-55.854c14.021 0 25.427 11.407 25.427 25.427s-11.407 25.427-25.427 25.427-25.428-11.407-25.428-25.427 11.407-25.427 25.428-25.427z"/></g><path d="m174.26 124.802c-.64 0-1.279-.244-1.768-.732l-9.376-9.375c-.977-.976-.977-2.559 0-3.535.977-.977 2.559-.977 3.535 0l7.608 7.607 14.848-14.847c.977-.977 2.559-.977 3.535 0 .977.976.977 2.559 0 3.535l-16.615 16.615c-.488.488-1.128.732-1.767.732z" fill="#f9b087"/></g></svg>