<svg id="Layer_1" enable-background="new 0 0 256 256" height="512" viewBox="0 0 256 256" width="512" xmlns="http://www.w3.org/2000/svg"><g><path d="m71.293 167.283c-1.381 0-2.5-1.119-2.5-2.5v-5.388c0-1.381 1.119-2.5 2.5-2.5s2.5 1.119 2.5 2.5v5.388c0 1.381-1.119 2.5-2.5 2.5z" fill="#ebe7f2"/><path d="m83.667 167.283c-1.381 0-2.5-1.119-2.5-2.5v-5.388c0-1.381 1.119-2.5 2.5-2.5s2.5 1.119 2.5 2.5v5.388c0 1.381-1.12 2.5-2.5 2.5z" fill="#ebe7f2"/><g fill="#65c1d6"><path d="m61.725 227.965c-1.381 0-2.5-1.119-2.5-2.5v-12.945c0-1.381 1.119-2.5 2.5-2.5s2.5 1.119 2.5 2.5v12.945c0 1.381-1.12 2.5-2.5 2.5z"/><path d="m93.235 227.965c-1.381 0-2.5-1.119-2.5-2.5v-12.945c0-1.381 1.119-2.5 2.5-2.5s2.5 1.119 2.5 2.5v12.945c0 1.381-1.119 2.5-2.5 2.5z"/><path d="m88.235 156.895h-21.51c-4.136 0-7.5 3.364-7.5 7.5v28.125c0 1.381 1.119 2.5 2.5 2.5s2.5-1.119 2.5-2.5v-15.902h26.511v15.902c0 1.381 1.119 2.5 2.5 2.5s2.5-1.119 2.5-2.5v-28.125c-.001-4.136-3.365-7.5-7.501-7.5zm-24.01 14.723v-7.223c0-1.378 1.122-2.5 2.5-2.5h21.511c1.378 0 2.5 1.122 2.5 2.5v7.223z"/></g><path d="m121.895 167.283c-1.381 0-2.5-1.119-2.5-2.5v-5.388c0-1.381 1.119-2.5 2.5-2.5s2.5 1.119 2.5 2.5v5.388c0 1.381-1.12 2.5-2.5 2.5z" fill="#ebe7f2"/><path d="m134.268 167.283c-1.381 0-2.5-1.119-2.5-2.5v-5.388c0-1.381 1.119-2.5 2.5-2.5s2.5 1.119 2.5 2.5v5.388c0 1.381-1.12 2.5-2.5 2.5z" fill="#ebe7f2"/><path d="m112.326 227.965c-1.381 0-2.5-1.119-2.5-2.5v-12.945c0-1.381 1.119-2.5 2.5-2.5s2.5 1.119 2.5 2.5v12.945c0 1.381-1.119 2.5-2.5 2.5z" fill="#65c1d6"/><path d="m143.837 227.965c-1.381 0-2.5-1.119-2.5-2.5v-12.945c0-1.381 1.119-2.5 2.5-2.5s2.5 1.119 2.5 2.5v12.945c0 1.381-1.119 2.5-2.5 2.5z" fill="#65c1d6"/><path d="m138.837 156.895h-21.511c-4.136 0-7.5 3.364-7.5 7.5v28.125c0 1.381 1.119 2.5 2.5 2.5s2.5-1.119 2.5-2.5v-15.902h26.511v15.902c0 1.381 1.119 2.5 2.5 2.5s2.5-1.119 2.5-2.5v-28.125c0-4.136-3.364-7.5-7.5-7.5zm-24.011 14.723v-7.223c0-1.378 1.122-2.5 2.5-2.5h21.511c1.379 0 2.5 1.122 2.5 2.5v7.223z" fill="#65c1d6"/><path d="m172.496 167.283c-1.381 0-2.5-1.119-2.5-2.5v-5.388c0-1.381 1.119-2.5 2.5-2.5s2.5 1.119 2.5 2.5v5.388c0 1.381-1.119 2.5-2.5 2.5z" fill="#ebe7f2"/><path d="m184.869 167.283c-1.381 0-2.5-1.119-2.5-2.5v-5.388c0-1.381 1.119-2.5 2.5-2.5s2.5 1.119 2.5 2.5v5.388c0 1.381-1.119 2.5-2.5 2.5z" fill="#ebe7f2"/><path d="m162.927 227.965c-1.381 0-2.5-1.119-2.5-2.5v-12.945c0-1.381 1.119-2.5 2.5-2.5s2.5 1.119 2.5 2.5v12.945c0 1.381-1.119 2.5-2.5 2.5z" fill="#65c1d6"/><path d="m194.437 227.965c-1.381 0-2.5-1.119-2.5-2.5v-12.945c0-1.381 1.119-2.5 2.5-2.5s2.5 1.119 2.5 2.5v12.945c0 1.381-1.119 2.5-2.5 2.5z" fill="#65c1d6"/><path d="m189.437 156.895h-21.511c-4.136 0-7.5 3.364-7.5 7.5v28.125c0 1.381 1.119 2.5 2.5 2.5s2.5-1.119 2.5-2.5v-15.902h26.511v15.902c0 1.381 1.119 2.5 2.5 2.5s2.5-1.119 2.5-2.5v-28.125c0-4.136-3.364-7.5-7.5-7.5zm-24.01 14.723v-7.223c0-1.378 1.121-2.5 2.5-2.5h21.511c1.379 0 2.5 1.122 2.5 2.5v7.223z" fill="#65c1d6"/><path d="m71.293 75.764c-1.381 0-2.5-1.119-2.5-2.5v-5.388c0-1.381 1.119-2.5 2.5-2.5s2.5 1.119 2.5 2.5v5.388c0 1.381-1.119 2.5-2.5 2.5z" fill="#ebe7f2"/><path d="m83.667 75.764c-1.381 0-2.5-1.119-2.5-2.5v-5.388c0-1.381 1.119-2.5 2.5-2.5s2.5 1.119 2.5 2.5v5.388c0 1.381-1.12 2.5-2.5 2.5z" fill="#ebe7f2"/><path d="m61.725 136.446c-1.381 0-2.5-1.119-2.5-2.5v-12.946c0-1.381 1.119-2.5 2.5-2.5s2.5 1.119 2.5 2.5v12.945c0 1.382-1.12 2.501-2.5 2.501z" fill="#65c1d6"/><path d="m93.235 136.446c-1.381 0-2.5-1.119-2.5-2.5v-12.946c0-1.381 1.119-2.5 2.5-2.5s2.5 1.119 2.5 2.5v12.945c0 1.382-1.119 2.501-2.5 2.501z" fill="#65c1d6"/><path d="m88.235 65.376h-21.51c-4.136 0-7.5 3.364-7.5 7.5v28.124c0 1.381 1.119 2.5 2.5 2.5s2.5-1.119 2.5-2.5v-15.901h26.511v15.901c0 1.381 1.119 2.5 2.5 2.5s2.5-1.119 2.5-2.5v-28.124c-.001-4.135-3.365-7.5-7.501-7.5zm-24.01 14.723v-7.222c0-1.378 1.122-2.5 2.5-2.5h21.511c1.378 0 2.5 1.122 2.5 2.5v7.222z" fill="#65c1d6"/><path d="m121.895 75.764c-1.381 0-2.5-1.119-2.5-2.5v-5.388c0-1.381 1.119-2.5 2.5-2.5s2.5 1.119 2.5 2.5v5.388c0 1.381-1.12 2.5-2.5 2.5z" fill="#ebe7f2"/><path d="m134.268 75.764c-1.381 0-2.5-1.119-2.5-2.5v-5.388c0-1.381 1.119-2.5 2.5-2.5s2.5 1.119 2.5 2.5v5.388c0 1.381-1.12 2.5-2.5 2.5z" fill="#ebe7f2"/><path d="m112.326 136.446c-1.381 0-2.5-1.119-2.5-2.5v-12.946c0-1.381 1.119-2.5 2.5-2.5s2.5 1.119 2.5 2.5v12.945c0 1.382-1.119 2.501-2.5 2.501z" fill="#65c1d6"/><path d="m143.837 136.446c-1.381 0-2.5-1.119-2.5-2.5v-12.946c0-1.381 1.119-2.5 2.5-2.5s2.5 1.119 2.5 2.5v12.945c0 1.382-1.119 2.501-2.5 2.501z" fill="#65c1d6"/><path d="m138.837 65.376h-21.511c-4.136 0-7.5 3.364-7.5 7.5v28.124c0 1.381 1.119 2.5 2.5 2.5s2.5-1.119 2.5-2.5v-15.901h26.511v15.901c0 1.381 1.119 2.5 2.5 2.5s2.5-1.119 2.5-2.5v-28.124c0-4.135-3.364-7.5-7.5-7.5zm-24.011 14.723v-7.222c0-1.378 1.122-2.5 2.5-2.5h21.511c1.379 0 2.5 1.122 2.5 2.5v7.222z" fill="#65c1d6"/><path d="m172.496 75.764c-1.381 0-2.5-1.119-2.5-2.5v-5.388c0-1.381 1.119-2.5 2.5-2.5s2.5 1.119 2.5 2.5v5.388c0 1.381-1.119 2.5-2.5 2.5z" fill="#ebe7f2"/><path d="m184.869 75.764c-1.381 0-2.5-1.119-2.5-2.5v-5.388c0-1.381 1.119-2.5 2.5-2.5s2.5 1.119 2.5 2.5v5.388c0 1.381-1.119 2.5-2.5 2.5z" fill="#ebe7f2"/><path d="m162.927 136.446c-1.381 0-2.5-1.119-2.5-2.5v-12.946c0-1.381 1.119-2.5 2.5-2.5s2.5 1.119 2.5 2.5v12.945c0 1.382-1.119 2.501-2.5 2.501z" fill="#65c1d6"/><path d="m194.437 136.446c-1.381 0-2.5-1.119-2.5-2.5v-12.946c0-1.381 1.119-2.5 2.5-2.5s2.5 1.119 2.5 2.5v12.945c0 1.382-1.119 2.501-2.5 2.501z" fill="#65c1d6"/><path d="m189.437 65.376h-21.511c-4.136 0-7.5 3.364-7.5 7.5v28.124c0 1.381 1.119 2.5 2.5 2.5s2.5-1.119 2.5-2.5v-15.901h26.511v15.901c0 1.381 1.119 2.5 2.5 2.5s2.5-1.119 2.5-2.5v-28.124c0-4.135-3.364-7.5-7.5-7.5zm-24.01 14.723v-7.222c0-1.378 1.121-2.5 2.5-2.5h21.511c1.379 0 2.5 1.122 2.5 2.5v7.222z" fill="#65c1d6"/><g fill="#846f75"><path d="m212.163 131.607h-168.327c-1.381 0-2.5 1.119-2.5 2.5v68.413c0 1.381 1.119 2.5 2.5 2.5h168.327c1.381 0 2.5-1.119 2.5-2.5v-68.413c0-1.381-1.119-2.5-2.5-2.5zm-2.5 68.413h-163.327v-63.413h163.327z"/><path d="m223.546 65.538h-3.926v-19.217c0-1.381-1.119-2.5-2.5-2.5h-77.486v-4.232c0-6.371-5.183-11.553-11.553-11.553s-11.553 5.183-11.553 11.553v4.232h-77.08c-1.381 0-2.5 1.119-2.5 2.5v19.217h-4.494c-1.381 0-2.5 1.119-2.5 2.5v157.427c0 1.381 1.119 2.5 2.5 2.5h191.092c1.381 0 2.5-1.119 2.5-2.5v-157.427c0-1.381-1.119-2.5-2.5-2.5zm-102.018-25.95c0-3.613 2.939-6.553 6.553-6.553s6.553 2.94 6.553 6.553v4.232h-13.105v-4.232zm-79.58 9.233h172.672v16.717h-2.457c-1.381 0-2.5 1.119-2.5 2.5v40.625h-163.327v-40.625c0-1.381-1.119-2.5-2.5-2.5h-1.889v-16.717zm179.098 174.144h-186.092v-152.427h6.382v40.625c0 1.381 1.119 2.5 2.5 2.5h168.327c1.381 0 2.5-1.119 2.5-2.5v-40.625h6.383z"/></g></g></svg>