<svg id="Layer_1" enable-background="new 0 0 256 256" height="512" viewBox="0 0 256 256" width="512" xmlns="http://www.w3.org/2000/svg"><g><g fill="#ebe7f2"><path d="m181.166 240.517c-1.381 0-2.5-1.119-2.5-2.5v-12.626c0-1.381 1.119-2.5 2.5-2.5s2.5 1.119 2.5 2.5v12.626c0 1.38-1.119 2.5-2.5 2.5z"/><path d="m181.166 160.771c-1.381 0-2.5-1.119-2.5-2.5v-15.518c0-1.381 1.119-2.5 2.5-2.5s2.5 1.119 2.5 2.5v15.518c0 1.38-1.119 2.5-2.5 2.5z"/><path d="m190.175 160.771h-18.017c-1.381 0-2.5-1.119-2.5-2.5s1.119-2.5 2.5-2.5h18.017c1.381 0 2.5 1.119 2.5 2.5s-1.119 2.5-2.5 2.5z"/><path d="m190.175 174.194h-18.017c-1.381 0-2.5-1.119-2.5-2.5s1.119-2.5 2.5-2.5h18.017c1.381 0 2.5 1.119 2.5 2.5s-1.119 2.5-2.5 2.5z"/><path d="m190.175 187.619h-18.017c-1.381 0-2.5-1.119-2.5-2.5s1.119-2.5 2.5-2.5h18.017c1.381 0 2.5 1.119 2.5 2.5s-1.119 2.5-2.5 2.5z"/><path d="m190.175 201.043h-18.017c-1.381 0-2.5-1.119-2.5-2.5s1.119-2.5 2.5-2.5h18.017c1.381 0 2.5 1.119 2.5 2.5s-1.119 2.5-2.5 2.5z"/><path d="m190.175 214.467h-18.017c-1.381 0-2.5-1.119-2.5-2.5s1.119-2.5 2.5-2.5h18.017c1.381 0 2.5 1.119 2.5 2.5s-1.119 2.5-2.5 2.5z"/><path d="m190.175 227.891h-18.017c-1.381 0-2.5-1.119-2.5-2.5s1.119-2.5 2.5-2.5h18.017c1.381 0 2.5 1.119 2.5 2.5s-1.119 2.5-2.5 2.5z"/><path d="m181.166 187.619c-1.381 0-2.5-1.119-2.5-2.5v-13.425c0-1.381 1.119-2.5 2.5-2.5s2.5 1.119 2.5 2.5v13.425c0 1.381-1.119 2.5-2.5 2.5z"/><path d="m181.166 214.467c-1.381 0-2.5-1.119-2.5-2.5v-13.424c0-1.381 1.119-2.5 2.5-2.5s2.5 1.119 2.5 2.5v13.424c0 1.381-1.119 2.5-2.5 2.5z"/><path d="m74.833 240.517c-1.381 0-2.5-1.119-2.5-2.5v-12.626c0-1.381 1.119-2.5 2.5-2.5s2.5 1.119 2.5 2.5v12.626c0 1.38-1.119 2.5-2.5 2.5z"/><path d="m74.833 160.771c-1.381 0-2.5-1.119-2.5-2.5v-15.518c0-1.381 1.119-2.5 2.5-2.5s2.5 1.119 2.5 2.5v15.518c0 1.38-1.119 2.5-2.5 2.5z"/><path d="m83.842 160.771h-18.016c-1.381 0-2.5-1.119-2.5-2.5s1.119-2.5 2.5-2.5h18.016c1.381 0 2.5 1.119 2.5 2.5s-1.119 2.5-2.5 2.5z"/><path d="m83.842 174.194h-18.016c-1.381 0-2.5-1.119-2.5-2.5s1.119-2.5 2.5-2.5h18.016c1.381 0 2.5 1.119 2.5 2.5s-1.119 2.5-2.5 2.5z"/><path d="m83.842 187.619h-18.016c-1.381 0-2.5-1.119-2.5-2.5s1.119-2.5 2.5-2.5h18.016c1.381 0 2.5 1.119 2.5 2.5s-1.119 2.5-2.5 2.5z"/><path d="m83.842 201.043h-18.016c-1.381 0-2.5-1.119-2.5-2.5s1.119-2.5 2.5-2.5h18.016c1.381 0 2.5 1.119 2.5 2.5s-1.119 2.5-2.5 2.5z"/><path d="m83.842 214.467h-18.016c-1.381 0-2.5-1.119-2.5-2.5s1.119-2.5 2.5-2.5h18.016c1.381 0 2.5 1.119 2.5 2.5s-1.119 2.5-2.5 2.5z"/><path d="m83.842 227.891h-18.016c-1.381 0-2.5-1.119-2.5-2.5s1.119-2.5 2.5-2.5h18.016c1.381 0 2.5 1.119 2.5 2.5s-1.119 2.5-2.5 2.5z"/><path d="m74.833 187.619c-1.381 0-2.5-1.119-2.5-2.5v-13.425c0-1.381 1.119-2.5 2.5-2.5s2.5 1.119 2.5 2.5v13.425c0 1.381-1.119 2.5-2.5 2.5z"/><path d="m74.833 214.467c-1.381 0-2.5-1.119-2.5-2.5v-13.424c0-1.381 1.119-2.5 2.5-2.5s2.5 1.119 2.5 2.5v13.424c0 1.381-1.119 2.5-2.5 2.5z"/><path d="m142.828 182.808c.432-1.27.488-2.642.534-3.985 0-.277.011-.552.028-.828-.001-.001-.002-.001-.002-.002-1.786 3.615-5.58 8.165-11.048 9.853-.033.036-.064.073-.093.114-.29.405-4.187 5.964-5.928 8.448-.317.452.084 1.057.623.939 3.466-.755 12.203-3.7 15.886-14.539z"/><path d="m149.903 210.518c-.053.02-.105.042-.155.065-.646.303-1 .876-1.629 1.471-1.525 1.444-3.42 2.471-5.453 2.991-4.072 1.043-8.531-.003-11.625-2.873-1.151-1.067-2.088-2.351-2.76-3.764-.262-.551-1.08-.386-1.15.221-.473 4.069 1.123 8.195 4.203 10.891.453.397.092 1.153-.501 1.045-3.879-.709-7.472-2.72-10.098-5.696-3.305-3.746-4.88-8.811-4.288-13.772.302-2.534 1.161-4.955 2.481-7.119.314-.514-.235-1.128-.776-.862-5.752 2.825-9.702 8.637-9.974 15.146-.061 1.46-.092 3.052.292 4.471.131.485.196.959.225 1.433 4.451 5.263 10.991 8.668 18.063 9.015 9.426.463 18.437-4.512 23.145-12.663z"/><path d="m121.917 160.739c-.526-1.091-1.159-2.145-1.891-3.15-.644-.883-1.344-1.725-2.088-2.525-.597-.642-1.224-1.258-1.876-1.844-.076-.068-.152-.135-.228-.202-.023-.011-.046-.022-.069-.033 2.407 3.987 3.62 9.122 3.11 13.75-.276 2.503-1.111 4.928-2.449 7.062-.72 1.149-1.568 2.268-2.586 3.17-.59.522-1.21 1.013-1.814 1.508-5.158 4.231-8.336 10.351-9.06 16.805.058-.093.118-.185.179-.276.133-.2.277-.402.429-.608.775-1.04 1.724-2.084 2.331-2.741 1.454-1.575 3.053-2.949 4.736-4.268 1.496-1.173 3.218-2.033 4.729-3.211 3.126-2.437 5.762-5.584 7.211-9.301 1.847-4.742 1.458-9.738-.664-14.136z"/></g><path d="m127.958 225.711c-.44 0-.879-.011-1.321-.032-11.55-.566-21.631-8.359-25.087-19.391-3.347-10.686.226-22.64 8.89-29.746l.44-.359c.437-.355.878-.713 1.301-1.088.724-.642 1.419-1.5 2.126-2.627 1.126-1.797 1.846-3.875 2.082-6.007.444-4.026-.589-8.581-2.765-12.185-.572-.947-.453-2.158.293-2.977.746-.816 1.94-1.049 2.937-.565 2.637 1.277 5.437 2.664 8.125 4.338 5.816 3.62 9.705 7.564 11.889 12.058 2.065 4.252 2.522 9.22 1.417 13.913 1.235-1.355 2.201-2.819 2.862-4.157.332-.671.946-1.158 1.676-1.328.728-.167 1.495-.002 2.089.453.42.323.83.661 1.229 1.01.953.824 1.861 1.725 2.698 2.675 7.656 8.705 9.036 21.803 3.357 31.852-4.924 8.707-14.332 14.162-24.238 14.163zm-7.293-67.388c.748 2.883 1.002 5.883.693 8.686-.317 2.876-1.291 5.683-2.815 8.115-.965 1.539-1.962 2.753-3.048 3.714-.475.421-.969.824-1.46 1.224l-.425.346c-7.104 5.827-10.033 15.627-7.289 24.387 2.788 8.898 11.242 15.434 20.561 15.891 8.523.425 16.742-4.135 20.96-11.599 4.649-8.227 3.516-18.954-2.757-26.087-.348-.395-.709-.778-1.084-1.148-1.945 2.834-5.471 6.707-10.942 8.39-1.012.311-2.115-.051-2.746-.905-.63-.854-.652-2.014-.055-2.892.167-.245.356-.501.548-.76.266-.357.566-.763.688-1.009.025-.052.053-.103.081-.152 2.754-4.722 3.059-10.549.795-15.207-1.76-3.621-5.042-6.892-10.034-9.999-.549-.343-1.107-.674-1.671-.995z" fill="#f9b087"/><path d="m83.842 230.614h88.316v7.403h-88.316z" fill="#ebe7f2"/><g fill="#846f75"><path d="m202.067 116.794h-148.135c-1.381 0-2.5 1.119-2.5 2.5v23.459c0 1.381 1.119 2.5 2.5 2.5h9.394v92.764c0 1.381 1.119 2.5 2.5 2.5h124.349c1.381 0 2.5-1.119 2.5-2.5v-92.764h9.393c1.381 0 2.5-1.119 2.5-2.5v-23.459c-.001-1.381-1.12-2.5-2.501-2.5zm-133.741 28.459h13.016v90.264h-13.016zm101.332 75.458h-83.316v-75.458h83.316zm-83.316 14.806v-9.806h83.316v9.806zm101.333 0h-13.017v-90.264h13.017zm11.892-95.264h-143.135v-18.459h143.135z"/><path d="m65.826 111.333c1.381 0 2.5-1.119 2.5-2.5 0-32.905 26.77-59.675 59.674-59.675 32.905 0 59.675 26.77 59.675 59.675 0 1.381 1.119 2.5 2.5 2.5s2.5-1.119 2.5-2.5c0-35.662-29.013-64.675-64.675-64.675s-64.674 29.013-64.674 64.675c0 1.381 1.119 2.5 2.5 2.5z"/></g><path d="m169.001 111.333c-1.381 0-2.5-1.119-2.5-2.5 0-21.229-17.271-38.501-38.501-38.501-21.229 0-38.5 17.271-38.5 38.501 0 1.381-1.119 2.5-2.5 2.5s-2.5-1.119-2.5-2.5c0-23.986 19.514-43.501 43.5-43.501s43.501 19.515 43.501 43.501c0 1.381-1.119 2.5-2.5 2.5z" fill="#f9b087"/><path d="m133.887 102.55h-11.773c-4.103 0-7.44-3.338-7.44-7.44s3.338-7.44 7.44-7.44h11.773c4.103 0 7.44 3.338 7.44 7.44s-3.338 7.44-7.44 7.44zm-11.774-9.881c-1.346 0-2.44 1.095-2.44 2.44s1.095 2.44 2.44 2.44h11.773c1.346 0 2.44-1.095 2.44-2.44s-1.095-2.44-2.44-2.44z" fill="#f9b087"/><path d="m138.827 40.111c-1.381 0-2.5-1.119-2.5-2.5v-19.628c0-1.381 1.119-2.5 2.5-2.5s2.5 1.119 2.5 2.5v19.628c0 1.381-1.119 2.5-2.5 2.5z" fill="#f9b087"/><path d="m117.173 40.111c-1.381 0-2.5-1.119-2.5-2.5v-19.628c0-1.381 1.119-2.5 2.5-2.5s2.5 1.119 2.5 2.5v19.628c0 1.381-1.119 2.5-2.5 2.5z" fill="#f9b087"/></g></svg>