<svg id="Layer_1" enable-background="new 0 0 256 256" height="512" viewBox="0 0 256 256" width="512" xmlns="http://www.w3.org/2000/svg"><g><g fill="#a58bc9"><path d="m128 69.125c-11.933 0-21.64-9.708-21.64-21.64s9.707-21.64 21.64-21.64 21.64 9.708 21.64 21.64-9.707 21.64-21.64 21.64zm0-38.281c-9.175 0-16.64 7.465-16.64 16.64s7.465 16.64 16.64 16.64 16.64-7.465 16.64-16.64-7.465-16.64-16.64-16.64z"/><path d="m128 230.156c-11.933 0-21.64-9.708-21.64-21.64s9.707-21.64 21.64-21.64 21.64 9.708 21.64 21.64-9.707 21.64-21.64 21.64zm0-38.281c-9.175 0-16.64 7.465-16.64 16.64s7.465 16.64 16.64 16.64 16.64-7.465 16.64-16.64-7.465-16.64-16.64-16.64z"/><path d="m140.118 110.783c-1.273 0-2.51.231-3.668.679-1.865-2.732-4.98-4.434-8.43-4.434s-6.564 1.701-8.43 4.434c-1.158-.448-2.395-.679-3.668-.679-5.634 0-10.218 4.583-10.218 10.217 0 3.461 1.757 6.651 4.589 8.523v16.945c0 1.381 1.119 2.5 2.5 2.5h30.036c1.381 0 2.5-1.119 2.5-2.5v-16.69c3.052-1.819 5.006-5.157 5.006-8.778.001-5.633-4.583-10.217-10.217-10.217zm-24.824 33.186v-3.841h25.036v3.841zm26.656-18.091c-.975.367-1.62 1.299-1.62 2.34v6.909h-25.036v-7.076c0-.988-.582-1.883-1.484-2.285-1.886-.838-3.104-2.709-3.104-4.767 0-2.877 2.341-5.217 5.218-5.217 1.167 0 2.274.382 3.201 1.106.646.503 1.495.658 2.279.417.782-.243 1.396-.854 1.643-1.634.688-2.179 2.688-3.643 4.975-3.643s4.286 1.464 4.975 3.643c.247.781.86 1.392 1.643 1.634s1.635.086 2.279-.417c.927-.724 2.034-1.106 3.201-1.106 2.877 0 5.218 2.34 5.218 5.217-.002 2.158-1.362 4.119-3.388 4.879z"/><path d="m198.183 108.893c-11.933 0-21.641-9.708-21.641-21.64 0-11.933 9.708-21.64 21.641-21.64s21.64 9.708 21.64 21.64c-.001 11.932-9.708 21.64-21.64 21.64zm0-38.28c-9.176 0-16.641 7.465-16.641 16.64s7.465 16.64 16.641 16.64c9.175 0 16.64-7.464 16.64-16.64s-7.466-16.64-16.64-16.64z"/><path d="m57.817 108.893c-11.933 0-21.64-9.708-21.64-21.64 0-11.933 9.707-21.64 21.64-21.64s21.641 9.708 21.641 21.64-9.708 21.64-21.641 21.64zm0-38.28c-9.175 0-16.64 7.465-16.64 16.64s7.465 16.64 16.64 16.64c9.176 0 16.641-7.464 16.641-16.64s-7.465-16.64-16.641-16.64z"/><path d="m198.183 188.816c-11.933 0-21.641-9.708-21.641-21.64s9.708-21.64 21.641-21.64 21.64 9.708 21.64 21.64-9.708 21.64-21.64 21.64zm0-38.28c-9.176 0-16.641 7.465-16.641 16.64s7.465 16.64 16.641 16.64c9.175 0 16.64-7.465 16.64-16.64s-7.466-16.64-16.64-16.64z"/><path d="m57.817 188.816c-11.933 0-21.64-9.708-21.64-21.64s9.707-21.64 21.64-21.64 21.641 9.708 21.641 21.64-9.708 21.64-21.641 21.64zm0-38.28c-9.175 0-16.64 7.465-16.64 16.64s7.465 16.64 16.64 16.64c9.176 0 16.641-7.465 16.641-16.64s-7.465-16.64-16.641-16.64z"/></g><g fill="#846f75"><path d="m173.973 116.071c-.001 0-.002 0-.003-.001l-10.584-2.728 5.557-9.415c1.624-2.758 1.178-6.266-1.086-8.531l-7.254-7.253c-2.265-2.264-5.772-2.711-8.532-1.085l-9.413 5.556-2.729-10.587c-.802-3.099-3.598-5.263-6.8-5.263h-10.258c-3.202 0-5.998 2.165-6.801 5.266l-2.728 10.585-9.416-5.558c-2.758-1.623-6.267-1.177-8.529 1.087l-7.253 7.253c-2.265 2.264-2.711 5.771-1.086 8.533l5.556 9.413-10.587 2.729c-3.1.803-5.264 3.599-5.264 6.8v10.258c0 3.201 2.164 5.997 5.267 6.801l10.584 2.727-5.557 9.416c-1.624 2.759-1.178 6.267 1.087 8.53l7.253 7.253c2.264 2.264 5.771 2.709 8.532 1.085l9.413-5.556 2.729 10.587c.802 3.099 3.599 5.264 6.8 5.264h10.258c3.201 0 5.998-2.165 6.801-5.266l2.728-10.585 9.416 5.558c2.757 1.623 6.265 1.176 8.529-1.087l7.254-7.253c2.264-2.264 2.71-5.771 1.085-8.533l-5.556-9.413 10.587-2.728c3.1-.803 5.264-3.599 5.264-6.8v-10.258c-.001-3.202-2.165-5.998-5.264-6.801zm.263 17.058c0 .922-.624 1.729-1.515 1.959l-13.803 3.556c-.761.196-1.385.738-1.686 1.464s-.243 1.551.156 2.227l7.244 12.273c.468.795.339 1.807-.313 2.458l-7.254 7.254c-.652.652-1.664.781-2.456.314l-12.275-7.246c-.677-.4-1.502-.458-2.228-.157-.726.3-1.268.925-1.464 1.686l-3.556 13.801c-.231.893-1.037 1.517-1.96 1.517h-10.258c-.923 0-1.729-.624-1.959-1.514l-3.557-13.803c-.196-.761-.738-1.385-1.464-1.686-.308-.127-.633-.19-.957-.19-.441 0-.881.117-1.271.347l-12.272 7.244c-.797.468-1.806.339-2.459-.313l-7.253-7.254c-.652-.652-.781-1.663-.314-2.456l7.245-12.275c.399-.676.457-1.501.156-2.227s-.925-1.269-1.686-1.464l-13.8-3.555c-.894-.231-1.518-1.038-1.518-1.96v-10.258c0-.922.624-1.729 1.515-1.959l13.803-3.557c.761-.196 1.385-.738 1.686-1.464s.243-1.551-.156-2.227l-7.244-12.273c-.468-.794-.339-1.805.313-2.458l7.253-7.253c.653-.651 1.664-.779 2.456-.314l12.275 7.246c.675.399 1.501.458 2.228.157.726-.3 1.268-.925 1.464-1.686l3.556-13.801c.231-.893 1.037-1.516 1.96-1.516h10.258c.923 0 1.729.624 1.959 1.514l3.557 13.803c.196.761.738 1.385 1.464 1.686.727.302 1.552.243 2.228-.157l12.272-7.244c.796-.469 1.807-.34 2.459.313l7.253 7.253c.652.652.781 1.663.314 2.456l-7.245 12.275c-.399.676-.457 1.501-.156 2.227s.925 1.269 1.686 1.464l13.8 3.556c.894.231 1.518 1.038 1.518 1.96v10.257z"/><path d="m124.292 55.167c.469.469 1.104.732 1.768.732s1.299-.263 1.768-.732l11.388-11.387c.977-.976.977-2.559 0-3.535-.977-.977-2.559-.977-3.535 0l-9.62 9.619-4.657-4.658c-.977-.977-2.559-.976-3.535 0-.977.977-.977 2.559 0 3.536z"/><path d="m135.68 201.275-9.62 9.619-4.657-4.657c-.977-.977-2.559-.976-3.535 0-.977.977-.977 2.56 0 3.536l6.425 6.425c.469.469 1.104.732 1.768.732s1.299-.263 1.768-.732l11.388-11.387c.977-.976.977-2.559 0-3.535-.979-.978-2.561-.978-3.537-.001z"/><path d="m194.475 94.935c.488.488 1.128.732 1.768.732s1.279-.244 1.768-.732l11.387-11.387c.977-.976.977-2.559 0-3.535-.977-.977-2.559-.977-3.535 0l-9.619 9.619-4.658-4.658c-.977-.976-2.559-.976-3.535 0-.977.976-.977 2.559 0 3.536z"/><path d="m65.497 80.012-9.619 9.619-4.658-4.658c-.977-.976-2.559-.976-3.535 0-.977.976-.977 2.559 0 3.536l6.426 6.425c.488.488 1.128.732 1.768.732s1.279-.244 1.768-.732l11.387-11.387c.977-.976.977-2.559 0-3.535-.978-.976-2.56-.976-3.537 0z"/><path d="m205.861 159.936-9.619 9.619-4.658-4.658c-.977-.977-2.559-.977-3.535 0-.977.976-.977 2.559 0 3.535l6.426 6.426c.469.469 1.104.732 1.768.732s1.299-.263 1.768-.732l11.387-11.387c.977-.976.977-2.559 0-3.535-.978-.977-2.56-.977-3.537 0z"/><path d="m65.497 159.936-9.619 9.619-4.658-4.658c-.977-.977-2.559-.977-3.535 0-.977.976-.977 2.559 0 3.535l6.426 6.426c.469.469 1.104.732 1.768.732s1.299-.263 1.768-.732l11.387-11.387c.977-.976.977-2.559 0-3.535-.978-.977-2.56-.977-3.537 0z"/></g></g></svg>