<svg id="Layer_1" enable-background="new 0 0 256 256" height="512" viewBox="0 0 256 256" width="512" xmlns="http://www.w3.org/2000/svg"><g><g fill="#ebe7f2"><path d="m109.467 120.702-20.279-20.28 7.422-27.702c.357-1.334-.435-2.705-1.768-3.063-1.33-.353-2.704.435-3.063 1.768l-7.422 27.703-27.704 7.423c-1.333.357-2.125 1.729-1.768 3.063.3 1.116 1.31 1.854 2.413 1.854.215 0 .433-.028.649-.086l27.704-7.423 20.279 20.28c.488.488 1.128.732 1.768.732s1.279-.244 1.768-.732c.977-.977.977-2.56.001-3.537z"/><path d="m189.005 95.9-27.703-7.422-7.423-27.704c-.358-1.333-1.73-2.119-3.063-1.768-1.333.357-2.125 1.729-1.768 3.063l7.423 27.704-20.28 20.279c-.977.976-.977 2.559 0 3.535.488.488 1.128.732 1.768.732s1.279-.244 1.768-.732l20.28-20.279 27.703 7.422c.217.058.435.086.649.086 1.104 0 2.113-.737 2.413-1.854.358-1.333-.434-2.704-1.767-3.062z"/><path d="m185.728 165.278-27.704-7.423-7.422-27.703c-.358-1.333-1.73-2.121-3.063-1.768-1.333.357-2.125 1.729-1.768 3.063l7.283 27.182-7.878 7.878c-.977.977-.977 2.559 0 3.535.488.488 1.128.732 1.768.732s1.279-.244 1.768-.732l7.496-7.497 28.224 7.563c.217.058.435.086.649.086 1.104 0 2.113-.737 2.413-1.854.359-1.333-.433-2.704-1.766-3.062z"/><path d="m131.931 194.581-20.28-20.28 7.423-27.703c.357-1.334-.435-2.705-1.768-3.063-1.328-.353-2.704.434-3.063 1.768l-7.423 27.703-27.703 7.423c-1.333.357-2.125 1.729-1.768 3.063.3 1.116 1.31 1.854 2.413 1.854.215 0 .433-.028.649-.086l27.703-7.423 20.28 20.28c.488.488 1.128.732 1.768.732s1.279-.244 1.768-.732c.977-.977.977-2.559.001-3.536z"/></g><g fill="#846f75"><path d="m79.25 132.682 29.097-7.797c.862-.231 1.536-.905 1.768-1.768l7.797-29.097c.23-.863-.016-1.783-.647-2.415l-21.302-21.3c-.631-.632-1.552-.877-2.415-.647l-29.097 7.797c-.862.231-1.536.905-1.768 1.768l-7.797 29.097c-.23.863.016 1.783.647 2.415l21.301 21.301c.475.476 1.113.732 1.768.732.216-.001.434-.03.648-.086zm-19.16-24.463 7.05-26.309 26.309-7.05 19.26 19.26-7.05 26.309-26.309 7.05z"/><path d="m190.772 97.668-7.797-29.097c-.231-.862-.905-1.536-1.768-1.768l-29.097-7.797c-.862-.229-1.784.015-2.415.647l-21.301 21.301c-.632.632-.878 1.552-.647 2.415l7.797 29.097c.231.862.905 1.536 1.768 1.768l29.097 7.797c.214.057.432.085.647.085.654 0 1.293-.257 1.768-.732l21.301-21.301c.632-.632.878-1.552.647-2.415zm-24.462 19.16-26.309-7.05-7.05-26.309 19.26-19.26 26.309 7.05 7.05 26.309z"/><path d="m179.698 137.948c-.231-.862-.905-1.536-1.768-1.768l-29.097-7.796c-.861-.228-1.783.016-2.415.647l-15.151 15.151c-.977.977-.977 2.559 0 3.535s2.559.977 3.535 0l14.131-14.131 26.309 7.049 7.05 26.31-19.26 19.26-17.653-4.731c-1.328-.352-2.704.434-3.063 1.768-.357 1.334.435 2.705 1.768 3.063l19.048 5.104c.214.057.432.085.647.085.654 0 1.293-.257 1.768-.732l21.301-21.301c.632-.632.878-1.552.647-2.415z"/><path d="m118.427 144.184c-.632-.633-1.552-.876-2.415-.647l-29.097 7.796c-.862.231-1.536.905-1.768 1.768l-7.797 29.098c-.23.863.016 1.783.647 2.415l21.301 21.301c.475.476 1.113.732 1.768.732.216 0 .434-.028.647-.085l29.097-7.797c.862-.231 1.536-.905 1.768-1.768l7.797-29.097c.23-.863-.016-1.783-.647-2.415zm9.695 50.124-26.309 7.05-19.26-19.26 7.05-26.31 26.309-7.049 19.26 19.26z"/></g><path d="m128 25.622c-56.451 0-102.378 45.927-102.378 102.378s45.927 102.378 102.378 102.378 102.378-45.927 102.378-102.378-45.927-102.378-102.378-102.378zm0 5c25.95 0 49.561 10.205 67.033 26.81l-137.601 137.601c-16.605-17.472-26.81-41.083-26.81-67.033 0-53.694 43.684-97.378 97.378-97.378zm0 194.756c-25.95 0-49.561-10.205-67.033-26.81l137.601-137.601c16.605 17.472 26.81 41.083 26.81 67.033 0 53.694-43.684 97.378-97.378 97.378z" fill="#f9b087"/></g></svg>