<svg id="Layer_1" enable-background="new 0 0 256 256" height="512" viewBox="0 0 256 256" width="512" xmlns="http://www.w3.org/2000/svg"><g><g fill="#ebe7f2"><path d="m68.341 149.844c-.01 0-.02 0-.03 0-1.38-.017-2.486-1.148-2.471-2.529.058-5.005.094-10.117.106-15.195.004-1.379 1.122-2.494 2.5-2.494h.006c1.381.004 2.498 1.126 2.494 2.506-.013 5.094-.049 10.222-.106 15.242-.016 1.369-1.132 2.47-2.499 2.47z"/><path d="m66.6 209.396c-.04 0-.079-.001-.12-.003-1.379-.065-2.444-1.235-2.379-2.615.794-16.848 1.339-33.971 1.619-50.892.023-1.367 1.138-2.459 2.499-2.459h.042c1.381.023 2.481 1.161 2.459 2.541-.282 16.973-.828 34.146-1.625 51.045-.063 1.34-1.169 2.383-2.495 2.383z"/><path d="m68.392 116.355c-1.371 0-2.488-1.105-2.5-2.479-.181-21.525-.783-43.278-1.791-64.653-.065-1.38 1-2.551 2.379-2.615 1.351-.063 2.551 1 2.615 2.379 1.011 21.44 1.615 43.258 1.797 64.848.012 1.381-1.099 2.51-2.479 2.521-.008-.001-.015-.001-.021-.001z"/><path d="m92.394 116.355c-.007 0-.014 0-.021 0-1.38-.012-2.49-1.141-2.479-2.521.182-21.59.786-43.407 1.797-64.848.064-1.379 1.268-2.438 2.615-2.38 1.379.065 2.444 1.235 2.379 2.615-1.008 21.376-1.61 43.129-1.791 64.654-.012 1.375-1.129 2.48-2.5 2.48z"/><path d="m94.186 209.396c-1.326 0-2.433-1.043-2.495-2.382-.797-16.898-1.343-34.072-1.625-51.045-.022-1.38 1.078-2.518 2.459-2.541h.042c1.361 0 2.476 1.092 2.499 2.459.28 16.922.825 34.044 1.619 50.891.065 1.38-1 2.551-2.379 2.615-.04.002-.08.003-.12.003z"/><path d="m92.449 150.279c-1.366 0-2.482-1.1-2.499-2.471-.062-5.2-.099-10.475-.111-15.678-.003-1.381 1.113-2.503 2.494-2.506h.006c1.378 0 2.497 1.115 2.5 2.494.013 5.188.05 10.446.111 15.631.016 1.381-1.09 2.513-2.471 2.529-.009.001-.019.001-.03.001z"/></g><g fill="#a58bc9"><path d="m90.86 137.543c-.557-1.264-2.032-1.838-3.296-1.28-1.264.557-1.837 2.032-1.28 3.296l6.024 13.678-3.604 1.587-6.023-13.677c-.399-.907-1.297-1.492-2.288-1.492s-1.889.585-2.288 1.492l-6.023 13.677-3.604-1.587 6.024-13.678c.557-1.264-.017-2.739-1.28-3.296-1.264-.558-2.739.016-3.296 1.28l-7.032 15.966c-.268.606-.282 1.295-.042 1.913s.716 1.115 1.322 1.383l8.181 3.603c1.263.556 2.739-.018 3.296-1.28l4.743-10.771 4.743 10.771c.412.936 1.328 1.493 2.289 1.493.337 0 .679-.068 1.007-.213l8.181-3.603c.606-.268 1.082-.765 1.322-1.383s.226-1.307-.042-1.913z"/><path d="m114.181 117.033c-.433-1.312-1.845-2.027-3.157-1.591l-21.246 7.011v-5.102l22.813-7.528c1.312-.433 2.023-1.847 1.591-3.157-.433-1.312-1.845-2.025-3.157-1.591l-22.135 7.305c-.436-.371-.994-.603-1.611-.603h-13.77c-.617 0-1.175.232-1.611.603l-22.135-7.305c-1.309-.432-2.725.278-3.157 1.591-.433 1.311.279 2.725 1.591 3.157l22.813 7.528v.93l-6.322 2.086-14.924-4.925c-1.309-.434-2.725.279-3.157 1.591-.433 1.311.279 2.725 1.591 3.157l8.514 2.81-8.514 2.81c-1.312.433-2.023 1.847-1.591 3.157.347 1.052 1.324 1.718 2.374 1.718.259 0 .523-.041.783-.127l21.246-7.011v5.102l-22.813 7.528c-1.312.433-2.023 1.847-1.591 3.157.347 1.052 1.324 1.718 2.374 1.718.259 0 .523-.041.783-.127l22.135-7.305c.436.371.994.603 1.611.603h13.77c.617 0 1.175-.232 1.611-.603l22.135 7.305c.26.086.523.127.783.127 1.05 0 2.027-.666 2.374-1.718.433-1.311-.279-2.725-1.591-3.157l-22.813-7.528v-.93l6.322-2.086 14.924 4.925c.26.086.523.127.783.127 1.05 0 2.027-.666 2.374-1.718.433-1.311-.279-2.725-1.591-3.157l-8.514-2.81 8.514-2.81c1.311-.432 2.023-1.846 1.591-3.157zm-29.404 12.19h-8.77v-12.445h8.77z"/></g><path d="m163.556 149.844c-.01 0-.02 0-.03 0-1.38-.017-2.486-1.148-2.471-2.529.058-5.005.094-10.117.106-15.195.004-1.379 1.122-2.494 2.5-2.494h.006c1.381.004 2.498 1.126 2.494 2.506-.013 5.094-.049 10.222-.106 15.242-.016 1.369-1.132 2.47-2.499 2.47z" fill="#ebe7f2"/><path d="m161.814 209.396c-.04 0-.079-.001-.12-.003-1.379-.065-2.444-1.235-2.379-2.615.794-16.848 1.339-33.971 1.619-50.892.023-1.367 1.138-2.459 2.499-2.459h.042c1.381.023 2.481 1.161 2.459 2.541-.282 16.973-.828 34.146-1.625 51.045-.062 1.34-1.168 2.383-2.495 2.383z" fill="#ebe7f2"/><path d="m163.606 116.355c-1.371 0-2.488-1.105-2.5-2.479-.181-21.525-.783-43.278-1.791-64.653-.065-1.38 1-2.551 2.379-2.615 1.371-.063 2.551 1 2.615 2.379 1.011 21.44 1.615 43.258 1.797 64.848.012 1.381-1.099 2.51-2.479 2.521-.007-.001-.014-.001-.021-.001z" fill="#ebe7f2"/><path d="m187.608 116.355c-.007 0-.014 0-.021 0-1.38-.012-2.49-1.141-2.479-2.521.182-21.59.786-43.407 1.797-64.848.064-1.379 1.254-2.438 2.615-2.38 1.379.065 2.444 1.235 2.379 2.615-1.008 21.376-1.61 43.129-1.791 64.654-.011 1.375-1.129 2.48-2.5 2.48z" fill="#ebe7f2"/><path d="m189.4 209.396c-1.326 0-2.433-1.043-2.495-2.382-.797-16.898-1.343-34.072-1.625-51.045-.022-1.38 1.078-2.518 2.459-2.541h.042c1.361 0 2.476 1.092 2.499 2.459.28 16.922.825 34.044 1.619 50.891.065 1.38-1 2.551-2.379 2.615-.04.002-.08.003-.12.003z" fill="#ebe7f2"/><path d="m187.664 150.279c-1.366 0-2.482-1.1-2.499-2.471-.062-5.2-.099-10.475-.111-15.678-.003-1.381 1.113-2.503 2.494-2.506h.006c1.378 0 2.497 1.115 2.5 2.494.013 5.188.05 10.446.111 15.631.016 1.381-1.09 2.513-2.471 2.529-.009.001-.019.001-.03.001z" fill="#ebe7f2"/><g fill="#a58bc9"><path d="m186.075 137.543c-.557-1.264-2.032-1.838-3.296-1.28-1.264.557-1.837 2.032-1.28 3.296l6.024 13.678-3.604 1.587-6.023-13.677c-.399-.907-1.297-1.492-2.288-1.492s-1.889.585-2.288 1.492l-6.023 13.677-3.604-1.587 6.024-13.678c.557-1.264-.017-2.739-1.28-3.296-1.264-.558-2.739.016-3.296 1.28l-7.032 15.966c-.268.606-.282 1.295-.042 1.913s.716 1.115 1.322 1.383l8.181 3.603c1.263.556 2.739-.018 3.296-1.28l4.743-10.771 4.743 10.771c.412.936 1.328 1.493 2.289 1.493.337 0 .679-.068 1.007-.213l8.181-3.603c.606-.268 1.082-.765 1.322-1.383s.226-1.307-.042-1.913z"/><path d="m209.396 117.033c-.433-1.312-1.844-2.027-3.157-1.591l-21.246 7.011v-5.102l22.813-7.528c1.312-.433 2.023-1.847 1.591-3.157-.433-1.312-1.844-2.025-3.157-1.591l-22.135 7.305c-.436-.371-.994-.603-1.611-.603h-13.77c-.617 0-1.175.232-1.611.603l-22.135-7.305c-1.309-.432-2.725.278-3.157 1.591-.433 1.311.279 2.725 1.591 3.157l22.813 7.528v.93l-6.322 2.086-14.924-4.925c-1.309-.434-2.725.279-3.157 1.591-.433 1.311.279 2.725 1.591 3.157l8.514 2.81-8.514 2.81c-1.312.433-2.023 1.847-1.591 3.157.347 1.052 1.324 1.718 2.374 1.718.259 0 .523-.041.783-.127l15.686-5.176c.002-.001.004-.001.006-.002l5.554-1.833v5.102l-22.813 7.528c-1.312.433-2.023 1.847-1.591 3.157.347 1.052 1.324 1.718 2.374 1.718.259 0 .523-.041.783-.127l22.135-7.305c.436.371.994.603 1.611.603h13.77c.617 0 1.175-.232 1.611-.603l22.135 7.305c.26.086.523.127.783.127 1.05 0 2.027-.666 2.374-1.718.433-1.311-.279-2.725-1.591-3.157l-22.813-7.528v-.93l6.322-2.086 14.924 4.925c.26.086.523.127.783.127 1.05 0 2.027-.666 2.374-1.718.433-1.311-.279-2.725-1.591-3.157l-8.514-2.81 8.514-2.81c1.311-.432 2.023-1.846 1.591-3.157zm-29.404 12.19h-8.77v-12.445h8.77z"/></g><g fill="#846f75"><path d="m119.358 38.648c-.475-.531-1.153-.835-1.865-.835h-74.201c-.712 0-1.391.304-1.865.835-.475.532-.699 1.24-.618 1.948 6.614 57.997 6.614 116.81 0 174.807-.081.708.144 1.416.618 1.948.475.531 1.153.835 1.865.835h74.201c.712 0 1.391-.304 1.865-.835.475-.532.699-1.24.618-1.948-6.614-57.997-6.614-116.81 0-174.807.082-.707-.143-1.415-.618-1.948zm-4.661 174.539h-68.609c6.242-56.545 6.242-113.828 0-170.373h68.609c-6.242 56.544-6.242 113.828 0 170.373z"/><path d="m215.191 40.597c.081-.708-.144-1.416-.618-1.948-.475-.531-1.153-.835-1.865-.835h-74.201c-.712 0-1.391.304-1.865.835-.475.532-.699 1.24-.618 1.948 6.614 57.997 6.614 116.81 0 174.807-.081.708.144 1.416.618 1.948.475.531 1.153.835 1.865.835h74.201c.712 0 1.391-.304 1.865-.835.475-.532.699-1.24.618-1.948-6.614-57.998-6.614-116.81 0-174.807zm-5.279 172.59h-68.609c6.242-56.545 6.242-113.828 0-170.373h68.609c-6.242 56.544-6.242 113.828 0 170.373z"/></g></g></svg>