<svg id="Layer_1" enable-background="new 0 0 256 256" height="512" viewBox="0 0 256 256" width="512" xmlns="http://www.w3.org/2000/svg"><g><path d="m162.549 224.403c-1.381 0-2.5-1.119-2.5-2.5s1.119-2.5 2.5-2.5c18.817 0 34.126-13.289 34.126-29.623 0-1.381 1.119-2.5 2.5-2.5s2.5 1.119 2.5 2.5c0 19.091-17.552 34.623-39.126 34.623z" fill="#ebe7f2"/><path d="m181.201 175.076c-.113 0-.227-.008-.342-.023-.53-.073-11.76-1.698-18.311-8.923-6.551 7.225-17.78 8.85-18.311 8.923-1.118.157-2.211-.467-2.648-1.515-.062-.148-1.327-3.216-2.07-7.446-7.849-.69-14.567-4.632-14.874-4.814-.975-.579-1.438-1.742-1.128-2.833.175-.617 4.421-15.157 15.55-19.587 6.23-2.479 13.087-1.134 17.74.434 1.309.44 2.012 1.858 1.571 3.167s-1.858 2.013-3.167 1.571c-3.859-1.299-9.474-2.444-14.295-.526-6.74 2.683-10.507 10.704-11.928 14.404 2.575 1.233 7.582 3.26 12.716 3.287 1.264.007 2.323.955 2.471 2.21.299 2.563.891 4.81 1.358 6.302 3.658-.854 11.417-3.282 14.871-9.025.452-.751 1.266-1.211 2.143-1.211s1.69.46 2.143 1.211c3.47 5.769 11.212 8.183 14.867 9.029.47-1.499 1.065-3.756 1.363-6.307.147-1.254 1.207-2.202 2.471-2.209 5.132-.027 10.139-2.054 12.715-3.287-1.42-3.698-5.187-11.721-11.928-14.403-4.822-1.919-10.436-.772-14.295.525-1.312.444-2.726-.264-3.167-1.571-.44-1.309.263-2.727 1.571-3.167 4.652-1.567 11.509-2.914 17.74-.433 11.129 4.429 15.375 18.969 15.55 19.586.311 1.091-.152 2.254-1.127 2.833-.308.183-7.025 4.124-14.873 4.814-.744 4.23-2.01 7.298-2.071 7.446-.391.941-1.308 1.538-2.305 1.538z" fill="#65c1d6"/><path d="m162.549 145.145c-1.381 0-2.5-1.119-2.5-2.5v-.844c0-6.527 2.031-12.688 5.719-17.349l2.857-3.609c.855-1.081 2.428-1.266 3.512-.408 1.083.856 1.266 2.429.408 3.512l-2.857 3.609c-2.948 3.725-4.639 8.917-4.639 14.245v.844c0 1.38-1.119 2.5-2.5 2.5z" fill="#65c1d6"/><path d="m113.398 38.472h-50.498c-1.381 0-2.5-1.119-2.5-2.5s1.119-2.5 2.5-2.5h50.498c1.381 0 2.5 1.119 2.5 2.5s-1.119 2.5-2.5 2.5z" fill="#ebe7f2"/><g fill="#846f75"><path d="m207.183 165.16c-.799-1.127-2.359-1.392-3.485-.595-1.127.799-1.393 2.359-.595 3.485 4.621 6.521 7.063 14.034 7.063 21.729 0 22.858-21.361 41.455-47.617 41.455s-47.617-18.597-47.617-41.455c0-7.698 2.443-15.213 7.065-21.731.798-1.127.533-2.688-.594-3.485-1.125-.798-2.686-.534-3.485.593-5.224 7.369-7.986 15.884-7.986 24.624 0 25.615 23.604 46.455 52.617 46.455 29.014 0 52.617-20.84 52.617-46.455 0-8.737-2.761-17.251-7.983-24.62z"/><path d="m111.456 54.968c0-1.381-1.119-2.5-2.5-2.5s-2.5 1.119-2.5 2.5v9.439c0 6.837 2.12 13.377 6.131 18.913l12.698 17.53c3.389 4.678 5.18 10.203 5.18 15.979v16.687c0 1.381 1.119 2.5 2.5 2.5s2.5-1.119 2.5-2.5v-16.686c0-6.837-2.12-13.377-6.131-18.913l-12.699-17.53c-3.389-4.677-5.18-10.203-5.18-15.979v-9.44z"/><path d="m122.964 230.582h-69.63c-4.136 0-7.5-3.364-7.5-7.5v-106.252c0-5.776 1.792-11.302 5.18-15.979l12.698-17.53c4.011-5.537 6.131-12.077 6.131-18.913v-9.439c0-1.381-1.119-2.5-2.5-2.5s-2.5 1.119-2.5 2.5v9.439c0 5.776-1.791 11.302-5.18 15.979l-12.698 17.53c-4.011 5.536-6.131 12.076-6.131 18.913v106.252c0 6.893 5.607 12.5 12.5 12.5h69.63c1.381 0 2.5-1.119 2.5-2.5s-1.119-2.5-2.5-2.5z"/><path d="m62.9 47.468h50.498c1.381 0 2.5-1.119 2.5-2.5v-22.703c0-1.381-1.119-2.5-2.5-2.5h-50.498c-1.381 0-2.5 1.119-2.5 2.5v22.703c0 1.381 1.12 2.5 2.5 2.5zm2.5-22.703h45.498v17.703h-45.498z"/></g><path d="m88.149 195.872c-18.397 0-33.365-20.93-33.365-46.656s14.967-46.655 33.365-46.655c18.397 0 33.364 20.93 33.364 46.655 0 1.381-1.119 2.5-2.5 2.5s-2.5-1.119-2.5-2.5c0-22.969-12.724-41.655-28.364-41.655-15.641 0-28.365 18.687-28.365 41.655 0 22.97 12.724 41.656 28.365 41.656 5.015 0 9.954-1.975 14.284-5.71 1.045-.904 2.624-.787 3.526.26.902 1.045.786 2.624-.26 3.525-5.25 4.531-11.319 6.925-17.55 6.925z" fill="#65c1d6"/></g></svg>