<svg id="Layer_1" enable-background="new 0 0 256 256" height="512" viewBox="0 0 256 256" width="512" xmlns="http://www.w3.org/2000/svg"><g><path d="m177.884 89.778h-99.178c-1.381 0-2.5-1.119-2.5-2.5s1.119-2.5 2.5-2.5h99.178c1.381 0 2.5 1.119 2.5 2.5s-1.119 2.5-2.5 2.5z" fill="#65c1d6"/><g fill="#ebe7f2"><path d="m115.957 212.563c-8.968 0-17.603-3.712-23.784-10.203-9.574-3.945-15.967-13.448-15.967-23.833 0-1.381 1.119-2.5 2.5-2.5s2.5 1.119 2.5 2.5c0 8.528 5.349 16.318 13.31 19.385.359.139.682.358.942.642 5.262 5.726 12.733 9.01 20.499 9.01 5.189 0 10.257-1.442 14.654-4.172.479-.298 1.051-.43 1.602-.359.844.096 1.628.143 2.4.143 11.453 0 20.771-9.318 20.771-20.771 0-1.381 1.119-2.5 2.5-2.5s2.5 1.119 2.5 2.5c0 14.21-11.561 25.771-25.771 25.771-.691 0-1.386-.029-2.104-.09-5.015 2.931-10.718 4.477-16.552 4.477z"/><path d="m183.997 185.988c-1.381 0-2.5-1.119-2.5-2.5s1.119-2.5 2.5-2.5c2.434 0 4.413-1.979 4.413-4.413 0-1.381 1.119-2.5 2.5-2.5s2.5 1.119 2.5 2.5c0 5.191-4.222 9.413-9.413 9.413z"/><path d="m204.32 215.271c-1.381 0-2.5-1.119-2.5-2.5s1.119-2.5 2.5-2.5c2.434 0 4.414-1.98 4.414-4.414 0-1.381 1.119-2.5 2.5-2.5s2.5 1.119 2.5 2.5c0 5.192-4.222 9.414-9.414 9.414z"/><path d="m200.725 200.118c-5.191 0-9.414-4.223-9.414-9.414 0-1.381 1.119-2.5 2.5-2.5s2.5 1.119 2.5 2.5c0 2.434 1.98 4.414 4.414 4.414 1.381 0 2.5 1.119 2.5 2.5s-1.12 2.5-2.5 2.5z"/><path d="m205.74 187.314c-1.381 0-2.5-1.119-2.5-2.5s1.119-2.5 2.5-2.5c2.434 0 4.414-1.98 4.414-4.414 0-1.381 1.119-2.5 2.5-2.5s2.5 1.119 2.5 2.5c0 5.192-4.222 9.414-9.414 9.414z"/><path d="m222.469 201.444c-5.191 0-9.414-4.223-9.414-9.414 0-1.381 1.119-2.5 2.5-2.5s2.5 1.119 2.5 2.5c0 2.434 1.98 4.414 4.414 4.414 1.381 0 2.5 1.119 2.5 2.5s-1.119 2.5-2.5 2.5z"/><path d="m177.083 208.357c-1.381 0-2.5-1.119-2.5-2.5s1.119-2.5 2.5-2.5c2.434 0 4.414-1.979 4.414-4.413 0-1.381 1.119-2.5 2.5-2.5s2.5 1.119 2.5 2.5c0 5.191-4.223 9.413-9.414 9.413z"/><path d="m193.811 222.487c-5.191 0-9.414-4.223-9.414-9.414 0-1.381 1.119-2.5 2.5-2.5s2.5 1.119 2.5 2.5c0 2.434 1.98 4.414 4.414 4.414 1.381 0 2.5 1.119 2.5 2.5s-1.12 2.5-2.5 2.5z"/></g><path d="m104.192 133.965c-1.381 0-2.5-1.119-2.5-2.5 0-5.032-4.094-9.126-9.126-9.126-.329 0-.687.024-1.123.077-1.123.14-2.181-.488-2.61-1.524-2.52-6.077-8.395-10.004-14.968-10.004-3.705 0-7.199 1.228-10.104 3.551-.806.645-1.926.728-2.816.21-1.394-.809-2.973-1.236-4.567-1.236-4.44 0-8.216 3.175-8.979 7.55-.127.727-.568 1.36-1.206 1.731s-1.407.439-2.102.192c-1.01-.363-2.046-.547-3.078-.547-5.032 0-9.126 4.094-9.126 9.126 0 1.381-1.119 2.5-2.5 2.5s-2.5-1.119-2.5-2.5c0-7.789 6.337-14.126 14.126-14.126.726 0 1.449.058 2.168.172 2.043-5.4 7.233-9.099 13.196-9.099 1.914 0 3.812.396 5.569 1.152 3.522-2.41 7.61-3.677 11.918-3.677 7.996 0 15.202 4.439 18.826 11.452 7.731.067 14.001 6.378 14.001 14.125.001 1.382-1.118 2.501-2.499 2.501z" fill="#65c1d6"/><path d="m63.69 172.3c-25.406 0-46.076-18.318-46.076-40.835 0-1.381 1.119-2.5 2.5-2.5s2.5 1.119 2.5 2.5c0 19.76 18.427 35.835 41.076 35.835 1.381 0 2.5 1.119 2.5 2.5s-1.119 2.5-2.5 2.5z" fill="#ebe7f2"/><g fill="#846f75"><path d="m237.309 186.996c-1.398-21.514-16.604-36.529-37.02-36.529-20.385 0-34.641 15.127-34.749 36.817-.211 1.144-.368 2.306-.455 3.49-1.342 3.618-2.021 7.409-2.021 11.274 0 17.889 14.554 32.442 32.443 32.442 8.554 0 16.59-3.284 22.689-9.26 12.283-5.007 20.189-16.739 20.189-30.038.001-2.821-.379-5.568-1.076-8.196zm-37.02-31.529c11.953 0 21.838 6.007 27.36 15.706-5.019-4.553-11.456-7.581-18.573-8.266-3.727-1.435-7.643-2.161-11.644-2.161-8.741 0-16.724 3.498-22.586 9.189 5.037-8.97 14.136-14.468 25.443-14.468zm15.6 65.301c-.327.128-.624.322-.87.572-5.197 5.256-12.127 8.15-19.512 8.15-15.132 0-27.443-12.311-27.443-27.442 0-3.378.614-6.688 1.825-9.841.091-.237.146-.488.161-.742.894-14.422 12.921-25.719 27.383-25.719 3.489 0 6.9.653 10.14 1.942.228.091.469.147.713.168 14.075 1.189 25.101 13.197 25.101 27.336-.001 11.4-6.869 21.439-17.498 25.576z"/><path d="m141.199 165.44c-6.588-6.978-15.797-10.961-25.404-10.961-7.587 0-14.78 2.387-20.844 6.908-12.483 2.74-21.482 13.891-21.482 26.738 0 11.046 6.807 21.151 16.998 25.335 6.578 6.923 15.775 10.881 25.328 10.881 6.226 0 12.311-1.654 17.657-4.792.778.066 1.545.1 2.289.1 15.098 0 27.38-12.282 27.38-27.38 0-13.11-9.167-24.256-21.922-26.829zm-5.458 49.209c-.829 0-1.697-.052-2.582-.153-.562-.063-1.126.062-1.604.359-4.729 2.935-10.179 4.486-15.76 4.486-8.351 0-16.386-3.531-22.043-9.688-.261-.283-.583-.503-.942-.642-8.578-3.304-14.341-11.697-14.341-20.886 0-10.663 7.581-19.896 18.027-21.953.38-.075.736-.237 1.043-.474 5.276-4.069 11.59-6.22 18.256-6.22 8.478 0 16.596 3.622 22.271 9.938.377.42.886.699 1.441.794 10.786 1.827 18.614 11.104 18.614 22.059 0 12.34-10.04 22.38-22.38 22.38z"/><path d="m166.763 113.215c-13.462-1.562-25.717 6.835-29.43 19.422-5.63 3.832-9.715 9.735-11.274 16.341-.317 1.344.515 2.69 1.858 3.007.193.046.386.068.576.068 1.133 0 2.159-.776 2.431-1.927 1.336-5.657 4.943-10.687 9.898-13.798.542-.341.933-.876 1.092-1.496 2.796-10.907 13.346-18.209 24.874-16.573.479.072.966-.003 1.403-.206 2.961-1.372 6.122-2.067 9.395-2.067 12.34 0 22.38 10.04 22.38 22.38 0 1.901-.238 3.789-.709 5.609-.345 1.337.459 2.7 1.796 3.046 1.329.341 2.7-.46 3.046-1.796.575-2.229.867-4.536.867-6.859 0-15.098-12.282-27.38-27.38-27.38-3.757-.001-7.395.749-10.823 2.229z"/><path d="m63.69 188.216c-22.649 0-41.076-18.427-41.076-41.076v-13.175h90.778v13.175c0 1.381 1.119 2.5 2.5 2.5s2.5-1.119 2.5-2.5v-15.675c0-1.381-1.119-2.5-2.5-2.5h-95.778c-1.381 0-2.5 1.119-2.5 2.5v15.675c0 25.406 20.67 46.076 46.076 46.076 1.381 0 2.5-1.119 2.5-2.5s-1.119-2.5-2.5-2.5z"/><path d="m79.098 101.218c1.381 0 2.5-1.119 2.5-2.5v-19.36c0-1.653.688-3.253 1.887-4.391l13.301-12.618c2.189-2.077 3.445-5 3.445-8.019v-10.489h56.521v10.489c0 3.019 1.256 5.941 3.445 8.018l13.301 12.62c1.199 1.137 1.887 2.736 1.887 4.39v23.319c0 1.381 1.119 2.5 2.5 2.5s2.5-1.119 2.5-2.5v-23.32c0-3.019-1.256-5.941-3.445-8.018l-13.301-12.62c-1.199-1.137-1.887-2.736-1.887-4.39v-10.488h4.739c5.341 0 9.687-4.346 9.687-9.687v-2.958c0-5.341-4.346-9.687-9.687-9.687h-76c-5.341 0-9.687 4.346-9.687 9.687v2.958c0 5.341 4.346 9.687 9.687 9.687h4.739v10.489c0 1.653-.688 3.253-1.887 4.391l-13.3 12.618c-2.189 2.077-3.445 5-3.445 8.019v19.36c0 1.381 1.119 2.5 2.5 2.5zm6.707-67.064v-2.958c0-2.584 2.103-4.687 4.687-4.687h75.999c2.584 0 4.687 2.103 4.687 4.687v2.958c0 2.584-2.103 4.687-4.687 4.687h-76c-2.584 0-4.686-2.103-4.686-4.687z"/></g><path d="m149.623 60.53h-42.264c-1.381 0-2.5-1.119-2.5-2.5s1.119-2.5 2.5-2.5h42.264c1.381 0 2.5 1.119 2.5 2.5s-1.119 2.5-2.5 2.5z" fill="#ebe7f2"/></g></svg>