<svg id="Layer_1" enable-background="new 0 0 256 256" height="512" viewBox="0 0 256 256" width="512" xmlns="http://www.w3.org/2000/svg"><g><g fill="#ebe7f2"><path d="m206.781 181.755h-15.891c-1.381 0-2.5-1.119-2.5-2.5s1.119-2.5 2.5-2.5h15.892c1.381 0 2.5 1.119 2.5 2.5s-1.12 2.5-2.501 2.5z"/><path d="m149.794 146.707h-13.477c-1.381 0-2.5-1.119-2.5-2.5s1.119-2.5 2.5-2.5h13.477c2.228 0 4.039-1.812 4.039-4.04v-22.872c0-1.381 1.119-2.5 2.5-2.5s2.5 1.119 2.5 2.5v22.872c0 4.985-4.055 9.04-9.039 9.04z"/><path d="m109.987 90.485c-.398 0-.803-.095-1.179-.297-1.217-.652-1.675-2.167-1.023-3.384l11.5-21.469c.653-1.217 2.166-1.677 3.385-1.023 1.217.652 1.675 2.167 1.023 3.384l-11.5 21.469c-.451.841-1.314 1.32-2.206 1.32z"/></g><g fill="#846f75"><path d="m230.936 29.244h-205.872c-4.245 0-7.699 3.454-7.699 7.699v148.991c0 4.245 3.454 7.699 7.699 7.699h205.871c4.245 0 7.699-3.454 7.699-7.699v-148.991c.001-4.245-3.453-7.699-7.698-7.699zm2.699 156.69c0 1.488-1.211 2.699-2.699 2.699h-205.872c-1.488 0-2.699-1.21-2.699-2.699v-148.991c0-1.488 1.211-2.699 2.699-2.699h205.871c1.488 0 2.699 1.21 2.699 2.699v148.991z"/><path d="m222.75 41.808h-189.5c-1.381 0-2.5 1.119-2.5 2.5v123.377c0 1.381 1.119 2.5 2.5 2.5h189.5c1.381 0 2.5-1.119 2.5-2.5v-123.377c0-1.381-1.119-2.5-2.5-2.5zm-2.5 123.378h-184.5v-118.378h184.5z"/><path d="m178.775 222.482h-11.8c-10.27-6.858-15.518-14.109-16.007-22.154-.083-1.378-1.279-2.419-2.646-2.344-1.379.084-2.428 1.269-2.344 2.647.487 8.01 4.627 15.206 12.606 21.85h-61.168c7.979-6.645 12.118-13.84 12.605-21.85.084-1.378-.965-2.563-2.344-2.647-1.401-.078-2.563.966-2.646 2.344-.489 8.044-5.736 15.296-16.007 22.154h-11.799c-5.611 0-10.176 4.565-10.176 10.176s4.564 10.175 10.176 10.175h101.551c5.611 0 10.176-4.565 10.176-10.176s-4.565-10.175-10.177-10.175zm0 15.351h-101.55c-2.854 0-5.176-2.322-5.176-5.176s2.322-5.175 5.176-5.175h101.551c2.854 0 5.176 2.322 5.176 5.176-.001 2.854-2.323 5.175-5.177 5.175z"/><path d="m76.385 135.149h9.718v9.058c0 7.479 6.085 13.564 13.564 13.564h56.666c7.479 0 13.564-6.085 13.564-13.564v-9.058h9.718c1.381 0 2.5-1.119 2.5-2.5v-12.218c0-1.381-1.119-2.5-2.5-2.5h-9.718v-12.422c0-1.381-1.119-2.5-2.5-2.5h-78.794c-1.381 0-2.5 1.119-2.5 2.5v12.422h-9.718c-1.381 0-2.5 1.119-2.5 2.5v12.218c0 1.381 1.119 2.5 2.5 2.5zm100.73-12.218v7.218h-7.218v-7.218zm-86.012-14.922h73.795v36.198c0 4.722-3.842 8.564-8.564 8.564h-56.667c-4.723 0-8.564-3.842-8.564-8.564zm-12.218 14.922h7.218v7.218h-7.218z"/><path d="m88.816 79.479 28.324 15.171c.376.202.78.297 1.179.297.892 0 1.755-.479 2.206-1.32l11.5-21.468c.313-.584.381-1.27.188-1.904-.191-.635-.628-1.167-1.212-1.48l-28.324-15.172c-1.219-.654-2.732-.194-3.385 1.023l-11.5 21.469c-.313.584-.381 1.27-.188 1.904.192.635.628 1.168 1.212 1.48zm13.705-20.288 23.917 12.811-9.14 17.061-23.917-12.811z"/></g><path d="m132.221 98.543c-.64 0-1.279-.244-1.768-.732l-3.596-3.596c-.977-.976-.977-2.559 0-3.536.977-.976 2.559-.976 3.535 0l3.596 3.596c.977.976.977 2.559 0 3.536-.488.488-1.128.732-1.767.732z" fill="#65c1d6"/><path d="m137.526 92.283c-.64 0-1.279-.244-1.768-.732-.977-.977-.977-2.56 0-3.536l3.596-3.596c.977-.977 2.559-.976 3.535 0 .977.977.977 2.56 0 3.536l-3.596 3.596c-.487.488-1.127.732-1.767.732z" fill="#65c1d6"/><path d="m120.788 146.171c-.396 0-.793-.094-1.157-.284-.825-.431-1.343-1.285-1.343-2.216v-28.34c0-.931.518-1.785 1.343-2.216.826-.431 1.822-.367 2.587.165l20.334 14.17c.671.468 1.07 1.233 1.07 2.051 0 .817-.399 1.583-1.07 2.051l-20.334 14.17c-.428.298-.928.449-1.43.449zm2.5-26.051v18.762l13.461-9.381z" fill="#65c1d6"/></g></svg>