<svg id="Layer_1" enable-background="new 0 0 256 256" height="512" viewBox="0 0 256 256" width="512" xmlns="http://www.w3.org/2000/svg"><g><g fill="#ebe7f2"><path d="m96.798 146.089c-1.381 0-2.5-1.119-2.5-2.5v-7.277c0-2.634-2.143-4.776-4.777-4.776s-4.777 2.143-4.777 4.776v7.277c0 1.381-1.119 2.5-2.5 2.5s-2.5-1.119-2.5-2.5v-7.277c0-5.391 4.386-9.776 9.777-9.776s9.777 4.386 9.777 9.776v7.277c0 1.381-1.119 2.5-2.5 2.5z"/><path d="m122.673 146.089c-1.381 0-2.5-1.119-2.5-2.5v-7.277c0-2.634-2.143-4.776-4.777-4.776s-4.777 2.143-4.777 4.776v7.277c0 1.381-1.119 2.5-2.5 2.5s-2.5-1.119-2.5-2.5v-7.277c0-5.391 4.386-9.776 9.777-9.776s9.777 4.386 9.777 9.776v7.277c0 1.381-1.119 2.5-2.5 2.5z"/><path d="m148.548 146.089c-1.381 0-2.5-1.119-2.5-2.5v-7.277c0-2.634-2.143-4.776-4.777-4.776s-4.777 2.143-4.777 4.776v7.277c0 1.381-1.119 2.5-2.5 2.5s-2.5-1.119-2.5-2.5v-7.277c0-5.391 4.386-9.776 9.777-9.776s9.777 4.386 9.777 9.776v7.277c0 1.381-1.119 2.5-2.5 2.5z"/><path d="m174.423 146.089c-1.381 0-2.5-1.119-2.5-2.5v-7.277c0-2.634-2.143-4.776-4.777-4.776s-4.777 2.143-4.777 4.776v7.277c0 1.381-1.119 2.5-2.5 2.5s-2.5-1.119-2.5-2.5v-7.277c0-5.391 4.386-9.776 9.777-9.776s9.777 4.386 9.777 9.776v7.277c0 1.381-1.119 2.5-2.5 2.5z"/><path d="m204.827 161.953h-152.987c-1.381 0-2.5-1.119-2.5-2.5s1.119-2.5 2.5-2.5h152.987c1.381 0 2.5 1.119 2.5 2.5s-1.119 2.5-2.5 2.5z"/><path d="m106.111 68.021c-1.381 0-2.5-1.119-2.5-2.5v-16.654c0-1.381 1.119-2.5 2.5-2.5s2.5 1.119 2.5 2.5v16.653c0 1.381-1.119 2.501-2.5 2.501z"/><path d="m150.557 68.021c-1.381 0-2.5-1.119-2.5-2.5v-16.654c0-1.381 1.119-2.5 2.5-2.5s2.5 1.119 2.5 2.5v16.653c0 1.381-1.12 2.501-2.5 2.501z"/><path d="m162.642 68.021c-1.381 0-2.5-1.119-2.5-2.5v-16.654c0-1.381 1.119-2.5 2.5-2.5s2.5 1.119 2.5 2.5v16.653c0 1.381-1.119 2.501-2.5 2.501z"/><path d="m174.728 68.021c-1.381 0-2.5-1.119-2.5-2.5v-16.654c0-1.381 1.119-2.5 2.5-2.5s2.5 1.119 2.5 2.5v16.653c0 1.381-1.12 2.501-2.5 2.501z"/></g><path d="m88.834 97.79c-5.414 0-10.362-2.795-13.18-7.286-1.441.436-2.93.655-4.447.655-8.582 0-15.563-6.981-15.563-15.563 0-8.174 6.334-14.896 14.352-15.516.274-.554.588-1.086.941-1.594-2.689-2.336-4.273-5.728-4.273-9.404 0-6.89 5.604-12.494 12.494-12.494.951 0 1.885.106 2.798.318 1.944-4.474 6.387-7.497 11.448-7.497 6.889 0 12.494 5.604 12.494 12.493 0 6.89-5.604 12.494-12.494 12.494-.953 0-1.889-.107-2.804-.32-.325.742-.721 1.451-1.182 2.117 2.692 2.336 4.277 5.729 4.277 9.408 0 .607-.044 1.21-.132 1.808 6.336 2.019 10.834 7.964 10.834 14.818 0 8.582-6.981 15.563-15.563 15.563zm-12.006-12.916c.297 0 .596.053.879.16.637.239 1.149.729 1.418 1.354 1.669 3.89 5.48 6.402 9.709 6.402 5.824 0 10.563-4.738 10.563-10.563 0-5.302-3.965-9.801-9.224-10.467-.767-.098-1.445-.544-1.838-1.209s-.457-1.475-.171-2.193c.353-.89.532-1.817.532-2.757 0-2.853-1.593-5.419-4.157-6.7-.749-.374-1.261-1.099-1.364-1.93s.218-1.659.853-2.204c1.307-1.121 2.194-2.667 2.497-4.354.139-.773.633-1.437 1.335-1.79.702-.354 1.529-.357 2.233-.009 1.048.519 2.163.781 3.311.781 4.132 0 7.494-3.362 7.494-7.494s-3.362-7.493-7.494-7.493c-3.628 0-6.726 2.591-7.367 6.16-.139.773-.633 1.437-1.334 1.791-.702.354-1.529.357-2.233.009-1.049-.519-2.164-.781-3.312-.781-4.132 0-7.494 3.362-7.494 7.494 0 2.853 1.593 5.419 4.157 6.7.749.374 1.261 1.099 1.364 1.93.103.832-.218 1.659-.854 2.204-1.062.911-1.846 2.088-2.266 3.402-.342 1.068-1.363 1.769-2.473 1.736l-.387-.021c-5.822 0-10.561 4.738-10.561 10.563s4.739 10.563 10.563 10.563c1.571 0 3.099-.35 4.542-1.04.34-.162.709-.244 1.079-.244z" fill="#ed9abc"/><path d="m58.144 42.856c-5.223 0-9.471-4.249-9.471-9.471 0-5.223 4.249-9.472 9.471-9.472s9.471 4.249 9.471 9.472c0 5.222-4.248 9.471-9.471 9.471zm0-13.942c-2.465 0-4.471 2.006-4.471 4.472 0 2.465 2.006 4.471 4.471 4.471s4.471-2.006 4.471-4.471c0-2.466-2.006-4.472-4.471-4.472z" fill="#ed9abc"/><g fill="#846f75"><path d="m204.827 83.376h-13.516v-46.652c0-1.381-1.119-2.5-2.5-2.5h-77.697c-1.381 0-2.5 1.119-2.5 2.5s1.119 2.5 2.5 2.5h75.197v44.152h-74.538c-1.381 0-2.5 1.119-2.5 2.5s1.119 2.5 2.5 2.5h90.554v80.769h-147.987v-83.269c0-1.381-1.119-2.5-2.5-2.5s-2.5 1.119-2.5 2.5v85.769c0 1.381 1.119 2.5 2.5 2.5h152.987c1.381 0 2.5-1.119 2.5-2.5v-85.769c0-1.381-1.119-2.5-2.5-2.5z"/><path d="m67.856 146.089h120.955c1.381 0 2.5-1.119 2.5-2.5v-49.152c0-1.381-1.119-2.5-2.5-2.5s-2.5 1.119-2.5 2.5v20.477h-8.893c.264-.761.414-1.574.414-2.423 0-4.094-3.33-7.424-7.423-7.424h-28.647c-4.094 0-7.424 3.33-7.424 7.424 0 .849.15 1.662.414 2.423h-12.837c.264-.761.414-1.574.414-2.423 0-4.094-3.33-7.424-7.424-7.424h-28.646c-4.094 0-7.424 3.33-7.424 7.424 0 .849.15 1.662.414 2.423h-8.893v-16.585c0-1.381-1.119-2.5-2.5-2.5s-2.5 1.119-2.5 2.5v45.26c0 1.381 1.119 2.5 2.5 2.5zm71.482-33.599c0-1.337 1.087-2.424 2.424-2.424h28.647c1.336 0 2.423 1.087 2.423 2.424 0 1.336-1.087 2.423-2.423 2.423h-28.647c-1.337 0-2.424-1.087-2.424-2.423zm-55.503 0c0-1.337 1.087-2.424 2.424-2.424h28.646c1.336 0 2.424 1.087 2.424 2.424 0 1.336-1.087 2.423-2.424 2.423h-28.646c-1.337 0-2.424-1.087-2.424-2.423zm102.476 7.423v21.176h-115.955v-21.176z"/><path d="m79.457 178.165c-1.381 0-2.5 1.119-2.5 2.5v46.421h-6.601v-46.421c0-1.381-1.119-2.5-2.5-2.5s-2.5 1.119-2.5 2.5v48.921c0 1.381 1.119 2.5 2.5 2.5h11.601c1.381 0 2.5-1.119 2.5-2.5v-48.921c0-1.381-1.12-2.5-2.5-2.5z"/><path d="m188.811 178.165c-1.381 0-2.5 1.119-2.5 2.5v46.421h-6.601v-46.421c0-1.381-1.119-2.5-2.5-2.5s-2.5 1.119-2.5 2.5v48.921c0 1.381 1.119 2.5 2.5 2.5h11.601c1.381 0 2.5-1.119 2.5-2.5v-48.921c0-1.381-1.119-2.5-2.5-2.5z"/></g></g></svg>