<svg id="Layer_1" enable-background="new 0 0 256 256" height="512" viewBox="0 0 256 256" width="512" xmlns="http://www.w3.org/2000/svg"><g><g fill="#ebe7f2"><path d="m160.728 102.534c-.64 0-1.279-.244-1.768-.732l-10.458-10.458c-4.232-4.231-9.858-6.562-15.843-6.562h-33.378c-5.984 0-11.61 2.33-15.842 6.562-5.176 5.177-12.059 8.027-19.378 8.027h-26.996c-1.381 0-2.5-1.119-2.5-2.5s1.119-2.5 2.5-2.5h26.996c5.984 0 11.61-2.331 15.843-6.563 5.176-5.176 12.058-8.026 19.377-8.026h33.378c7.319 0 14.201 2.851 19.378 8.026l10.458 10.458c.977.977.977 2.559 0 3.535-.488.489-1.128.733-1.767.733z"/><path d="m128 135.355c-6.459 0-12.531-2.516-17.099-7.083l-9.777-9.777c-3.622-3.623-8.438-5.618-13.563-5.618h-50.496c-1.381 0-2.5-1.119-2.5-2.5s1.119-2.5 2.5-2.5h50.496c6.459 0 12.531 2.516 17.098 7.083l9.777 9.777c3.623 3.623 8.44 5.618 13.563 5.618 1.381 0 2.5 1.119 2.5 2.5s-1.118 2.5-2.499 2.5z"/><path d="m81.547 162.182h-35.52c-1.381 0-2.5-1.119-2.5-2.5s1.119-2.5 2.5-2.5h35.52c6.059 0 11.756-2.359 16.041-6.644 5.229-5.229 12.181-8.108 19.575-8.108h.13c1.381 0 2.5 1.119 2.5 2.5s-1.119 2.5-2.5 2.5h-.13c-6.06 0-11.756 2.359-16.04 6.644-5.229 5.228-12.182 8.108-19.576 8.108z"/><path d="m97.811 137.201c-.641 0-1.28-.244-1.769-.733l-1.258-1.259c-5.605-5.604-13.059-8.691-20.985-8.691h-36.734c-1.381 0-2.5-1.119-2.5-2.5s1.119-2.5 2.5-2.5h36.733c9.262 0 17.971 3.607 24.521 10.157l1.259 1.26c.976.977.976 2.56-.002 3.535-.486.487-1.126.731-1.765.731z"/><path d="m60.44 147.43h-23.375c-1.381 0-2.5-1.119-2.5-2.5s1.119-2.5 2.5-2.5h23.375c5.867 0 11.779-1.311 17.098-3.791l6.134-2.859c1.254-.583 2.739-.041 3.322 1.209.584 1.252.042 2.739-1.209 3.322l-6.134 2.859c-5.975 2.787-12.619 4.26-19.211 4.26z"/><path d="m151.65 78.744c-.64 0-1.279-.244-1.768-.732-.977-.977-.977-2.559 0-3.535l8.582-8.582c5.251-5.253 12.235-8.146 19.664-8.146h40.806c1.381 0 2.5 1.119 2.5 2.5s-1.119 2.5-2.5 2.5h-40.806c-6.094 0-11.821 2.373-16.129 6.681l-8.582 8.582c-.487.488-1.127.732-1.767.732z"/><path d="m151.649 109.472c-.598 0-1.198-.214-1.677-.646-9.538-8.635-21.876-13.39-34.74-13.39h-2.792c-4.768 0-9.511.658-14.099 1.957l-8.324 2.356c-1.329.375-2.711-.396-3.086-1.725-.376-1.328.396-2.71 1.725-3.086l8.324-2.356c5.03-1.425 10.231-2.146 15.46-2.146h2.792c14.107 0 27.637 5.215 38.096 14.683 1.023.927 1.103 2.508.176 3.531-.493.544-1.173.822-1.855.822z"/><path d="m137.736 121.13h-7.974c-5.662 0-10.984-2.205-14.988-6.209l-8.27-8.27c-.977-.977-.977-2.559 0-3.535s2.559-.977 3.535 0l8.27 8.27c3.06 3.06 7.127 4.744 11.453 4.744h7.974c1.381 0 2.5 1.119 2.5 2.5s-1.119 2.5-2.5 2.5z"/><path d="m218.935 145.432h-22.539c-9.085 0-17.626-3.538-24.049-9.962l-4.165-4.165c-.977-.977-.977-2.559 0-3.535s2.559-.977 3.535 0l4.165 4.165c5.479 5.479 12.764 8.497 20.514 8.497h22.539c1.381 0 2.5 1.119 2.5 2.5s-1.12 2.5-2.5 2.5z"/><path d="m152.566 188.95c-.64 0-1.279-.244-1.768-.732-.977-.977-.977-2.559 0-3.535l14.441-14.441c6.639-6.638 15.463-10.293 24.849-10.293h28.846c1.381 0 2.5 1.119 2.5 2.5s-1.119 2.5-2.5 2.5h-28.846c-8.05 0-15.619 3.136-21.313 8.828l-14.441 14.441c-.488.488-1.128.732-1.768.732z"/><path d="m174.838 188.95c-.624 0-1.248-.231-1.732-.698-.995-.957-1.026-2.539-.069-3.534l6.464-6.723c3.297-3.429 7.914-5.395 12.67-5.395h26.765c1.381 0 2.5 1.119 2.5 2.5s-1.119 2.5-2.5 2.5h-26.766c-3.402 0-6.707 1.407-9.066 3.859l-6.464 6.723c-.491.511-1.146.768-1.802.768z"/><path d="m218.935 128.265h-18.291c-5.174 0-10.285-1.353-14.782-3.911l-6.24-3.551c-1.2-.683-1.619-2.209-.937-3.409.684-1.201 2.209-1.618 3.409-.937l6.24 3.551c3.745 2.131 8.001 3.257 12.31 3.257h18.291c1.381 0 2.5 1.119 2.5 2.5s-1.12 2.5-2.5 2.5z"/><path d="m166.111 89.845c-.64 0-1.279-.244-1.768-.732-.977-.977-.977-2.559 0-3.535l6.948-6.948c4.411-4.411 10.276-6.841 16.515-6.841h31.128c1.381 0 2.5 1.119 2.5 2.5s-1.119 2.5-2.5 2.5h-31.128c-4.903 0-9.513 1.909-12.979 5.376l-6.948 6.948c-.488.488-1.128.732-1.768.732z"/><path d="m37.209 83.311-.093-2.494h-.051l-1.767-1.769c.751-.751.751-.751 6.556-.756 2.854.001 6.629 0 10.347.004h.042c8.493 0 16.7-2.512 23.737-7.264l1.779-1.201c7.865-5.313 17.041-8.12 26.534-8.12h15.56c1.381 0 2.5 1.119 2.5 2.5s-1.119 2.5-2.5 2.5h-15.56c-8.492 0-16.7 2.512-23.736 7.265l-1.779 1.2c-7.865 5.313-17.042 8.12-26.535 8.12-.017 0-.031 0-.047 0-12.343-.012-14.689.004-14.987.015zm2.356-2.495h.01z"/><path d="m49.705 68.642h-12.64c-1.381 0-2.5-1.119-2.5-2.5s1.119-2.5 2.5-2.5h12.64c5.754 0 11.446-1.489 16.462-4.307l30.419-17.085c1.204-.676 2.728-.249 3.404.955s.248 2.729-.955 3.404l-30.419 17.085c-5.762 3.237-12.302 4.948-18.911 4.948z"/><path d="m89.337 212.65c-.64 0-1.279-.244-1.768-.732-.977-.977-.977-2.559 0-3.535l62.313-62.313c.977-.977 2.559-.977 3.535 0s.977 2.559 0 3.535l-62.313 62.313c-.488.488-1.127.732-1.767.732z"/></g><g fill="#65c1d6"><path d="m201.336 98.151-12.05-12.049c-.977-.977-2.559-.977-3.535 0l-41.728 41.728c-.977.977-.977 2.559 0 3.535s2.559.977 3.535 0l39.96-39.96 8.515 8.514-39.903 39.903c-.977.977-.977 2.559 0 3.535.488.488 1.128.732 1.768.732s1.279-.244 1.768-.732l41.671-41.671c.469-.469.732-1.104.732-1.768s-.264-1.298-.733-1.767z"/><path d="m141.369 134.02c-.938-.938-2.598-.938-3.535 0l-66.655 66.655c-.977.977-.977 2.559 0 3.535 6.563 6.564 15.183 9.845 23.806 9.845 8.62 0 17.243-3.282 23.806-9.845l44.616-44.617c.977-.977.977-2.559 0-3.535zm-26.114 66.655c-10.582 10.581-27.446 11.145-38.696 1.691l63.043-63.044 18.502 18.503z"/><path d="m187.202 103.772 1.91-1.911c.976-.977.976-2.56-.001-3.536-.977-.975-2.56-.976-3.536.001l-1.91 1.911c-.976.977-.976 2.56.001 3.536.488.487 1.128.731 1.768.731s1.28-.243 1.768-.732z"/></g><g fill="#846f75"><path d="m218.935 41.93h-181.87c-1.381 0-2.5 1.119-2.5 2.5v142.02c0 1.381 1.119 2.5 2.5 2.5h40.41c1.381 0 2.5-1.119 2.5-2.5s-1.119-2.5-2.5-2.5h-37.91v-137.02h176.869v137.02h-72.577c-1.381 0-2.5 1.119-2.5 2.5s1.119 2.5 2.5 2.5h75.077c1.381 0 2.5-1.119 2.5-2.5v-142.02c.001-1.381-1.119-2.5-2.499-2.5z"/><path d="m128 55.495c-5.87 0-10.646 4.776-10.646 10.646s4.776 10.647 10.646 10.647 10.646-4.776 10.646-10.646-4.776-10.647-10.646-10.647zm0 16.293c-3.113 0-5.646-2.533-5.646-5.646s2.533-5.646 5.646-5.646 5.646 2.533 5.646 5.646-2.533 5.646-5.646 5.646z"/></g></g></svg>